<?xml version="1.0" standalone="no"?>
<!DOCTYPE svg PUBLIC "-//W3C//DTD SVG 1.1//EN" "http://www.w3.org/Graphics/SVG/1.1/DTD/svg11.dtd" >
<svg xmlns="http://www.w3.org/2000/svg">
<metadata></metadata>
<defs>
<font id="regan_altultralight" horiz-adv-x="1558" >
<font-face units-per-em="2048" ascent="1536" descent="-512" />
<missing-glyph horiz-adv-x="614" />
<glyph unicode="&#xfb01;" horiz-adv-x="1030" d="M102 965v24h138v256q0 144 110 186q49 19 122 19q44 0 146 -13l-5 -24q-89 13 -143 13q-68 0 -110 -17q-96 -37 -96 -164v-256h510q103 0 103 -102v-887h-25v887q0 78 -78 78h-510v-965h-24v965h-138z" />
<glyph unicode="&#xfb02;" horiz-adv-x="1167" d="M102 965v24h138v256q0 60 18.5 101.5t52 63.5t72.5 31t89 9q52 0 146 -12h259v-1270q0 -139 137 -139v-25h-5q-77 2 -117 43.5t-40 120.5v1245h-234q-91 12 -151 12q-49 0 -82 -8q-121 -28 -121 -172v-256h301v-24h-301v-965h-24v965h-138z" />
<glyph horiz-adv-x="2048" />
<glyph horiz-adv-x="2048" />
<glyph unicode="&#xd;" horiz-adv-x="2048" />
<glyph unicode=" "  horiz-adv-x="614" />
<glyph unicode="&#x09;" horiz-adv-x="614" />
<glyph unicode="&#xa0;" horiz-adv-x="614" />
<glyph unicode="!" horiz-adv-x="362" d="M164 0v46h35v-46h-35zM168 386v1048h27v-1048h-27z" />
<glyph unicode="&#x22;" horiz-adv-x="387" d="M82 1191v243h35v-243h-35zM270 1191v243h35v-243h-35z" />
<glyph unicode="#" horiz-adv-x="1202" d="M51 509v26h291l82 386h-373v27h378l104 486h26l-103 -486h395l104 486h26l-103 -486h275v-27h-281l-82 -386h363v-26h-368l-109 -509h-26l108 509h-395l-108 -509h-27l108 509h-285zM368 535h396l82 386h-396z" />
<glyph unicode="$" horiz-adv-x="1128" d="M102 44l7 26q74 -19 122.5 -29t137 -20t186.5 -10q115 0 203 28.5t139.5 78.5t77.5 112t26 134q0 71 -22.5 122.5t-77 92t-123.5 70t-182 65.5l-134 42q-158 50 -251 145t-93 217q0 71 22 127t59 93.5t91 63t113 38t128 15.5v151h27v-150q180 5 433 -57l-7 -26 q-235 57 -397 57q-442 0 -442 -312q0 -114 86 -201t239 -135l134 -43q115 -36 186.5 -67.5t129 -75t82.5 -99.5t25 -133t-27.5 -143t-82 -120t-147 -85t-212.5 -32v-148h-27v148q-219 7 -429 60z" />
<glyph unicode="%" horiz-adv-x="1576" d="M82 1066q0 104 34 186t105 132t169 50q146 0 226.5 -104t80.5 -264t-80.5 -264.5t-226.5 -104.5t-227 104.5t-81 264.5zM109 1066q0 -150 73.5 -246t207.5 -96t207.5 96t73.5 246q0 153 -73 247t-208 94q-134 0 -207.5 -96t-73.5 -245zM284 -35l976 1503h31l-975 -1503 h-32zM879 368q0 160 81 264.5t227 104.5t227 -104.5t81 -264.5q0 -104 -34 -186t-105 -132t-169 -50t-169 50t-105 132t-34 186zM906 368q0 -149 73.5 -245t207.5 -96t207.5 96t73.5 245q0 153 -73 247.5t-208 94.5q-134 0 -207.5 -96t-73.5 -246z" />
<glyph unicode="&#x26;" horiz-adv-x="1394" d="M102 361q0 62 20 115.5t48.5 90t75 71t83 54t89.5 44.5l69 32l-75 76q-73 74 -102.5 142t-29.5 168q0 40 10 79t35.5 79t63.5 70.5t98.5 49.5t136.5 19t134 -20.5t91.5 -51.5t54.5 -73t28 -78t7 -73q0 -106 -79 -193t-261 -171l-67 -31l525 -535q150 179 211 503h27 q-69 -343 -219 -522l202 -206h-37l-183 186q-184 -202 -502 -202q-454 0 -454 377zM129 361q0 -84 22 -147t71 -110t132.5 -71t201.5 -24q308 0 484 196l-534 543l-77 -36q-52 -24 -87.5 -43t-79 -51t-70 -66t-45 -83.5t-18.5 -107.5zM306 1154q0 -95 27.5 -157t97.5 -134 l81 -83l76 35q177 81 250.5 161t73.5 179q0 36 -6 69t-25 71t-49.5 65.5t-84 45.5t-123.5 18q-88 0 -153 -25t-99.5 -66t-50 -86t-15.5 -93z" />
<glyph unicode="'" horiz-adv-x="198" d="M82 1191v243h35v-243h-35z" />
<glyph unicode="(" horiz-adv-x="548" d="M82 535q0 251 84 481q82 228 259 482l22 -14q-172 -249 -256 -477t-82 -459q-2 -232 82 -460q85 -231 256 -477l-22 -14q-179 257 -259 481q-84 228 -84 457z" />
<glyph unicode=")" horiz-adv-x="548" d="M102 -389q171 245 256 476q82 226 82 448q0 247 -82 471q-84 228 -256 477l22 15q176 -253 259 -483q86 -234 84 -468q2 -235 -84 -469q-82 -225 -259 -481z" />
<glyph unicode="*" horiz-adv-x="593" d="M61 1250l11 33l208 -68v219h35v-219l207 68l11 -33l-208 -68l129 -176l-29 -21l-128 177l-128 -177l-28 21l128 176z" />
<glyph unicode="+" horiz-adv-x="1054" d="M102 583v27h412v411h27v-411h411v-27h-411v-412h-27v412h-412z" />
<glyph unicode="," horiz-adv-x="198" d="M82 0v46h35v-43l-13 -34h-22l12 31h-12z" />
<glyph unicode="-" horiz-adv-x="714" d="M102 624v26h510v-26h-510z" />
<glyph unicode="." horiz-adv-x="198" d="M82 0v46h35v-46h-35z" />
<glyph unicode="/" horiz-adv-x="770" d="M51 0l639 1434h29l-639 -1434h-29z" />
<glyph unicode="0" horiz-adv-x="1323" d="M164 696q0 150 32 279t93 227t157 154t216 56t216 -56t157 -154t93 -227t32 -279t-32 -279t-93 -227t-157 -154t-216 -56t-216 56t-157 154t-93 227t-32 279zM190 696q0 -196 52.5 -350t161 -247t258.5 -93t258.5 93t161 247t52.5 350t-52.5 349.5t-161 246.5t-258.5 93 t-258.5 -93t-161 -246.5t-52.5 -349.5z" />
<glyph unicode="1" horiz-adv-x="546" d="M82 1351l254 45h26v-1396h-26v1369l-249 -44z" />
<glyph unicode="2" horiz-adv-x="1052" d="M113 0v27q347 223 550 484t203 491q0 104 -30.5 181t-84.5 120.5t-118.5 63.5t-141.5 20q-92 0 -187 -27t-171 -70l-13 23q77 45 177 72.5t196 27.5q79 0 147.5 -22t127 -68.5t92 -128.5t33.5 -192q0 -239 -209 -507q-194 -249 -523 -468h779v-27h-827z" />
<glyph unicode="3" horiz-adv-x="1122" d="M113 78l13 24q139 -96 367 -96q103 0 180.5 17t137 55t90.5 104.5t31 159.5q0 147 -118 245.5t-293 103.5h-196v27h196q162 5 264.5 103.5t102.5 257.5q0 78 -30.5 137.5t-85 96t-125 54.5t-154.5 18q-94 0 -171 -24.5t-159 -71.5l-14 23q174 100 344 100 q89 0 163.5 -19.5t133 -59t91.5 -104.5t33 -150q0 -142 -78.5 -241t-209.5 -132q147 -31 240 -130.5t93 -233.5q0 -101 -33.5 -173t-97.5 -112.5t-146 -58.5t-189 -18q-117 0 -216 27t-164 71z" />
<glyph unicode="4" horiz-adv-x="1073" d="M61 427v26l643 943l22 -15l-632 -928h632v277h26v-277h221v-26h-221v-427h-26v427h-665z" />
<glyph unicode="5" horiz-adv-x="1118" d="M113 83l12 24q109 -56 189 -79t185 -23q17 0 59 2q175 8 273 116.5t98 294.5q0 191 -94.5 300.5t-274.5 109.5h-375l30 568h678v-27h-653l-27 -514h347q192 0 294 -117.5t102 -319.5q0 -197 -105 -313t-291 -125q-40 -2 -57 -2q-110 0 -194.5 24t-195.5 81z" />
<glyph unicode="6" horiz-adv-x="1140" d="M164 694q0 150 32.5 279.5t94.5 227.5t158.5 154.5t216.5 56.5q156 0 303 -67l-11 -24q-136 64 -292 64q-150 0 -259.5 -93.5t-163 -248.5t-53.5 -351q63 112 174.5 179t244.5 67q129 0 225.5 -65t145.5 -172.5t49 -241.5q0 -201 -118 -340.5t-307 -139.5 q-90 0 -160 24.5t-117.5 73t-80 110t-50 146t-25 170t-7.5 191.5zM191 633q3 -115 15 -204.5t40.5 -171t73.5 -135t116.5 -85t165.5 -31.5q178 0 289.5 131t111.5 322q0 195 -107 324t-287 129q-141 0 -253 -76t-165 -203z" />
<glyph unicode="7" horiz-adv-x="923" d="M113 1369v27h739v-27q-188 -314 -312.5 -576t-181.5 -438.5t-90 -354.5h-28q51 276 180.5 595t400.5 774h-708z" />
<glyph unicode="8" horiz-adv-x="1257" d="M164 342q0 78 29 139.5t85.5 105.5t115 72.5t142.5 58.5l52 18q-77 26 -132 48q-127 50 -187.5 126.5t-60.5 191.5q0 85 33 146.5t92.5 96.5t133 51t163.5 16t163.5 -16t133 -51t92 -96.5t32.5 -146.5q0 -115 -60.5 -191.5t-187.5 -126.5q-55 -22 -132 -48l53 -18 q84 -30 142.5 -58.5t115 -72.5t85.5 -105.5t29 -139.5q0 -101 -33.5 -173t-97.5 -112.5t-146 -58.5t-189 -18t-189 18t-146 58.5t-97.5 112.5t-33.5 173zM190 342q0 -95 30.5 -161.5t90 -104t137 -54t182.5 -16.5t182.5 16.5t137 54t89.5 104t30 161.5q0 59 -19 107.5 t-49 83t-78.5 65.5t-95 51.5t-112.5 43.5l-85 29l-85 -29q-66 -23 -112.5 -43.5t-95.5 -51.5t-79 -65.5t-49 -83t-19 -107.5zM235 1102q0 -105 56 -176.5t175 -117.5q70 -27 164 -58q87 29 163 58q119 46 175 117.5t56 176.5q0 77 -30 133t-85 88t-124 47t-155 15 t-155.5 -15t-124.5 -47t-85 -88t-30 -133z" />
<glyph unicode="9" horiz-adv-x="1140" d="M113 932q0 201 118 340.5t307 139.5q90 0 160 -24.5t117.5 -73t80 -110t50 -146t25 -170t7.5 -191.5q0 -150 -32.5 -279t-94.5 -227.5t-158.5 -154.5t-216.5 -56q-159 0 -303 66l11 24q136 -64 292 -64q113 0 204 54t150 148t90 219.5t31 271.5q-63 -112 -174 -179 t-244 -67q-129 0 -225.5 65t-145.5 172.5t-49 241.5zM139 932q0 -195 107 -324t287 -129q141 0 253 76t165 203q-3 115 -15 204.5t-40.5 171t-73.5 135t-116.5 85t-165.5 31.5q-178 0 -289.5 -131t-111.5 -322z" />
<glyph unicode=":" horiz-adv-x="198" d="M82 0v46h35v-46h-35zM82 943v46h35v-46h-35z" />
<glyph unicode=";" horiz-adv-x="198" d="M82 0v46h35v-43l-13 -34h-22l12 31h-12zM82 943v46h35v-46h-35z" />
<glyph unicode="&#x3c;" horiz-adv-x="917" d="M61 645v30l754 403v-30l-725 -388l725 -388v-30z" />
<glyph unicode="=" horiz-adv-x="1054" d="M102 397v27h850v-27h-850zM102 772v27h850v-27h-850z" />
<glyph unicode="&#x3e;" horiz-adv-x="917" d="M102 242v30l726 388l-726 388v30l754 -403v-30z" />
<glyph unicode="?" horiz-adv-x="858" d="M61 1372q201 81 371 81q163 0 264.5 -84.5t101.5 -251.5q0 -121 -43 -197.5t-165 -146.5q-17 -10 -54 -30.5t-51.5 -29.5t-37.5 -24t-37 -28.5t-25 -28.5q-44 -58 -44 -185v-61h-27v61q0 135 50 201q10 14 25 28t26.5 23t35.5 24t35.5 22t45 25.5t45.5 25.5 q116 66 155 135t39 186q0 153 -93.5 231t-246.5 78q-166 0 -360 -79zM310 0v46h35v-46h-35z" />
<glyph unicode="@" horiz-adv-x="1777" d="M102 410q0 160 62.5 305.5t168 250.5t251 167.5t305.5 62.5q163 0 306 -48t249.5 -136t168.5 -220t62 -291q0 -236 -127.5 -363.5t-347.5 -143.5h-16l-29 74q-129 -94 -288 -94q-154 0 -234.5 107.5t-80.5 309.5q0 191 81 303.5t237 112.5q170 0 310 -115v-614l20 -57 q210 16 329.5 136t119.5 344q0 153 -59.5 280t-162.5 211.5t-241.5 131t-296.5 46.5q-206 0 -381 -102t-277 -277t-102 -381q0 -188 86 -352t235 -269.5t331 -130.5q47 -8 108 -8v-27q-63 0 -111 8q-189 26 -343.5 135.5t-243.5 279t-89 364.5zM578 391q0 -192 73.5 -291 t217.5 -99q161 0 285 100v578q-132 102 -284 102q-145 0 -218.5 -104t-73.5 -286z" />
<glyph unicode="A" horiz-adv-x="1210" d="M41 0l550 1434h29l550 -1434h-29l-168 438h-735l-169 -438h-28zM248 465h715l-358 931z" />
<glyph unicode="B" horiz-adv-x="1290" d="M225 0v1434h557q150 0 251 -99.5t101 -262.5q0 -135 -63 -223t-169 -120q123 -27 200.5 -123t77.5 -237q0 -177 -103.5 -273t-262.5 -96h-589zM252 27h562q148 0 243.5 89t95.5 253q0 155 -97 249t-242 94h-562v-685zM252 739h530q142 0 234 86.5t92 246.5 q0 151 -93.5 243t-232.5 92h-530v-668z" />
<glyph unicode="C" horiz-adv-x="1294" d="M164 716q0 123 24.5 233t75 202t123 159t173 104.5t219.5 37.5q124 0 248 -19q145 -22 145 -178v-14h-27v14q0 133 -122 152q-123 19 -244 19q-142 0 -255 -55t-185.5 -152t-110.5 -225t-38 -278t38 -278t110.5 -225t185.5 -152t255 -55q198 0 386 48l7 -26 q-190 -48 -393 -48q-119 0 -219.5 37.5t-173 104.5t-123 159t-75 202t-24.5 233z" />
<glyph unicode="D" horiz-adv-x="1409" d="M225 0v1434h407q149 0 267 -54.5t193.5 -151t115 -226.5t39.5 -284t-39.5 -284t-115 -227.5t-193.5 -152t-267 -54.5h-407zM252 27h380q142 0 255 52t185.5 145.5t110.5 219t38 274.5t-38 274.5t-110 218t-185 144.5t-256 52h-380v-1380z" />
<glyph unicode="E" horiz-adv-x="1161" d="M225 0v1434h824v-27h-797v-645h692v-27h-692v-708h797v-27h-824z" />
<glyph unicode="F" horiz-adv-x="1134" d="M225 0v1434h797v-27h-770v-690h665v-26h-665v-691h-27z" />
<glyph unicode="G" horiz-adv-x="1394" d="M164 716q0 123 24.5 233t75 202t123 159t173 104.5t219.5 37.5q200 0 411 -54l-7 -26q-209 54 -404 54q-142 0 -255 -55t-185.5 -152t-110.5 -225t-38 -278t38 -278t110.5 -225t185.5 -152t255 -55q105 0 205.5 37t179.5 93v512h-373v27h399v-553q-81 -60 -189.5 -101 t-221.5 -41q-119 0 -219.5 37.5t-173 104.5t-123 159t-75 202t-24.5 233z" />
<glyph unicode="H" horiz-adv-x="1400" d="M225 0v1434h27v-676h898v676h26v-1434h-26v732h-898v-732h-27z" />
<glyph unicode="I" horiz-adv-x="477" d="M225 0v1434h27v-1434h-27z" />
<glyph unicode="J" horiz-adv-x="684" d="M82 -11l5 25q66 -13 126 -13q96 0 150 41q70 53 70 181v1211h27v-1210q0 -142 -80 -203q-60 -46 -168 -46q-48 0 -130 14z" />
<glyph unicode="K" horiz-adv-x="1359" d="M225 0v1434h27v-693h295l506 693h34l-517 -706l268 -489q69 -121 145.5 -175.5t173.5 -54.5q69 0 154 30l9 -25q-89 -31 -166 -31q-102 0 -185.5 59.5t-153.5 183.5l-269 491h-294v-717h-27z" />
<glyph unicode="L" horiz-adv-x="1013" d="M225 0v1434h27v-1407h721v-27h-748z" />
<glyph unicode="M" horiz-adv-x="1738" d="M215 0v1434h27l623 -1402l624 1402h26v-1434h-26v1368l-609 -1368h-29l-609 1368v-1368h-27z" />
<glyph unicode="N" horiz-adv-x="1421" d="M215 0v1434h27l940 -1387v1387h26v-1434h-26l-940 1386v-1386h-27z" />
<glyph unicode="O" d="M164 718q0 123 24.5 233t75.5 202.5t123 159.5t173 104.5t220 37.5t219.5 -37.5t173 -104.5t123 -159.5t75 -202.5t24.5 -233t-24.5 -233t-75 -202t-123 -159t-173 -104.5t-219.5 -37.5t-220 37.5t-173 104.5t-123 159t-75.5 202t-24.5 233zM191 718q0 -150 38 -278 t110.5 -224.5t185.5 -151.5t255 -55t255 55t185.5 151.5t110.5 224.5t38 278t-38 278t-110.5 225t-185.5 152t-255 55t-255 -55t-185.5 -152t-110.5 -225t-38 -278z" />
<glyph unicode="P" horiz-adv-x="1263" d="M225 0v1434h530q164 0 275 -109t111 -288q0 -189 -109 -291.5t-277 -102.5h-503v-643h-27zM252 669h503q157 0 258.5 95.5t101.5 272.5q0 167 -103.5 268.5t-256.5 101.5h-503v-738z" />
<glyph unicode="Q" d="M164 718q0 123 24.5 233t75.5 202.5t123 159.5t173 104.5t220 37.5t219.5 -37.5t173 -104.5t123 -159.5t75 -202.5t24.5 -233q0 -182 -52.5 -331.5t-161.5 -254t-263 -136.5l77 -68q44 -38 85.5 -53.5t99.5 -15.5h215v-27h-215q-114 0 -203 76l-92 82q-44 -8 -105 -8 q-119 0 -220 37.5t-173 104.5t-123 159t-75.5 202t-24.5 233zM191 718q0 -150 38 -278t110.5 -224.5t185.5 -151.5t255 -55t255 55t185.5 151.5t110.5 224.5t38 278t-38 278t-110.5 225t-185.5 152t-255 55t-255 -55t-185.5 -152t-110.5 -225t-38 -278z" />
<glyph unicode="R" horiz-adv-x="1394" d="M225 0v1434h569q153 0 256.5 -102t103.5 -269q0 -177 -101 -272t-259 -95h-137l305 -474q115 -171 249 -201q29 -7 61 -7q18 0 58 6l4 -26q-32 -6 -61 -6q-33 0 -68 8q-145 31 -265 211l-315 489h-373v-696h-27zM252 722h542q147 0 240 88.5t93 252.5q0 155 -95.5 249.5 t-237.5 94.5h-542v-685z" />
<glyph unicode="S" horiz-adv-x="1128" d="M102 44l7 26q74 -19 122.5 -29t137 -20t186.5 -10q115 0 203 28.5t139.5 78.5t77.5 112t26 134q0 71 -22.5 122.5t-77 92t-123.5 70t-182 65.5l-134 42q-158 50 -251 145t-93 217q0 76 25.5 135.5t68.5 97t104.5 61.5t127.5 34t143 10q169 0 404 -57l-7 -26 q-235 57 -397 57q-442 0 -442 -312q0 -114 86 -201t239 -135l134 -43q115 -36 186.5 -67.5t129 -75t82.5 -99.5t25 -133q0 -78 -28.5 -145.5t-84.5 -121.5q-58 -54 -154 -84q-93 -29 -213 -29h-8q-226 7 -437 60z" />
<glyph unicode="T" horiz-adv-x="1009" d="M41 1407v27h928v-27h-451v-1407h-26v1407h-451z" />
<glyph unicode="U" horiz-adv-x="1423" d="M225 469v965h27v-965q0 -245 108 -353t352 -108t352.5 108t108.5 353v965h27v-965q0 -256 -116 -371.5t-372 -115.5t-371.5 115.5t-115.5 371.5z" />
<glyph unicode="V" horiz-adv-x="1153" d="M41 1434h28l508 -1395l508 1395h28l-522 -1434h-28z" />
<glyph unicode="W" horiz-adv-x="1697" d="M41 1434h28l396 -1384l371 1384h27l370 -1384l397 1384h28l-411 -1434h-28l-370 1382l-369 -1382h-28z" />
<glyph unicode="X" horiz-adv-x="1118" d="M61 0l502 741l-469 693h32l454 -669l453 669h32l-469 -693l502 -741h-33l-485 717l-486 -717h-33z" />
<glyph unicode="Y" horiz-adv-x="1173" d="M41 1434h31l516 -891l515 891h31l-533 -921v-513h-26v512z" />
<glyph unicode="Z" horiz-adv-x="1181" d="M113 0v27l863 1380h-807v27h838v-27l-863 -1380h926v-27h-957z" />
<glyph unicode="[" horiz-adv-x="346" d="M102 -432v1927h162v-26h-135v-1875h135v-26h-162z" />
<glyph unicode="\" horiz-adv-x="770" d="M51 1434h30l638 -1434h-29z" />
<glyph unicode="]" horiz-adv-x="346" d="M82 -406h135v1875h-135v26h162v-1927h-162v26z" />
<glyph unicode="^" horiz-adv-x="980" d="M72 674l404 760h30l404 -760h-30l-389 731l-389 -731h-30z" />
<glyph unicode="_" horiz-adv-x="1267" d="M82 -223h1104v-27h-1104v27z" />
<glyph unicode="`" horiz-adv-x="438" d="M74 1536h29l280 -341h-30z" />
<glyph unicode="a" horiz-adv-x="1138" d="M123 494q0 238 99.5 377.5t293.5 139.5q193 0 360 -124v102h24v-886l11 -29q10 -28 25.5 -38.5t44.5 -10.5h57v-25h-57q-70 0 -93 66l-12 32q-161 -120 -364 -120q-191 0 -290 133t-99 383zM147 494q0 -241 93 -366t274 -125q205 0 362 126v727q-165 130 -360 130 q-182 0 -275.5 -132t-93.5 -360z" />
<glyph unicode="b" horiz-adv-x="1107" d="M72 1409v25h59q103 0 103 -103v-444q167 124 360 124q194 0 293 -139.5t99 -377.5q0 -251 -98.5 -383.5t-289.5 -132.5q-118 0 -207.5 34.5t-181.5 102.5v1216q0 78 -78 78h-59zM234 129q157 -126 362 -126q181 0 273.5 125t92.5 366q0 228 -93.5 360t-275.5 132 q-194 0 -359 -130v-727z" />
<glyph unicode="c" horiz-adv-x="997" d="M123 494q0 145 47 259.5t146.5 185t236.5 70.5q95 0 191 -16q141 -25 141 -180v-16h-25v16q0 135 -121 156q-96 16 -186 16q-129 0 -222.5 -66.5t-138.5 -176t-45 -248.5t45 -248.5t138.5 -175.5t222.5 -66q159 0 325 49l7 -24q-168 -49 -332 -49q-104 0 -186.5 40 t-135.5 110.5t-80.5 163t-27.5 200.5z" />
<glyph unicode="d" horiz-adv-x="1118" d="M123 494q0 238 99.5 377.5t293.5 139.5q193 0 360 -124v444q0 103 102 103h60v-25h-60q-78 0 -78 -78v-1228l11 -29q10 -28 25.5 -38.5t44.5 -10.5h57v-25h-57q-70 0 -93 66l-12 32q-161 -120 -364 -120q-191 0 -290 133t-99 383zM147 494q0 -241 93 -366t274 -125 q205 0 362 126v727q-165 130 -360 130q-182 0 -275.5 -132t-93.5 -360z" />
<glyph unicode="e" horiz-adv-x="997" d="M123 494q0 145 47 259.5t146.5 185t236.5 70.5q61 0 110.5 -11t82 -28.5t56.5 -42t37 -48t20 -49.5q10 -38 10 -68q0 -71 -39 -133.5t-114 -103.5q-47 -26 -113 -47t-114 -32t-131 -21.5t-106 -12.5t-99 -9q22 -179 125.5 -289t274.5 -110q151 0 325 49l7 -24 q-168 -49 -332 -49q-104 0 -186.5 40t-135.5 110.5t-80.5 163t-27.5 200.5zM147 494q0 -33 3 -66q7 1 23 2q104 9 172 17t178.5 34.5t180.5 65.5q69 38 104.5 95t35.5 121q0 29 -8 61q-8 30 -26 56t-49.5 51t-85 39.5t-122.5 14.5q-129 0 -222.5 -66.5t-138.5 -176 t-45 -248.5z" />
<glyph unicode="f" horiz-adv-x="677" d="M102 965v24h138v256q0 144 110 186q49 19 122 19q44 0 146 -13l-5 -24q-89 13 -143 13q-68 0 -110 -17q-96 -37 -96 -164v-256h301v-24h-301v-965h-24v965h-138z" />
<glyph unicode="g" horiz-adv-x="1073" d="M123 482q0 253 98.5 387t290.5 134q118 0 207 -34.5t181 -102.5v-958q0 -243 -244 -285q-56 -9 -114 -9q-34 0 -70 2.5t-73 7.5t-61 8.5t-59.5 10t-44.5 7.5l4 24q9 -1 45 -7.5t59 -10t59.5 -8t71 -7t67.5 -2.5q58 0 111 9q223 36 223 260v215q-167 -124 -361 -124 q-97 0 -172 36.5t-122.5 102t-71.5 152.5t-24 192zM147 482q0 -206 94 -332t274 -126q194 0 359 130v698q-154 127 -360 127q-182 0 -274.5 -126.5t-92.5 -370.5z" />
<glyph unicode="h" horiz-adv-x="1163" d="M195 0v1434h24v-604q79 70 194 126.5t246 56.5q73 0 126.5 -19t85 -49.5t51 -78t26 -94.5t7.5 -109v-499q0 -139 137 -139v-25h-3q-77 1 -118 43t-41 121v499q-1 61 -7 105t-23 88t-46 71t-78 44t-116 17q-72 0 -144 -20t-129.5 -52.5t-97 -61t-70.5 -57.5v-797h-24z" />
<glyph unicode="i" horiz-adv-x="448" d="M92 965v24h60q102 0 102 -102v-887h-25v887q0 78 -77 78h-60zM229 1207v162h25v-162h-25z" />
<glyph unicode="j" horiz-adv-x="468" d="M-102 -379l4 25q89 -13 143 -13q96 0 151 40t55 141v1175h25v-1175q0 -205 -234 -205q-52 0 -144 12zM251 1207v162h25v-162h-25z" />
<glyph unicode="k" horiz-adv-x="1040" d="M184 0v1434h25v-846h281q158 0 260 96t102 273l-2 34h25l1 -34q0 -189 -109 -291.5t-277 -102.5h-5l474 -563h-32l-474 563h-244v-563h-25z" />
<glyph unicode="l" horiz-adv-x="489" d="M174 164v1270h25v-1270q0 -139 137 -139v-25h-5q-77 2 -117 43.5t-40 120.5z" />
<glyph unicode="m" horiz-adv-x="1777" d="M72 965v24h59q102 0 102 -102v-55q34 31 50.5 45.5t59.5 45.5t77.5 47t87 29.5t106.5 13.5q228 0 279 -190q4 3 12 11q41 38 69 60t78.5 54.5t108.5 48.5t123 16q73 0 126.5 -19t85.5 -50t51.5 -78t26 -94.5t6.5 -108.5v-499q0 -136 131 -139h6v-25h-6q-76 1 -116 43 t-40 121v499q0 62 -6 108t-24.5 90t-50.5 71q-31 26 -84 42q-47 14 -109 14h-16q-37 -1 -71.5 -7.5t-68 -22t-54.5 -25.5t-53.5 -35.5t-42 -33t-42.5 -37.5t-34 -31q11 -56 11 -133v-663h-25v663q0 62 -6 108t-24.5 90t-50.5 71q-31 26 -84 42q-47 14 -109 14h-16 q-32 -1 -64 -7.5t-56 -14t-53 -23.5t-45 -25t-43 -31t-36 -29.5t-35.5 -31.5t-29.5 -27v-799h-24v887q0 78 -78 78h-59z" />
<glyph unicode="n" horiz-adv-x="1167" d="M72 965v24h59q102 0 102 -102v-57q79 70 194 126.5t246 56.5q73 0 126.5 -19t85 -49.5t51 -78t26 -94.5t7.5 -109v-499q0 -137 134 -139h3v-25h-4q-77 1 -117.5 43t-40.5 121v499q-1 61 -7 105t-23 88t-46 71t-78 44t-116 17q-72 0 -144 -20t-129.5 -52.5t-97 -61 t-70.5 -57.5v-797h-24v887q0 78 -78 78h-59z" />
<glyph unicode="o" horiz-adv-x="1105" d="M123 494q0 145 47 259.5t146.5 185t236.5 70.5q104 0 187 -40.5t135.5 -111t80.5 -163t28 -200.5q0 -145 -47.5 -259.5t-146.5 -184.5t-237 -70q-104 0 -186.5 40t-135.5 110.5t-80.5 163t-27.5 200.5zM147 494q0 -139 45 -248.5t138.5 -175.5t222.5 -66t222.5 66 t138.5 175.5t45 248.5t-45 248.5t-138.5 176t-222.5 66.5t-222.5 -66.5t-138.5 -176t-45 -248.5z" />
<glyph unicode="p" horiz-adv-x="1128" d="M92 965v24h57q70 0 93 -65l12 -33q161 120 365 120q191 0 289.5 -130t98.5 -380q0 -235 -98 -367.5t-292 -132.5q-197 0 -363 124v-494h-25v1256l-10 28q-10 28 -25.5 39t-44.5 11h-57zM254 156q165 -130 362 -130q182 0 274 125t92 350q0 240 -92 363t-273 123 q-205 0 -363 -127v-704z" />
<glyph unicode="q" horiz-adv-x="1083" d="M123 501q0 250 98.5 380t289.5 130q216 0 389 -138v-1242h-24v493q-165 -123 -364 -123q-194 0 -291.5 132.5t-97.5 367.5zM147 501q0 -225 92.5 -350t274.5 -125q199 0 362 129v705q-158 127 -364 127q-181 0 -273 -123t-92 -363z" />
<glyph unicode="r" horiz-adv-x="743" d="M72 965v24h18q70 0 106.5 -36.5t36.5 -106.5v-60q93 161 295 210q63 15 154 17l1 -25q-99 -1 -151 -15q-102 -26 -179.5 -90t-119.5 -153v-730h-24v846q0 119 -119 119h-18z" />
<glyph unicode="s" horiz-adv-x="966" d="M102 18l5 24q70 -15 110 -22t112 -13.5t159 -6.5q151 0 231 69.5t80 175.5q0 98 -69 156t-213 91l-146 33q-125 31 -184.5 90t-59.5 152q0 247 350 247q116 0 345 -42l-4 -24q-227 41 -341 41q-326 0 -326 -222q0 -82 55 -136t171 -82l146 -33q149 -34 224.5 -99 t75.5 -172q0 -55 -19.5 -102t-58.5 -85.5t-105 -60.5t-152 -22q-211 0 -386 43z" />
<glyph unicode="t" horiz-adv-x="727" d="M82 965v24h137v276h25v-276h336v-24h-336v-779q0 -122 89 -160q46 -19 119 -19q56 0 128 10l5 -25q-84 -10 -131 -10q-78 0 -127 20q-108 42 -108 184v779h-137z" />
<glyph unicode="u" horiz-adv-x="1142" d="M174 326v663h25v-663q1 -61 7 -105t23.5 -88t46.5 -71t78 -44t117 -17q72 0 143.5 20t128.5 52.5t96.5 61t70.5 57.5v797h24v-825q0 -139 137 -139v-25h-5q-75 1 -114.5 41.5t-41.5 116.5q-81 -68 -199.5 -124.5t-243.5 -56.5q-72 0 -125 19t-85 49.5t-51 77.5 t-25.5 94.5t-6.5 108.5z" />
<glyph unicode="v" horiz-adv-x="1155" d="M72 965v24h7q71 -2 109 -44t38 -120v-434q1 -70 21 -134t59 -118.5t104.5 -91t150.5 -46.5q22 -3 64 -3q80 0 143.5 25.5t106 69.5t71 106t41 133t12.5 152q0 248 -103 505l23 9q104 -258 104 -514q0 -105 -22.5 -194.5t-68.5 -161.5t-124.5 -113.5t-182.5 -41.5 q-36 0 -67 4q-89 10 -159 49.5t-112 98t-63.5 126t-22.5 140.5v434q0 140 -129 140z" />
<glyph unicode="w" horiz-adv-x="1890" d="M72 965v24h8q71 -2 108.5 -44t37.5 -120v-434q1 -94 33 -170.5t83.5 -123.5t115.5 -72t133 -25q72 0 138 27t119.5 78.5t85.5 134.5t32 186v563h25v-598q1 -96 31 -172.5t78.5 -124.5t109.5 -73t128 -25q70 0 136.5 27.5t122 79.5t92 136t42.5 187q2 38 2 58 q0 248 -103 505l23 9q104 -258 104 -514q0 -41 -1 -60q-7 -107 -46 -195t-98 -143.5t-130 -85t-144 -29.5q-128 0 -230.5 85.5t-131.5 237.5q-36 -151 -145 -235t-239 -84q-73 0 -141 27t-124 77.5t-90.5 131.5t-35.5 180v434q0 140 -129 140z" />
<glyph unicode="x" horiz-adv-x="892" d="M31 0l400 515l-369 474h32l353 -454l353 454h32l-369 -474l400 -515h-31l-385 495l-385 -495h-31z" />
<glyph unicode="y" horiz-adv-x="935" d="M61 989h27l381 -958l380 958h26l-433 -1095q-19 -50 -37.5 -87.5t-46.5 -78.5t-65.5 -68.5t-82.5 -40.5q-24 -7 -54 -7q-45 0 -94 13l6 25q51 -14 87 -14q25 0 49 8q34 9 63 28.5t50 43t41 57t33 63t28 68.5l38 96h-2z" />
<glyph unicode="z" horiz-adv-x="1017" d="M92 0v25l731 940h-695v24h726v-24l-731 -940h752v-25h-783z" />
<glyph unicode="{" horiz-adv-x="610" d="M82 521v22l9 3q66 21 98 64.5t32 127.5v555q0 143 108 185q49 20 124 20q18 0 56 -2l-2 -27q-30 3 -58 3q-71 0 -114 -19q-87 -38 -87 -160v-555q0 -152 -116 -206q116 -54 116 -206v-555q0 -94 52 -138q49 -41 151 -41q18 0 56 2l2 -26q-34 -2 -52 -2q-118 0 -175 47 q-61 51 -61 158v555q0 156 -131 193z" />
<glyph unicode="|" horiz-adv-x="231" d="M102 -244v1780h27v-1780h-27z" />
<glyph unicode="}" horiz-adv-x="610" d="M102 -432l2 26q38 -2 57 -2q102 0 151 41q52 44 52 138v555q0 152 116 206q-116 54 -116 206v555q0 122 -87 160q-43 19 -114 19q-29 0 -59 -3l-2 27q38 2 56 2q75 0 124 -20q108 -42 108 -185v-555q0 -83 32 -127t99 -65l9 -3v-22l-9 -2q-131 -37 -131 -193v-555 q0 -107 -61 -158q-57 -47 -174 -47q-19 0 -53 2z" />
<glyph unicode="~" horiz-adv-x="1118" d="M82 491q43 100 120.5 159.5t169.5 59.5q74 0 136 -37l232 -140q71 -43 116 -43q58 0 101.5 46.5t55.5 122.5l25 -10q-14 -81 -65.5 -133.5t-116.5 -52.5q-52 0 -130 47l-232 140q-55 33 -122 33q-83 0 -154.5 -55t-111.5 -148z" />
<glyph unicode="&#xa1;" horiz-adv-x="362" d="M164 1019v46h35v-46h-35zM168 -369v1048h27v-1048h-27z" />
<glyph unicode="&#xa2;" horiz-adv-x="997" d="M123 494q0 143 46 257t142.5 184.5t230.5 73.5v150h24v-150q160 -2 319 -50l-7 -23q-168 49 -325 49q-129 0 -222.5 -66.5t-138.5 -176t-45 -248.5t45 -248.5t138.5 -175.5t222.5 -66q157 0 325 49l7 -24q-156 -47 -319 -49v-150h-24v150q-134 3 -230.5 73.5t-142.5 184 t-46 256.5z" />
<glyph unicode="&#xa3;" horiz-adv-x="1290" d="M143 0v27h50q115 0 163.5 61.5t48.5 183.5v463h-205v27h205v56q0 64 1.5 113.5t7 106t14.5 99.5t25 88t37.5 77.5t53 62t70.5 48t90.5 29t113.5 10.5q101 0 198.5 -32.5t160.5 -70.5l-13 -23q-62 38 -155 68.5t-191 30.5q-74 0 -132.5 -16t-98.5 -43t-69 -72t-45.5 -91.5 t-25.5 -114t-12 -127.5t-3 -143v-56h576v-27h-576v-463q0 -186 -112 -245h858v-27h-1035z" />
<glyph unicode="&#xa5;" horiz-adv-x="1435" d="M171 1434h32l516 -891l515 891h32l-432 -746h348v-26h-364l-86 -149v-116h450v-27h-450v-370h-26v370h-451v27h451v115l-87 150h-364v26h349z" />
<glyph unicode="&#xa6;" horiz-adv-x="231" d="M102 -244v740h27v-740h-27zM102 797v739h27v-739h-27z" />
<glyph unicode="&#xa7;" horiz-adv-x="909" d="M102 -117l5 23q74 -14 108 -19.5t104 -11.5t154 -6q151 0 231 70t80 175q0 98 -68.5 155.5t-212.5 90.5l-146 35q-125 31 -185 90t-60 152q0 174 174 225q-174 64 -174 221q0 246 350 246q121 0 345 -41l-4 -24q-214 41 -341 41q-326 0 -326 -222q0 -82 55 -136t171 -82 l146 -34q149 -34 224.5 -98.5t75.5 -171.5q0 -74 -35 -135t-106 -96q141 -73 141 -215q0 -117 -83.5 -194t-251.5 -77q-208 0 -371 39zM136 637q0 -83 55 -137t171 -82l146 -33q78 -18 129 -40q72 31 109.5 88t37.5 128q0 99 -68.5 156.5t-212.5 90.5l-146 33l-25 6 q-196 -40 -196 -210z" />
<glyph unicode="&#xa8;" horiz-adv-x="536" d="M61 1399v35h35v-35h-35zM442 1399v35h34v-35h-34z" />
<glyph unicode="&#xa9;" horiz-adv-x="1679" d="M102 718q0 150 58.5 286.5t157.5 235t235.5 157t286.5 58.5t286.5 -58.5t235 -157t157 -235t58.5 -286.5t-58.5 -286.5t-157 -235.5t-235 -157.5t-286.5 -58.5q-200 0 -370 99t-269 269t-99 370zM129 718q0 -193 95.5 -356.5t259 -259t356.5 -95.5t356.5 95.5t259 259 t95.5 356.5t-95.5 356.5t-259 258.5t-356.5 95t-356.5 -95t-259 -258.5t-95.5 -356.5zM525 716q0 161 82.5 267.5t231.5 106.5q102 0 202 -26l-7 -24q-108 25 -195 25q-138 0 -213 -97.5t-75 -251.5t75 -251.5t213 -97.5q93 0 195 25l7 -25q-96 -25 -202 -25 q-149 0 -231.5 106.5t-82.5 267.5z" />
<glyph unicode="&#xaa;" horiz-adv-x="673" d="M102 1179q0 120 52 192t151 72q91 0 174 -56v45h24v-448l5 -13q4 -13 10 -17t20 -4h34v-25h-34q-39 0 -53 37l-3 9q-81 -57 -179 -57t-149.5 69t-51.5 196zM127 1179q0 -240 177 -240q99 0 175 60v358q-80 61 -174 61q-88 0 -133 -63.5t-45 -175.5z" />
<glyph unicode="&#xab;" horiz-adv-x="741" d="M90 452l150 484h28l-150 -483l150 -453h-28zM467 452l150 484h28l-150 -483l150 -453h-28z" />
<glyph unicode="&#xac;" horiz-adv-x="1228" />
<glyph unicode="&#xad;" horiz-adv-x="714" d="M102 624v26h510v-26h-510z" />
<glyph unicode="&#xae;" horiz-adv-x="1679" d="M102 718q0 150 58.5 286.5t157.5 235t235.5 157t286.5 58.5t286.5 -58.5t235 -157t157 -235t58.5 -286.5t-58.5 -286.5t-157 -235.5t-235 -157.5t-286.5 -58.5q-200 0 -370 99t-269 269t-99 370zM129 718q0 -193 95.5 -356.5t259 -259t356.5 -95.5t356.5 95.5t259 259 t95.5 356.5t-95.5 356.5t-259 258.5t-356.5 95t-356.5 -95t-259 -258.5t-95.5 -356.5zM610 352v729h290q79 0 132.5 -52.5t53.5 -138.5q0 -90 -53 -140t-133 -50h-17l226 -348h-31l-226 348h-217v-348h-25zM635 726h265q72 0 116.5 42t44.5 122q0 75 -46 120.5t-115 45.5 h-265v-330z" />
<glyph unicode="&#xaf;" horiz-adv-x="669" d="M57 1407v27h555v-27h-555z" />
<glyph unicode="&#xb0;" horiz-adv-x="544" d="M102 1322q0 70 50 120t120 50t120 -50t50 -120t-50 -120t-120 -50t-120 50t-50 120zM129 1322q0 -59 42 -101t101 -42t101.5 42t42.5 101t-42.5 101t-101.5 42t-101 -42t-42 -101z" />
<glyph unicode="&#xb1;" horiz-adv-x="1054" d="M102 0v27h850v-27h-850zM102 735v27h412v412h27v-412h411v-27h-411v-411h-27v411h-412z" />
<glyph unicode="&#xb2;" horiz-adv-x="630" d="M102 716v23q174 111 277 242q100 129 100 242q0 98 -50 142t-131 44q-87 0 -180 -48l-12 21q88 53 193 53q86 0 146 -52t60 -160q0 -122 -106 -258q-93 -119 -246 -224h375v-25h-426z" />
<glyph unicode="&#xb3;" horiz-adv-x="638" d="M102 758l13 21q81 -48 184 -48q105 0 159 36.5t54 124.5q0 71 -56.5 119t-142.5 50h-105v26h105q79 2 128 49.5t49 124.5q0 74 -52.5 110.5t-138.5 36.5q-48 0 -83 -11.5t-82 -36.5l-13 21q90 53 178 53q94 0 155.5 -43.5t61.5 -129.5q0 -65 -33.5 -114t-90.5 -72 q65 -22 105.5 -71.5t40.5 -111.5q0 -186 -239 -186q-123 0 -197 52z" />
<glyph unicode="&#xb4;" horiz-adv-x="438" d="M57 1195l280 341h29l-279 -341h-30z" />
<glyph unicode="&#xb6;" horiz-adv-x="1005" d="M102 1037q0 179 111.5 288t275.5 109h415v-27h-135v-1696h-27v1696h-135v-1696h-27v932h-91q-168 0 -277.5 102.5t-109.5 291.5z" />
<glyph unicode="&#xb7;" horiz-adv-x="198" d="M82 586v46h35v-46h-35z" />
<glyph unicode="&#xb8;" horiz-adv-x="499" d="M57 -375l5 27q57 -10 122 -10q87 0 151 35t64 102q0 45 -33.5 76.5t-95.5 31.5h-46h-44l56 113h30l-43 -86h47q74 0 115 -40t41 -95q0 -82 -72.5 -123t-169.5 -41q-69 0 -127 10z" />
<glyph unicode="&#xb9;" horiz-adv-x="483" d="M102 1410l134 24h20v-711h-26v684l-123 -22z" />
<glyph unicode="&#xba;" horiz-adv-x="647" d="M102 1180q0 114 58.5 189t163.5 75t163 -75t58 -189t-58 -188.5t-163 -74.5t-163.5 75t-58.5 188zM127 1180q0 -105 51.5 -172t145.5 -67t145 66.5t51 172.5t-51 172.5t-145 66.5t-145.5 -67t-51.5 -172z" />
<glyph unicode="&#xbb;" horiz-adv-x="741" d="M98 0l150 453l-150 483h28l150 -484l-150 -452h-28zM475 936h28l150 -484l-149 -452h-28l149 453z" />
<glyph unicode="&#xbc;" horiz-adv-x="1470" d="M102 1405l164 29h21v-881h-25v855l-155 -28zM230 -35l976 1503h31l-976 -1503h-31zM790 267v22l405 594l20 -15l-393 -576h384v173h24v-173h138v-25h-138v-267h-24v267h-416z" />
<glyph unicode="&#xbd;" horiz-adv-x="1626" d="M102 1405l164 29h21v-881h-25v855l-155 -28zM234 -35l977 1503h31l-976 -1503h-32zM999 0v23q219 140 345 303q126 162 126 304q0 85 -33 140t-82.5 76t-114.5 21q-109 0 -224 -61l-12 21q112 65 237 65q50 0 93.5 -14.5t80.5 -44t58.5 -82t21.5 -121.5q0 -152 -131 -319 q-118 -152 -317 -286h478v-25h-526z" />
<glyph unicode="&#xbe;" horiz-adv-x="1640" d="M102 594l13 22q99 -61 229 -61q132 0 201.5 47t69.5 159q0 90 -72 150.5t-181 63.5h-127v25h127q100 3 162.5 63.5t62.5 158.5q0 94 -67 140.5t-176 46.5q-96 0 -205 -60l-14 21q112 64 219 64q117 0 192.5 -53t75.5 -159q0 -85 -45.5 -147t-121.5 -86q86 -24 140 -85.5 t54 -142.5q0 -64 -21.5 -110t-62 -72t-92.5 -37.5t-119 -11.5q-151 0 -242 64zM400 -35l976 1503h31l-975 -1503h-32zM961 267v22l405 593l20 -14l-393 -576h383v173h25v-173h138v-25h-138v-267h-25v267h-415z" />
<glyph unicode="&#xbf;" horiz-adv-x="858" d="M61 -51q0 121 43 197.5t165 146.5q17 10 54 30.5t51.5 29.5t37.5 24t37 28.5t25 28.5q45 60 45 185v61h26v-61q0 -135 -50 -201q-10 -14 -25 -28t-26.5 -23t-35.5 -24t-35.5 -22t-45 -25.5t-45.5 -25.5q-116 -66 -155 -135t-39 -186q0 -154 93.5 -231.5t246.5 -77.5 q167 0 361 79l9 -24q-199 -82 -371 -82q-164 0 -265 85t-101 251zM514 1020v46h35v-46h-35z" />
<glyph unicode="&#xc0;" horiz-adv-x="1210" d="M41 0l550 1434h29l550 -1434h-29l-168 438h-735l-169 -438h-28zM248 465h715l-358 931zM478 1980h30l279 -340h-30z" />
<glyph unicode="&#xc1;" horiz-adv-x="1210" d="M41 0l550 1434h29l550 -1434h-29l-168 438h-735l-169 -438h-28zM248 465h715l-358 931zM405 1640l280 340h29l-279 -340h-30z" />
<glyph unicode="&#xc2;" horiz-adv-x="1210" d="M41 0l550 1434h29l550 -1434h-29l-168 438h-735l-169 -438h-28zM248 465h715l-358 931zM341 1640l248 340h30l249 -340h-30l-234 320l-235 -320h-28z" />
<glyph unicode="&#xc3;" horiz-adv-x="1210" d="M41 0l550 1434h29l550 -1434h-29l-168 438h-735l-169 -438h-28zM248 465h715l-358 931zM293 1779q28 65 77 103t109 38q49 0 88 -24l149 -90q47 -28 75 -28q37 0 65 30t35 79l25 -9q-10 -54 -45.5 -90t-79.5 -36q-36 0 -89 32l-149 89q-33 20 -74 20q-107 0 -161 -123z " />
<glyph unicode="&#xc4;" horiz-adv-x="1210" d="M41 0l550 1434h29l550 -1434h-29l-168 438h-735l-169 -438h-28zM248 465h715l-358 931zM397 1843v35h34v-35h-34zM777 1843v35h35v-35h-35z" />
<glyph unicode="&#xc5;" horiz-adv-x="1210" d="M41 0l550 1434h29l550 -1434h-29l-168 438h-735l-169 -438h-28zM248 465h715l-358 931zM378 1821q0 94 66.5 160t160.5 66t160 -66t66 -160t-66 -160t-160 -66t-160.5 66t-66.5 160zM405 1821q0 -83 58.5 -141.5t141.5 -58.5q82 0 140.5 58.5t58.5 141.5t-58.5 141.5 t-140.5 58.5q-83 0 -141.5 -58.5t-58.5 -141.5z" />
<glyph unicode="&#xc6;" horiz-adv-x="1562" d="M61 0l550 1434h840v-27h-797v-645h692v-27h-692v-708h797v-27h-824v438h-369l-168 -438h-29zM268 465h359v934z" />
<glyph unicode="&#xc7;" horiz-adv-x="1294" d="M164 716q0 123 24.5 233t75 202t123 159t173 104.5t219.5 37.5q124 0 248 -19q145 -22 145 -178v-14h-27v14q0 133 -122 152q-123 19 -244 19q-142 0 -255 -55t-185.5 -152t-110.5 -225t-38 -278t38 -278t110.5 -225t185.5 -152t255 -55q198 0 386 48l7 -26 q-190 -48 -393 -48h-25l-33 -66h47q74 0 115 -40t41 -95q0 -82 -72.5 -123t-169.5 -41q-69 0 -127 10l5 27q57 -10 122 -10q87 0 151 35t64 102q0 45 -33.5 76.5t-95.5 31.5h-46h-44l46 95q-136 10 -243.5 71.5t-176 161t-104.5 227t-36 274.5z" />
<glyph unicode="&#xc8;" horiz-adv-x="1161" d="M225 0v1434h824v-27h-797v-645h692v-27h-692v-708h797v-27h-824zM520 1980h29l280 -340h-30z" />
<glyph unicode="&#xc9;" horiz-adv-x="1161" d="M225 0v1434h824v-27h-797v-645h692v-27h-692v-708h797v-27h-824zM447 1640l279 340h29l-279 -340h-29z" />
<glyph unicode="&#xca;" horiz-adv-x="1161" d="M225 0v1434h824v-27h-797v-645h692v-27h-692v-708h797v-27h-824zM382 1640l248 340h30l249 -340h-30l-234 320l-235 -320h-28z" />
<glyph unicode="&#xcb;" horiz-adv-x="1161" d="M225 0v1434h824v-27h-797v-645h692v-27h-692v-708h797v-27h-824zM438 1843v35h35v-35h-35zM818 1843v35h35v-35h-35z" />
<glyph unicode="&#xcc;" horiz-adv-x="477" d="M114 1980h29l279 -340h-29zM225 0v1434h27v-1434h-27z" />
<glyph unicode="&#xcd;" horiz-adv-x="477" d="M40 1640l280 340h29l-279 -340h-30zM225 0v1434h27v-1434h-27z" />
<glyph unicode="&#xce;" horiz-adv-x="477" d="M-25 1640l249 340h30l249 -340h-30l-234 320l-235 -320h-29zM225 0v1434h27v-1434h-27z" />
<glyph unicode="&#xcf;" horiz-adv-x="477" d="M32 1843v35h35v-35h-35zM225 0v1434h27v-1434h-27zM412 1843v35h35v-35h-35z" />
<glyph unicode="&#xd0;" horiz-adv-x="1409" d="M102 624v26h123v784h407q149 0 267 -54.5t193.5 -151t115 -226.5t39.5 -284t-39.5 -284t-115 -227.5t-193.5 -152t-267 -54.5h-407v624h-123zM252 27h380q142 0 255 52t185.5 145.5t110.5 219t38 274.5t-38 274.5t-110 218t-185 144.5t-256 52h-380v-757h360v-26h-360 v-597z" />
<glyph unicode="&#xd1;" horiz-adv-x="1421" d="M215 0v1434h27l940 -1387v1387h26v-1434h-26l-940 1386v-1386h-27zM400 1779q28 65 77.5 103t109.5 38q48 0 87 -24l149 -90q47 -28 75 -28q37 0 65 30t35 79l25 -9q-10 -54 -45.5 -90t-79.5 -36q-36 0 -89 32l-149 89q-33 20 -73 20q-52 0 -94 -32t-68 -91z" />
<glyph unicode="&#xd2;" d="M164 718q0 123 24.5 233t75.5 202.5t123 159.5t173 104.5t220 37.5t219.5 -37.5t173 -104.5t123 -159.5t75 -202.5t24.5 -233t-24.5 -233t-75 -202t-123 -159t-173 -104.5t-219.5 -37.5t-220 37.5t-173 104.5t-123 159t-75.5 202t-24.5 233zM191 718q0 -150 38 -278 t110.5 -224.5t185.5 -151.5t255 -55t255 55t185.5 151.5t110.5 224.5t38 278t-38 278t-110.5 225t-185.5 152t-255 55t-255 -55t-185.5 -152t-110.5 -225t-38 -278zM654 1980h30l279 -340h-30z" />
<glyph unicode="&#xd3;" d="M164 718q0 123 24.5 233t75.5 202.5t123 159.5t173 104.5t220 37.5t219.5 -37.5t173 -104.5t123 -159.5t75 -202.5t24.5 -233t-24.5 -233t-75 -202t-123 -159t-173 -104.5t-219.5 -37.5t-220 37.5t-173 104.5t-123 159t-75.5 202t-24.5 233zM191 718q0 -150 38 -278 t110.5 -224.5t185.5 -151.5t255 -55t255 55t185.5 151.5t110.5 224.5t38 278t-38 278t-110.5 225t-185.5 152t-255 55t-255 -55t-185.5 -152t-110.5 -225t-38 -278zM581 1640l280 340h29l-279 -340h-30z" />
<glyph unicode="&#xd4;" d="M164 718q0 123 24.5 233t75.5 202.5t123 159.5t173 104.5t220 37.5t219.5 -37.5t173 -104.5t123 -159.5t75 -202.5t24.5 -233t-24.5 -233t-75 -202t-123 -159t-173 -104.5t-219.5 -37.5t-220 37.5t-173 104.5t-123 159t-75.5 202t-24.5 233zM191 718q0 -150 38 -278 t110.5 -224.5t185.5 -151.5t255 -55t255 55t185.5 151.5t110.5 224.5t38 278t-38 278t-110.5 225t-185.5 152t-255 55t-255 -55t-185.5 -152t-110.5 -225t-38 -278zM516 1640l249 340h29l250 -340h-30l-234 320l-235 -320h-29z" />
<glyph unicode="&#xd5;" d="M164 718q0 123 24.5 233t75.5 202.5t123 159.5t173 104.5t220 37.5t219.5 -37.5t173 -104.5t123 -159.5t75 -202.5t24.5 -233t-24.5 -233t-75 -202t-123 -159t-173 -104.5t-219.5 -37.5t-220 37.5t-173 104.5t-123 159t-75.5 202t-24.5 233zM191 718q0 -150 38 -278 t110.5 -224.5t185.5 -151.5t255 -55t255 55t185.5 151.5t110.5 224.5t38 278t-38 278t-110.5 225t-185.5 152t-255 55t-255 -55t-185.5 -152t-110.5 -225t-38 -278zM469 1779q28 65 77 103t109 38q49 0 88 -24l149 -90q47 -28 75 -28q37 0 65 30t35 79l25 -9 q-10 -54 -45.5 -90t-79.5 -36q-36 0 -89 32l-149 89q-33 20 -74 20q-107 0 -161 -123z" />
<glyph unicode="&#xd6;" d="M164 718q0 123 24.5 233t75.5 202.5t123 159.5t173 104.5t220 37.5t219.5 -37.5t173 -104.5t123 -159.5t75 -202.5t24.5 -233t-24.5 -233t-75 -202t-123 -159t-173 -104.5t-219.5 -37.5t-220 37.5t-173 104.5t-123 159t-75.5 202t-24.5 233zM191 718q0 -150 38 -278 t110.5 -224.5t185.5 -151.5t255 -55t255 55t185.5 151.5t110.5 224.5t38 278t-38 278t-110.5 225t-185.5 152t-255 55t-255 -55t-185.5 -152t-110.5 -225t-38 -278zM572 1843v35h35v-35h-35zM953 1843v35h34v-35h-34z" />
<glyph unicode="&#xd7;" horiz-adv-x="782" d="M82 305l291 291l-291 291l19 19l291 -291l291 291l19 -19l-291 -291l291 -291l-19 -19l-291 291l-291 -291z" />
<glyph unicode="&#xd8;" d="M164 718q0 123 24.5 233t75.5 202.5t123 159.5t173 104.5t220 37.5q161 0 284 -66l66 147h29l-71 -161q150 -90 228.5 -263.5t78.5 -393.5q0 -123 -24.5 -233t-75 -202t-123 -159t-173 -104.5t-219.5 -37.5q-158 0 -284 66l-67 -150h-29l73 163q-150 90 -229.5 263.5 t-79.5 393.5zM191 718q0 -213 75 -379.5t218 -252.5l569 1278q-120 64 -273 64q-142 0 -255 -55t-185.5 -152t-110.5 -225t-38 -278zM507 73q120 -64 273 -64q142 0 255 55t185.5 151.5t110.5 224.5t38 278q0 212 -75 379t-217 253z" />
<glyph unicode="&#xd9;" horiz-adv-x="1423" d="M225 469v965h27v-965q0 -245 108 -353t352 -108t352.5 108t108.5 353v965h27v-965q0 -256 -116 -371.5t-372 -115.5t-371.5 115.5t-115.5 371.5zM580 1980h30l279 -340h-30z" />
<glyph unicode="&#xda;" horiz-adv-x="1423" d="M225 469v965h27v-965q0 -245 108 -353t352 -108t352.5 108t108.5 353v965h27v-965q0 -256 -116 -371.5t-372 -115.5t-371.5 115.5t-115.5 371.5zM507 1640l279 340h30l-279 -340h-30z" />
<glyph unicode="&#xdb;" horiz-adv-x="1423" d="M225 469v965h27v-965q0 -245 108 -353t352 -108t352.5 108t108.5 353v965h27v-965q0 -256 -116 -371.5t-372 -115.5t-371.5 115.5t-115.5 371.5zM442 1640l249 340h29l250 -340h-30l-234 320l-235 -320h-29z" />
<glyph unicode="&#xdc;" horiz-adv-x="1423" d="M225 469v965h27v-965q0 -245 108 -353t352 -108t352.5 108t108.5 353v965h27v-965q0 -256 -116 -371.5t-372 -115.5t-371.5 115.5t-115.5 371.5zM498 1843v35h35v-35h-35zM878 1843v35h35v-35h-35z" />
<glyph unicode="&#xdd;" horiz-adv-x="1173" d="M41 1434h31l516 -891l515 891h31l-533 -921v-513h-26v512zM433 1640l280 340h29l-279 -340h-30z" />
<glyph unicode="&#xde;" horiz-adv-x="1263" d="M225 0v1434h27v-248h503q164 0 275 -109t111 -288q0 -189 -109 -291.5t-277 -102.5h-503v-395h-27zM252 421h503q157 0 258.5 95.5t101.5 272.5q0 167 -103.5 268.5t-256.5 101.5h-503v-738z" />
<glyph unicode="&#xdf;" horiz-adv-x="1290" d="M225 0v1072q0 163 101.5 262.5t251.5 99.5h204q150 0 251 -99.5t101 -262.5q0 -135 -63 -223t-169 -120q123 -27 200.5 -123t77.5 -237q0 -177 -103.5 -273t-262.5 -96h-392v27h392q148 0 243.5 89t95.5 253q0 155 -97 249t-242 94h-134v27h102q142 0 234 86.5t92 246.5 q0 151 -93.5 243t-232.5 92h-204q-139 0 -232.5 -92t-93.5 -243v-1072h-27z" />
<glyph unicode="&#xe0;" horiz-adv-x="1138" d="M123 494q0 238 99.5 377.5t293.5 139.5q193 0 360 -124v102h24v-886l11 -29q10 -28 25.5 -38.5t44.5 -10.5h57v-25h-57q-70 0 -93 66l-12 32q-161 -120 -364 -120q-191 0 -290 133t-99 383zM147 494q0 -241 93 -366t274 -125q205 0 362 126v727q-165 130 -360 130 q-182 0 -275.5 -132t-93.5 -360zM426 1536h29l280 -341h-30z" />
<glyph unicode="&#xe1;" horiz-adv-x="1138" d="M123 494q0 238 99.5 377.5t293.5 139.5q193 0 360 -124v102h24v-886l11 -29q10 -28 25.5 -38.5t44.5 -10.5h57v-25h-57q-70 0 -93 66l-12 32q-161 -120 -364 -120q-191 0 -290 133t-99 383zM147 494q0 -241 93 -366t274 -125q205 0 362 126v727q-165 130 -360 130 q-182 0 -275.5 -132t-93.5 -360zM426 1195l279 341h30l-279 -341h-30z" />
<glyph unicode="&#xe2;" horiz-adv-x="1138" d="M123 494q0 238 99.5 377.5t293.5 139.5q193 0 360 -124v102h24v-886l11 -29q10 -28 25.5 -38.5t44.5 -10.5h57v-25h-57q-70 0 -93 66l-12 32q-161 -120 -364 -120q-191 0 -290 133t-99 383zM147 494q0 -241 93 -366t274 -125q205 0 362 126v727q-165 130 -360 130 q-182 0 -275.5 -132t-93.5 -360zM317 1195l248 341h30l249 -341h-30l-234 321l-235 -321h-28z" />
<glyph unicode="&#xe3;" horiz-adv-x="1138" d="M123 494q0 238 99.5 377.5t293.5 139.5q193 0 360 -124v102h24v-886l11 -29q10 -28 25.5 -38.5t44.5 -10.5h57v-25h-57q-70 0 -93 66l-12 32q-161 -120 -364 -120q-191 0 -290 133t-99 383zM147 494q0 -241 93 -366t274 -125q205 0 362 126v727q-165 130 -360 130 q-182 0 -275.5 -132t-93.5 -360zM243 1335q28 65 77 102.5t109 37.5q49 0 88 -24l149 -89q47 -28 75 -28q37 0 65 29.5t35 78.5l25 -9q-10 -54 -45.5 -90t-79.5 -36q-36 0 -89 32l-149 90q-33 20 -74 20q-107 0 -161 -123z" />
<glyph unicode="&#xe4;" horiz-adv-x="1138" d="M123 494q0 238 99.5 377.5t293.5 139.5q193 0 360 -124v102h24v-886l11 -29q10 -28 25.5 -38.5t44.5 -10.5h57v-25h-57q-70 0 -93 66l-12 32q-161 -120 -364 -120q-191 0 -290 133t-99 383zM147 494q0 -241 93 -366t274 -125q205 0 362 126v727q-165 130 -360 130 q-182 0 -275.5 -132t-93.5 -360zM349 1399v35h34v-35h-34zM729 1399v35h34v-35h-34z" />
<glyph unicode="&#xe5;" horiz-adv-x="1138" d="M123 494q0 238 99.5 377.5t293.5 139.5q193 0 360 -124v102h24v-886l11 -29q10 -28 25.5 -38.5t44.5 -10.5h57v-25h-57q-70 0 -93 66l-12 32q-161 -120 -364 -120q-191 0 -290 133t-99 383zM147 494q0 -241 93 -366t274 -125q205 0 362 126v727q-165 130 -360 130 q-182 0 -275.5 -132t-93.5 -360zM330 1377q0 94 66 160t160 66t160.5 -66t66.5 -160t-66.5 -160.5t-160.5 -66.5t-160 66.5t-66 160.5zM357 1377q0 -83 58.5 -141.5t140.5 -58.5t141 58.5t59 141.5q0 82 -58.5 140.5t-141.5 58.5q-82 0 -140.5 -58t-58.5 -141z" />
<glyph unicode="&#xe6;" horiz-adv-x="1763" d="M133 254q0 52 14 94.5t38.5 71t57 51t69 33.5t75.5 20t76 10t70 3t59 0h22h234v186q-1 269 -331 269q-98 0 -303 -35l-7 24q7 1 44.5 7.5t61 10t61 8.5t73.5 7.5t70 2.5q355 0 355 -294v-40q41 149 145 237.5t262 88.5q365 0 372 -481v-19h-778v-15q0 -139 45 -248.5 t138.5 -175.5t222.5 -66q158 0 324 49l7 -24q-168 -49 -331 -49q-158 0 -262 88.5t-145 237.5v-203l36 -103h-24l-36 99q-165 -120 -374 -120q-53 0 -99.5 7.5t-92 26.5t-77.5 49t-52 79.5t-20 112.5zM158 254q0 -250 314 -250q206 0 376 126v382h-234h-23q-42 1 -67.5 0.5 t-76 -5t-84 -13.5t-76 -28t-68 -45.5t-43.5 -69.5t-18 -97zM874 535h753q-2 103 -21 182t-58.5 141t-107 94.5t-161.5 32.5q-123 0 -214 -60.5t-137.5 -160.5t-53.5 -229z" />
<glyph unicode="&#xe7;" horiz-adv-x="997" d="M123 494q0 145 47 259.5t146.5 185t236.5 70.5q95 0 191 -16q141 -25 141 -180v-16h-25v16q0 135 -121 156q-96 16 -186 16q-129 0 -222.5 -66.5t-138.5 -176t-45 -248.5t45 -248.5t138.5 -175.5t222.5 -66q159 0 325 49l7 -24q-147 -44 -298 -49h-20l-32 -66h47 q74 0 115 -40t41 -95q0 -82 -72.5 -123t-169.5 -41q-69 0 -127 10l5 27q57 -10 122 -10q87 0 151 35t64 102q0 45 -33.5 76.5t-95.5 31.5h-46h-44l45 93q-133 4 -228 75t-140.5 184t-45.5 255z" />
<glyph unicode="&#xe8;" horiz-adv-x="997" d="M123 494q0 145 47 259.5t146.5 185t236.5 70.5q61 0 110.5 -11t82 -28.5t56.5 -42t37 -48t20 -49.5q10 -38 10 -68q0 -71 -39 -133.5t-114 -103.5q-47 -26 -113 -47t-114 -32t-131 -21.5t-106 -12.5t-99 -9q22 -179 125.5 -289t274.5 -110q151 0 325 49l7 -24 q-168 -49 -332 -49q-104 0 -186.5 40t-135.5 110.5t-80.5 163t-27.5 200.5zM147 494q0 -33 3 -66q7 1 23 2q104 9 172 17t178.5 34.5t180.5 65.5q69 38 104.5 95t35.5 121q0 29 -8 61q-8 30 -26 56t-49.5 51t-85 39.5t-122.5 14.5q-129 0 -222.5 -66.5t-138.5 -176 t-45 -248.5zM435 1536h30l279 -341h-30z" />
<glyph unicode="&#xe9;" horiz-adv-x="997" d="M123 494q0 145 47 259.5t146.5 185t236.5 70.5q61 0 110.5 -11t82 -28.5t56.5 -42t37 -48t20 -49.5q10 -38 10 -68q0 -71 -39 -133.5t-114 -103.5q-47 -26 -113 -47t-114 -32t-131 -21.5t-106 -12.5t-99 -9q22 -179 125.5 -289t274.5 -110q151 0 325 49l7 -24 q-168 -49 -332 -49q-104 0 -186.5 40t-135.5 110.5t-80.5 163t-27.5 200.5zM147 494q0 -33 3 -66q7 1 23 2q104 9 172 17t178.5 34.5t180.5 65.5q69 38 104.5 95t35.5 121q0 29 -8 61q-8 30 -26 56t-49.5 51t-85 39.5t-122.5 14.5q-129 0 -222.5 -66.5t-138.5 -176 t-45 -248.5zM362 1195l279 341h30l-279 -341h-30z" />
<glyph unicode="&#xea;" horiz-adv-x="997" d="M123 494q0 145 47 259.5t146.5 185t236.5 70.5q61 0 110.5 -11t82 -28.5t56.5 -42t37 -48t20 -49.5q10 -38 10 -68q0 -71 -39 -133.5t-114 -103.5q-47 -26 -113 -47t-114 -32t-131 -21.5t-106 -12.5t-99 -9q22 -179 125.5 -289t274.5 -110q151 0 325 49l7 -24 q-168 -49 -332 -49q-104 0 -186.5 40t-135.5 110.5t-80.5 163t-27.5 200.5zM147 494q0 -33 3 -66q7 1 23 2q104 9 172 17t178.5 34.5t180.5 65.5q69 38 104.5 95t35.5 121q0 29 -8 61q-8 30 -26 56t-49.5 51t-85 39.5t-122.5 14.5q-129 0 -222.5 -66.5t-138.5 -176 t-45 -248.5zM297 1195l249 341h29l250 -341h-30l-234 321l-235 -321h-29z" />
<glyph unicode="&#xeb;" horiz-adv-x="997" d="M123 494q0 145 47 259.5t146.5 185t236.5 70.5q61 0 110.5 -11t82 -28.5t56.5 -42t37 -48t20 -49.5q10 -38 10 -68q0 -71 -39 -133.5t-114 -103.5q-47 -26 -113 -47t-114 -32t-131 -21.5t-106 -12.5t-99 -9q22 -179 125.5 -289t274.5 -110q151 0 325 49l7 -24 q-168 -49 -332 -49q-104 0 -186.5 40t-135.5 110.5t-80.5 163t-27.5 200.5zM147 494q0 -33 3 -66q7 1 23 2q104 9 172 17t178.5 34.5t180.5 65.5q69 38 104.5 95t35.5 121q0 29 -8 61q-8 30 -26 56t-49.5 51t-85 39.5t-122.5 14.5q-129 0 -222.5 -66.5t-138.5 -176 t-45 -248.5zM353 1399v35h35v-35h-35zM733 1399v35h35v-35h-35z" />
<glyph unicode="&#xec;" horiz-adv-x="448" d="M92 965v24h60q102 0 102 -102v-887h-25v887q0 78 -77 78h-60zM113 1536h29l279 -341h-29z" />
<glyph unicode="&#xed;" horiz-adv-x="448" d="M39 1195l280 341h29l-279 -341h-30zM92 965v24h60q102 0 102 -102v-887h-25v887q0 78 -77 78h-60z" />
<glyph unicode="&#xee;" horiz-adv-x="448" d="M-25 1195l248 341h30l249 -341h-30l-234 321l-235 -321h-28zM92 965v24h60q102 0 102 -102v-887h-25v887q0 78 -77 78h-60z" />
<glyph unicode="&#xef;" horiz-adv-x="448" d="M31 1399v35h35v-35h-35zM92 965v24h60q102 0 102 -102v-887h-25v887q0 78 -77 78h-60zM411 1399v35h35v-35h-35z" />
<glyph unicode="&#xf0;" horiz-adv-x="1222" d="M133 459q0 134 49 241.5t145.5 172.5t225.5 65q133 0 244.5 -66.5t174.5 -177.5q0 192 -52 351t-155 263l-240 -239l-19 19l239 238q-113 93 -249 93q-155 0 -291 -64l-11 24q147 67 302 67q148 0 268 -100l191 190l18 -19l-189 -189q108 -108 161.5 -272t53.5 -362 q0 -106 -7.5 -191.5t-25 -170t-50 -146t-80 -110t-117.5 -73t-160 -24.5q-95 0 -175.5 38.5t-135 103.5t-85 152.5t-30.5 185.5zM160 459q0 -191 111.5 -322t289.5 -131q94 0 165 31.5t116 85t73.5 135t40.5 171t15 204.5q-53 127 -165 203t-253 76q-180 0 -286.5 -129 t-106.5 -324z" />
<glyph unicode="&#xf1;" horiz-adv-x="1167" d="M72 965v24h59q102 0 102 -102v-57q79 70 194 126.5t246 56.5q73 0 126.5 -19t85 -49.5t51 -78t26 -94.5t7.5 -109v-499q0 -137 134 -139h3v-25h-4q-77 1 -117.5 43t-40.5 121v499q-1 61 -7 105t-23 88t-46 71t-78 44t-116 17q-72 0 -144 -20t-129.5 -52.5t-97 -61 t-70.5 -57.5v-797h-24v887q0 78 -78 78h-59zM278 1335q28 65 77 102.5t109 37.5q48 0 87 -24l149 -89q47 -28 75 -28q37 0 65 29.5t35 78.5l25 -9q-10 -54 -45.5 -90t-79.5 -36q-35 0 -88 32l-149 90q-33 20 -74 20q-107 0 -161 -123z" />
<glyph unicode="&#xf2;" horiz-adv-x="1105" d="M123 494q0 145 47 259.5t146.5 185t236.5 70.5q104 0 187 -40.5t135.5 -111t80.5 -163t28 -200.5q0 -145 -47.5 -259.5t-146.5 -184.5t-237 -70q-104 0 -186.5 40t-135.5 110.5t-80.5 163t-27.5 200.5zM147 494q0 -139 45 -248.5t138.5 -175.5t222.5 -66t222.5 66 t138.5 175.5t45 248.5t-45 248.5t-138.5 176t-222.5 66.5t-222.5 -66.5t-138.5 -176t-45 -248.5zM427 1536h29l280 -341h-30z" />
<glyph unicode="&#xf3;" horiz-adv-x="1105" d="M123 494q0 145 47 259.5t146.5 185t236.5 70.5q104 0 187 -40.5t135.5 -111t80.5 -163t28 -200.5q0 -145 -47.5 -259.5t-146.5 -184.5t-237 -70q-104 0 -186.5 40t-135.5 110.5t-80.5 163t-27.5 200.5zM147 494q0 -139 45 -248.5t138.5 -175.5t222.5 -66t222.5 66 t138.5 175.5t45 248.5t-45 248.5t-138.5 176t-222.5 66.5t-222.5 -66.5t-138.5 -176t-45 -248.5zM354 1195l279 341h30l-279 -341h-30z" />
<glyph unicode="&#xf4;" horiz-adv-x="1105" d="M123 494q0 145 47 259.5t146.5 185t236.5 70.5q104 0 187 -40.5t135.5 -111t80.5 -163t28 -200.5q0 -145 -47.5 -259.5t-146.5 -184.5t-237 -70q-104 0 -186.5 40t-135.5 110.5t-80.5 163t-27.5 200.5zM147 494q0 -139 45 -248.5t138.5 -175.5t222.5 -66t222.5 66 t138.5 175.5t45 248.5t-45 248.5t-138.5 176t-222.5 66.5t-222.5 -66.5t-138.5 -176t-45 -248.5zM289 1195l248 341h30l249 -341h-29l-235 321l-234 -321h-29z" />
<glyph unicode="&#xf5;" horiz-adv-x="1105" d="M123 494q0 145 47 259.5t146.5 185t236.5 70.5q104 0 187 -40.5t135.5 -111t80.5 -163t28 -200.5q0 -145 -47.5 -259.5t-146.5 -184.5t-237 -70q-104 0 -186.5 40t-135.5 110.5t-80.5 163t-27.5 200.5zM147 494q0 -139 45 -248.5t138.5 -175.5t222.5 -66t222.5 66 t138.5 175.5t45 248.5t-45 248.5t-138.5 176t-222.5 66.5t-222.5 -66.5t-138.5 -176t-45 -248.5zM242 1335q28 65 77 102.5t109 37.5q48 0 87 -24l149 -89q47 -28 75 -28q37 0 65.5 29.5t35.5 78.5l24 -9q-10 -54 -45.5 -90t-79.5 -36q-35 0 -88 32l-149 90q-33 20 -74 20 q-107 0 -161 -123z" />
<glyph unicode="&#xf6;" horiz-adv-x="1105" d="M123 494q0 145 47 259.5t146.5 185t236.5 70.5q104 0 187 -40.5t135.5 -111t80.5 -163t28 -200.5q0 -145 -47.5 -259.5t-146.5 -184.5t-237 -70q-104 0 -186.5 40t-135.5 110.5t-80.5 163t-27.5 200.5zM147 494q0 -139 45 -248.5t138.5 -175.5t222.5 -66t222.5 66 t138.5 175.5t45 248.5t-45 248.5t-138.5 176t-222.5 66.5t-222.5 -66.5t-138.5 -176t-45 -248.5zM345 1399v35h35v-35h-35zM725 1399v35h35v-35h-35z" />
<glyph unicode="&#xf7;" horiz-adv-x="980" d="M66 624v26h849v-26h-849zM473 236v46h35v-46h-35zM473 992v46h35v-46h-35z" />
<glyph unicode="&#xf8;" horiz-adv-x="1105" d="M123 494q0 145 47 259.5t146.5 185t236.5 70.5q109 0 195 -44l57 127h29l-62 -140q103 -63 157.5 -184t54.5 -274q0 -145 -47.5 -259.5t-146.5 -184.5t-237 -70q-110 0 -195 44l-57 -126h-29l62 139q-103 63 -157 183.5t-54 273.5zM147 494q0 -145 51 -259t147 -175 l393 882q-83 43 -185 43q-129 0 -222.5 -66.5t-138.5 -176t-45 -248.5zM368 47q81 -43 185 -43q129 0 222.5 66t138.5 175.5t45 248.5q0 145 -51 260t-147 175z" />
<glyph unicode="&#xf9;" horiz-adv-x="1142" d="M174 326v663h25v-663q1 -61 7 -105t23.5 -88t46.5 -71t78 -44t117 -17q72 0 143.5 20t128.5 52.5t96.5 61t70.5 57.5v797h24v-825q0 -139 137 -139v-25h-5q-75 1 -114.5 41.5t-41.5 116.5q-81 -68 -199.5 -124.5t-243.5 -56.5q-72 0 -125 19t-85 49.5t-51 77.5 t-25.5 94.5t-6.5 108.5zM407 1536h29l280 -341h-30z" />
<glyph unicode="&#xfa;" horiz-adv-x="1142" d="M174 326v663h25v-663q1 -61 7 -105t23.5 -88t46.5 -71t78 -44t117 -17q72 0 143.5 20t128.5 52.5t96.5 61t70.5 57.5v797h24v-825q0 -139 137 -139v-25h-5q-75 1 -114.5 41.5t-41.5 116.5q-81 -68 -199.5 -124.5t-243.5 -56.5q-72 0 -125 19t-85 49.5t-51 77.5 t-25.5 94.5t-6.5 108.5zM468 1195l280 341h29l-279 -341h-30z" />
<glyph unicode="&#xfb;" horiz-adv-x="1142" d="M174 326v663h25v-663q1 -61 7 -105t23.5 -88t46.5 -71t78 -44t117 -17q72 0 143.5 20t128.5 52.5t96.5 61t70.5 57.5v797h24v-825q0 -139 137 -139v-25h-5q-75 1 -114.5 41.5t-41.5 116.5q-81 -68 -199.5 -124.5t-243.5 -56.5q-72 0 -125 19t-85 49.5t-51 77.5 t-25.5 94.5t-6.5 108.5zM359 1195l248 341h30l249 -341h-29l-235 321l-234 -321h-29z" />
<glyph unicode="&#xfc;" horiz-adv-x="1142" d="M174 326v663h25v-663q1 -61 7 -105t23.5 -88t46.5 -71t78 -44t117 -17q72 0 143.5 20t128.5 52.5t96.5 61t70.5 57.5v797h24v-825q0 -139 137 -139v-25h-5q-75 1 -114.5 41.5t-41.5 116.5q-81 -68 -199.5 -124.5t-243.5 -56.5q-72 0 -125 19t-85 49.5t-51 77.5 t-25.5 94.5t-6.5 108.5zM344 1399v35h34v-35h-34zM724 1399v35h35v-35h-35z" />
<glyph unicode="&#xfd;" horiz-adv-x="935" d="M61 989h27l381 -958l380 958h26l-433 -1095q-19 -50 -37.5 -87.5t-46.5 -78.5t-65.5 -68.5t-82.5 -40.5q-24 -7 -54 -7q-45 0 -94 13l6 25q51 -14 87 -14q25 0 49 8q34 9 63 28.5t50 43t41 57t33 63t28 68.5l38 96h-2zM314 1195l279 341h30l-279 -341h-30z" />
<glyph unicode="&#xfe;" horiz-adv-x="1107" d="M72 1409v25h59q103 0 103 -103v-440q161 120 365 120q191 0 289.5 -130t98.5 -380q0 -235 -98 -367.5t-292 -132.5q-198 0 -363 123v-493h-25v1700q0 78 -78 78h-59zM234 155q163 -129 362 -129q182 0 274 125t92 350q0 240 -92 363t-273 123q-205 0 -363 -127v-705z" />
<glyph unicode="&#xff;" horiz-adv-x="935" d="M61 989h27l381 -958l380 958h26l-433 -1095q-19 -50 -37.5 -87.5t-46.5 -78.5t-65.5 -68.5t-82.5 -40.5q-24 -7 -54 -7q-45 0 -94 13l6 25q51 -14 87 -14q25 0 49 8q34 9 63 28.5t50 43t41 57t33 63t28 68.5l38 96h-2zM258 1399v35h35v-35h-35zM639 1399v35h34v-35h-34z " />
<glyph unicode="&#x152;" horiz-adv-x="2021" d="M164 718q0 123 24.5 233t75.5 202.5t123 159.5t173 104.5t220 37.5q172 0 305 -78v57h824v-27h-797v-645h692v-27h-692v-708h797v-27h-824v60q-133 -78 -305 -78q-119 0 -220 37.5t-173 104.5t-123 159t-75.5 202t-24.5 233zM191 718q0 -150 38 -278t110.5 -224.5 t185.5 -151.5t255 -55q173 0 305 83v1253q-132 83 -305 83q-142 0 -255 -55t-185.5 -152t-110.5 -225t-38 -278z" />
<glyph unicode="&#x153;" horiz-adv-x="2103" d="M123 494q0 145 47 259.5t146.5 185t236.5 70.5q171 0 279.5 -104t139.5 -275q31 171 139 275t279 104q61 0 110.5 -11t82 -28.5t56.5 -42t37 -48t20 -49.5q9 -35 9 -68q0 -71 -38.5 -133.5t-113.5 -103.5q-47 -26 -113 -47t-114 -32t-131 -21.5t-106 -12.5t-99 -9 q22 -179 125.5 -289t274.5 -110q151 0 325 49l7 -24q-168 -49 -332 -49q-171 0 -279 103.5t-139 274.5q-31 -171 -139 -274.5t-280 -103.5q-104 0 -186.5 40t-135.5 110.5t-80.5 163t-27.5 200.5zM147 494q0 -139 45 -248.5t138.5 -175.5t222.5 -66t222.5 66t138.5 175.5 t45 248.5t-45 248.5t-138.5 176t-222.5 66.5t-222.5 -66.5t-138.5 -176t-45 -248.5zM984 494q0 -33 3 -66q7 1 23 2q104 9 172 17t178.5 34.5t180.5 65.5q69 38 104.5 95t35.5 121q0 25 -9 61q-8 30 -26 56t-49 51t-84.5 39.5t-122.5 14.5q-129 0 -222.5 -66.5t-138.5 -176 t-45 -248.5z" />
<glyph unicode="&#x178;" horiz-adv-x="1173" d="M41 1434h31l516 -891l515 891h31l-533 -921v-513h-26v512zM361 1843v35h35v-35h-35zM742 1843v35h34v-35h-34z" />
<glyph unicode="&#x2c6;" horiz-adv-x="641" d="M57 1195l249 341h29l250 -341h-30l-234 321l-235 -321h-29z" />
<glyph unicode="&#x2dc;" horiz-adv-x="770" d="M74 1335q28 65 77 102.5t109 37.5q48 0 87 -24l149 -89q47 -28 75 -28q37 0 65.5 29.5t35.5 78.5l24 -9q-10 -54 -45.5 -90t-79.5 -36q-35 0 -88 32l-149 90q-33 20 -74 20q-107 0 -161 -123z" />
<glyph unicode="&#x2000;" horiz-adv-x="1023" />
<glyph unicode="&#x2001;" horiz-adv-x="2047" />
<glyph unicode="&#x2002;" horiz-adv-x="1023" />
<glyph unicode="&#x2003;" horiz-adv-x="2047" />
<glyph unicode="&#x2004;" horiz-adv-x="682" />
<glyph unicode="&#x2005;" horiz-adv-x="511" />
<glyph unicode="&#x2006;" horiz-adv-x="341" />
<glyph unicode="&#x2007;" horiz-adv-x="341" />
<glyph unicode="&#x2008;" horiz-adv-x="255" />
<glyph unicode="&#x2009;" horiz-adv-x="409" />
<glyph unicode="&#x200a;" horiz-adv-x="113" />
<glyph unicode="&#x2010;" horiz-adv-x="714" d="M102 624v26h510v-26h-510z" />
<glyph unicode="&#x2011;" horiz-adv-x="714" d="M102 624v26h510v-26h-510z" />
<glyph unicode="&#x2012;" horiz-adv-x="714" d="M102 624v26h510v-26h-510z" />
<glyph unicode="&#x2013;" horiz-adv-x="970" d="M102 624v26h766v-26h-766z" />
<glyph unicode="&#x2014;" horiz-adv-x="1310" d="M102 624v26h1106v-26h-1106z" />
<glyph unicode="&#x2018;" horiz-adv-x="157" d="M61 1388v42l14 34h21l-11 -30h11v-46h-35z" />
<glyph unicode="&#x2019;" horiz-adv-x="157" d="M61 1388l12 30h-12v46h35v-42l-13 -34h-22z" />
<glyph unicode="&#x201a;" horiz-adv-x="157" d="M61 0v46h35v-43l-13 -34h-22l12 31h-12z" />
<glyph unicode="&#x201c;" horiz-adv-x="251" d="M61 1388v42l14 34h21l-11 -30h11v-46h-35zM157 1388v42l13 34h22l-12 -30h12v-46h-35z" />
<glyph unicode="&#x201d;" horiz-adv-x="251" d="M61 1388l12 30h-12v46h35v-42l-13 -34h-22zM157 1388l11 30h-11v46h34v-42l-13 -34h-21z" />
<glyph unicode="&#x201e;" horiz-adv-x="251" d="M61 0v46h35v-43l-13 -34h-22l12 31h-12zM157 0v46h34v-43l-13 -34h-21l11 31h-11z" />
<glyph unicode="&#x2022;" horiz-adv-x="286" d="M82 504v123h123v-123h-123z" />
<glyph unicode="&#x2026;" horiz-adv-x="608" d="M82 0v46h35v-46h-35zM287 0v46h35v-46h-35zM492 0v46h35v-46h-35z" />
<glyph unicode="&#x202f;" horiz-adv-x="409" />
<glyph unicode="&#x2039;" horiz-adv-x="364" d="M90 452l150 484h28l-150 -483l150 -453h-28z" />
<glyph unicode="&#x203a;" horiz-adv-x="364" d="M98 0l150 453l-150 483h28l150 -484l-150 -452h-28z" />
<glyph unicode="&#x205f;" horiz-adv-x="511" />
<glyph unicode="&#x20ac;" horiz-adv-x="1449" d="M164 548v26h140q-9 70 -9 144q0 63 8 132h-139v27h142q18 126 65.5 230.5t122 182.5t181.5 121.5t236 43.5q254 0 416 -165l-19 -19q-152 157 -397 157q-122 0 -223.5 -41t-173 -115.5t-117.5 -174t-64 -220.5h758v-27h-762q-7 -60 -7 -132q0 -75 9 -144h624v-26h-620 q19 -118 65.5 -216t117.5 -170.5t171.5 -113t221.5 -40.5q245 0 397 157l19 -18q-162 -165 -416 -165q-128 0 -233.5 42.5t-180 119t-122.5 179t-67 225.5h-144z" />
<glyph unicode="&#x2122;" horiz-adv-x="1544" d="M102 1408v26h477v-26h-226v-703h-25v703h-226zM718 705v729h23l308 -692l308 692h23v-729h-25v661l-295 -661h-22l-294 661v-661h-26z" />
<glyph unicode="&#xe000;" horiz-adv-x="993" d="M0 0v993h993v-993h-993z" />
<glyph unicode="&#xfb03;" horiz-adv-x="1642" d="M102 965v24h138v256q0 143 109 186q50 19 123 19q51 0 146 -13l-5 -24q-98 13 -145 13q-64 0 -110 -18q-94 -39 -94 -163v-256h588v256q0 144 110 186q49 19 122 19q44 0 146 -13l-4 -24q-89 13 -143 13q-69 0 -111 -17q-95 -37 -95 -164v-256h509q103 0 103 -102v-887 h-25v887q0 78 -78 78h-509v-965h-25v965h-588v-965h-24v965h-138z" />
<glyph unicode="&#xfb04;" horiz-adv-x="1779" d="M102 965v24h138v256q0 138 101 182q51 23 132 23q52 0 145 -13l-5 -24q-94 12 -145 12q-77 0 -121 -20q-83 -38 -83 -160v-256h588v256q0 135 96 180q51 25 136 25q59 0 146 -13h259v-1270q0 -139 137 -139v-25h-5q-77 2 -117 43.5t-40 120.5v1245h-234q-102 13 -149 13 q-78 0 -123 -22q-81 -38 -81 -158v-256h300v-24h-300v-965h-25v965h-588v-965h-24v965h-138z" />
</font>
</defs>
</svg>
