<?xml version="1.0" standalone="no"?>
<!DOCTYPE svg PUBLIC "-//W3C//DTD SVG 1.1//EN" "http://www.w3.org/Graphics/SVG/1.1/DTD/svg11.dtd" >
<svg xmlns="http://www.w3.org/2000/svg">
<metadata></metadata>
<defs>
<font id="regan_altitalic" horiz-adv-x="1273" >
<font-face units-per-em="2048" ascent="1536" descent="-512" />
<missing-glyph horiz-adv-x="614" />
<glyph unicode="&#xfb01;" horiz-adv-x="1103" d="M34 -250q70 20 118.5 65.5t67.5 135.5l200 942h-139l20 96h140l44 207q38 180 185 232q59 22 142 22q73 0 156 -17l-34 -87q-83 11 -125 11q-50 0 -89 -12q-96 -29 -122 -149l-44 -207h491q111 0 111 -100q0 -26 -5 -47l-179 -842h-114l172 812q3 14 3 24q0 57 -65 57 h-434l-201 -942q-26 -121 -102 -185t-159 -79z" />
<glyph unicode="&#xfb02;" horiz-adv-x="1236" d="M34 -250q70 20 118.5 65.5t67.5 135.5l200 942h-139l20 96h140l44 207q37 174 176 229q65 25 152 25q77 0 155 -17h315l-259 -1223q-5 -25 -5 -40q0 -85 104 -88l-17 -79h-50q-155 2 -155 136q0 30 7 59l243 1147h-214q-82 11 -126 11t-76 -7q-110 -25 -137 -153 l-44 -207h271l-21 -96h-270l-201 -942q-26 -121 -102 -185t-159 -79z" />
<glyph horiz-adv-x="2048" />
<glyph horiz-adv-x="2048" />
<glyph unicode="&#xd;" horiz-adv-x="2048" />
<glyph unicode=" "  horiz-adv-x="614" />
<glyph unicode="&#x09;" horiz-adv-x="614" />
<glyph unicode="&#xa0;" horiz-adv-x="614" />
<glyph unicode="!" horiz-adv-x="411" d="M146 0l23 109h122l-23 -109h-122zM244 403l210 1031h115l-228 -1031h-97z" />
<glyph unicode="&#x22;" horiz-adv-x="475" d="M309 1099l71 335h85l-72 -335h-84zM551 1099l71 335h84l-71 -335h-84z" />
<glyph unicode="#" horiz-adv-x="1271" d="M143 459l17 78h279l160 377h-359l16 78h377l187 442h87l-187 -442h375l188 442h87l-188 -442h258l-17 -78h-274l-161 -377h355l-17 -78h-371l-195 -459h-87l195 459h-375l-195 -459h-87l195 459h-263zM526 537h375l161 377h-376z" />
<glyph unicode="$" horiz-adv-x="1136" d="M104 43l30 114q114 -32 206 -48t214 -16q188 0 299 82.5t138 207.5q6 32 6 56q0 83 -67.5 133t-224.5 103l-110 38q-126 43 -198 119t-72 184q0 33 8 73q19 91 66 159.5t114.5 110t142.5 64t162 30.5l31 146h90l-30 -143q177 0 398 -62l-29 -110q-198 62 -374 62 q-374 0 -429 -254q-5 -20 -5 -48q0 -77 58.5 -136.5t164.5 -95.5l108 -37q177 -60 259.5 -126.5t82.5 -177.5q0 -37 -9 -79q-36 -171 -174.5 -282.5t-362.5 -123.5l-31 -144h-91l30 140q-219 7 -401 61z" />
<glyph unicode="%" horiz-adv-x="1601" d="M252 -35l1296 1503h103l-1296 -1503h-103zM288 963q0 51 12 105q33 159 140.5 264.5t254.5 105.5q121 0 185.5 -73.5t64.5 -193.5q0 -53 -11 -103q-33 -159 -141 -265t-255 -106q-121 0 -185.5 73t-64.5 193zM373 979q0 -91 46 -144.5t136 -53.5q112 0 190.5 80.5 t105.5 206.5q10 46 10 90q0 91 -47 144t-137 53q-111 0 -189 -80.5t-105 -206.5q-10 -44 -10 -89zM962 262q0 54 11 104q34 159 141 265t254 106q121 0 185.5 -73.5t64.5 -193.5q0 -54 -11 -104q-33 -159 -141 -264.5t-255 -105.5q-121 0 -185 73t-64 193zM1046 278 q0 -91 46.5 -145t136.5 -54q112 0 190 80.5t105 206.5q10 46 10 90q0 91 -46.5 144t-136.5 53q-111 0 -189.5 -80.5t-105.5 -206.5q-10 -44 -10 -88z" />
<glyph unicode="&#x26;" horiz-adv-x="1454" d="M159 273q0 43 9 90q51 258 411 384l61 25l-65 88q-73 96 -73 193q0 38 11 93q12 55 43.5 107t84 98.5t134 75t180.5 28.5q84 0 145.5 -21t94 -57.5t47.5 -77.5t15 -87q0 -28 -7 -65q-22 -106 -120.5 -192.5t-288.5 -162.5l-62 -26l346 -455q174 163 311 457h88 q-154 -335 -351 -524l180 -244h-137l-130 173q-221 -193 -527 -193q-201 0 -300.5 77.5t-99.5 215.5zM273 288q0 -109 74.5 -165t237.5 -56q266 0 457 173l-362 476l-69 -28q-63 -25 -108.5 -49.5t-95 -62t-81 -88.5t-44.5 -115q-9 -45 -9 -85zM619 1054q0 -77 64 -162 l54 -71l71 30q166 70 243.5 138t95.5 152q7 33 7 62q0 72 -46 120t-158 48q-75 0 -135 -21.5t-96.5 -57t-58 -73.5t-30.5 -79q-11 -50 -11 -86z" />
<glyph unicode="'" horiz-adv-x="233" d="M309 1099l71 335h85l-72 -335h-84z" />
<glyph unicode="(" horiz-adv-x="602" d="M160 280q0 137 29 267q48 228 181 459q142 244 381 500l71 -57q-225 -243 -357 -473q-123 -213 -168 -429q-28 -130 -28 -252q0 -94 13 -176q36 -231 158 -473l-97 -56q-132 258 -168 498q-15 102 -15 192z" />
<glyph unicode=")" horiz-adv-x="602" d="M14 -354q223 240 358 472q122 210 167 429q29 134 29 252q0 89 -14 177q-35 230 -157 472l96 58q133 -264 169 -500q15 -102 15 -192q0 -133 -30 -267q-48 -231 -180 -459q-141 -242 -381 -498z" />
<glyph unicode="*" horiz-adv-x="628" d="M314 1220l35 65l190 -66l46 215h69l-46 -215l219 66l7 -65l-218 -67l89 -174l-64 -40l-90 174l-163 -174l-47 40l163 174z" />
<glyph unicode="+" horiz-adv-x="1024" d="M206 556l21 98h375l80 376h98l-80 -376h377l-21 -98h-376l-80 -376h-98l80 376h-376z" />
<glyph unicode="," horiz-adv-x="266" d="M69 -86l50 86h-46l24 109h121l-23 -106l-52 -89h-74z" />
<glyph unicode="-" horiz-adv-x="692" d="M216 588l21 98h510l-21 -98h-510z" />
<glyph unicode="." horiz-adv-x="266" d="M73 0l23 109h122l-24 -109h-121z" />
<glyph unicode="/" horiz-adv-x="829" d="M45 0l943 1434h101l-943 -1434h-101z" />
<glyph unicode="0" horiz-adv-x="1339" d="M258 459q0 112 27 236q32 151 94.5 280.5t148.5 227t200 153t242 55.5q200 0 304 -130.5t104 -350.5q0 -110 -27 -235q-43 -204 -136.5 -363.5t-236.5 -255.5t-312 -96q-201 0 -304.5 130t-103.5 349zM378 476q0 -179 77.5 -285.5t232.5 -106.5q102 0 192.5 48 t158.5 132.5t117.5 194t76.5 236.5q25 120 25 218q0 179 -77.5 285.5t-232.5 106.5q-135 0 -248.5 -84t-187 -219.5t-109.5 -306.5q-25 -120 -25 -219z" />
<glyph unicode="1" horiz-adv-x="585" d="M300 0l276 1299l-222 -38l3 87l283 49h72l-297 -1397h-115z" />
<glyph unicode="2" horiz-adv-x="1062" d="M99 0l22 105q377 215 601 442q228 231 270 435q10 50 10 94q0 119 -73.5 175t-192.5 56q-175 0 -358 -94l12 105q194 97 390 97q73 0 136 -18t113.5 -54.5t80 -97.5t29.5 -141q0 -46 -13 -109q-47 -219 -284 -461q-216 -220 -555 -429h702l-22 -105h-868z" />
<glyph unicode="3" horiz-adv-x="1116" d="M116 81l31 96q110 -90 321 -90q185 0 301 66t149 218q6 27 6 54q0 102 -82 166.5t-211 67.5h-203l19 91h189q89 3 169.5 38.5t140 103.5t78.5 157q7 35 7 57q0 100 -82 150t-217 50q-159 0 -335 -88l10 97q196 97 375 97q109 0 194.5 -26.5t141 -88.5t55.5 -153 q0 -38 -8 -73q-28 -135 -120 -228.5t-220 -131.5q109 -31 173.5 -104.5t64.5 -180.5q0 -36 -9 -77q-22 -103 -77 -177.5t-134 -115t-166.5 -58.5t-189.5 -18q-113 0 -214 26.5t-157 74.5z" />
<glyph unicode="4" horiz-adv-x="1114" d="M142 408l21 100l789 889l122 -12l-772 -877h517l96 279h77l-60 -279h203l-21 -100h-201l-87 -408h-115l87 408h-656z" />
<glyph unicode="5" horiz-adv-x="1120" d="M116 83l29 93q98 -56 180 -76.5t201 -16.5q159 6 269 98.5t144 251.5q11 51 11 103q0 115 -67.5 178t-199.5 63h-350l155 620h721l-22 -106h-613l-113 -429h280q168 0 259 -81.5t91 -229.5q0 -54 -14 -121q-43 -205 -191 -323.5t-349 -126.5q-125 -5 -223 18t-198 85z " />
<glyph unicode="6" horiz-adv-x="1169" d="M245 381q0 120 31 273q40 201 127 364t222 268t295 116q37 4 82 4q142 0 291 -58l-29 -95q-152 72 -303 66q-98 -2 -187 -48.5t-159 -127.5t-122 -189.5t-83 -235.5q81 97 198.5 154.5t239.5 57.5q161 0 251 -91t90 -245q0 -56 -14 -123q-45 -212 -203 -352t-360 -140 q-367 0 -367 402zM370 376q0 -141 60.5 -217t199.5 -76q150 0 267.5 110t151.5 270q11 50 11 104q0 124 -68 200t-194 76q-119 0 -227 -64t-175 -170q-26 -138 -26 -233z" />
<glyph unicode="7" horiz-adv-x="974" d="M234 0q102 264 283 562.5t529 734.5h-667l22 100h806l-17 -80q-360 -445 -546.5 -747.5t-290.5 -569.5h-119z" />
<glyph unicode="8" horiz-adv-x="1282" d="M203 264q0 43 10 90q12 58 40.5 107.5t65 85.5t87.5 68.5t101 54.5t113 45l59 20q-73 30 -110 50q-165 81 -165 231q0 34 9 75q19 90 72 155t128.5 99.5t156.5 50.5t173 16q82 0 150 -12.5t126.5 -40t91.5 -78t33 -119.5q0 -31 -8 -71q-23 -109 -93.5 -183t-192.5 -123 q-43 -19 -131 -50q30 -12 52 -22q58 -25 101 -50t81 -59.5t57.5 -79.5t19.5 -99q0 -31 -8 -71q-22 -103 -78.5 -178t-137.5 -116.5t-171.5 -60.5t-196.5 -19q-93 0 -168.5 14.5t-137 46.5t-95.5 88.5t-34 134.5zM338 285q0 -111 82 -157.5t240 -46.5q90 0 158.5 14t126 45.5 t95.5 88t55 137.5q6 32 6 59q0 89 -63 142.5t-181 98.5l-67 24l-78 -24q-76 -25 -128.5 -48.5t-105 -58.5t-85.5 -83t-46 -110q-9 -45 -9 -81zM529 1019q0 -125 150 -190q18 -8 129 -49q125 40 150 49q110 40 170.5 100.5t79.5 149.5q6 31 6 57q0 184 -291 184 q-336 0 -387 -241q-7 -29 -7 -60z" />
<glyph unicode="9" horiz-adv-x="1169" d="M173 42l29 96q152 -72 304 -66q195 4 342 171t209 429q-81 -97 -198.5 -154t-239.5 -57q-161 0 -251 90.5t-90 244.5q0 56 14 123q46 213 204 353t361 140q364 0 364 -403q0 -125 -30 -273q-30 -150 -88 -280.5t-139 -232t-188.5 -163.5t-228.5 -70q-36 -5 -85 -5 q-140 0 -289 57zM406 823q0 -124 68.5 -199.5t194.5 -75.5q119 0 227 63.5t175 169.5q26 138 26 233q0 141 -60.5 217t-200.5 76q-150 0 -267 -110t-151 -270q-12 -54 -12 -104z" />
<glyph unicode=":" horiz-adv-x="266" d="M73 0l24 109h121l-23 -109h-122zM261 880l23 109h121l-23 -109h-121z" />
<glyph unicode=";" horiz-adv-x="266" d="M69 -86l50 86h-46l24 109h121l-23 -106l-52 -89h-74zM261 880l23 109h121l-23 -109h-121z" />
<glyph unicode="&#x3c;" horiz-adv-x="899" d="M181 600l24 111l840 403l-23 -112l-728 -344l580 -349l-23 -111z" />
<glyph unicode="=" horiz-adv-x="1032" d="M175 394l16 78h850l-16 -78h-850zM255 769l16 78h850l-17 -78h-849z" />
<glyph unicode="&#x3e;" horiz-adv-x="899" d="M133 198l24 111l729 349l-582 344l24 112l670 -403l-24 -111z" />
<glyph unicode="?" horiz-adv-x="870" d="M264 0l23 109h121l-23 -109h-121zM347 1302v73q212 81 384 81q146 0 239 -66t93 -196q0 -34 -10 -84q-24 -117 -85 -193.5t-188 -145.5q-14 -8 -55 -30t-55.5 -30t-41 -24.5t-43 -31.5t-31.5 -32q-52 -60 -76 -172l-12 -53h-115l11 53q27 124 96 200q10 11 20.5 21 t23.5 20t22.5 17.5t26.5 18t25.5 16t28.5 17t27.5 15.5t31 16.5t30.5 16.5q111 59 167 128t78 173q8 40 8 70q0 97 -67 146t-183 49q-146 0 -350 -73z" />
<glyph unicode="@" horiz-adv-x="1740" d="M163 262q0 83 20 178q47 222 186.5 401t340 280t423.5 101q296 0 472 -143t176 -398q0 -81 -19 -169q-47 -220 -181.5 -335.5t-329.5 -128.5h-117l-16 66q-132 -84 -280 -84q-116 0 -175 66t-59 189q0 63 17 145q39 184 143 292t257 108q180 0 301 -112l-119 -557l10 -53 q177 12 296 111.5t159 286.5q18 84 18 159q0 229 -154.5 356t-414.5 127q-196 0 -373 -90t-301.5 -252.5t-167.5 -365.5q-18 -82 -18 -168q0 -220 128 -362.5t349 -167.5q48 -3 87 -3q36 0 53 1l-7 -72q-52 -4 -81 -4q-38 0 -70 4q-256 26 -404.5 187t-148.5 407zM688 306 q0 -200 187 -200q132 0 256 82l103 484q-93 81 -219 81q-121 0 -200.5 -85.5t-111.5 -237.5q-15 -69 -15 -124z" />
<glyph unicode="A" d="M39 0l824 1434h159l215 -1434h-140l-58 397h-634l-226 -397h-140zM446 494h590l-122 816z" />
<glyph unicode="B" horiz-adv-x="1286" d="M192 0l304 1434h583q138 0 221.5 -73t83.5 -201q0 -43 -10 -89q-28 -132 -108.5 -217t-176.5 -114q84 -21 139.5 -89t55.5 -176q0 -42 -11 -95q-21 -99 -70 -174t-115.5 -119t-142 -65.5t-158.5 -21.5h-595zM336 98h448q127 0 227 75t129 213q7 35 7 70q0 101 -66 160 t-171 59h-451zM479 773h426q122 0 216.5 72.5t123.5 208.5q8 38 8 69q0 99 -63.5 156t-164.5 57h-426z" />
<glyph unicode="C" horiz-adv-x="1306" d="M265 501q0 103 24 215q34 158 104.5 292t171.5 234.5t237 157t290 56.5q148 0 256 -31q111 -31 111 -149q0 -29 -8 -67l-8 -39h-93l2 19q5 23 5 41q0 81 -81 99q-89 18 -196 18h-11q-162 -2 -296.5 -86t-221 -224.5t-125.5 -320.5q-22 -101 -22 -195q0 -198 100.5 -315 t295.5 -121q20 -1 40 -1q179 0 359 57l5 -95q-199 -71 -427 -71q-168 0 -285 68t-172 184.5t-55 273.5z" />
<glyph unicode="D" horiz-adv-x="1415" d="M192 0l304 1434h444q254 0 385.5 -135.5t131.5 -370.5q0 -99 -24 -210q-34 -158 -104 -289t-170 -226.5t-234.5 -149t-289.5 -53.5h-443zM348 98h308q164 0 297.5 81.5t219 220t123.5 318.5q22 101 22 195q0 196 -101 309.5t-298 113.5h-308z" />
<glyph unicode="E" horiz-adv-x="1138" d="M192 0l304 1434h848l-20 -98h-713l-115 -544h623l-21 -98h-623l-127 -596h716l-20 -98h-852z" />
<glyph unicode="F" horiz-adv-x="1114" d="M192 0l304 1434h827l-23 -111h-691l-123 -576h595l-21 -98h-595l-138 -649h-135z" />
<glyph unicode="G" horiz-adv-x="1388" d="M261 501q0 103 24 215q34 158 104.5 292t171.5 234.5t236.5 157t289.5 56.5q225 0 411 -73l-45 -96q-175 61 -356 61h-33q-162 -3 -296.5 -88.5t-221 -225.5t-124.5 -318q-23 -109 -23 -203q0 -199 99 -316.5t298 -117.5q91 0 183.5 31.5t168.5 81.5l92 435h-333l17 78 h445l-126 -591q-236 -136 -470 -136q-251 0 -381.5 142t-130.5 381z" />
<glyph unicode="H" horiz-adv-x="1417" d="M192 0l304 1434h136l-137 -643h765l136 643h136l-305 -1434h-135l147 693h-764l-148 -693h-135z" />
<glyph unicode="I" horiz-adv-x="518" d="M192 0l304 1434h136l-305 -1434h-135z" />
<glyph unicode="J" horiz-adv-x="751" d="M70 -1l29 116q76 -19 133 -19q76 0 126 28q104 45 131 174l241 1136h136l-246 -1159q-23 -107 -89.5 -174.5t-154.5 -91.5q-64 -29 -150 -29q-72 0 -156 19z" />
<glyph unicode="K" horiz-adv-x="1409" d="M192 0l304 1434h136l-138 -650h256l588 650h144l-629 -695l147 -441q39 -112 100 -161.5t156 -49.5q47 0 132 16l-13 -93q-163 -21 -203 -21q-107 0 -178 57.5t-114 179.5l-151 462h-255l-146 -688h-136z" />
<glyph unicode="L" horiz-adv-x="1009" d="M192 0l304 1434h136l-281 -1322h646l-24 -112h-781z" />
<glyph unicode="M" horiz-adv-x="1755" d="M184 0l304 1434h169l265 -1216l781 1216h169l-305 -1434h-136l256 1201l-771 -1201h-82l-259 1201l-256 -1201h-135z" />
<glyph unicode="N" horiz-adv-x="1425" d="M181 0l305 1434h142l531 -1204l256 1204h136l-305 -1434h-141l-532 1205l-256 -1205h-136z" />
<glyph unicode="O" horiz-adv-x="1562" d="M265 503q0 98 25 215q34 158 104.5 292t171.5 234.5t237 157t290 56.5q127 0 225 -38.5t160.5 -108.5t94.5 -165.5t32 -212.5q0 -103 -24 -215q-34 -158 -104.5 -292.5t-171.5 -234.5t-237 -157t-290 -57q-127 0 -225.5 38.5t-161 109t-94.5 166t-32 212.5zM403 515 q0 -199 99 -316.5t298 -117.5q126 0 235.5 50t189.5 137.5t135.5 201.5t84.5 248q23 109 23 203q0 199 -99 317t-298 118q-126 0 -235.5 -50t-189.5 -138t-135.5 -202t-84.5 -248q-23 -109 -23 -203z" />
<glyph unicode="P" d="M192 0l304 1434h566q146 0 242.5 -85.5t96.5 -235.5q0 -49 -12 -104q-40 -189 -182 -303.5t-324 -114.5h-434l-125 -591h-132zM470 689h405q136 0 241 83t138 238q10 50 10 85q0 113 -69.5 177t-182.5 64h-404z" />
<glyph unicode="Q" horiz-adv-x="1562" d="M265 503q0 98 25 215q34 158 104.5 292t171.5 234.5t237 157t290 56.5q127 0 225 -38.5t160.5 -108.5t94.5 -165.5t32 -212.5q0 -103 -24 -215q-36 -170 -113.5 -311t-197 -242.5t-265.5 -140.5l55 -59q67 -72 170 -80h174l-17 -78h-210q-73 0 -125 21.5t-98 69.5l-80 88 q-46 -9 -96 -9q-127 0 -225.5 38.5t-161 109t-94.5 166t-32 212.5zM403 515q0 -199 99 -316.5t298 -117.5q126 0 235.5 50t189.5 137.5t135.5 201.5t84.5 248q23 109 23 203q0 199 -99 317t-298 118q-126 0 -235.5 -50t-189.5 -138t-135.5 -202t-84.5 -248 q-23 -109 -23 -203z" />
<glyph unicode="R" horiz-adv-x="1390" d="M192 0l304 1434h595q138 0 229.5 -80.5t91.5 -221.5q0 -44 -11 -97q-34 -159 -144 -255t-256 -112l-110 -2l163 -381q36 -84 81.5 -129t107.5 -61q35 -8 67 -8q27 0 42 2l-16 -93q-63 -4 -107 -4t-83 9q-134 32 -210 211l-179 431h-298l-137 -643h-130zM480 741h434 q127 0 224.5 76t127.5 219q8 36 8 77q0 104 -64.5 163.5t-169.5 59.5h-434z" />
<glyph unicode="S" horiz-adv-x="1140" d="M106 43l29 114q114 -32 206.5 -48t214.5 -16q188 0 298.5 82.5t137.5 207.5q6 32 6 56q0 84 -67 133.5t-225 102.5l-109 38q-126 43 -198 119t-72 184q0 33 8 73q22 103 79.5 177.5t138 115t167 58.5t182.5 18q192 0 406 -64l-28 -110q-198 62 -375 62q-373 0 -428 -254 q-6 -24 -6 -48q0 -77 58.5 -136.5t164.5 -95.5l108 -37q177 -60 259.5 -126.5t82.5 -177.5q0 -37 -9 -79q-39 -186 -197 -300q-156 -113 -402 -112h-4q-243 8 -426 63z" />
<glyph unicode="T" horiz-adv-x="1067" d="M323 1336l20 98h992l-21 -98h-428l-284 -1336h-136l284 1336h-427z" />
<glyph unicode="U" horiz-adv-x="1411" d="M273 316q0 68 18 151l205 967h136l-207 -972q-16 -74 -16 -137q0 -127 76.5 -185.5t238.5 -58.5q199 0 308.5 90t152.5 291l206 972h136l-206 -967q-104 -487 -619 -487q-429 0 -429 336z" />
<glyph unicode="V" horiz-adv-x="1216" d="M343 1434h137l159 -1293l709 1293h137l-797 -1434h-157z" />
<glyph unicode="W" horiz-adv-x="1781" d="M343 1434h137l73 -1252l584 1252h119l52 -1252l605 1252h136l-696 -1434h-150l-61 1179l-561 -1179h-150z" />
<glyph unicode="X" horiz-adv-x="1193" d="M55 0l644 736l-314 698h140l266 -595l519 595h141l-612 -698l332 -736h-140l-284 632l-552 -632h-140z" />
<glyph unicode="Y" horiz-adv-x="1251" d="M343 1434h140l281 -788l616 788h139l-712 -905l-112 -529h-136l112 528z" />
<glyph unicode="Z" horiz-adv-x="1202" d="M99 0l24 111l1078 1225h-766l21 98h900l-23 -111l-1072 -1225h865l-21 -98h-1006z" />
<glyph unicode="[" horiz-adv-x="436" d="M2 -418l400 1879h272l-17 -78h-172l-366 -1723h172l-17 -78h-272z" />
<glyph unicode="\" horiz-adv-x="829" d="M350 1434h101l334 -1434h-101z" />
<glyph unicode="]" horiz-adv-x="436" d="M-14 -418l16 78h172l367 1723h-172l16 78h273l-400 -1879h-272z" />
<glyph unicode="^" horiz-adv-x="1044" d="M207 674l565 760h112l241 -760h-111l-210 659l-485 -659h-112z" />
<glyph unicode="_" horiz-adv-x="1253" d="M17 -274l16 77h1104l-16 -77h-1104z" />
<glyph unicode="`" horiz-adv-x="473" d="M390 1536h100l184 -356h-81z" />
<glyph unicode="a" horiz-adv-x="1157" d="M189 312q0 82 21 182q51 240 183 378.5t323 138.5q189 0 311 -116l35 94h97l-174 -820l1 -32q2 -30 15 -43.5t44 -14.5h46l-16 -79h-96q-84 0 -100 76l-4 28q-177 -125 -375 -125q-151 0 -231 85.5t-80 247.5zM305 336q0 -126 60.5 -191t179.5 -65q173 0 329 98l134 630 q-118 101 -285 101q-154 0 -256.5 -111.5t-143.5 -303.5q-18 -87 -18 -158z" />
<glyph unicode="b" horiz-adv-x="1134" d="M211 112l247 1163q3 13 3 25q0 52 -63 55h-50l17 79h124q95 0 95 -81q0 -18 -4 -35l-90 -423q172 117 360 117q152 0 229.5 -89t77.5 -249q0 -82 -21 -179q-54 -253 -195.5 -384.5t-346.5 -131.5q-212 0 -383 133zM338 179q116 -99 287 -99q153 0 254 106.5t144 308.5 q17 83 17 149q0 126 -60 195.5t-181 69.5q-166 0 -328 -101z" />
<glyph unicode="c" horiz-adv-x="995" d="M193 346q0 68 17 148q48 227 199.5 371.5t365.5 144.5q113 0 197 -27q99 -27 99 -131q0 -26 -6 -56l-9 -44h-82l3 16q4 17 4 37q0 79 -79 94q-62 12 -144 12h-13q-160 -3 -272 -119.5t-150 -297.5q-14 -63 -14 -127q0 -135 70.5 -214t206.5 -79q153 0 311 52l6 -93 q-174 -53 -348 -53q-177 0 -269.5 99.5t-92.5 266.5z" />
<glyph unicode="d" horiz-adv-x="1146" d="M189 312q0 82 21 182q51 240 183 378.5t323 138.5q189 0 311 -116l90 423q25 116 140 116h123l-16 -80h-50q-78 -3 -94 -80l-235 -1105l1 -32q2 -30 15 -43.5t44 -14.5h46l-16 -79h-96q-84 0 -100 76l-4 28q-177 -125 -375 -125q-151 0 -231 85.5t-80 247.5zM305 336 q0 -126 60.5 -191t179.5 -65q171 0 329 98l134 630q-118 101 -285 101q-154 0 -256.5 -111.5t-143.5 -303.5q-18 -87 -18 -158z" />
<glyph unicode="e" horiz-adv-x="1015" d="M194 347q0 72 16 148q23 110 73.5 203.5t122.5 163t168.5 108.5t206.5 39q80 0 138.5 -17.5t90 -48t46 -64t14.5 -71.5q0 -84 -54 -163t-153 -128q-81 -39 -197 -66.5t-185 -35.5t-172 -17q-2 -30 -2 -42q-1 -133 75 -213q75 -79 215 -79h4q147 0 318 49l3 -68 q-165 -65 -367 -65q-177 0 -269 99.5t-92 267.5zM322 470q214 18 318 43q96 22 163 55q75 37 117 96.5t42 122.5q0 26 -9 49t-30 46t-64 36.5t-104 13.5q-161 0 -273.5 -114.5t-150.5 -292.5q-6 -29 -9 -55z" />
<glyph unicode="f" horiz-adv-x="724" d="M37 -250q70 20 118.5 65.5t67.5 135.5l201 942h-140l21 96h139l44 207q38 180 186 233q59 22 139 22q75 0 158 -18l-34 -87q-71 11 -123 11t-91 -12q-95 -31 -121 -149l-44 -207h270l-20 -96h-271l-200 -942q-26 -121 -102.5 -185t-159.5 -79z" />
<glyph unicode="g" horiz-adv-x="1097" d="M145 -344l34 72q199 -36 287 -36q53 0 96 7q216 28 259 233l38 182q-183 -114 -367 -114q-148 0 -225 86t-77 239q0 79 19 164q55 252 195.5 383.5t344.5 131.5q217 0 385 -134l-200 -938q-60 -280 -360 -311q-48 -7 -104 -7q-126 0 -325 42zM307 356q0 -121 60.5 -190.5 t181.5 -69.5q166 0 328 101l129 607q-114 99 -286 99q-153 0 -253 -105.5t-145 -308.5q-15 -71 -15 -133z" />
<glyph unicode="h" horiz-adv-x="1171" d="M168 0l304 1434h114l-124 -583q87 63 202.5 112t232.5 49q128 0 184.5 -59.5t56.5 -170.5q0 -64 -17 -146l-91 -429q-5 -25 -5 -40q0 -85 104 -88l-17 -79h-49q-156 2 -156 136q0 28 7 59l94 444q13 65 13 110q0 77 -41.5 118t-140.5 41q-110 0 -217 -50t-182 -110 l-159 -748h-113z" />
<glyph unicode="i" horiz-adv-x="481" d="M203 0l176 830q3 14 3 25q0 53 -63 56h-49l17 78h103q111 0 111 -100q0 -21 -6 -47l-179 -842h-113zM454 1183l43 200h113l-42 -200h-114z" />
<glyph unicode="j" horiz-adv-x="493" d="M-160 -330q21 -1 64 -1q52 0 92 7t81 26.5t69 60.5t41 102l239 1124h114l-240 -1124q-55 -261 -363 -261q-36 0 -66 3zM467 1183l43 200h113l-42 -200h-114z" />
<glyph unicode="k" horiz-adv-x="1083" d="M160 0l304 1434h114l-175 -823h222q149 1 261 91t151 258l6 31h111l-5 -29q-39 -182 -163 -290.5t-283 -119.5h-5l317 -552h-123l-304 519h-205l-110 -519h-113z" />
<glyph unicode="l" horiz-adv-x="514" d="M186 136q0 28 7 59l263 1239h114l-261 -1227q-5 -25 -5 -40q0 -85 104 -88l-16 -79h-51q-155 2 -155 136z" />
<glyph unicode="m" horiz-adv-x="1792" d="M189 0l177 830q2 9 2 25q0 53 -62 56h-50l17 78h142q81 0 81 -68q0 -12 -3 -27l-10 -43q46 33 78 54t85.5 49.5t110.5 43t116 14.5q210 0 233 -175q54 38 87.5 60t91.5 53.5t117.5 46.5t120.5 15q130 0 187 -59.5t57 -169.5q0 -64 -17 -144l-92 -432q-5 -25 -5 -40 q0 -83 97 -88h7l-16 -79h-51q-155 2 -155 136q0 28 7 59l94 444q15 67 15 111q0 76 -42 117t-141 41q-51 0 -100.5 -13t-95 -38.5t-75 -45.5t-69.5 -50l-6 -4.5t-5 -4t-6 -4.5q-3 -59 -16 -117l-134 -631h-114l136 639q14 62 14 111q0 76 -42 117t-141 41q-44 0 -89.5 -12 t-75.5 -24t-73.5 -40.5t-58 -39.5t-55.5 -42l-159 -750h-114z" />
<glyph unicode="n" horiz-adv-x="1183" d="M189 0l177 830q2 9 2 25q0 53 -62 56h-50l17 78h142q81 0 81 -68q0 -12 -3 -27l-10 -46q91 65 206 114t231 49q127 0 183 -59.5t56 -169.5q0 -61 -16 -143l-92 -432q-5 -25 -5 -40q0 -85 99 -88h5l-17 -79h-49q-156 2 -156 136q0 28 7 59l94 444q13 65 13 110 q0 77 -41 118t-140 41q-111 0 -217 -50t-182 -110l-159 -748h-114z" />
<glyph unicode="o" horiz-adv-x="1118" d="M193 346q0 68 17 148q23 110 73 203.5t121 163.5t166.5 109.5t204.5 39.5q177 0 269.5 -100t92.5 -267q0 -69 -17 -149q-23 -110 -73 -203.5t-120.5 -162.5t-166 -108.5t-204.5 -39.5q-178 0 -270.5 99.5t-92.5 266.5zM309 369q0 -131 67.5 -209.5t200.5 -78.5 q163 0 277.5 116.5t152.5 296.5q14 68 14 125q0 132 -68 210.5t-200 78.5q-163 0 -277.5 -116.5t-152.5 -297.5q-14 -68 -14 -125z" />
<glyph unicode="p" horiz-adv-x="1148" d="M125 -369l253 1193l-2 28q-2 30 -15 43.5t-44 14.5h-47l17 79h138q71 0 77 -66l4 -26q162 112 358 112q151 0 230.5 -85.5t79.5 -245.5q0 -82 -21 -179q-49 -231 -182 -367.5t-324 -136.5q-185 0 -308 117l-102 -481h-112zM357 199q119 -102 287 -102q154 0 255 106.5 t141 295.5q18 87 18 157q0 253 -240 253q-177 0 -331 -99z" />
<glyph unicode="q" horiz-adv-x="1105" d="M190 319q0 83 21 180q53 251 193.5 381t344.5 130q227 0 386 -135l-264 -1244h-113l102 478q-182 -115 -366 -115q-151 0 -227.5 84.5t-76.5 240.5zM308 354q0 -123 60 -190t181 -67q167 0 330 102l130 611q-118 99 -288 99q-153 0 -253 -104t-143 -306q-17 -82 -17 -145 z" />
<glyph unicode="r" horiz-adv-x="774" d="M187 0l170 798q4 17 4 35q0 74 -90 77l-17 1l17 78h110q107 0 107 -90q0 -17 -5 -40l-11 -51q119 146 315 189q63 14 148 15l-22 -107q-42 2 -55 2q-47 0 -96 -9q-100 -20 -183.5 -79t-133.5 -140l-145 -679h-113z" />
<glyph unicode="s" horiz-adv-x="952" d="M101 32l18 70q87 -24 161.5 -34.5t184.5 -10.5q126 0 206 57.5t98 144.5q4 19 4 40q0 62 -49 100.5t-150 63.5l-122 30q-190 51 -190 196q0 34 6 59q16 76 58.5 130t103 82t124 40.5t136.5 12.5q93 0 184.5 -16t151.5 -39l-19 -73q-171 47 -316 47q-271 0 -309 -181 q-4 -17 -4 -37q0 -105 165 -148l117 -29q115 -29 175 -79.5t60 -132.5q0 -26 -6 -56q-27 -130 -140 -212t-288 -82q-224 0 -360 57z" />
<glyph unicode="t" horiz-adv-x="755" d="M247 146q0 39 10 86l141 661h-140l21 96h139l68 273h104l-58 -273h298l-21 -96h-298l-140 -661q-6 -26 -6 -47q0 -66 55 -93q35 -16 96 -16q54 0 122 10l-16 -92q-82 -14 -143 -14q-60 0 -102 14q-64 13 -97 48t-33 104z" />
<glyph unicode="u" horiz-adv-x="1153" d="M204 202q0 57 16 132l140 655h113l-136 -639q-13 -65 -13 -109q0 -77 41.5 -118t141.5 -41q109 0 216 50t182 109l159 748h114l-167 -782q-4 -20 -4 -40q0 -85 103 -88l-16 -79h-100q-114 2 -114 101q0 24 3 38q-91 -63 -209 -112.5t-229 -49.5q-241 0 -241 225z" />
<glyph unicode="v" horiz-adv-x="1155" d="M254 298q0 39 10 91l83 393q5 27 5 42q0 84 -98 87l17 78h63q136 -3 136 -131q0 -32 -7 -64l-83 -393q-8 -42 -8 -78q0 -107 64.5 -175.5t198.5 -68.5q79 0 145.5 30.5t114 85.5t80 124.5t52.5 154.5q28 124 28 263q0 133 -24 252l121 7q21 -116 21 -243q0 -166 -36 -306 q-25 -100 -69 -183t-107 -149t-152 -103t-195 -37q-175 0 -267.5 90.5t-92.5 232.5z" />
<glyph unicode="w" horiz-adv-x="1849" d="M253 287q0 45 11 102l83 393q5 27 5 42q0 84 -98 87l17 78h63q136 -3 136 -131q0 -32 -7 -64l-83 -393q-9 -43 -9 -81q0 -114 68 -176.5t170 -62.5q123 0 234.5 90.5t149.5 252.5l120 565h109l-125 -588q-9 -46 -9 -85q0 -114 65 -176.5t164 -62.5q131 0 247.5 106.5 t160.5 289.5q30 129 30 271q0 125 -24 245l116 7q22 -123 22 -243q0 -164 -37 -306q-56 -219 -207 -346.5t-316 -127.5q-118 0 -203.5 73t-99.5 206q-72 -131 -193 -204t-244 -73q-134 0 -225 82t-91 230z" />
<glyph unicode="x" horiz-adv-x="946" d="M28 0l488 510l-253 479h119l216 -404l389 404h118l-457 -479l272 -510h-119l-234 436l-420 -436h-119z" />
<glyph unicode="y" horiz-adv-x="978" d="M-23 -365l32 76q61 -18 102 -18q14 0 40 4q75 17 133.5 75t112.5 148l48 80h-5l-177 989h115l142 -849l502 849h115l-643 -1083q-146 -252 -341 -291q-21 -4 -48 -4q-62 0 -128 24z" />
<glyph unicode="z" horiz-adv-x="995" d="M82 0l21 96l823 805h-617l19 88h736l-20 -97l-822 -805h671l-19 -87h-792z" />
<glyph unicode="{" horiz-adv-x="661" d="M158 -236q0 26 6 54l109 512q6 28 6 51q0 89 -85 111l-17 2l17 75l18 3q60 17 96 54t51 107l109 513q17 82 66 132.5t118 69.5q55 13 119 13q45 0 111 -8l-17 -74q-51 6 -92 6q-62 0 -100 -14q-85 -32 -108 -139l-103 -482q-18 -85 -70 -142t-122 -77q49 -16 77.5 -56.5 t28.5 -100.5q0 -35 -6 -61l-103 -483q-5 -21 -5 -46q0 -50 30 -75q33 -30 120 -30q25 0 93 6l-15 -76q-62 -6 -96 -6q-100 0 -163 32q-73 38 -73 129z" />
<glyph unicode="|" horiz-adv-x="272" d="M34 -270l384 1806h90l-384 -1806h-90z" />
<glyph unicode="}" horiz-adv-x="661" d="M8 -391l17 76q66 -6 90 -6q87 0 133 30q59 38 77 121l103 483q18 85 70 141.5t122 76.5q-49 16 -77.5 57t-28.5 102q0 29 7 60l102 482q6 27 6 48q0 68 -55 91q-32 14 -94 14q-41 0 -95 -6l15 74q70 8 114 8q64 0 113 -13q106 -32 106 -145q0 -20 -7 -57l-109 -513 q-6 -30 -6 -53q0 -81 84 -108l18 -3l-16 -75l-18 -2q-119 -29 -147 -162l-110 -512q-28 -133 -143 -183q-77 -32 -178 -32q-35 0 -93 6z" />
<glyph unicode="~" horiz-adv-x="1116" d="M169 452q58 112 153.5 181t197.5 69q74 0 127 -35l213 -139q57 -38 98 -38q57 0 110 45t80 117l34 -7q-31 -97 -106 -161t-156 -64q-56 0 -120 43l-215 140q-43 29 -103 29q-76 0 -152 -51.5t-128 -137.5z" />
<glyph unicode="&#xa1;" horiz-adv-x="411" d="M71 -369l228 1031h97l-210 -1031h-115zM349 956l24 109h121l-23 -109h-122z" />
<glyph unicode="&#xa2;" horiz-adv-x="999" d="M193 345q0 69 17 149q30 140 99 251t177.5 181.5t240.5 78.5l30 140h89l-29 -137q146 -5 282 -52l-38 -79q-141 52 -287 52q-170 0 -290 -120.5t-161 -313.5q-15 -70 -15 -135q0 -139 71.5 -219.5t209.5 -80.5q150 0 309 51l5 -78q-152 -46 -304 -51l-29 -138h-90l30 140 q-156 10 -236.5 107.5t-80.5 253.5z" />
<glyph unicode="&#xa3;" horiz-adv-x="1308" d="M135 1l20 96h56q97 0 150 51.5t76 160.5l83 390h-183l19 89h183l11 50q16 76 32.5 135.5t42 125.5t56 115t74 95.5t96.5 76.5t123.5 47.5t154.5 17.5q104 0 197 -33t153 -74l-77 -96q-50 35 -125.5 62t-162.5 27q-62 0 -114 -13.5t-90.5 -35.5t-70.5 -59.5t-53.5 -76 t-41 -94t-32 -105t-27.5 -117.5l-10 -48h536l-18 -89h-537l-83 -390q-35 -162 -147 -212h801l-21 -96h-1071z" />
<glyph unicode="&#xa5;" horiz-adv-x="1456" d="M312 339l18 87h422l22 102l-46 126h-349l18 87h300l-252 693h140l281 -788l616 788h140l-546 -693h302l-18 -87h-352l-99 -125l-22 -103h424l-18 -87h-424l-72 -339h-136l72 339h-421z" />
<glyph unicode="&#xa6;" horiz-adv-x="272" d="M34 -270l162 762h90l-162 -762h-90zM251 751l162 763h91l-162 -763h-91z" />
<glyph unicode="&#xa7;" horiz-adv-x="907" d="M73 -98l18 69q85 -22 157 -31.5t181 -9.5q141 0 223.5 71t82.5 170q0 62 -49.5 100.5t-150.5 63.5l-122 30q-190 51 -190 196q0 30 7 59q34 161 195 217q-110 54 -110 161q0 25 6 55q16 76 59 130t103.5 82t124 40.5t136.5 12.5q193 0 335 -55l-19 -73q-186 47 -316 47 q-271 0 -309 -181q-4 -17 -4 -37q0 -105 165 -148l117 -29q115 -29 175 -79.5t60 -132.5q0 -26 -6 -56q-33 -154 -173 -226q87 -57 87 -153q0 -25 -6 -54q-27 -129 -138.5 -211t-283.5 -82q-234 0 -355 54zM322 590q0 -102 151 -141l114 -27q55 -13 98 -33q77 29 120 88 t43 129q0 61 -47.5 99.5t-144.5 61.5l-114 27l-19 6q-168 -31 -197 -172q-4 -17 -4 -38z" />
<glyph unicode="&#xa8;" horiz-adv-x="591" d="M346 1349l18 85h85l-18 -85h-85zM737 1349l18 85h85l-18 -85h-85z" />
<glyph unicode="&#xa9;" horiz-adv-x="1685" d="M226 567q0 76 16 153q32 149 120.5 285.5t210.5 235.5t273.5 157.5t304.5 58.5q272 0 443.5 -167t171.5 -420q0 -76 -16 -150q-43 -202 -180 -373t-332.5 -270.5t-401.5 -99.5q-178 0 -317.5 77t-216 211.5t-76.5 301.5zM302 582q0 -229 153.5 -379t396.5 -150 q186 0 362 89t300 242.5t162 335.5q14 64 14 135q0 149 -69 269t-196.5 189.5t-289.5 69.5q-184 0 -359 -89t-298 -241.5t-161 -332.5q-15 -70 -15 -138zM652 608q0 46 13 108q35 164 143.5 269.5t263.5 105.5q117 0 203 -36l-28 -57q-98 32 -189 29q-119 -2 -202.5 -88 t-112.5 -223q-11 -53 -11 -97q0 -98 49 -155.5t145 -58.5q89 -3 201 29l4 -57q-100 -35 -219 -35q-127 0 -193.5 72.5t-66.5 193.5z" />
<glyph unicode="&#xaa;" horiz-adv-x="706" d="M328 1072q0 40 11 95q27 127 98.5 202t174.5 75q97 0 158 -56l18 45h68l-91 -430v-16q0 -15 6 -21t21 -7l29 -1l-12 -56h-60q-49 0 -58 45l-1 8q-89 -63 -195 -63q-81 0 -124 46.5t-43 133.5zM408 1087q0 -126 118 -126q85 0 163 47l67 317q-60 49 -141 49 q-77 0 -127.5 -55.5t-70.5 -151.5q-9 -45 -9 -80z" />
<glyph unicode="&#xab;" horiz-adv-x="819" d="M176 452l253 484h103l-259 -483l60 -453h-103zM578 452l253 484h103l-259 -483l60 -453h-104z" />
<glyph unicode="&#xac;" horiz-adv-x="1333" />
<glyph unicode="&#xad;" horiz-adv-x="692" d="M216 588l21 98h510l-21 -98h-510z" />
<glyph unicode="&#xae;" horiz-adv-x="1685" d="M226 567q0 76 16 153q32 149 120.5 285.5t210.5 235.5t273.5 157.5t304.5 58.5q272 0 443.5 -167t171.5 -420q0 -76 -16 -150q-43 -202 -180 -373t-332.5 -270.5t-401.5 -99.5q-178 0 -317.5 77t-216 211.5t-76.5 301.5zM302 582q0 -229 153.5 -379t396.5 -150 q186 0 362 89t300 242.5t162 335.5q14 64 14 135q0 149 -69 269t-196.5 189.5t-289.5 69.5q-184 0 -359 -89t-298 -241.5t-161 -332.5q-15 -70 -15 -138zM677 356l154 726h302q71 0 118 -41.5t47 -113.5q0 -23 -6 -49q-17 -81 -74 -131t-132 -58h-15l136 -333h-82l-132 322 h-173l-68 -322h-75zM833 739h212q62 0 108.5 36t60.5 104q4 17 4 35q0 49 -31.5 77.5t-82.5 28.5h-211z" />
<glyph unicode="&#xaf;" horiz-adv-x="716" d="M345 1360l16 74h606l-16 -74h-606z" />
<glyph unicode="&#xb0;" horiz-adv-x="526" d="M367 1286q0 83 66.5 147t148.5 64q62 0 101.5 -39.5t39.5 -99.5q0 -83 -66.5 -146.5t-148.5 -63.5q-62 0 -101.5 39t-39.5 99zM422 1298q0 -41 27.5 -68.5t69.5 -27.5q56 0 102.5 44.5t46.5 100.5q0 41 -27.5 68t-70.5 27q-56 0 -102 -44t-46 -100z" />
<glyph unicode="&#xb1;" horiz-adv-x="1024" d="M88 0l20 98h850l-20 -98h-850zM239 714l21 98h376l78 366h98l-78 -366h376l-21 -98h-376l-78 -368h-98l78 368h-376z" />
<glyph unicode="&#xb2;" horiz-adv-x="661" d="M235 679l15 69q188 107 311 227q148 145 148 267q0 60 -38.5 87.5t-101.5 27.5q-86 0 -183 -46l5 69q106 54 215 54q85 0 143 -43.5t58 -127.5q0 -137 -152 -292q-105 -110 -277 -220h353l-15 -72h-481z" />
<glyph unicode="&#xb3;" horiz-adv-x="667" d="M245 726l23 61q70 -45 170 -45q195 0 224 141q3 15 3 28q0 50 -39 80.5t-103 32.5h-117l14 63h108q68 2 121.5 41.5t67.5 105.5q3 15 3 28q0 50 -40.5 74t-110.5 24q-79 0 -174 -45l4 64q108 55 209 55q92 0 154.5 -37.5t62.5 -110.5q0 -21 -4 -38q-28 -130 -163 -188 q109 -47 109 -150q0 -22 -4 -41q-12 -55 -43 -95.5t-75 -62.5t-92 -32t-102 -10q-62 0 -119.5 15t-86.5 42z" />
<glyph unicode="&#xb4;" horiz-adv-x="473" d="M304 1180l335 356h99l-353 -356h-81z" />
<glyph unicode="&#xb6;" horiz-adv-x="1060" d="M295 930q0 47 12 101q38 177 176 290t304 113h489l-17 -84h-131l-347 -1633h-66l347 1633h-131l-347 -1633h-90l194 914h-74q-142 1 -230.5 80t-88.5 219z" />
<glyph unicode="&#xb7;" horiz-adv-x="266" d="M192 561l23 109h122l-23 -109h-122z" />
<glyph unicode="&#xb8;" horiz-adv-x="487" d="M-25 -375l13 43q36 -8 100 -8q53 0 99.5 13.5t79.5 45t33 74.5q0 31 -23.5 52.5t-70.5 21.5q-31 0 -50 -2l-32 14l96 125h45l-64 -90h48q64 0 97 -31t33 -77q0 -14 -3 -27q-12 -56 -58 -94.5t-102 -54t-117 -15.5q-69 0 -124 10z" />
<glyph unicode="&#xb9;" horiz-adv-x="497" d="M358 687l144 677l-112 -19v61l161 27h51l-159 -746h-85z" />
<glyph unicode="&#xba;" horiz-adv-x="673" d="M331 1091q0 37 9 78q26 121 107.5 198.5t197.5 77.5q96 0 146.5 -54.5t50.5 -144.5q0 -36 -9 -77q-26 -121 -107.5 -198.5t-197.5 -77.5q-96 0 -146.5 54t-50.5 144zM410 1105q0 -65 33 -103.5t99 -38.5q81 0 137.5 57t76.5 148q7 31 7 64q0 65 -33.5 103.5t-99.5 38.5 q-81 0 -137 -57.5t-76 -148.5q-7 -31 -7 -63z" />
<glyph unicode="&#xbb;" horiz-adv-x="819" d="M88 0l252 453l-54 483h103l47 -484l-245 -452h-103zM489 0l253 453l-54 483h103l47 -484l-245 -452h-104z" />
<glyph unicode="&#xbc;" horiz-adv-x="1538" d="M243 -27l1218 1487h99l-1217 -1487h-100zM354 554l173 811l-138 -23v60l185 31h52l-187 -879h-85zM879 255l14 66l496 560l84 -11l-480 -546h313l60 174h61l-38 -174h127l-14 -69h-126l-54 -255h-88l55 255h-410z" />
<glyph unicode="&#xbd;" horiz-adv-x="1667" d="M248 -27l1218 1487h99l-1217 -1487h-100zM354 554l173 811l-138 -23v60l185 31h52l-187 -879h-85zM1021 0l14 69q224 126 374 275q153 151 175 274q5 24 5 53q0 74 -47 108t-124 34q-105 0 -220 -55l5 69q121 63 253 63q98 0 164 -49.5t66 -148.5q0 -33 -7 -67 q-28 -134 -176 -285q-132 -137 -342 -268h433l-16 -72h-557z" />
<glyph unicode="&#xbe;" horiz-adv-x="1703" d="M218 598l23 61q82 -54 203 -54q239 0 276 175q4 16 4 34q0 63 -49 101.5t-128 40.5h-134l13 64h126q84 2 150.5 52t83.5 132q4 17 4 35q0 61 -50.5 91.5t-134.5 30.5q-95 0 -208 -55l3 64q126 64 243 64q69 0 124 -17t91 -57t36 -98q0 -18 -5 -45q-17 -81 -71 -138.5 t-132 -85.5q64 -23 102 -69t38 -110q0 -22 -6 -48q-14 -65 -49.5 -112t-86.5 -73t-107 -37.5t-120 -11.5q-73 0 -139 17.5t-100 48.5zM410 -27l1218 1487h99l-1218 -1487h-99zM1046 255l14 65l497 561l84 -12l-480 -545h313l60 174h60l-37 -174h127l-15 -69h-126l-54 -255 h-87l54 255h-410z" />
<glyph unicode="&#xbf;" horiz-adv-x="870" d="M36 -127q0 39 9 84q25 116 86 192.5t188 145.5q14 8 55 30t55.5 30t41 24.5t43 31.5t31.5 32q52 60 76 172l11 53h115l-11 -53q-27 -126 -95 -200q-10 -11 -20.5 -21t-23.5 -20t-22.5 -17.5t-26.5 -18t-25.5 -16t-28.5 -17t-27.5 -15.5t-31 -16.5t-30.5 -16.5 q-111 -59 -167 -128t-78 -172q-8 -42 -8 -71q0 -98 67.5 -146.5t184.5 -48.5q144 0 348 73v-73q-215 -82 -383 -82q-146 0 -239.5 66.5t-93.5 197.5zM690 957l24 109h121l-23 -109h-122z" />
<glyph unicode="&#xc0;" d="M39 0l824 1434h159l215 -1434h-140l-58 397h-634l-226 -397h-140zM446 494h590l-122 816zM899 1980h100l183 -355h-81z" />
<glyph unicode="&#xc1;" d="M39 0l824 1434h159l215 -1434h-140l-58 397h-634l-226 -397h-140zM446 494h590l-122 816zM766 1625l335 355h100l-354 -355h-81z" />
<glyph unicode="&#xc2;" d="M39 0l824 1434h159l215 -1434h-140l-58 397h-634l-226 -397h-140zM446 494h590l-122 816zM681 1625l311 355h127l161 -355h-81l-154 303l-283 -303h-81z" />
<glyph unicode="&#xc3;" d="M39 0l824 1434h159l215 -1434h-140l-58 397h-634l-226 -397h-140zM446 494h590l-122 816zM690 1745q38 77 100.5 125t128.5 48q47 0 81 -23l137 -94q36 -24 63 -24q37 0 71.5 29.5t52.5 78.5l27 -7q-22 -68 -73 -114.5t-106 -46.5q-39 0 -81 29l-136 94q-28 18 -64 18 q-101 0 -173 -120z" />
<glyph unicode="&#xc4;" d="M39 0l824 1434h159l215 -1434h-140l-58 397h-634l-226 -397h-140zM446 494h590l-122 816zM778 1793l18 85h85l-18 -85h-85zM1170 1793l18 85h84l-18 -85h-84z" />
<glyph unicode="&#xc5;" d="M39 0l824 1434h159l215 -1434h-140l-58 397h-634l-226 -397h-140zM446 494h590l-122 816zM797 1769q0 104 83.5 184t186.5 80q78 0 128 -49t50 -124q0 -104 -84 -184t-187 -80q-78 0 -127.5 49t-49.5 124zM853 1780q0 -56 37 -93t96 -37q77 0 140 60t63 138 q0 56 -37 93.5t-96 37.5q-77 0 -140 -60.5t-63 -138.5z" />
<glyph unicode="&#xc6;" horiz-adv-x="1597" d="M55 0l819 1434h929l-24 -111h-712l-114 -535h623l-19 -89h-623l-125 -588h717l-24 -111h-852l84 397h-316l-226 -397h-137zM459 494h296l174 818z" />
<glyph unicode="&#xc7;" horiz-adv-x="1306" d="M265 500q0 102 24 216q34 158 104.5 292t171.5 234.5t237 157t290 56.5q148 0 256 -31q111 -31 111 -149q0 -29 -8 -67l-8 -39h-93l2 19q5 23 5 41q0 81 -81 99q-94 19 -207 18q-162 -2 -296.5 -86t-221 -224.5t-125.5 -320.5q-22 -101 -22 -195q0 -198 100.5 -315 t295.5 -121q199 -7 399 56l5 -95q-199 -71 -427 -71h-28l-45 -61h48q64 0 97 -31t33 -77q0 -14 -3 -27q-12 -56 -58 -94.5t-102 -54t-117 -15.5q-68 0 -125 10l13 43q37 -8 100 -8q53 0 99.5 13.5t79.5 45t33 74.5q0 31 -23 52.5t-70 21.5q-34 0 -50 -2l-32 14l77 100 q-145 14 -245 84.5t-147 181t-47 255.5z" />
<glyph unicode="&#xc8;" horiz-adv-x="1138" d="M192 0l304 1434h848l-20 -98h-713l-115 -544h623l-21 -98h-623l-127 -596h716l-20 -98h-852zM886 1980h100l184 -355h-81z" />
<glyph unicode="&#xc9;" horiz-adv-x="1138" d="M192 0l304 1434h848l-20 -98h-713l-115 -544h623l-21 -98h-623l-127 -596h716l-20 -98h-852zM754 1625l335 355h99l-353 -355h-81z" />
<glyph unicode="&#xca;" horiz-adv-x="1138" d="M192 0l304 1434h848l-20 -98h-713l-115 -544h623l-21 -98h-623l-127 -596h716l-20 -98h-852zM669 1625l311 355h127l160 -355h-81l-154 303l-283 -303h-80z" />
<glyph unicode="&#xcb;" horiz-adv-x="1138" d="M192 0l304 1434h848l-20 -98h-713l-115 -544h623l-21 -98h-623l-127 -596h716l-20 -98h-852zM766 1793l18 85h84l-18 -85h-84zM1157 1793l18 85h85l-18 -85h-85z" />
<glyph unicode="&#xcc;" horiz-adv-x="518" d="M192 0l304 1434h136l-305 -1434h-135zM524 1980h99l184 -355h-81z" />
<glyph unicode="&#xcd;" horiz-adv-x="518" d="M192 0l304 1434h136l-305 -1434h-135zM391 1625l335 355h100l-354 -355h-81z" />
<glyph unicode="&#xce;" horiz-adv-x="518" d="M192 0l304 1434h136l-305 -1434h-135zM306 1625l311 355h127l161 -355h-82l-153 303l-284 -303h-80z" />
<glyph unicode="&#xcf;" horiz-adv-x="518" d="M192 0l304 1434h136l-305 -1434h-135zM403 1793l18 85h85l-18 -85h-85zM795 1793l18 85h84l-18 -85h-84z" />
<glyph unicode="&#xd0;" horiz-adv-x="1437" d="M215 0l129 605h-124l21 98h123l156 731h443q254 0 385.5 -135.5t131.5 -370.5q0 -99 -24 -210q-34 -158 -104 -289t-170 -226.5t-234.5 -149t-289.5 -53.5h-443zM371 98h309q164 0 297.5 81.5t219 220t123.5 318.5q22 101 22 195q0 196 -101 309.5t-298 113.5h-308 l-135 -633h310l-21 -98h-310z" />
<glyph unicode="&#xd1;" horiz-adv-x="1425" d="M181 0l305 1434h142l531 -1204l256 1204h136l-305 -1434h-141l-532 1205l-256 -1205h-136zM768 1745q38 77 100.5 125t128.5 48q47 0 81 -23l137 -94q36 -24 63 -24q37 0 71.5 29.5t52.5 78.5l28 -7q-23 -69 -74 -115t-106 -46q-38 0 -80 29l-137 94q-28 18 -64 18 q-101 0 -173 -120z" />
<glyph unicode="&#xd2;" horiz-adv-x="1562" d="M265 503q0 98 25 215q34 158 104.5 292t171.5 234.5t237 157t290 56.5q127 0 225 -38.5t160.5 -108.5t94.5 -165.5t32 -212.5q0 -103 -24 -215q-34 -158 -104.5 -292.5t-171.5 -234.5t-237 -157t-290 -57q-127 0 -225.5 38.5t-161 109t-94.5 166t-32 212.5zM403 515 q0 -199 99 -316.5t298 -117.5q126 0 235.5 50t189.5 137.5t135.5 201.5t84.5 248q23 109 23 203q0 199 -99 317t-298 118q-126 0 -235.5 -50t-189.5 -138t-135.5 -202t-84.5 -248q-23 -109 -23 -203zM1046 1980h100l184 -355h-82z" />
<glyph unicode="&#xd3;" horiz-adv-x="1562" d="M265 503q0 98 25 215q34 158 104.5 292t171.5 234.5t237 157t290 56.5q127 0 225 -38.5t160.5 -108.5t94.5 -165.5t32 -212.5q0 -103 -24 -215q-34 -158 -104.5 -292.5t-171.5 -234.5t-237 -157t-290 -57q-127 0 -225.5 38.5t-161 109t-94.5 166t-32 212.5zM403 515 q0 -199 99 -316.5t298 -117.5q126 0 235.5 50t189.5 137.5t135.5 201.5t84.5 248q23 109 23 203q0 199 -99 317t-298 118q-126 0 -235.5 -50t-189.5 -138t-135.5 -202t-84.5 -248q-23 -109 -23 -203zM913 1625l335 355h100l-354 -355h-81z" />
<glyph unicode="&#xd4;" horiz-adv-x="1562" d="M265 503q0 98 25 215q34 158 104.5 292t171.5 234.5t237 157t290 56.5q127 0 225 -38.5t160.5 -108.5t94.5 -165.5t32 -212.5q0 -103 -24 -215q-34 -158 -104.5 -292.5t-171.5 -234.5t-237 -157t-290 -57q-127 0 -225.5 38.5t-161 109t-94.5 166t-32 212.5zM403 515 q0 -199 99 -316.5t298 -117.5q126 0 235.5 50t189.5 137.5t135.5 201.5t84.5 248q23 109 23 203q0 199 -99 317t-298 118q-126 0 -235.5 -50t-189.5 -138t-135.5 -202t-84.5 -248q-23 -109 -23 -203zM828 1625l311 355h128l160 -355h-81l-154 303l-283 -303h-81z" />
<glyph unicode="&#xd5;" horiz-adv-x="1562" d="M265 503q0 98 25 215q34 158 104.5 292t171.5 234.5t237 157t290 56.5q127 0 225 -38.5t160.5 -108.5t94.5 -165.5t32 -212.5q0 -103 -24 -215q-34 -158 -104.5 -292.5t-171.5 -234.5t-237 -157t-290 -57q-127 0 -225.5 38.5t-161 109t-94.5 166t-32 212.5zM403 515 q0 -199 99 -316.5t298 -117.5q126 0 235.5 50t189.5 137.5t135.5 201.5t84.5 248q23 109 23 203q0 199 -99 317t-298 118q-126 0 -235.5 -50t-189.5 -138t-135.5 -202t-84.5 -248q-23 -109 -23 -203zM837 1745q38 77 100.5 125t128.5 48q47 0 81 -23l137 -94q36 -24 63 -24 q37 0 71.5 29.5t52.5 78.5l27 -7q-22 -68 -73 -114.5t-106 -46.5q-38 0 -80 29l-137 94q-28 18 -64 18q-101 0 -173 -120z" />
<glyph unicode="&#xd6;" horiz-adv-x="1562" d="M265 503q0 98 25 215q34 158 104.5 292t171.5 234.5t237 157t290 56.5q127 0 225 -38.5t160.5 -108.5t94.5 -165.5t32 -212.5q0 -103 -24 -215q-34 -158 -104.5 -292.5t-171.5 -234.5t-237 -157t-290 -57q-127 0 -225.5 38.5t-161 109t-94.5 166t-32 212.5zM403 515 q0 -199 99 -316.5t298 -117.5q126 0 235.5 50t189.5 137.5t135.5 201.5t84.5 248q23 109 23 203q0 199 -99 317t-298 118q-126 0 -235.5 -50t-189.5 -138t-135.5 -202t-84.5 -248q-23 -109 -23 -203zM925 1793l18 85h85l-18 -85h-85zM1317 1793l18 85h84l-18 -85h-84z" />
<glyph unicode="&#xd7;" horiz-adv-x="813" d="M145 339l321 266l-208 266l83 69l210 -266l322 266l55 -69l-323 -266l210 -266l-84 -69l-210 266l-322 -266z" />
<glyph unicode="&#xd8;" horiz-adv-x="1562" d="M265 503q0 98 25 215q34 158 104.5 292.5t171.5 234.5t237 156.5t290 56.5q148 0 257 -52l86 130h76l-107 -162q99 -67 149.5 -180.5t50.5 -260.5q0 -103 -24 -215q-34 -158 -104.5 -292.5t-171.5 -234.5t-237 -157t-290 -57q-146 0 -257 53l-87 -132h-76l108 163 q-99 67 -150 181t-51 261zM403 515q0 -236 132 -349l749 1140q-89 50 -213 50q-126 0 -235.5 -50t-189.5 -138t-135.5 -202t-84.5 -248q-23 -109 -23 -203zM587 130q87 -49 213 -49t235.5 50t189.5 137.5t135.5 201.5t84.5 248q23 109 23 203q0 236 -132 349z" />
<glyph unicode="&#xd9;" horiz-adv-x="1411" d="M273 316q0 68 18 151l205 967h136l-207 -972q-16 -74 -16 -137q0 -127 76.5 -185.5t238.5 -58.5q199 0 308.5 90t152.5 291l206 972h136l-206 -967q-104 -487 -619 -487q-429 0 -429 336zM966 1980h99l184 -355h-81z" />
<glyph unicode="&#xda;" horiz-adv-x="1411" d="M273 316q0 68 18 151l205 967h136l-207 -972q-16 -74 -16 -137q0 -127 76.5 -185.5t238.5 -58.5q199 0 308.5 90t152.5 291l206 972h136l-206 -967q-104 -487 -619 -487q-429 0 -429 336zM833 1625l335 355h100l-354 -355h-81z" />
<glyph unicode="&#xdb;" horiz-adv-x="1411" d="M273 316q0 68 18 151l205 967h136l-207 -972q-16 -74 -16 -137q0 -127 76.5 -185.5t238.5 -58.5q199 0 308.5 90t152.5 291l206 972h136l-206 -967q-104 -487 -619 -487q-429 0 -429 336zM748 1625l311 355h127l160 -355h-81l-154 303l-283 -303h-80z" />
<glyph unicode="&#xdc;" horiz-adv-x="1411" d="M273 316q0 68 18 151l205 967h136l-207 -972q-16 -74 -16 -137q0 -127 76.5 -185.5t238.5 -58.5q199 0 308.5 90t152.5 291l206 972h136l-206 -967q-104 -487 -619 -487q-429 0 -429 336zM845 1793l18 85h84l-18 -85h-84zM1236 1793l18 85h85l-18 -85h-85z" />
<glyph unicode="&#xdd;" horiz-adv-x="1251" d="M343 1434h140l281 -788l616 788h139l-712 -905l-112 -529h-136l112 528zM792 1625l335 355h99l-353 -355h-81z" />
<glyph unicode="&#xde;" horiz-adv-x="1275" d="M192 0l304 1434h132l-49 -232h434q146 0 242.5 -85.5t96.5 -235.5q0 -47 -12 -103q-40 -189 -182 -303.5t-324 -114.5h-434l-76 -360h-132zM421 457h405q136 0 241 83.5t138 238.5q9 45 9 85q0 113 -69 176.5t-182 63.5h-405z" />
<glyph unicode="&#xdf;" horiz-adv-x="1306" d="M187 0l227 1068q24 114 103.5 199.5t179 126t203.5 40.5h166q91 0 167 -32t124 -99t48 -157q0 -41 -8 -78q-28 -130 -110 -216.5t-189 -121.5q96 -27 150.5 -96t54.5 -171q0 -37 -10 -87q-20 -94 -72.5 -169t-123 -119.5t-150 -68t-160.5 -23.5h-314l21 101h313 q126 0 224 77t128 215q8 40 8 71q0 102 -65.5 161.5t-170.5 59.5h-111l19 90h87q121 0 214.5 74t121.5 208q8 38 8 70q0 99 -62 156.5t-162 57.5h-167q-117 0 -213 -78.5t-123 -205.5l-224 -1053h-132z" />
<glyph unicode="&#xe0;" horiz-adv-x="1157" d="M189 312q0 82 21 182q51 240 183 378.5t323 138.5q189 0 311 -116l35 94h97l-174 -820l1 -32q2 -30 15 -43.5t44 -14.5h46l-16 -79h-96q-84 0 -100 76l-4 28q-177 -125 -375 -125q-151 0 -231 85.5t-80 247.5zM305 336q0 -126 60.5 -191t179.5 -65q173 0 329 98l134 630 q-118 101 -285 101q-154 0 -256.5 -111.5t-143.5 -303.5q-18 -87 -18 -158zM737 1536h99l184 -356h-81z" />
<glyph unicode="&#xe1;" horiz-adv-x="1157" d="M189 312q0 82 21 182q51 240 183 378.5t323 138.5q189 0 311 -116l35 94h97l-174 -820l1 -32q2 -30 15 -43.5t44 -14.5h46l-16 -79h-96q-84 0 -100 76l-4 28q-177 -125 -375 -125q-151 0 -231 85.5t-80 247.5zM305 336q0 -126 60.5 -191t179.5 -65q173 0 329 98l134 630 q-118 101 -285 101q-154 0 -256.5 -111.5t-143.5 -303.5q-18 -87 -18 -158zM661 1180l335 356h100l-354 -356h-81z" />
<glyph unicode="&#xe2;" horiz-adv-x="1157" d="M189 312q0 82 21 182q51 240 183 378.5t323 138.5q189 0 311 -116l35 94h97l-174 -820l1 -32q2 -30 15 -43.5t44 -14.5h46l-16 -79h-96q-84 0 -100 76l-4 28q-177 -125 -375 -125q-151 0 -231 85.5t-80 247.5zM305 336q0 -126 60.5 -191t179.5 -65q173 0 329 98l134 630 q-118 101 -285 101q-154 0 -256.5 -111.5t-143.5 -303.5q-18 -87 -18 -158zM541 1180l311 356h127l161 -356h-81l-154 303l-283 -303h-81z" />
<glyph unicode="&#xe3;" horiz-adv-x="1157" d="M189 312q0 82 21 182q51 240 183 378.5t323 138.5q189 0 311 -116l35 94h97l-174 -820l1 -32q2 -30 15 -43.5t44 -14.5h46l-16 -79h-96q-84 0 -100 76l-4 28q-177 -125 -375 -125q-151 0 -231 85.5t-80 247.5zM305 336q0 -126 60.5 -191t179.5 -65q173 0 329 98l134 630 q-118 101 -285 101q-154 0 -256.5 -111.5t-143.5 -303.5q-18 -87 -18 -158zM529 1301q38 77 101 125t129 48q47 0 81 -23l137 -94q37 -25 63 -25q37 0 71 30t52 79l28 -7q-22 -69 -73.5 -115.5t-105.5 -46.5q-37 0 -81 30l-137 94q-28 18 -63 18q-49 0 -94.5 -31.5 t-79.5 -88.5z" />
<glyph unicode="&#xe4;" horiz-adv-x="1157" d="M189 312q0 82 21 182q51 240 183 378.5t323 138.5q189 0 311 -116l35 94h97l-174 -820l1 -32q2 -30 15 -43.5t44 -14.5h46l-16 -79h-96q-84 0 -100 76l-4 28q-177 -125 -375 -125q-151 0 -231 85.5t-80 247.5zM305 336q0 -126 60.5 -191t179.5 -65q173 0 329 98l134 630 q-118 101 -285 101q-154 0 -256.5 -111.5t-143.5 -303.5q-18 -87 -18 -158zM622 1349l18 85h85l-18 -85h-85zM1014 1349l18 85h84l-17 -85h-85z" />
<glyph unicode="&#xe5;" horiz-adv-x="1157" d="M189 312q0 82 21 182q51 240 183 378.5t323 138.5q189 0 311 -116l35 94h97l-174 -820l1 -32q2 -30 15 -43.5t44 -14.5h46l-16 -79h-96q-84 0 -100 76l-4 28q-177 -125 -375 -125q-151 0 -231 85.5t-80 247.5zM305 336q0 -126 60.5 -191t179.5 -65q173 0 329 98l134 630 q-118 101 -285 101q-154 0 -256.5 -111.5t-143.5 -303.5q-18 -87 -18 -158zM639 1324q0 104 83.5 184t186.5 80q78 0 128 -49t50 -124q0 -104 -84 -184t-187 -80q-78 0 -127.5 49t-49.5 124zM695 1336q0 -56 37 -93.5t96 -37.5q77 0 140 60.5t63 138.5q0 56 -37 93t-96 37 q-77 0 -140 -60t-63 -138z" />
<glyph unicode="&#xe6;" horiz-adv-x="1798" d="M160 189q0 33 9 74q12 58 40.5 104.5t62.5 76.5t81 51.5t87 32.5t91 17t81.5 7t70.5 1h225l31 147q7 32 7 64q0 174 -252 174q-92 0 -307 -35l10 76q224 37 340 37q315 0 315 -219q0 -22 -3 -46l-5 -34q76 135 197 213.5t274 78.5q315 0 315 -313q0 -79 -20 -174l-6 -32 h-738l-3 -13q-13 -59 -13 -116q0 -136 75 -216.5t217 -80.5q153 0 321 49l4 -68q-165 -65 -371 -65q-144 0 -227.5 74t-103.5 201l-34 -162l11 -93h-93l-23 93q-69 -47 -165.5 -80.5t-204.5 -33.5q-62 0 -113 10.5t-93.5 33.5t-66 65.5t-23.5 100.5zM277 214 q0 -163 243 -155q153 5 304 98l70 333h-195q-143 0 -219 -22q-164 -47 -196 -197q-7 -37 -7 -57zM1082 556h633q14 76 14 135q0 237 -231 237q-152 0 -262.5 -103.5t-153.5 -268.5z" />
<glyph unicode="&#xe7;" horiz-adv-x="995" d="M193 345q0 69 17 149q48 227 199.5 371.5t365.5 144.5q113 0 197 -27q99 -27 99 -131q0 -26 -6 -56l-9 -44h-82l3 16q4 17 4 37q0 79 -79 94q-67 13 -157 12q-160 -3 -272 -119.5t-150 -297.5q-14 -63 -14 -127q0 -135 70.5 -214t206.5 -79q153 0 311 52l6 -93 q-163 -51 -321 -53h-24l-47 -66h48q64 0 97 -31t33 -77q0 -14 -3 -27q-12 -56 -58 -94.5t-102 -54t-117 -15.5q-68 0 -125 10l13 43q37 -8 101 -8q53 0 99.5 13.5t79.5 45t33 74.5q0 31 -23.5 52.5t-70.5 21.5q-31 0 -50 -2l-32 14l79 103q-157 9 -238.5 107t-81.5 256z" />
<glyph unicode="&#xe8;" horiz-adv-x="1015" d="M194 347q0 72 16 148q23 110 73.5 203.5t122.5 163t168.5 108.5t206.5 39q80 0 138.5 -17.5t90 -48t46 -64t14.5 -71.5q0 -84 -54 -163t-153 -128q-81 -39 -197 -66.5t-185 -35.5t-172 -17q-2 -30 -2 -42q0 -133 75.5 -213t218.5 -79q147 0 318 49l3 -68 q-165 -65 -367 -65q-177 0 -269 99.5t-92 267.5zM322 470q214 18 318 43q96 22 163 55q75 37 117 96.5t42 122.5q0 26 -9 49t-30 46t-64 36.5t-104 13.5q-161 0 -273.5 -114.5t-150.5 -292.5q-6 -29 -9 -55zM732 1536h100l184 -356h-82z" />
<glyph unicode="&#xe9;" horiz-adv-x="1015" d="M194 347q0 72 16 148q23 110 73.5 203.5t122.5 163t168.5 108.5t206.5 39q80 0 138.5 -17.5t90 -48t46 -64t14.5 -71.5q0 -84 -54 -163t-153 -128q-81 -39 -197 -66.5t-185 -35.5t-172 -17q-2 -30 -2 -42q0 -133 75.5 -213t218.5 -79q147 0 318 49l3 -68 q-165 -65 -367 -65q-177 0 -269 99.5t-92 267.5zM322 470q214 18 318 43q96 22 163 55q75 37 117 96.5t42 122.5q0 26 -9 49t-30 46t-64 36.5t-104 13.5q-161 0 -273.5 -114.5t-150.5 -292.5q-6 -29 -9 -55zM599 1180l335 356h100l-354 -356h-81z" />
<glyph unicode="&#xea;" horiz-adv-x="1015" d="M194 347q0 72 16 148q23 110 73.5 203.5t122.5 163t168.5 108.5t206.5 39q80 0 138.5 -17.5t90 -48t46 -64t14.5 -71.5q0 -84 -54 -163t-153 -128q-81 -39 -197 -66.5t-185 -35.5t-172 -17q-2 -30 -2 -42q0 -133 75.5 -213t218.5 -79q147 0 318 49l3 -68 q-165 -65 -367 -65q-177 0 -269 99.5t-92 267.5zM322 470q214 18 318 43q96 22 163 55q75 37 117 96.5t42 122.5q0 26 -9 49t-30 46t-64 36.5t-104 13.5q-161 0 -273.5 -114.5t-150.5 -292.5q-6 -29 -9 -55zM514 1180l311 356h127l161 -356h-81l-154 303l-283 -303h-81z" />
<glyph unicode="&#xeb;" horiz-adv-x="1015" d="M194 347q0 72 16 148q23 110 73.5 203.5t122.5 163t168.5 108.5t206.5 39q80 0 138.5 -17.5t90 -48t46 -64t14.5 -71.5q0 -84 -54 -163t-153 -128q-81 -39 -197 -66.5t-185 -35.5t-172 -17q-2 -30 -2 -42q0 -133 75.5 -213t218.5 -79q147 0 318 49l3 -68 q-165 -65 -367 -65q-177 0 -269 99.5t-92 267.5zM322 470q214 18 318 43q96 22 163 55q75 37 117 96.5t42 122.5q0 26 -9 49t-30 46t-64 36.5t-104 13.5q-161 0 -273.5 -114.5t-150.5 -292.5q-6 -29 -9 -55zM611 1349l18 85h85l-18 -85h-85zM1003 1349l18 85h84l-18 -85h-84 z" />
<glyph unicode="&#xec;" horiz-adv-x="489" d="M212 0l176 830q3 14 3 25q0 53 -63 56h-49l17 78h103q111 0 111 -100q0 -21 -6 -47l-179 -842h-113zM435 1536h100l184 -356h-81z" />
<glyph unicode="&#xed;" horiz-adv-x="489" d="M212 0l176 830q3 14 3 25q0 53 -63 56h-49l17 78h103q111 0 111 -100q0 -21 -6 -47l-179 -842h-113zM303 1180l335 356h99l-353 -356h-81z" />
<glyph unicode="&#xee;" horiz-adv-x="489" d="M212 0l176 830q3 14 3 25q0 53 -63 56h-49l17 78h103q111 0 111 -100q0 -21 -6 -47l-179 -842h-113zM218 1180l311 356h127l160 -356h-81l-154 303l-283 -303h-80z" />
<glyph unicode="&#xef;" horiz-adv-x="489" d="M212 0l176 830q3 14 3 25q0 53 -63 56h-49l17 78h103q111 0 111 -100q0 -21 -6 -47l-179 -842h-113zM315 1349l18 85h84l-18 -85h-84zM706 1349l18 85h85l-18 -85h-85z" />
<glyph unicode="&#xf0;" horiz-adv-x="1232" d="M199 350q0 56 14 121q43 203 192 333.5t343 130.5q118 0 206.5 -55.5t128.5 -148.5q23 113 23 212q0 183 -76 300l-271 -201l-28 60l259 191q-85 81 -206 81q-140 0 -278 -57l-17 69q174 75 341 75q154 0 248 -103l233 172l27 -59l-220 -163l4 -6q101 -142 101 -370 q0 -117 -30 -259q-34 -160 -84.5 -282t-124.5 -215.5t-178 -142.5t-235 -49q-173 0 -272.5 100.5t-99.5 265.5zM330 371q0 -125 70.5 -203.5t194.5 -78.5q79 0 144.5 26t112.5 71t86 113t65 143t48 171q-22 106 -102.5 170t-198.5 64q-151 0 -263 -108t-147 -271 q-10 -47 -10 -97z" />
<glyph unicode="&#xf1;" horiz-adv-x="1183" d="M189 0l177 830q2 9 2 25q0 53 -62 56h-50l17 78h142q81 0 81 -68q0 -12 -3 -27l-10 -46q91 65 206 114t231 49q127 0 183 -59.5t56 -169.5q0 -61 -16 -143l-92 -432q-5 -25 -5 -40q0 -85 99 -88h5l-17 -79h-49q-156 2 -156 136q0 28 7 59l94 444q13 65 13 110 q0 77 -41 118t-140 41q-111 0 -217 -50t-182 -110l-159 -748h-114zM558 1301q38 77 100.5 125t128.5 48q48 0 82 -23l136 -94q37 -25 63 -25q37 0 71.5 30t52.5 79l28 -7q-23 -69 -74.5 -115.5t-105.5 -46.5q-36 0 -80 30l-137 94q-28 18 -64 18q-101 0 -173 -120z" />
<glyph unicode="&#xf2;" horiz-adv-x="1118" d="M193 346q0 68 17 148q23 110 73 203.5t121 163.5t166.5 109.5t204.5 39.5q177 0 269.5 -100t92.5 -267q0 -69 -17 -149q-23 -110 -73 -203.5t-120.5 -162.5t-166 -108.5t-204.5 -39.5q-178 0 -270.5 99.5t-92.5 266.5zM309 369q0 -131 67.5 -209.5t200.5 -78.5 q163 0 277.5 116.5t152.5 296.5q14 68 14 125q0 132 -68 210.5t-200 78.5q-163 0 -277.5 -116.5t-152.5 -297.5q-14 -68 -14 -125zM728 1536h100l184 -356h-81z" />
<glyph unicode="&#xf3;" horiz-adv-x="1118" d="M193 346q0 68 17 148q23 110 73 203.5t121 163.5t166.5 109.5t204.5 39.5q177 0 269.5 -100t92.5 -267q0 -69 -17 -149q-23 -110 -73 -203.5t-120.5 -162.5t-166 -108.5t-204.5 -39.5q-178 0 -270.5 99.5t-92.5 266.5zM309 369q0 -131 67.5 -209.5t200.5 -78.5 q163 0 277.5 116.5t152.5 296.5q14 68 14 125q0 132 -68 210.5t-200 78.5q-163 0 -277.5 -116.5t-152.5 -297.5q-14 -68 -14 -125zM596 1180l335 356h99l-353 -356h-81z" />
<glyph unicode="&#xf4;" horiz-adv-x="1118" d="M193 346q0 68 17 148q23 110 73 203.5t121 163.5t166.5 109.5t204.5 39.5q177 0 269.5 -100t92.5 -267q0 -69 -17 -149q-23 -110 -73 -203.5t-120.5 -162.5t-166 -108.5t-204.5 -39.5q-178 0 -270.5 99.5t-92.5 266.5zM309 369q0 -131 67.5 -209.5t200.5 -78.5 q163 0 277.5 116.5t152.5 296.5q14 68 14 125q0 132 -68 210.5t-200 78.5q-163 0 -277.5 -116.5t-152.5 -297.5q-14 -68 -14 -125zM511 1180l311 356h127l160 -356h-81l-154 303l-283 -303h-80z" />
<glyph unicode="&#xf5;" horiz-adv-x="1118" d="M193 346q0 68 17 148q23 110 73 203.5t121 163.5t166.5 109.5t204.5 39.5q177 0 269.5 -100t92.5 -267q0 -69 -17 -149q-23 -110 -73 -203.5t-120.5 -162.5t-166 -108.5t-204.5 -39.5q-178 0 -270.5 99.5t-92.5 266.5zM309 369q0 -131 67.5 -209.5t200.5 -78.5 q163 0 277.5 116.5t152.5 296.5q14 68 14 125q0 132 -68 210.5t-200 78.5q-163 0 -277.5 -116.5t-152.5 -297.5q-14 -68 -14 -125zM519 1301q38 77 101 125t129 48q47 0 81 -23l137 -94q37 -25 63 -25q37 0 71 30t52 79l28 -7q-22 -69 -73.5 -115.5t-105.5 -46.5 q-37 0 -81 30l-137 94q-28 18 -63 18q-49 0 -94.5 -31.5t-79.5 -88.5z" />
<glyph unicode="&#xf6;" horiz-adv-x="1118" d="M193 346q0 68 17 148q23 110 73 203.5t121 163.5t166.5 109.5t204.5 39.5q177 0 269.5 -100t92.5 -267q0 -69 -17 -149q-23 -110 -73 -203.5t-120.5 -162.5t-166 -108.5t-204.5 -39.5q-178 0 -270.5 99.5t-92.5 266.5zM309 369q0 -131 67.5 -209.5t200.5 -78.5 q163 0 277.5 116.5t152.5 296.5q14 68 14 125q0 132 -68 210.5t-200 78.5q-163 0 -277.5 -116.5t-152.5 -297.5q-14 -68 -14 -125zM608 1349l18 85h84l-18 -85h-84zM999 1349l18 85h85l-18 -85h-85z" />
<glyph unicode="&#xf7;" horiz-adv-x="964" d="M183 588l21 98h850l-21 -98h-850zM462 184l23 110h121l-23 -110h-121zM631 980l23 109h122l-24 -109h-121z" />
<glyph unicode="&#xf8;" horiz-adv-x="1118" d="M193 346q0 68 17 148q23 110 73 203.5t121 163.5t166.5 109.5t204.5 39.5q102 0 177 -35l78 117h58l-93 -141q142 -94 142 -308q0 -69 -17 -149q-23 -110 -73 -203.5t-120.5 -162.5t-166 -108.5t-204.5 -39.5q-102 0 -178 34l-76 -116h-59l92 140q-142 94 -142 308z M309 369q0 -157 91 -232l489 741q-58 30 -136 30q-163 0 -277.5 -116.5t-152.5 -297.5q-14 -68 -14 -125zM442 110q56 -29 135 -29q163 0 277.5 116.5t152.5 296.5q14 68 14 125q0 157 -91 232z" />
<glyph unicode="&#xf9;" horiz-adv-x="1153" d="M204 202q0 57 16 132l140 655h113l-136 -639q-13 -65 -13 -109q0 -77 41.5 -118t141.5 -41q109 0 216 50t182 109l159 748h114l-167 -782q-4 -20 -4 -40q0 -85 103 -88l-16 -79h-100q-114 2 -114 101q0 24 3 38q-91 -63 -209 -112.5t-229 -49.5q-241 0 -241 225z M711 1536h100l184 -356h-81z" />
<glyph unicode="&#xfa;" horiz-adv-x="1153" d="M204 202q0 57 16 132l140 655h113l-136 -639q-13 -65 -13 -109q0 -77 41.5 -118t141.5 -41q109 0 216 50t182 109l159 748h114l-167 -782q-4 -20 -4 -40q0 -85 103 -88l-16 -79h-100q-114 2 -114 101q0 24 3 38q-91 -63 -209 -112.5t-229 -49.5q-241 0 -241 225z M684 1180l335 356h99l-353 -356h-81z" />
<glyph unicode="&#xfb;" horiz-adv-x="1153" d="M204 202q0 57 16 132l140 655h113l-136 -639q-13 -65 -13 -109q0 -77 41.5 -118t141.5 -41q109 0 216 50t182 109l159 748h114l-167 -782q-4 -20 -4 -40q0 -85 103 -88l-16 -79h-100q-114 2 -114 101q0 24 3 38q-91 -63 -209 -112.5t-229 -49.5q-241 0 -241 225z M564 1180l311 356h127l161 -356h-82l-154 303l-283 -303h-80z" />
<glyph unicode="&#xfc;" horiz-adv-x="1153" d="M204 202q0 57 16 132l140 655h113l-136 -639q-13 -65 -13 -109q0 -77 41.5 -118t141.5 -41q109 0 216 50t182 109l159 748h114l-167 -782q-4 -20 -4 -40q0 -85 103 -88l-16 -79h-100q-114 2 -114 101q0 24 3 38q-91 -63 -209 -112.5t-229 -49.5q-241 0 -241 225z M605 1349l18 85h85l-18 -85h-85zM997 1349l18 85h84l-18 -85h-84z" />
<glyph unicode="&#xfd;" horiz-adv-x="978" d="M-23 -365l32 76q61 -18 102 -18q14 0 40 4q75 17 133.5 75t112.5 148l48 80h-5l-177 989h115l142 -849l502 849h115l-643 -1083q-146 -252 -341 -291q-21 -4 -48 -4q-62 0 -128 24zM561 1180l335 356h99l-353 -356h-81z" />
<glyph unicode="&#xfe;" horiz-adv-x="1134" d="M109 -368l349 1643q3 13 3 25q0 52 -63 55h-50l17 79h124q95 0 95 -81q0 -18 -4 -35l-89 -420q167 114 357 114q151 0 230.5 -86t79.5 -247q0 -82 -21 -179q-49 -231 -181.5 -367t-323.5 -136q-189 0 -309 116l-102 -481h-112zM342 199q118 -101 284 -101 q154 0 255 106.5t141 295.5q18 87 18 156q0 253 -240 253q-176 0 -328 -98z" />
<glyph unicode="&#xff;" horiz-adv-x="978" d="M-23 -365l32 76q61 -18 102 -18q14 0 40 4q75 17 133.5 75t112.5 148l48 80h-5l-177 989h115l142 -849l502 849h115l-643 -1083q-146 -252 -341 -291q-21 -4 -48 -4q-62 0 -128 24zM536 1349l18 85h85l-18 -85h-85zM928 1349l18 85h84l-18 -85h-84z" />
<glyph unicode="&#x152;" horiz-adv-x="2035" d="M265 503q0 98 25 215q34 158 104.5 292t171.5 234.5t237 157t290 56.5q171 0 290 -72l11 48h848l-21 -98h-713l-115 -544h623l-21 -98h-623l-127 -596h717l-21 -98h-852l11 50q-152 -73 -322 -73q-127 0 -225.5 38.5t-161 109t-94.5 166t-32 212.5zM403 515 q0 -199 99 -316.5t298 -117.5q173 0 324 85l235 1107q-116 83 -288 83q-126 0 -235.5 -50t-189.5 -138t-135.5 -202t-84.5 -248q-23 -109 -23 -203z" />
<glyph unicode="&#x153;" horiz-adv-x="2072" d="M193 346q0 68 17 148q23 110 73 203.5t121 163.5t166.5 109.5t204.5 39.5q166 0 255 -92t97 -246q74 154 203 245.5t297 91.5q80 0 138.5 -17.5t90 -48t46 -64t14.5 -71.5q0 -84 -54 -163t-153 -128q-81 -39 -197 -66.5t-185 -35.5t-172 -17q-2 -28 -2 -42 q0 -133 75.5 -213t218.5 -79q147 0 318 49l4 -68q-165 -65 -367 -65q-165 0 -254 91.5t-97 244.5q-73 -154 -201 -245t-294 -91q-178 0 -270.5 99.5t-92.5 266.5zM309 369q0 -131 67.5 -209.5t200.5 -78.5q163 0 277.5 116.5t152.5 296.5q14 68 14 125q0 132 -68 210.5 t-200 78.5q-163 0 -277.5 -116.5t-152.5 -297.5q-14 -68 -14 -125zM1168 470q214 18 318 43q96 22 163 55q75 37 117 96.5t42 122.5q0 26 -9 49t-30 46t-64 36.5t-104 13.5q-160 0 -272.5 -114t-150.5 -291q-8 -38 -10 -57z" />
<glyph unicode="&#x178;" horiz-adv-x="1251" d="M343 1434h140l281 -788l616 788h139l-712 -905l-112 -529h-136l112 528zM755 1793l18 85h84l-18 -85h-84zM1146 1793l18 85h85l-18 -85h-85z" />
<glyph unicode="&#x2c6;" horiz-adv-x="704" d="M305 1180l311 356h127l160 -356h-81l-154 303l-283 -303h-80z" />
<glyph unicode="&#x2dc;" horiz-adv-x="765" d="M344 1301q38 77 100.5 125t128.5 48q47 0 81 -23l137 -94q37 -25 63 -25q37 0 71 30t52 79l28 -7q-23 -69 -74 -115.5t-105 -46.5q-37 0 -81 30l-137 94q-28 18 -63 18q-101 0 -173 -120z" />
<glyph unicode="&#x2000;" horiz-adv-x="1016" />
<glyph unicode="&#x2001;" horiz-adv-x="2033" />
<glyph unicode="&#x2002;" horiz-adv-x="1016" />
<glyph unicode="&#x2003;" horiz-adv-x="2033" />
<glyph unicode="&#x2004;" horiz-adv-x="677" />
<glyph unicode="&#x2005;" horiz-adv-x="508" />
<glyph unicode="&#x2006;" horiz-adv-x="338" />
<glyph unicode="&#x2007;" horiz-adv-x="338" />
<glyph unicode="&#x2008;" horiz-adv-x="254" />
<glyph unicode="&#x2009;" horiz-adv-x="406" />
<glyph unicode="&#x200a;" horiz-adv-x="112" />
<glyph unicode="&#x2010;" horiz-adv-x="692" d="M216 588l21 98h510l-21 -98h-510z" />
<glyph unicode="&#x2011;" horiz-adv-x="692" d="M216 588l21 98h510l-21 -98h-510z" />
<glyph unicode="&#x2012;" horiz-adv-x="692" d="M216 588l21 98h510l-21 -98h-510z" />
<glyph unicode="&#x2013;" horiz-adv-x="948" d="M216 588l21 98h766l-21 -98h-766z" />
<glyph unicode="&#x2014;" horiz-adv-x="1288" d="M216 588l21 98h1106l-21 -98h-1106z" />
<glyph unicode="&#x2018;" horiz-adv-x="233" d="M331 1285l22 106l53 89h74l-50 -86h45l-23 -109h-121z" />
<glyph unicode="&#x2019;" horiz-adv-x="233" d="M344 1285l51 86h-46l23 109h122l-23 -107l-52 -88h-75z" />
<glyph unicode="&#x201a;" horiz-adv-x="233" d="M53 -86l51 86h-46l23 110h121l-22 -107l-53 -89h-74z" />
<glyph unicode="&#x201c;" horiz-adv-x="425" d="M331 1285l22 106l53 89h74l-50 -86h45l-23 -109h-121zM521 1285l23 106l53 89h74l-51 -86h46l-23 -109h-122z" />
<glyph unicode="&#x201d;" horiz-adv-x="425" d="M344 1285l51 86h-46l23 109h122l-23 -107l-52 -88h-75zM535 1285l51 86h-46l23 109h121l-22 -107l-53 -88h-74z" />
<glyph unicode="&#x201e;" horiz-adv-x="425" d="M53 -86l51 86h-46l23 109h122l-23 -106l-53 -89h-74zM244 -86l51 86h-46l23 109h121l-22 -106l-53 -89h-74z" />
<glyph unicode="&#x2022;" horiz-adv-x="333" d="M178 497l36 169h190l-36 -169h-190z" />
<glyph unicode="&#x2026;" horiz-adv-x="831" d="M75 0l23 109h122l-24 -109h-121zM356 0l24 109h121l-23 -109h-122zM637 0l23 109h122l-23 -109h-122z" />
<glyph unicode="&#x202f;" horiz-adv-x="406" />
<glyph unicode="&#x2039;" horiz-adv-x="415" d="M175 452l252 484h103l-259 -483l60 -453h-103z" />
<glyph unicode="&#x203a;" horiz-adv-x="415" d="M87 0l253 453l-54 483h103l47 -484l-246 -452h-103z" />
<glyph unicode="&#x205f;" horiz-adv-x="508" />
<glyph unicode="&#x20ac;" horiz-adv-x="1400" d="M248 530l14 67h134q4 57 18 121q10 50 31 113h-133l14 67h136q82 250 273.5 405t449.5 155q262 0 406 -159l-68 -78q-125 140 -351 140q-208 0 -360.5 -126.5t-226.5 -336.5h691l-15 -67h-693q-21 -63 -31 -113q-12 -57 -17 -121h551l-15 -67h-548q-1 -15 -1 -45 q0 -188 99 -298t293 -110q227 0 411 139l35 -77q-211 -159 -474 -159q-237 0 -363 132t-126 351q0 33 3 67h-137z" />
<glyph unicode="&#x2122;" horiz-adv-x="1634" d="M380 1358l16 76h538l-16 -76h-223l-147 -690h-92l147 690h-223zM892 668l162 766h111l132 -616l394 616h111l-163 -766h-92l128 599l-382 -599h-55l-127 599l-128 -599h-91z" />
<glyph unicode="&#xe000;" horiz-adv-x="993" d="M0 0v993h993v-993h-993z" />
<glyph unicode="&#xfb03;" horiz-adv-x="1744" d="M34 -250q70 20 118.5 65.5t67.5 135.5l200 942h-139l20 96h140l44 207q38 180 186 233q59 22 139 22q75 0 158 -18l-34 -87q-71 11 -124 11q-51 0 -90 -12q-96 -31 -122 -149l-44 -207h527l44 207q38 179 187 233q59 22 138 22q75 0 158 -18l-34 -87q-71 11 -123 11 t-91 -12q-95 -31 -121 -149l-44 -207h491q111 0 111 -100q0 -21 -6 -47l-179 -842h-114l173 812q3 14 3 24q0 57 -65 57h-435l-200 -942q-26 -121 -102.5 -185t-159.5 -79l-37 63q70 20 118.5 65.5t67.5 135.5l200 942h-527l-200 -942q-26 -121 -102.5 -185t-159.5 -79z" />
<glyph unicode="&#xfb04;" horiz-adv-x="1878" d="M34 -250q70 20 118.5 65.5t67.5 135.5l200 942h-139l20 96h140l44 207q36 168 165 224q68 30 163 30q80 0 155 -17l-34 -87q-67 10 -123 10q-66 0 -107 -17q-83 -34 -106 -143l-44 -207h527l44 207q36 169 166 225q70 30 160 30q74 0 157 -19h315l-259 -1222 q-5 -25 -5 -41q0 -85 104 -88l-17 -78h-50q-155 2 -155 135q0 29 7 60l244 1147h-214q-73 11 -126 11q-67 0 -110 -18q-80 -33 -103 -141l-44 -208h270l-20 -96h-271l-200 -942q-26 -121 -102.5 -185t-159.5 -79l-37 63q70 20 118.5 65.5t67.5 135.5l200 942h-527l-201 -942 q-26 -121 -102 -185t-159 -79z" />
</font>
</defs>
</svg>
