<?xml version="1.0" standalone="no"?>
<!DOCTYPE svg PUBLIC "-//W3C//DTD SVG 1.1//EN" "http://www.w3.org/Graphics/SVG/1.1/DTD/svg11.dtd" >
<svg xmlns="http://www.w3.org/2000/svg">
<metadata></metadata>
<defs>
<font id="regan_altdemibold_italic" horiz-adv-x="1568" >
<font-face units-per-em="2048" ascent="1536" descent="-512" />
<missing-glyph horiz-adv-x="614" />
<glyph unicode="&#xfb01;" horiz-adv-x="1179" d="M27 -229q72 27 122 76t71 147l176 827h-142l36 168h142l34 159q44 209 209 273q74 30 168 30q85 0 169 -23l-58 -150q-74 10 -106 10q-43 0 -77 -11q-81 -26 -103 -129l-34 -159h472q138 0 138 -129q0 -26 -8 -63l-169 -797h-203l156 737q3 12 3 24q0 28 -17 44t-49 16 h-359l-176 -827q-14 -64 -44.5 -118.5t-65.5 -89.5t-76.5 -61.5t-73.5 -39.5t-60 -19z" />
<glyph unicode="&#xfb02;" horiz-adv-x="1308" d="M27 -229q72 27 122 76t71 147l176 827h-142l36 168h142l34 159q44 206 205 272q76 31 172 31q88 0 169 -23h373l-250 -1175q-4 -19 -4 -37q0 -75 95 -81l-28 -133h-96q-182 2 -182 158q0 29 8 69l223 1049h-195q-57 9 -105 9q-38 0 -66 -7q-93 -24 -117 -132l-34 -159 h240l-36 -168h-240l-176 -827q-14 -64 -44.5 -118.5t-65.5 -89.5t-76.5 -61.5t-73.5 -39.5t-60 -19z" />
<glyph horiz-adv-x="2048" />
<glyph horiz-adv-x="2048" />
<glyph unicode="&#xd;" horiz-adv-x="2048" />
<glyph unicode=" "  horiz-adv-x="614" />
<glyph unicode="&#x09;" horiz-adv-x="614" />
<glyph unicode="&#xa0;" horiz-adv-x="614" />
<glyph unicode="!" horiz-adv-x="462" d="M129 0l36 172h208l-36 -172h-208zM238 420l198 1014h203l-233 -1014h-168z" />
<glyph unicode="&#x22;" horiz-adv-x="565" d="M282 1006l91 428h135l-91 -428h-135zM577 1006l91 428h135l-91 -428h-135z" />
<glyph unicode="#" horiz-adv-x="1341" d="M127 410l27 129h269l156 368h-347l28 130h374l169 397h148l-169 -397h355l169 397h147l-169 -397h241l-28 -130h-268l-156 -368h346l-27 -129h-374l-174 -410h-148l174 410h-355l-174 -410h-147l174 410h-241zM570 539h355l157 368h-355z" />
<glyph unicode="$" horiz-adv-x="1144" d="M97 42l46 201q228 -67 409 -67q153 0 241.5 63.5t109.5 161.5q5 25 5 43q0 68 -57 108.5t-189 84.5l-94 32q-266 90 -266 306q0 40 9 85q20 94 68 166.5t115 117t141.5 70.5t159.5 36l30 141h155l-29 -134q172 -5 375 -68l-45 -194q-184 67 -364 67q-302 0 -348 -197 q-5 -22 -5 -38q0 -122 185 -185l91 -31q167 -57 249.5 -126.5t82.5 -183.5q0 -37 -9 -80q-38 -179 -175 -295t-349 -136l-30 -144h-155l28 131q-204 8 -385 65z" />
<glyph unicode="%" horiz-adv-x="1626" d="M228 -35l1297 1503h173l-1297 -1503h-173zM280 971q0 46 11 99q34 158 146 265.5t259 107.5q123 0 190.5 -76.5t67.5 -198.5q0 -45 -11 -98q-34 -159 -146 -266t-259 -107q-122 0 -190 76t-68 198zM422 997q0 -73 37 -116.5t108 -43.5q89 0 152 65.5t85 167.5q9 47 9 73 q0 74 -37.5 116.5t-109.5 42.5q-88 0 -151 -65t-85 -167q-8 -40 -8 -73zM978 265q0 46 11 99q34 159 145.5 266t258.5 107q123 0 190.5 -76.5t67.5 -198.5q0 -45 -11 -98q-34 -159 -146 -265.5t-259 -106.5q-122 0 -189.5 75.5t-67.5 197.5zM1119 292q0 -73 37.5 -116.5 t108.5 -43.5q89 0 152 65t85 167q8 35 8 73q0 74 -37.5 116.5t-109.5 42.5q-88 0 -151 -65t-85 -167q-8 -40 -8 -72z" />
<glyph unicode="&#x26;" horiz-adv-x="1513" d="M150 288q0 42 9 85q15 74 56 138t100 111t126 80.5t143 55.5l47 19l-72 99q-67 90 -67 181q0 32 10 82q13 59 48 114t92 102t144 75.5t191 28.5q92 0 161.5 -22t108 -60.5t57 -82.5t18.5 -95q0 -253 -407 -407l-51 -20l282 -374q87 80 158 177t145 233h149 q-167 -330 -372 -525l202 -283h-236l-117 161q-216 -186 -510 -186q-200 0 -307.5 84.5t-107.5 228.5zM352 318q0 -193 261 -193q115 0 208.5 35.5t179.5 114.5l-306 410l-54 -22q-53 -21 -94 -43t-81.5 -54t-67.5 -76t-38 -98q-8 -43 -8 -74zM699 1055q0 -65 53 -134 l45 -59l59 25q161 68 223.5 134.5t62.5 157.5q0 60 -38 99.5t-131 39.5q-118 0 -183.5 -58t-81.5 -134q-9 -41 -9 -71z" />
<glyph unicode="'" horiz-adv-x="270" d="M282 1006l91 428h135l-91 -428h-135z" />
<glyph unicode="(" horiz-adv-x="657" d="M152 287q0 132 28 260q46 223 177 449q142 245 403 518l123 -101q-226 -238 -359 -468q-113 -197 -154 -398q-27 -118 -27 -236q0 -86 12 -162q37 -237 161 -468l-168 -99q-146 280 -182 516q-14 94 -14 189z" />
<glyph unicode=")" horiz-adv-x="657" d="M7 -319q223 232 361 468q113 197 154 398q27 118 27 236q0 86 -12 162q-35 232 -160 468l166 101q145 -275 182 -518q15 -100 15 -189q0 -132 -28 -260q-46 -223 -177 -449q-135 -235 -401 -516z" />
<glyph unicode="*" horiz-adv-x="663" d="M301 1189l52 98l188 -65l45 212h103l-45 -212l215 65l11 -98l-215 -65l88 -171l-96 -61l-88 171l-161 -171l-71 61l161 171z" />
<glyph unicode="+" horiz-adv-x="995" d="M185 529l36 170h340l72 340h170l-73 -340h341l-36 -170h-341l-72 -340h-169l72 340h-340z" />
<glyph unicode="," horiz-adv-x="335" d="M62 -141l83 141h-80l37 172h208l-37 -170l-84 -143h-127z" />
<glyph unicode="-" horiz-adv-x="669" d="M197 552l36 170h510l-36 -170h-510z" />
<glyph unicode="." horiz-adv-x="335" d="M64 0l37 172h208l-37 -172h-208z" />
<glyph unicode="/" horiz-adv-x="888" d="M40 0l942 1434h173l-943 -1434h-172z" />
<glyph unicode="0" horiz-adv-x="1355" d="M232 470q0 103 26 224q44 205 142 365t248.5 255.5t329.5 95.5q216 0 329 -133t113 -359q0 -103 -26 -224q-44 -205 -142 -365.5t-249 -256t-330 -95.5q-216 0 -328.5 133.5t-112.5 359.5zM445 500q0 -154 66 -246t202 -92q90 0 169.5 43t138 117.5t100 168.5t64.5 203 q22 107 22 194q0 154 -66 246t-202 92q-91 0 -170.5 -43t-137.5 -117.5t-99.5 -168.5t-64.5 -203q-22 -107 -22 -194z" />
<glyph unicode="1" horiz-adv-x="624" d="M263 0l262 1229l-185 -32l5 148l303 52h116l-297 -1397h-204z" />
<glyph unicode="2" horiz-adv-x="1073" d="M85 0l39 184q350 199 547 400q199 202 233 377q8 43 8 74q0 99 -62 145.5t-164 46.5q-160 0 -337 -91l32 186q190 94 387 94q106 0 192 -33.5t142 -109t56 -183.5q0 -52 -11 -101q-42 -199 -252 -415q-181 -188 -489 -390h626l-39 -184h-908z" />
<glyph unicode="3" horiz-adv-x="1112" d="M103 83l43 169q103 -84 296 -84q340 0 389 233q5 23 5 41q0 82 -68 132t-174 52h-210l33 155h182q71 2 139 28.5t123.5 81.5t70.5 128q4 20 4 44q0 82 -71 122.5t-189 40.5q-153 0 -319 -79l29 171q192 94 386 94q83 0 156.5 -16t134 -48t96 -87t35.5 -128q0 -31 -8 -71 q-27 -127 -110 -214t-202 -131q96 -35 154.5 -104t58.5 -173q0 -34 -10 -84q-23 -106 -84 -182.5t-146.5 -117t-174 -58.5t-186.5 -18q-110 0 -218 25.5t-165 77.5z" />
<glyph unicode="4" horiz-adv-x="1155" d="M132 389l36 173l734 835l226 -8l-714 -827h402l134 282h126l-60 -282h186l-37 -173h-182l-83 -389h-203l83 389h-648z" />
<glyph unicode="5" horiz-adv-x="1124" d="M102 84l41 161q89 -49 167.5 -69t182.5 -17q142 5 240 81t126 209q9 42 9 79q0 95 -60.5 146t-177.5 51h-325l159 672h765l-40 -184h-573l-88 -344h212q179 0 280.5 -82t101.5 -234q0 -52 -12 -110q-31 -143 -120 -248.5t-210.5 -158.5t-260.5 -56q-252 -8 -417 104z" />
<glyph unicode="6" horiz-adv-x="1198" d="M220 407q0 97 21 208q37 201 120.5 366t217 277t294.5 134q74 14 150 14q138 0 309 -55l-42 -167q-155 70 -288 70q-13 0 -41 -2q-166 -7 -292 -146.5t-187 -362.5q75 82 184.5 130t220.5 48q163 0 256 -85t93 -236q0 -58 -13 -117q-48 -223 -217 -364.5t-386 -141.5 q-204 0 -302 113t-98 317zM445 398q0 -114 49.5 -175.5t163.5 -61.5q122 0 216.5 88.5t122.5 217.5q9 44 9 84q0 100 -55.5 161.5t-157.5 61.5q-97 0 -184.5 -51.5t-142.5 -137.5q-21 -110 -21 -187z" />
<glyph unicode="7" horiz-adv-x="1028" d="M227 0q94 252 259 529t494 695h-625l37 173h874l-28 -133q-241 -297 -404.5 -536.5t-247 -398.5t-148.5 -329h-211z" />
<glyph unicode="8" horiz-adv-x="1306" d="M180 283q0 34 10 84q14 65 47 119.5t83 95.5t105.5 71.5t126.5 57.5q40 16 61 23q-66 32 -98 53q-141 81 -141 221q0 25 9 72q16 76 59.5 135t100.5 95.5t129.5 59.5t141 32t141.5 9q66 0 125.5 -7.5t118 -26t101 -47.5t69 -75.5t26.5 -106.5q0 -30 -8 -68 q-42 -194 -258 -293q-65 -32 -119 -53q28 -11 56 -26q104 -49 161.5 -113.5t57.5 -158.5q0 -29 -8 -69q-18 -86 -64.5 -153.5t-107.5 -110.5t-139 -71.5t-155.5 -40t-159.5 -11.5q-93 0 -173 15.5t-149 49.5t-109 95t-40 143zM424 324q0 -91 68 -129.5t198 -38.5 q151 0 240.5 52.5t117.5 182.5q5 21 5 48q0 73 -52 117.5t-149 81.5l-55 20l-65 -20q-63 -20 -106 -39.5t-86.5 -48t-70 -68.5t-37.5 -91q-8 -40 -8 -67zM597 1006q0 -103 124 -156q40 -17 106 -41q89 28 124 41q91 33 140.5 82.5t65.5 123.5q5 21 5 47q0 152 -240 152 q-276 0 -319 -199q-6 -27 -6 -50z" />
<glyph unicode="9" horiz-adv-x="1198" d="M164 39l41 167q155 -70 288 -70q27 0 41 1q166 7 292.5 146.5t187.5 362.5q-75 -82 -185 -129.5t-221 -47.5q-163 0 -256 85t-93 236q0 53 14 117q48 224 216.5 364.5t386.5 140.5q204 0 302 -112.5t98 -316.5q0 -97 -21 -208q-37 -201 -121 -366t-217.5 -277 t-294.5 -134q-74 -14 -150 -14q-137 0 -308 55zM489 839q0 -100 56 -161.5t158 -61.5q97 0 184 51.5t142 137.5q21 110 21 187q0 114 -49 175.5t-163 61.5q-122 0 -217 -89t-123 -218q-9 -44 -9 -83z" />
<glyph unicode=":" horiz-adv-x="335" d="M65 0l37 172h208l-37 -172h-208zM239 817l36 172h208l-36 -172h-208z" />
<glyph unicode=";" horiz-adv-x="335" d="M62 -141l83 141h-80l37 172h208l-37 -170l-84 -143h-127zM239 817l36 172h208l-36 -172h-208z" />
<glyph unicode="&#x3c;" horiz-adv-x="880" d="M163 555l41 193l842 402l-41 -193l-647 -301l517 -310l-41 -192z" />
<glyph unicode="=" horiz-adv-x="1009" d="M163 390l27 130h850l-27 -130h-850zM243 765l27 130h850l-28 -130h-849z" />
<glyph unicode="&#x3e;" horiz-adv-x="880" d="M113 154l40 192l650 310l-520 301l41 193l671 -402l-41 -193z" />
<glyph unicode="?" horiz-adv-x="882" d="M217 0l37 172h208l-37 -172h-208zM307 410l9 44q26 121 98 201q30 34 74.5 68t69 49t83.5 50q192 108 228 280q6 25 6 59q0 82 -57 123t-157 41q-133 0 -320 -67v120q211 82 382 82q97 0 175.5 -27.5t130 -91.5t51.5 -157q0 -38 -9 -82q-24 -113 -85.5 -189t-180.5 -144 q-13 -7 -43 -24t-43 -24.5t-36.5 -22.5t-37 -26t-29.5 -26.5t-28 -31.5q-46 -57 -69 -160l-9 -44h-203z" />
<glyph unicode="@" horiz-adv-x="1703" d="M154 279q0 85 22 192q49 231 184 407.5t333 273t430 96.5q300 0 470 -141t170 -398q0 -87 -21 -186q-43 -203 -158.5 -308t-280.5 -114h-217l-20 58q-51 -32 -119.5 -52.5t-133.5 -20.5q-109 0 -165.5 65t-56.5 183q0 62 15 135q37 175 138 277.5t247 106.5 q91 6 176.5 -23t148.5 -85l-106 -501l11 -49q142 9 235.5 87.5t124.5 228.5q20 89 20 174q0 214 -134 327.5t-370 113.5q-283 0 -491 -176.5t-272 -478.5q-20 -91 -20 -180q0 -221 133 -344t374 -123q48 0 112 6l-7 -117q-66 -12 -140 -12q-17 0 -53 2q-274 19 -426.5 172.5 t-152.5 403.5zM732 371q0 -160 150 -160q104 0 204 64l83 390q-80 60 -175 60q-97 0 -160.5 -67t-89.5 -189q-12 -54 -12 -98z" />
<glyph unicode="A" horiz-adv-x="1339" d="M36 0l794 1434h289l185 -1434h-252l-40 355h-532l-192 -355h-252zM545 523h466l-84 700z" />
<glyph unicode="B" horiz-adv-x="1282" d="M158 0l305 1434h608q148 0 236 -72t88 -202q0 -43 -10 -89q-14 -67 -45 -124.5t-69.5 -96t-76.5 -63t-74 -36.5q31 -9 60.5 -27.5t57 -48.5t44.5 -77.5t17 -106.5q0 -49 -11 -100q-23 -108 -77 -187t-128 -122t-154 -62.5t-169 -19.5h-602zM414 169h335q105 0 190 60.5 t109 173.5q6 30 6 56q0 84 -56 131.5t-143 47.5h-341zM550 806h322q102 0 180.5 58.5t102.5 170.5q6 30 6 56q0 82 -54 128t-138 46h-322z" />
<glyph unicode="C" horiz-adv-x="1318" d="M239 505q0 105 23 211q34 161 107.5 297t179 235.5t246 155t300.5 55.5q163 0 268 -42q110 -44 110 -173q0 -36 -9 -81l-14 -64h-159l2 25q3 18 3 33q0 76 -67 95q-65 18 -143 18q-15 0 -31 -1q-203 -6 -348.5 -158t-196.5 -395q-20 -95 -20 -175q0 -170 84 -270 t246 -107q36 -2 54 -2q166 0 347 66l9 -165q-202 -90 -451 -90q-264 0 -402 143.5t-138 388.5z" />
<glyph unicode="D" horiz-adv-x="1421" d="M158 0l305 1434h480q267 0 406.5 -135.5t139.5 -375.5q0 -93 -23 -205q-70 -328 -288.5 -523t-539.5 -195h-480zM439 169h236q206 0 349.5 152t195.5 397q20 91 20 181q0 170 -83.5 268t-248.5 98h-236z" />
<glyph unicode="E" horiz-adv-x="1118" d="M158 0l305 1434h872l-36 -169h-627l-95 -443h554l-36 -169h-553l-103 -484h635l-35 -169h-881z" />
<glyph unicode="F" horiz-adv-x="1095" d="M158 0l305 1434h857l-41 -195h-613l-98 -463h524l-36 -168h-524l-129 -608h-245z" />
<glyph unicode="G" horiz-adv-x="1384" d="M230 505q0 105 23 211q34 161 107.5 297t179 235.5t246 155t300.5 55.5q244 0 423 -92l-79 -166q-168 70 -327 70q-18 0 -56 -2q-203 -9 -349 -162.5t-196 -390.5q-23 -112 -23 -194q0 -170 82 -270t251 -100q77 0 154 26.5t137 69.5l76 358h-293l27 129h491l-134 -631 q-250 -131 -499 -131q-264 0 -402.5 143.5t-138.5 388.5z" />
<glyph unicode="H" horiz-adv-x="1435" d="M158 0l305 1434h244l-129 -611h630l130 611h245l-305 -1434h-244l139 654h-631l-139 -654h-245z" />
<glyph unicode="I" horiz-adv-x="559" d="M158 0l305 1434h244l-304 -1434h-245z" />
<glyph unicode="J" horiz-adv-x="819" d="M61 7l47 207q78 -25 140 -25q52 0 96 18q58 16 98.5 60.5t54.5 106.5l225 1060h245l-235 -1108q-21 -96 -78.5 -168t-130.5 -110.5t-156 -49.5q-52 -17 -122 -17q-88 0 -184 26z" />
<glyph unicode="K" horiz-adv-x="1460" d="M158 0l305 1434h244l-129 -607h218l522 607h254l-591 -683l130 -393q29 -83 72 -127.5t105 -57.5q31 -8 75 -8q31 0 94 5l-30 -162q-217 -14 -235 -14q-44 0 -81 10q-150 31 -213 221l-138 434h-217l-139 -659h-246z" />
<glyph unicode="L" horiz-adv-x="1007" d="M158 0l305 1434h244l-262 -1237h570l-42 -197h-815z" />
<glyph unicode="M" horiz-adv-x="1773" d="M152 0l305 1434h311l203 -1030l641 1030h311l-304 -1434h-245l220 1034l-641 -1034h-135l-201 1034l-220 -1034h-245z" />
<glyph unicode="N" horiz-adv-x="1429" d="M148 0l304 1434h257l418 -1021l217 1021h244l-304 -1434h-255l-419 1025l-218 -1025h-244z" />
<glyph unicode="O" d="M239 507q0 100 24 211q34 161 107.5 297t179 235.5t246 155t300.5 55.5q263 0 402 -143.5t139 -388.5q0 -100 -24 -211q-34 -161 -107.5 -297t-179 -235.5t-246 -155t-300.5 -55.5q-264 0 -402.5 143.5t-138.5 388.5zM485 524q0 -170 82 -270.5t251 -100.5 q110 0 204 44.5t161.5 123.5t114 179t71.5 218q22 107 22 193q0 171 -81.5 271.5t-251.5 100.5q-110 0 -204 -44.5t-161 -123.5t-113.5 -179t-71.5 -218q-23 -112 -23 -194z" />
<glyph unicode="P" horiz-adv-x="1284" d="M158 0l305 1434h601q98 0 179 -37t133.5 -117t52.5 -189q0 -51 -12 -109q-40 -189 -193.5 -315.5t-349.5 -126.5h-364l-114 -540h-238zM546 709h307q114 0 203 71t117 204q9 42 9 79q0 98 -58 150t-153 52h-307z" />
<glyph unicode="Q" d="M239 508q0 99 24 210q34 161 107.5 297t179 235.5t246 155t300.5 55.5q263 0 402 -143.5t139 -388.5q0 -100 -24 -211q-51 -241 -187 -419t-333 -247l47 -50q68 -74 169 -88h133l-28 -133h-205q-86 0 -145.5 24.5t-112.5 81.5l-86 95q-28 -6 -85 -6q-264 0 -402.5 143.5 t-138.5 388.5zM485 524q0 -170 82 -270t251 -100q110 0 204 44.5t161.5 123t114 178.5t71.5 218q22 107 22 194q0 171 -81.5 271.5t-251.5 100.5q-89 0 -167.5 -29.5t-138.5 -81t-109 -123.5t-82 -155t-53 -177q-23 -112 -23 -194z" />
<glyph unicode="R" horiz-adv-x="1386" d="M158 0l305 1434h620q69 0 131.5 -21t112 -60t78.5 -102.5t29 -141.5q0 -51 -11 -101q-30 -142 -128.5 -238.5t-233.5 -128.5l-84 -5l121 -288q30 -78 72 -120t102 -60q37 -10 78 -10q10 0 21 1l-32 -163q-124 -2 -137 -2q-70 0 -113 12q-136 37 -202 210l-145 375h-224 l-125 -591h-235zM554 760h326q107 0 190 64t109 185q7 34 7 68q0 90 -54.5 139t-144.5 49h-325z" />
<glyph unicode="S" horiz-adv-x="1155" d="M100 42l46 201q228 -67 408 -67q153 0 242 63.5t110 161.5q5 25 5 43q0 68 -57 108.5t-189 84.5l-94 32q-267 91 -267 306q0 35 10 85q24 111 86.5 192.5t148.5 125t174.5 63t183.5 19.5q212 0 421 -71l-45 -194q-184 67 -364 67q-302 0 -348 -197q-4 -17 -4 -38 q0 -122 185 -185l91 -31q167 -57 249.5 -126.5t82.5 -183.5q0 -32 -10 -80q-44 -206 -213 -326t-419 -120q-230 0 -433 67z" />
<glyph unicode="T" horiz-adv-x="1126" d="M305 1265l36 169h1055l-36 -169h-406l-269 -1265h-244l269 1265h-405z" />
<glyph unicode="U" horiz-adv-x="1400" d="M242 333q0 61 15 131l206 970h244l-208 -979q-12 -59 -12 -106q0 -102 60.5 -149t186.5 -47q154 0 242 72t121 230l208 979h244l-206 -970q-52 -242 -223.5 -365.5t-423.5 -123.5q-214 0 -334 90t-120 268z" />
<glyph unicode="V" horiz-adv-x="1282" d="M341 1434h246l106 -1191l613 1191h246l-768 -1434h-285z" />
<glyph unicode="W" horiz-adv-x="1865" d="M341 1434h246l43 -1121l504 1121h209l28 -1121l520 1121h245l-677 -1434h-273l-45 975l-460 -975h-272z" />
<glyph unicode="X" horiz-adv-x="1269" d="M48 0l629 730l-306 704h248l221 -521l443 521h248l-606 -704l320 -730h-248l-235 547l-466 -547h-248z" />
<glyph unicode="Y" horiz-adv-x="1329" d="M341 1434h248l236 -685l527 685h247l-695 -889l-116 -545h-245l116 545z" />
<glyph unicode="Z" horiz-adv-x="1224" d="M86 0l41 194l1000 1071h-724l36 169h963l-42 -195l-987 -1070h803l-36 -169h-1054z" />
<glyph unicode="[" horiz-adv-x="528" d="M-6 -403l389 1830h383l-28 -130h-208l-335 -1571h209l-27 -129h-383z" />
<glyph unicode="\" horiz-adv-x="888" d="M344 1434h173l333 -1434h-173z" />
<glyph unicode="]" horiz-adv-x="528" d="M-18 -403l27 129h209l334 1571h-209l28 130h382l-389 -1830h-382z" />
<glyph unicode="^" horiz-adv-x="1110" d="M200 674l564 760h193l240 -760h-192l-186 587l-426 -587h-193z" />
<glyph unicode="_" horiz-adv-x="1239" d="M4 -301l28 129h1104l-28 -129h-1104z" />
<glyph unicode="`" horiz-adv-x="509" d="M380 1536h170l161 -371h-132z" />
<glyph unicode="a" horiz-adv-x="1175" d="M172 322q0 75 20 172q51 241 186 379.5t323 138.5q182 0 288 -110l48 87h171l-160 -753l-2 -36q-1 -32 12.5 -47.5t45.5 -18.5l36 -1l-28 -133h-136q-96 0 -119 87l-5 22q-168 -128 -367 -128q-148 0 -230.5 88t-82.5 253zM379 367q0 -210 197 -210q141 0 270 71l113 531 q-102 73 -238 73q-126 0 -210 -91.5t-117 -246.5q-15 -71 -15 -127z" />
<glyph unicode="b" horiz-adv-x="1161" d="M188 109l236 1108q3 14 3 26q0 52 -62 57l-39 1l28 133h187q106 0 106 -91q0 -20 -4 -39l-86 -402q153 110 335 110q150 0 229.5 -89t79.5 -252q0 -86 -20 -177q-54 -253 -208.5 -383t-370.5 -130q-234 0 -414 128zM414 228q100 -71 239 -71q125 0 207.5 87t117.5 250 q14 67 14 120q0 103 -49 160.5t-148 57.5q-135 0 -268 -73z" />
<glyph unicode="c" horiz-adv-x="995" d="M176 351q0 71 16 144q49 230 207 372.5t383 142.5q127 0 207 -37q90 -35 90 -136q0 -22 -7 -59l-15 -71h-139l2 16q3 15 3 27q0 65 -65 79q-42 10 -93 10q-18 0 -38 -1q-126 -5 -214.5 -100t-119.5 -243q-12 -57 -12 -107q0 -114 61 -179t176 -65q139 0 287 54l9 -162 q-168 -56 -352 -56q-188 0 -287 100t-99 271z" />
<glyph unicode="d" horiz-adv-x="1175" d="M172 322q0 75 20 172q51 241 186 379.5t323 138.5q182 0 288 -110l85 402q28 130 157 130h187l-28 -133l-40 -1q-77 -6 -94 -83l-208 -981l-2 -36q-1 -32 12.5 -47.5t45.5 -18.5l36 -1l-28 -133h-136q-96 0 -119 87l-5 22q-168 -128 -367 -128q-148 0 -230.5 88 t-82.5 253zM379 367q0 -210 197 -210q141 0 270 71l113 531q-102 73 -238 73q-126 0 -210 -91.5t-117 -246.5q-15 -71 -15 -127z" />
<glyph unicode="e" horiz-adv-x="1036" d="M176 353q0 70 16 143q49 231 209.5 372.5t392.5 141.5q156 0 232.5 -60.5t76.5 -149.5q0 -85 -52.5 -164.5t-152.5 -127.5q-77 -37 -184.5 -63t-172 -34.5t-163.5 -17.5q-1 -16 -1 -32q0 -99 61 -163q70 -74 205 -74h4q140 1 302 50l5 -114q-166 -78 -392 -78 q-187 0 -286.5 100t-99.5 271zM402 512q82 7 121 11t124 22.5t139 44.5q60 29 93 76.5t33 97.5q0 46 -36.5 80.5t-128.5 34.5q-128 0 -218 -91.5t-120 -232.5q-3 -15 -7 -43z" />
<glyph unicode="f" horiz-adv-x="772" d="M29 -229q73 27 123 76t71 147l176 827h-142l36 168h141l34 159q45 208 211 275q70 29 162 29q87 0 173 -24l-58 -150q-63 10 -103 10q-45 0 -79 -11q-83 -27 -104 -129l-33 -159h240l-36 -168h-240l-176 -827q-14 -64 -44.5 -118.5t-65.5 -89.5t-76.5 -61.5t-73.5 -39.5 t-60 -19z" />
<glyph unicode="g" horiz-adv-x="1124" d="M130 -340l59 121q5 -1 49 -9.5t61.5 -11t53.5 -8t65 -7.5t58 -2q33 0 73 5q197 24 238 207l31 150q-177 -105 -346 -105q-144 0 -222 85.5t-78 240.5q0 78 19 164q37 171 123 288t202 172t258 55q234 0 409 -131l-195 -919q-35 -164 -144.5 -245t-272.5 -91 q-37 -4 -85 -4q-142 0 -356 45zM381 381q0 -99 49.5 -156t148.5 -57q135 0 268 73l110 515q-98 71 -238 71q-125 0 -207.5 -86.5t-118.5 -250.5q-12 -59 -12 -109z" />
<glyph unicode="h" horiz-adv-x="1179" d="M141 0l304 1434h203l-120 -563q81 56 185 98t207 42q244 0 244 -248q0 -68 -18 -155l-76 -357q-5 -23 -5 -38q0 -74 95 -80l-28 -133h-94q-184 2 -184 158q0 29 8 69l83 388q9 45 9 83q0 62 -33 95.5t-112 33.5q-87 0 -171.5 -39.5t-145.5 -88.5l-149 -699h-202z" />
<glyph unicode="i" horiz-adv-x="514" d="M176 0l165 773q3 13 3 25q0 52 -62 57l-39 2l28 132h147q137 0 137 -128q0 -32 -7 -64l-169 -797h-203zM423 1160l50 237h203l-51 -237h-202z" />
<glyph unicode="j" horiz-adv-x="518" d="M-147 -303q33 2 53.5 4t53 8.5t54 15t47.5 25t44 38.5t33.5 54.5t24.5 73.5l228 1073h202l-228 -1073q-17 -80 -58 -141.5t-89 -95.5t-105.5 -55.5t-102.5 -27.5q-39 -6 -75 -6h-11zM427 1160l51 237h202l-51 -237h-202z" />
<glyph unicode="k" horiz-adv-x="1126" d="M135 0l305 1434h202l-170 -800h163q141 2 241.5 85.5t141.5 242.5l7 28h198l-5 -23q-39 -176 -155.5 -290.5t-265.5 -135.5l-7 -1l282 -540h-215l-254 474h-165l-101 -474h-202z" />
<glyph unicode="l" horiz-adv-x="540" d="M169 158q0 29 8 69l257 1207h202l-251 -1183q-5 -23 -5 -37q0 -75 96 -81l-29 -133h-95q-90 1 -136.5 41t-46.5 117z" />
<glyph unicode="m" horiz-adv-x="1806" d="M169 0l165 773q3 13 3 25q0 52 -62 57l-39 2l28 132h225q77 0 77 -65q0 -10 -3 -23l-7 -32q90 63 177 102.5t183 39.5q193 0 229 -160q109 74 204 117t198 43q250 0 250 -249q0 -59 -18 -147l-77 -364q-4 -17 -4 -36q0 -75 86 -81l9 -1l-29 -133h-95q-182 2 -182 158 q0 29 8 69l82 388q11 55 11 84q0 62 -34 95t-113 33q-42 0 -82.5 -10.5t-82 -34.5t-61.5 -38t-60 -43q-3 -39 -16 -101l-127 -600h-202l130 615q11 55 11 84q0 128 -147 128q-55 0 -113 -23t-90 -45t-80 -59l-149 -700h-203z" />
<glyph unicode="n" horiz-adv-x="1202" d="M169 0l165 773q3 13 3 25q0 52 -62 57l-39 2l28 132h225q77 0 77 -65q0 -10 -3 -24l-7 -32q207 143 392 143q245 0 245 -249q0 -64 -17 -147l-78 -364q-4 -17 -4 -36q0 -75 87 -81l8 -1l-28 -133h-95q-90 1 -136.5 41t-46.5 117q0 29 8 69l82 388q10 50 10 83 q0 63 -33.5 96t-112.5 33q-86 0 -171.5 -39.5t-145.5 -88.5l-148 -699h-203z" />
<glyph unicode="o" horiz-adv-x="1130" d="M176 351q0 70 16 143q49 229 206 372.5t383 143.5q188 0 287 -100.5t99 -271.5q0 -71 -16 -144q-49 -229 -206 -371.5t-383 -142.5q-188 0 -287 100t-99 271zM382 391q0 -106 55 -169t163 -63q133 0 226 94t124 241q11 48 11 102q0 107 -55 171t-163 64q-133 0 -226 -95 t-124 -242q-11 -50 -11 -103z" />
<glyph unicode="p" horiz-adv-x="1171" d="M98 -369l240 1130v27q2 32 -12 48t-46 19l-37 1l28 132h221q72 0 74 -66l3 -19q141 104 326 104q152 0 234.5 -90.5t82.5 -253.5q0 -77 -19 -165q-48 -227 -187.5 -368t-327.5 -141q-174 0 -280 110l-99 -468h-201zM427 242q104 -73 240 -73q126 0 209 87.5t115 241.5 q14 66 14 125q0 208 -197 208q-73 0 -147.5 -21t-122.5 -49z" />
<glyph unicode="q" horiz-adv-x="1130" d="M172 317q0 82 21 181q54 254 208.5 383t372.5 129q236 0 410 -133l-265 -1246h-200l98 463q-70 -44 -160.5 -74.5t-182.5 -30.5q-149 0 -225.5 85.5t-76.5 242.5zM381 380q0 -101 49.5 -156t148.5 -55q134 0 269 73l111 519q-100 71 -240 71q-125 0 -207 -85.5 t-117 -248.5q-14 -67 -14 -118z" />
<glyph unicode="r" horiz-adv-x="804" d="M165 0l159 750q4 24 4 32q0 69 -80 73l-17 2l29 132h201q96 0 96 -81q0 -18 -4 -35l-10 -44q114 133 292 170q49 11 138 12l-40 -189q-57 6 -89 6q-110 0 -203 -58t-140 -143l-134 -627h-202z" />
<glyph unicode="s" horiz-adv-x="940" d="M95 46l27 116q147 -47 321 -47q102 0 165.5 44t78.5 113q3 17 3 31q0 50 -40.5 81t-123.5 51l-105 27q-182 50 -182 200q0 29 8 67q14 65 48 115.5t77.5 81.5t99 51t108 27.5t108.5 7.5q213 0 335 -67l-29 -123q-148 53 -298 53q-216 0 -246 -141q-3 -15 -3 -27 q0 -84 145 -124l95 -24q107 -29 164 -78.5t57 -130.5q0 -26 -6 -56q-30 -144 -154 -230.5t-303 -86.5q-237 0 -350 69z" />
<glyph unicode="t" horiz-adv-x="784" d="M230 821l35 168h142l78 270h182l-58 -270h260l-35 -168h-261l-115 -544q-5 -25 -5 -40q0 -57 48 -79q27 -13 78 -13q45 0 113 11l-32 -160q-90 -19 -156 -19q-42 0 -78 9q-92 10 -138 50t-46 130q0 44 14 111l115 544h-141z" />
<glyph unicode="u" horiz-adv-x="1163" d="M183 216q0 62 14 125l138 648h202l-130 -615q-10 -50 -10 -82q0 -63 34 -96.5t113 -33.5q86 0 170.5 39.5t145.5 88.5l148 699h203l-157 -738q-5 -23 -5 -38q0 -74 95 -80l-28 -133h-194q-101 2 -101 89q0 15 3 32q-86 -59 -192 -101.5t-203 -42.5q-126 0 -186 62.5 t-60 176.5z" />
<glyph unicode="v" horiz-adv-x="1155" d="M231 857l29 132h117q77 -1 117 -39.5t40 -111.5q0 -33 -9 -75l-75 -352q-6 -31 -6 -61q0 -84 50 -136.5t152 -52.5q131 0 211 99.5t110 261.5q17 91 17 199q0 140 -28 268l216 5q21 -117 21 -243q0 -151 -31 -282q-24 -106 -69.5 -193t-113.5 -155.5t-164 -106.5 t-213 -38q-171 0 -270 89.5t-99 233.5q0 38 10 88l75 351q4 19 4 39q0 74 -91 80z" />
<glyph unicode="w" horiz-adv-x="1810" d="M231 857l28 132h119q156 -2 156 -151q0 -33 -9 -75l-75 -352q-7 -32 -7 -65q0 -88 52.5 -136.5t131.5 -48.5q94 0 181 68.5t121 191.5l121 568h193l-122 -578q-7 -32 -7 -65q0 -90 52.5 -138.5t131.5 -48.5q112 0 205 98.5t126 263.5q19 101 19 213q0 133 -26 255l207 5 q22 -117 22 -243q0 -152 -32 -280q-27 -114 -82.5 -209t-126.5 -156.5t-152.5 -95.5t-164.5 -35h-10q-105 0 -189 58q-88 61 -120 176q-76 -111 -189.5 -171.5t-228.5 -60.5q-139 0 -231.5 79.5t-92.5 227.5q0 52 11 103l75 351q4 19 4 39q0 74 -91 80z" />
<glyph unicode="x" horiz-adv-x="1001" d="M26 0l466 506l-238 483h206l176 -354l327 354h205l-443 -483l251 -506h-205l-190 377l-349 -377h-206z" />
<glyph unicode="y" horiz-adv-x="1021" d="M-25 -354l49 129q65 -26 117 -26q140 0 255 188l37 63h-9l-170 989h203l107 -741l422 741h203l-621 -1073q-73 -129 -174.5 -207.5t-217.5 -95.5q-14 -2 -42 -2q-87 0 -159 35z" />
<glyph unicode="z" horiz-adv-x="972" d="M72 0l36 168l716 670h-538l32 151h746l-36 -169l-713 -670h590l-32 -150h-801z" />
<glyph unicode="{" horiz-adv-x="714" d="M150 -188q0 28 5 51l100 471q5 23 5 40q0 75 -72 91l-26 1l28 130l27 1q99 23 122 131l100 470q19 89 79 145.5t143 73.5q64 11 114 11q61 0 163 -17l-27 -122q-76 9 -127 9q-52 0 -82 -10q-76 -25 -95 -117l-87 -409q-19 -90 -81.5 -152.5t-143.5 -78.5q61 -13 97 -58.5 t36 -114.5q0 -26 -6 -58l-87 -409q-4 -19 -4 -37q0 -48 32 -67q27 -22 103 -22q45 0 122 8l-25 -123q-101 -12 -147 -12q-88 0 -155 22q-52 15 -81.5 54.5t-29.5 97.5z" />
<glyph unicode="|" horiz-adv-x="313" d="M17 -299l389 1835h155l-389 -1835h-155z" />
<glyph unicode="}" horiz-adv-x="714" d="M5 -349l27 122q74 -8 119 -8q73 0 112 23q56 26 73 104l86 409q19 91 82 153t143 77q-61 13 -97 58.5t-36 114.5q0 22 7 59l86 408q5 25 5 40q0 60 -50 78q-27 9 -76 9q-50 0 -132 -9l25 123q103 16 170 16q55 0 109 -10q62 -14 98.5 -56t36.5 -107q0 -26 -6 -56 l-100 -470q-5 -25 -5 -42q0 -70 72 -89l26 -1l-27 -130l-26 -1q-100 -21 -123 -131l-101 -472q-17 -77 -69 -130t-123 -72q-76 -22 -164 -22q-46 0 -142 12z" />
<glyph unicode="~" horiz-adv-x="1114" d="M152 413q51 123 152.5 202t213.5 79q71 0 124 -33l225 -138q49 -33 89 -33q56 0 108.5 43t78.5 112l44 -5q-31 -112 -118 -187t-184 -75q-60 0 -119 38l-227 140q-38 25 -92 25q-71 0 -139.5 -48t-112.5 -126z" />
<glyph unicode="&#xa1;" horiz-adv-x="462" d="M53 -369l233 1014h168l-198 -1014h-203zM318 893l37 172h208l-37 -172h-208z" />
<glyph unicode="&#xa2;" horiz-adv-x="1003" d="M176 349q0 71 16 145q44 209 177.5 348t328.5 160l28 128h154l-27 -124q134 -7 256 -53l-64 -134q-127 54 -260 54q-148 0 -252 -103.5t-140 -274.5q-13 -62 -13 -120q0 -121 62 -190t182 -69q132 0 283 54l7 -134q-138 -45 -278 -52l-27 -125h-154l28 129 q-151 17 -229 113t-78 248z" />
<glyph unicode="&#xa3;" horiz-adv-x="1327" d="M126 1l35 166h63q80 0 123.5 41.5t63.5 137.5l68 317h-161l32 150h161l9 45q14 68 31 125.5t43.5 120t59 111.5t79.5 94.5t103.5 75.5t132 48t163.5 18q107 0 202 -34t161 -77l-136 -171q-115 80 -252 80q-71 0 -124.5 -21t-87 -52.5t-60 -87.5t-41 -105.5t-30.5 -127.5 l-9 -42h497l-32 -150h-497l-67 -317q-29 -136 -130 -179h744l-35 -166h-1109z" />
<glyph unicode="&#xa5;" horiz-adv-x="1476" d="M290 309l31 147h393l18 89l-37 102h-333l31 147h251l-230 640h248l236 -685l527 685h248l-502 -640h256l-31 -147h-338l-81 -102l-19 -89h397l-31 -147h-397l-66 -309h-244l65 309h-392z" />
<glyph unicode="&#xa6;" horiz-adv-x="313" d="M17 -299l167 787h155l-167 -787h-155zM230 705l167 786h155l-167 -786h-155z" />
<glyph unicode="&#xa7;" horiz-adv-x="907" d="M68 -80l27 115q150 -45 312 -45q114 0 181.5 54.5t67.5 133.5q0 50 -41 81t-124 51l-105 26q-182 50 -182 200q0 29 8 67q31 146 168 208q-86 53 -86 152q0 31 7 60q14 65 48 115.5t77.5 81.5t99.5 51t108.5 27.5t108.5 7.5q212 0 334 -67l-29 -122q-160 52 -298 52 q-215 0 -245 -141q-3 -15 -3 -27q0 -85 145 -124l94 -24q108 -29 165 -78t57 -130q0 -22 -7 -57q-31 -146 -156 -223q73 -54 73 -142q0 -25 -6 -55q-31 -143 -154.5 -229t-302.5 -86q-234 0 -342 67zM378 589q0 -79 118 -110l88 -21q42 -10 77 -26q59 23 92.5 69t33.5 101 q0 47 -36.5 76.5t-112.5 48.5l-89 21l-15 4q-130 -25 -153 -134q-3 -15 -3 -29z" />
<glyph unicode="&#xa8;" horiz-adv-x="649" d="M333 1299l29 135h134l-28 -135h-135zM736 1299l29 135h134l-29 -135h-134z" />
<glyph unicode="&#xa9;" horiz-adv-x="1691" d="M213 570q0 73 17 153q42 199 180.5 368.5t336 269t405.5 99.5q139 0 258.5 -45.5t201.5 -124.5t128 -187.5t46 -233.5q0 -73 -16 -146q-32 -153 -122.5 -291.5t-215 -238.5t-281 -159t-315.5 -59q-274 0 -448.5 169t-174.5 426zM339 595q0 -215 146.5 -356t377.5 -141 q179 0 347.5 84t285 227.5t152.5 313.5q13 61 13 121q0 213 -149 353t-386 140q-175 0 -340.5 -82.5t-281.5 -224t-151 -307.5q-14 -68 -14 -128zM640 611q0 49 12 105q36 166 148 270.5t273 104.5q127 0 209 -45l-43 -89q-97 39 -188 32q-101 -4 -172 -78.5t-96 -194.5 q-10 -44 -10 -87q0 -83 41.5 -132t120.5 -53q88 -7 202 32l5 -89q-102 -45 -229 -45q-133 0 -203 72.5t-70 196.5z" />
<glyph unicode="&#xaa;" horiz-adv-x="739" d="M315 1062q0 40 11 93q29 135 105 212.5t181 77.5q97 0 153 -56l28 44h111l-87 -411l-1 -19q0 -1 -0.5 -3t-0.5 -3q0 -27 29 -30h23l-19 -88h-84q-58 0 -71 52l-2 7q-93 -70 -199 -70q-83 0 -130 50.5t-47 143.5zM449 1089q0 -106 100 -106q69 0 137 33l59 279 q-53 33 -122 33q-64 0 -106.5 -46.5t-59.5 -126.5q-8 -40 -8 -66z" />
<glyph unicode="&#xab;" horiz-adv-x="899" d="M167 452l252 484h178l-266 -483l67 -453h-178zM593 452l252 484h178l-265 -483l66 -453h-178z" />
<glyph unicode="&#xac;" horiz-adv-x="1437" />
<glyph unicode="&#xad;" horiz-adv-x="669" d="M197 552l36 170h510l-36 -170h-510z" />
<glyph unicode="&#xae;" horiz-adv-x="1691" d="M213 570q0 73 17 153q42 199 180.5 368.5t336 269t405.5 99.5q139 0 258.5 -45.5t201.5 -124.5t128 -187.5t46 -233.5q0 -73 -16 -146q-32 -153 -122.5 -291.5t-215 -238.5t-281 -159t-315.5 -59q-274 0 -448.5 169t-174.5 426zM339 595q0 -215 146.5 -356t377.5 -141 q179 0 347.5 84t285 227.5t152.5 313.5q13 61 13 121q0 213 -149 353t-386 140q-175 0 -340.5 -82.5t-281.5 -224t-151 -307.5q-14 -68 -14 -128zM669 359l154 724h313q74 0 126.5 -43.5t52.5 -121.5q0 -91 -55.5 -155.5t-136.5 -83.5l-12 -2l118 -318h-132l-112 296h-129 l-62 -296h-125zM877 753h158q52 0 92 29.5t52 85.5q3 15 3 28q0 42 -27 65t-71 23h-158z" />
<glyph unicode="&#xaf;" horiz-adv-x="765" d="M334 1313l25 121h658l-26 -121h-657z" />
<glyph unicode="&#xb0;" horiz-adv-x="509" d="M353 1285q0 85 68.5 150.5t152.5 65.5q64 0 104.5 -40t40.5 -101q0 -85 -68.5 -151t-152.5 -66q-64 0 -104.5 40.5t-40.5 101.5zM437 1303q0 -33 22.5 -55.5t56.5 -22.5q45 0 82 36t37 81q0 33 -22 55t-56 22q-46 0 -83 -35t-37 -81z" />
<glyph unicode="&#xb1;" horiz-adv-x="995" d="M73 0l36 169h850l-36 -169h-850zM220 692l36 169h340l68 322h169l-68 -322h341l-36 -169h-341l-69 -323h-169l69 323h-340z" />
<glyph unicode="&#xb2;" horiz-adv-x="692" d="M216 642l25 115q174 100 293 213q138 131 138 235q0 51 -36 75t-95 24q-88 0 -177 -43l18 117q110 56 228 56q97 0 164.5 -49.5t67.5 -139.5q0 -126 -136 -269q-88 -94 -261 -215h331l-25 -119h-535z" />
<glyph unicode="&#xb3;" horiz-adv-x="696" d="M228 694l28 101q73 -42 165 -42q174 0 200 120q3 12 3 24q0 41 -31.5 64.5t-84.5 24.5h-130l22 102h112q56 2 104 33.5t60 86.5q3 12 3 22q0 42 -37.5 62.5t-101.5 20.5q-78 0 -172 -43l15 107q111 57 229 57q102 0 176 -41t74 -121q0 -20 -4 -37q-26 -123 -162 -190 q107 -54 107 -154q0 -19 -5 -46q-12 -59 -48.5 -102.5t-87.5 -66t-102.5 -33t-106.5 -10.5q-65 0 -130 15t-95 46z" />
<glyph unicode="&#xb4;" horiz-adv-x="509" d="M296 1165l318 371h170l-355 -371h-133z" />
<glyph unicode="&#xb6;" horiz-adv-x="1116" d="M280 928q0 45 11 98q38 176 179.5 292t309.5 116h565l-30 -142h-128l-333 -1566h-104l334 1566h-127l-334 -1566h-155l190 893h-56q-143 2 -232.5 85.5t-89.5 223.5z" />
<glyph unicode="&#xb7;" horiz-adv-x="335" d="M178 536l37 172h208l-37 -172h-208z" />
<glyph unicode="&#xb8;" horiz-adv-x="475" d="M-29 -375l15 60q42 -7 81 -7q72 0 125 28.5t53 79.5q0 25 -19 42.5t-60 17.5q-11 0 -55 -4l-18 29l111 137h61l-68 -96q17 2 49 2q64 0 97 -31t33 -77q0 -14 -3 -27q-12 -56 -58 -94.5t-102 -54t-117 -15.5q-68 0 -125 10z" />
<glyph unicode="&#xb9;" horiz-adv-x="512" d="M332 651l143 671l-99 -17l2 98l184 30h81l-167 -782h-144z" />
<glyph unicode="&#xba;" horiz-adv-x="702" d="M317 1078q0 37 9 79q27 128 116 208.5t217 80.5q107 0 163.5 -57t56.5 -153q0 -37 -9 -79q-27 -128 -116 -208t-217 -80q-107 0 -163.5 56.5t-56.5 152.5zM450 1103q0 -54 28 -86t83 -32q68 0 115.5 48t63.5 124q6 27 6 53q0 55 -28.5 87t-83.5 32q-69 0 -115.5 -48 t-62.5 -124q-6 -29 -6 -54z" />
<glyph unicode="&#xbb;" horiz-adv-x="899" d="M77 0l259 453l-60 483h178l47 -484l-246 -452h-178zM503 0l259 453l-60 483h178l47 -484l-246 -452h-178z" />
<glyph unicode="&#xbc;" horiz-adv-x="1605" d="M264 -20l1140 1473h167l-1140 -1473h-167zM330 555l163 768l-118 -20l3 97l201 33h81l-187 -878h-143zM910 243l23 109l463 527l151 -8l-445 -515h243l83 176h96l-38 -176h116l-23 -113h-114l-52 -243h-150l52 243h-405z" />
<glyph unicode="&#xbd;" horiz-adv-x="1710" d="M270 -20l1140 1473h167l-1140 -1473h-167zM330 555l163 768l-118 -20l3 97l201 33h81l-187 -878h-143zM1042 0l24 116q206 119 339 246q143 136 158 244q3 20 3 35q0 62 -42 90.5t-111 28.5q-99 0 -204 -50l18 117q122 62 254 62q107 0 180.5 -53.5t73.5 -154.5 q0 -147 -158 -312q-109 -116 -308 -250h388l-25 -119h-590z" />
<glyph unicode="&#xbe;" horiz-adv-x="1769" d="M208 603l28 100q82 -49 190 -49q206 0 237 145q3 15 3 29q0 50 -38.5 79t-102.5 31h-142l21 101h125q67 2 125 41t72 106q3 15 3 26q0 51 -44.5 76t-118.5 25q-93 0 -197 -49l15 107q123 63 254 63q72 0 132 -17.5t101 -59.5t41 -102q0 -23 -4 -43q-30 -146 -192 -215 q129 -55 129 -175q0 -28 -5 -51q-14 -66 -54 -114.5t-95.5 -74t-113 -37t-119.5 -11.5q-71 0 -143.5 17.5t-106.5 51.5zM427 -20l1141 1473h167l-1141 -1473h-167zM1074 243l23 109l463 527l151 -8l-445 -515h243l83 176h96l-38 -176h116l-24 -113h-113l-52 -243h-150 l52 243h-405z" />
<glyph unicode="&#xbf;" horiz-adv-x="882" d="M31 -118q0 38 9 81q24 113 86.5 189.5t180.5 144.5q12 7 43 24.5t43 24.5t36 22t36.5 25.5t29 26.5t28.5 32q46 57 69 160l9 44h204l-10 -44q-26 -121 -98 -201q-30 -34 -73.5 -67.5t-70.5 -50.5t-83 -50q-191 -108 -227 -280q-7 -29 -7 -58q0 -82 57 -123t157 -41 q125 0 321 66v-118q-217 -83 -386 -83q-71 0 -133 16.5t-112.5 48.5t-79.5 86.5t-29 124.5zM649 893l37 173h208l-37 -173h-208z" />
<glyph unicode="&#xc0;" horiz-adv-x="1339" d="M36 0l794 1434h289l185 -1434h-252l-40 355h-532l-192 -355h-252zM545 523h466l-84 700zM898 1980h170l161 -370h-132z" />
<glyph unicode="&#xc1;" horiz-adv-x="1339" d="M36 0l794 1434h289l185 -1434h-252l-40 355h-532l-192 -355h-252zM545 523h466l-84 700zM778 1609l319 371h170l-356 -371h-133z" />
<glyph unicode="&#xc2;" horiz-adv-x="1339" d="M36 0l794 1434h289l185 -1434h-252l-40 355h-532l-192 -355h-252zM545 523h466l-84 700zM673 1610l301 370h225l144 -370h-133l-141 285l-264 -285h-132z" />
<glyph unicode="&#xc3;" horiz-adv-x="1339" d="M36 0l794 1434h289l185 -1434h-252l-40 355h-532l-192 -355h-252zM545 523h466l-84 700zM708 1712q35 90 102 147.5t140 57.5q46 0 81 -23l143 -98q33 -21 58 -21q37 0 71 30t52 79l33 -5q-23 -83 -83 -140.5t-124 -57.5q-40 0 -80 28l-143 99q-26 16 -58 16 q-45 0 -87 -31.5t-72 -85.5z" />
<glyph unicode="&#xc4;" horiz-adv-x="1339" d="M36 0l794 1434h289l185 -1434h-252l-40 355h-532l-192 -355h-252zM545 523h466l-84 700zM768 1744l29 134h134l-29 -134h-134zM1171 1744l28 134h135l-29 -134h-134z" />
<glyph unicode="&#xc5;" horiz-adv-x="1339" d="M36 0l794 1434h289l185 -1434h-252l-40 355h-532l-192 -355h-252zM545 523h466l-84 700zM835 1764q0 100 80.5 177t179.5 77q76 0 123.5 -47.5t47.5 -119.5q0 -100 -80.5 -177t-180.5 -77q-75 0 -122.5 47.5t-47.5 119.5zM918 1781q0 -44 29 -73.5t75 -29.5 q60 0 110 47.5t50 108.5q0 44 -29.5 73.5t-75.5 29.5q-60 0 -109.5 -47.5t-49.5 -108.5z" />
<glyph unicode="&#xc6;" horiz-adv-x="1634" d="M48 0l784 1434h1018l-41 -195h-628l-90 -426h554l-32 -150h-554l-100 -469h636l-41 -194h-881l75 355h-263l-191 -355h-246zM550 523h234l149 702z" />
<glyph unicode="&#xc7;" horiz-adv-x="1318" d="M238 504q0 101 24 212q34 161 107.5 297t179 235.5t246 155t300.5 55.5q163 0 268 -42q110 -44 110 -173q0 -36 -9 -81l-14 -64h-159l2 25q3 18 3 33q0 76 -67 95q-77 21 -174 17q-203 -6 -348.5 -158t-196.5 -395q-20 -95 -20 -175q0 -170 84 -270t246 -107q36 -2 54 -2 q166 0 347 66l9 -165q-202 -90 -451 -90h-31l-43 -61q14 2 48 2q64 0 97 -31t33 -77q0 -14 -3 -27q-9 -43 -37.5 -75.5t-68 -51.5t-82.5 -28t-88 -9q-68 0 -125 10l15 60q40 -7 81 -7q72 0 124.5 28.5t52.5 79.5q0 25 -19 42.5t-60 17.5q-16 0 -54 -4l-19 29l87 109 q-220 23 -334.5 162.5t-114.5 361.5z" />
<glyph unicode="&#xc8;" horiz-adv-x="1118" d="M158 0l305 1434h872l-36 -169h-627l-95 -443h554l-36 -169h-553l-103 -484h635l-35 -169h-881zM832 1980h170l161 -370h-133z" />
<glyph unicode="&#xc9;" horiz-adv-x="1118" d="M158 0l305 1434h872l-36 -169h-627l-95 -443h554l-36 -169h-553l-103 -484h635l-35 -169h-881zM712 1609l318 371h170l-356 -371h-132z" />
<glyph unicode="&#xca;" horiz-adv-x="1118" d="M158 0l305 1434h872l-36 -169h-627l-95 -443h554l-36 -169h-553l-103 -484h635l-35 -169h-881zM607 1610l301 370h225l144 -370h-133l-142 285l-263 -285h-132z" />
<glyph unicode="&#xcb;" horiz-adv-x="1118" d="M158 0l305 1434h872l-36 -169h-627l-95 -443h554l-36 -169h-553l-103 -484h635l-35 -169h-881zM701 1744l29 134h134l-28 -134h-135zM1104 1744l29 134h134l-28 -134h-135z" />
<glyph unicode="&#xcc;" horiz-adv-x="559" d="M158 0l305 1434h244l-304 -1434h-245zM513 1980h170l161 -370h-133z" />
<glyph unicode="&#xcd;" horiz-adv-x="559" d="M158 0l305 1434h244l-304 -1434h-245zM393 1609l318 371h170l-355 -371h-133z" />
<glyph unicode="&#xce;" horiz-adv-x="559" d="M158 0l305 1434h244l-304 -1434h-245zM288 1610l301 370h225l144 -370h-133l-142 285l-263 -285h-132z" />
<glyph unicode="&#xcf;" horiz-adv-x="559" d="M158 0l305 1434h244l-304 -1434h-245zM382 1744l29 134h135l-29 -134h-135zM785 1744l29 134h135l-29 -134h-135z" />
<glyph unicode="&#xd0;" horiz-adv-x="1468" d="M205 0l124 587h-124l36 170h124l144 677h481q267 0 406.5 -135.5t139.5 -375.5q0 -93 -23 -205q-70 -328 -288.5 -523t-539.5 -195h-480zM485 169h237q206 0 349 151.5t195 397.5q21 96 21 181q0 170 -83.5 268t-248.5 98h-237l-108 -508h259l-36 -170h-259z" />
<glyph unicode="&#xd1;" horiz-adv-x="1429" d="M148 0l304 1434h257l418 -1021l217 1021h244l-304 -1434h-255l-419 1025l-218 -1025h-244zM757 1712q35 90 102.5 147.5t140.5 57.5q46 0 80 -23l144 -98q33 -21 57 -21q37 0 71 30t52 79l33 -5q-23 -83 -83 -140.5t-124 -57.5q-39 0 -79 28l-144 99q-26 16 -58 16 q-45 0 -87 -31.5t-72 -85.5z" />
<glyph unicode="&#xd2;" d="M239 507q0 100 24 211q34 161 107.5 297t179 235.5t246 155t300.5 55.5q263 0 402 -143.5t139 -388.5q0 -100 -24 -211q-34 -161 -107.5 -297t-179 -235.5t-246 -155t-300.5 -55.5q-264 0 -402.5 143.5t-138.5 388.5zM485 524q0 -170 82 -270.5t251 -100.5 q110 0 204 44.5t161.5 123.5t114 179t71.5 218q22 107 22 193q0 171 -81.5 271.5t-251.5 100.5q-110 0 -204 -44.5t-161 -123.5t-113.5 -179t-71.5 -218q-23 -112 -23 -194zM1017 1980h170l161 -370h-133z" />
<glyph unicode="&#xd3;" d="M239 507q0 100 24 211q34 161 107.5 297t179 235.5t246 155t300.5 55.5q263 0 402 -143.5t139 -388.5q0 -100 -24 -211q-34 -161 -107.5 -297t-179 -235.5t-246 -155t-300.5 -55.5q-264 0 -402.5 143.5t-138.5 388.5zM485 524q0 -170 82 -270.5t251 -100.5 q110 0 204 44.5t161.5 123.5t114 179t71.5 218q22 107 22 193q0 171 -81.5 271.5t-251.5 100.5q-110 0 -204 -44.5t-161 -123.5t-113.5 -179t-71.5 -218q-23 -112 -23 -194zM897 1609l318 371h170l-356 -371h-132z" />
<glyph unicode="&#xd4;" d="M239 507q0 100 24 211q34 161 107.5 297t179 235.5t246 155t300.5 55.5q263 0 402 -143.5t139 -388.5q0 -100 -24 -211q-34 -161 -107.5 -297t-179 -235.5t-246 -155t-300.5 -55.5q-264 0 -402.5 143.5t-138.5 388.5zM485 524q0 -170 82 -270.5t251 -100.5 q110 0 204 44.5t161.5 123.5t114 179t71.5 218q22 107 22 193q0 171 -81.5 271.5t-251.5 100.5q-110 0 -204 -44.5t-161 -123.5t-113.5 -179t-71.5 -218q-23 -112 -23 -194zM792 1610l301 370h225l144 -370h-133l-142 285l-263 -285h-132z" />
<glyph unicode="&#xd5;" d="M239 507q0 100 24 211q34 161 107.5 297t179 235.5t246 155t300.5 55.5q263 0 402 -143.5t139 -388.5q0 -100 -24 -211q-34 -161 -107.5 -297t-179 -235.5t-246 -155t-300.5 -55.5q-264 0 -402.5 143.5t-138.5 388.5zM485 524q0 -170 82 -270.5t251 -100.5 q110 0 204 44.5t161.5 123.5t114 179t71.5 218q22 107 22 193q0 171 -81.5 271.5t-251.5 100.5q-110 0 -204 -44.5t-161 -123.5t-113.5 -179t-71.5 -218q-23 -112 -23 -194zM827 1712q35 90 102 147.5t140 57.5q45 0 80 -23l144 -98q33 -21 57 -21q37 0 71.5 30t52.5 79 l32 -5q-23 -83 -82.5 -140.5t-123.5 -57.5q-40 0 -80 28l-144 99q-26 16 -57 16q-45 0 -88 -31.5t-72 -85.5z" />
<glyph unicode="&#xd6;" d="M239 507q0 100 24 211q34 161 107.5 297t179 235.5t246 155t300.5 55.5q263 0 402 -143.5t139 -388.5q0 -100 -24 -211q-34 -161 -107.5 -297t-179 -235.5t-246 -155t-300.5 -55.5q-264 0 -402.5 143.5t-138.5 388.5zM485 524q0 -170 82 -270.5t251 -100.5 q110 0 204 44.5t161.5 123.5t114 179t71.5 218q22 107 22 193q0 171 -81.5 271.5t-251.5 100.5q-110 0 -204 -44.5t-161 -123.5t-113.5 -179t-71.5 -218q-23 -112 -23 -194zM886 1744l29 134h134l-28 -134h-135zM1289 1744l29 134h134l-28 -134h-135z" />
<glyph unicode="&#xd7;" horiz-adv-x="845" d="M142 373l291 240l-188 241l144 120l190 -241l292 241l94 -119l-293 -242l191 -240l-146 -120l-189 241l-292 -241z" />
<glyph unicode="&#xd8;" d="M239 507q0 100 24 211q71 333 292.5 538t540.5 205q138 0 243 -41l76 116h122l-107 -163q207 -137 207 -444q0 -100 -24 -211q-34 -161 -107.5 -297t-179 -235.5t-246 -155t-300.5 -55.5q-133 0 -242 41l-78 -118h-122l108 165q-207 137 -207 444zM485 524 q0 -177 85 -274l656 998q-68 35 -168 35q-110 0 -204 -44.5t-161 -123.5t-113.5 -179t-71.5 -218q-23 -112 -23 -194zM651 188q72 -35 167 -35q110 0 204 44.5t161.5 123.5t114 179t71.5 218q22 107 22 193q0 178 -84 275z" />
<glyph unicode="&#xd9;" horiz-adv-x="1400" d="M242 333q0 61 15 131l206 970h244l-208 -979q-12 -59 -12 -106q0 -102 60.5 -149t186.5 -47q154 0 242 72t121 230l208 979h244l-206 -970q-52 -242 -223.5 -365.5t-423.5 -123.5q-214 0 -334 90t-120 268zM930 1980h170l161 -370h-133z" />
<glyph unicode="&#xda;" horiz-adv-x="1400" d="M242 333q0 61 15 131l206 970h244l-208 -979q-12 -59 -12 -106q0 -102 60.5 -149t186.5 -47q154 0 242 72t121 230l208 979h244l-206 -970q-52 -242 -223.5 -365.5t-423.5 -123.5q-214 0 -334 90t-120 268zM810 1609l318 371h170l-355 -371h-133z" />
<glyph unicode="&#xdb;" horiz-adv-x="1400" d="M242 333q0 61 15 131l206 970h244l-208 -979q-12 -59 -12 -106q0 -102 60.5 -149t186.5 -47q154 0 242 72t121 230l208 979h244l-206 -970q-52 -242 -223.5 -365.5t-423.5 -123.5q-214 0 -334 90t-120 268zM705 1610l301 370h225l144 -370h-133l-142 285l-263 -285h-132z " />
<glyph unicode="&#xdc;" horiz-adv-x="1400" d="M242 333q0 61 15 131l206 970h244l-208 -979q-12 -59 -12 -106q0 -102 60.5 -149t186.5 -47q154 0 242 72t121 230l208 979h244l-206 -970q-52 -242 -223.5 -365.5t-423.5 -123.5q-214 0 -334 90t-120 268zM800 1744l28 134h135l-29 -134h-134zM1202 1744l29 134h134 l-28 -134h-135z" />
<glyph unicode="&#xdd;" horiz-adv-x="1329" d="M341 1434h248l236 -685l527 685h247l-695 -889l-116 -545h-245l116 545zM802 1609l318 371h170l-356 -371h-132z" />
<glyph unicode="&#xde;" horiz-adv-x="1290" d="M158 0l305 1434h237l-45 -215h364q98 0 179 -37t133.5 -117t52.5 -189q0 -46 -13 -109q-40 -189 -193 -315.5t-349 -126.5h-364l-69 -325h-238zM500 493h307q114 0 203 71t117 204q9 42 9 79q0 98 -58 150t-153 52h-306z" />
<glyph unicode="&#xdf;" horiz-adv-x="1325" d="M149 0l226 1063q19 92 77.5 165.5t137 117t162.5 66t165 22.5h129q72 0 140 -18.5t125.5 -53.5t92.5 -93.5t35 -132.5q0 -31 -8 -73q-27 -125 -109 -210t-183 -123q94 -30 146 -98.5t52 -165.5q0 -40 -9 -83q-21 -100 -82 -178t-142.5 -122.5t-169.5 -67.5t-174 -23h-237 l38 175h234q103 0 185 64.5t106 177.5q7 35 7 57q0 84 -54 134t-141 50h-89l32 154h71q98 0 175.5 61.5t100.5 169.5q7 35 7 55q0 80 -51 128.5t-133 48.5h-129q-96 0 -175 -64.5t-101 -167.5l-220 -1035h-237z" />
<glyph unicode="&#xe0;" horiz-adv-x="1175" d="M172 322q0 75 20 172q51 241 186 379.5t323 138.5q182 0 288 -110l48 87h171l-160 -753l-2 -36q-1 -32 12.5 -47.5t45.5 -18.5l36 -1l-28 -133h-136q-96 0 -119 87l-5 22q-168 -128 -367 -128q-148 0 -230.5 88t-82.5 253zM379 367q0 -210 197 -210q141 0 270 71l113 531 q-102 73 -238 73q-126 0 -210 -91.5t-117 -246.5q-15 -71 -15 -127zM721 1536h170l161 -371h-133z" />
<glyph unicode="&#xe1;" horiz-adv-x="1175" d="M172 322q0 75 20 172q51 241 186 379.5t323 138.5q182 0 288 -110l48 87h171l-160 -753l-2 -36q-1 -32 12.5 -47.5t45.5 -18.5l36 -1l-28 -133h-136q-96 0 -119 87l-5 22q-168 -128 -367 -128q-148 0 -230.5 88t-82.5 253zM379 367q0 -210 197 -210q141 0 270 71l113 531 q-102 73 -238 73q-126 0 -210 -91.5t-117 -246.5q-15 -71 -15 -127zM642 1165l319 371h169l-355 -371h-133z" />
<glyph unicode="&#xe2;" horiz-adv-x="1175" d="M172 322q0 75 20 172q51 241 186 379.5t323 138.5q182 0 288 -110l48 87h171l-160 -753l-2 -36q-1 -32 12.5 -47.5t45.5 -18.5l36 -1l-28 -133h-136q-96 0 -119 87l-5 22q-168 -128 -367 -128q-148 0 -230.5 88t-82.5 253zM379 367q0 -210 197 -210q141 0 270 71l113 531 q-102 73 -238 73q-126 0 -210 -91.5t-117 -246.5q-15 -71 -15 -127zM512 1165l301 371h225l144 -371h-133l-141 286l-264 -286h-132z" />
<glyph unicode="&#xe3;" horiz-adv-x="1175" d="M172 322q0 75 20 172q51 241 186 379.5t323 138.5q182 0 288 -110l48 87h171l-160 -753l-2 -36q-1 -32 12.5 -47.5t45.5 -18.5l36 -1l-28 -133h-136q-96 0 -119 87l-5 22q-168 -128 -367 -128q-148 0 -230.5 88t-82.5 253zM379 367q0 -210 197 -210q141 0 270 71l113 531 q-102 73 -238 73q-126 0 -210 -91.5t-117 -246.5q-15 -71 -15 -127zM532 1268q35 90 102 147t140 57q48 0 81 -22l143 -99q32 -20 58 -20q37 0 71 29.5t52 78.5l33 -5q-23 -83 -83 -140t-124 -57q-39 0 -79 28l-144 98q-26 16 -58 16q-45 0 -87 -31.5t-72 -85.5z" />
<glyph unicode="&#xe4;" horiz-adv-x="1175" d="M172 322q0 75 20 172q51 241 186 379.5t323 138.5q182 0 288 -110l48 87h171l-160 -753l-2 -36q-1 -32 12.5 -47.5t45.5 -18.5l36 -1l-28 -133h-136q-96 0 -119 87l-5 22q-168 -128 -367 -128q-148 0 -230.5 88t-82.5 253zM379 367q0 -210 197 -210q141 0 270 71l113 531 q-102 73 -238 73q-126 0 -210 -91.5t-117 -246.5q-15 -71 -15 -127zM599 1299l29 135h134l-29 -135h-134zM1002 1299l28 135h135l-29 -135h-134z" />
<glyph unicode="&#xe5;" horiz-adv-x="1175" d="M172 322q0 75 20 172q51 241 186 379.5t323 138.5q182 0 288 -110l48 87h171l-160 -753l-2 -36q-1 -32 12.5 -47.5t45.5 -18.5l36 -1l-28 -133h-136q-96 0 -119 87l-5 22q-168 -128 -367 -128q-148 0 -230.5 88t-82.5 253zM379 367q0 -210 197 -210q141 0 270 71l113 531 q-102 73 -238 73q-126 0 -210 -91.5t-117 -246.5q-15 -71 -15 -127zM661 1319q0 100 80.5 177.5t179.5 77.5q76 0 124 -47.5t48 -119.5q0 -100 -81 -177.5t-180 -77.5q-75 0 -123 47.5t-48 119.5zM744 1337q0 -44 29.5 -73.5t75.5 -29.5q60 0 110 47t50 108q0 44 -29.5 73.5 t-75.5 29.5q-60 0 -110 -47t-50 -108z" />
<glyph unicode="&#xe6;" horiz-adv-x="1835" d="M142 195q0 39 8 76q13 62 43 111.5t72 81t87.5 53.5t98.5 32.5t97 15t90 4.5h216l23 108q6 30 6 56q0 43 -17.5 73t-45 46.5t-71 24t-85.5 8t-99.5 -5.5t-101.5 -12.5t-102 -16.5q-3 -1 -5 -1l23 127q218 39 363 39q73 0 130.5 -11.5t104.5 -37.5t72 -73.5t23 -113.5 l-2 -28q79 120 199 189t268 69q339 0 339 -325q0 -72 -19 -169l-9 -43h-698l-3 -12q-9 -45 -9 -86q0 -115 69.5 -182.5t196.5 -67.5q148 0 306 50l7 -114q-164 -78 -399 -78q-131 0 -213 59.5t-112 163.5l-25 -122l7 -83h-160l-31 86q-61 -45 -157 -75t-193 -30 q-133 0 -212.5 51.5t-79.5 162.5zM350 241q0 -71 52 -100.5t135 -27.5q52 1 101 14.5t73.5 25t60.5 31.5l60 283h-156q-25 0 -42.5 -0.5t-50 -4t-57 -10t-54.5 -20t-51.5 -32t-39 -47.5t-25.5 -65q-6 -26 -6 -47zM1177 577h512q11 58 11 103q0 191 -193 191 q-121 0 -209 -81.5t-121 -212.5z" />
<glyph unicode="&#xe7;" horiz-adv-x="995" d="M176 350q0 71 16 145q49 230 207 372.5t383 142.5q127 0 207 -37q90 -35 90 -136q0 -22 -7 -59l-15 -71h-139l2 15q3 15 3 28q0 64 -65 78q-61 14 -131 10q-126 -5 -214.5 -100t-119.5 -243q-12 -57 -12 -107q0 -114 61 -179t176 -65q139 0 287 54l9 -162 q-161 -54 -333 -56h-28l-47 -68q17 2 48 2q64 0 97 -31t33 -77q0 -14 -3 -27q-12 -56 -58 -94.5t-102 -54t-117 -15.5q-67 0 -124 10l15 60q40 -7 81 -7q72 0 124.5 28.5t52.5 79.5q0 25 -19 42.5t-60 17.5q-10 0 -54 -4l-19 29l92 113q-155 16 -236 113.5t-81 252.5z" />
<glyph unicode="&#xe8;" horiz-adv-x="1036" d="M176 353q0 70 16 143q49 231 209.5 372.5t392.5 141.5q156 0 232.5 -60.5t76.5 -149.5q0 -85 -52.5 -164.5t-152.5 -127.5q-77 -37 -184.5 -63t-172 -34.5t-163.5 -17.5q-11 -121 60 -195.5t209 -73.5q140 1 302 50l5 -114q-166 -78 -392 -78q-187 0 -286.5 100 t-99.5 271zM402 512q82 7 121 11t124 22.5t139 44.5q60 29 93 76.5t33 97.5q0 46 -36.5 80.5t-128.5 34.5q-128 0 -218 -91.5t-120 -232.5q-3 -15 -7 -43zM702 1536h170l161 -371h-133z" />
<glyph unicode="&#xe9;" horiz-adv-x="1036" d="M176 353q0 70 16 143q49 231 209.5 372.5t392.5 141.5q156 0 232.5 -60.5t76.5 -149.5q0 -85 -52.5 -164.5t-152.5 -127.5q-77 -37 -184.5 -63t-172 -34.5t-163.5 -17.5q-11 -121 60 -195.5t209 -73.5q140 1 302 50l5 -114q-166 -78 -392 -78q-187 0 -286.5 100 t-99.5 271zM402 512q82 7 121 11t124 22.5t139 44.5q60 29 93 76.5t33 97.5q0 46 -36.5 80.5t-128.5 34.5q-128 0 -218 -91.5t-120 -232.5q-3 -15 -7 -43zM582 1165l319 371h170l-356 -371h-133z" />
<glyph unicode="&#xea;" horiz-adv-x="1036" d="M176 353q0 70 16 143q49 231 209.5 372.5t392.5 141.5q156 0 232.5 -60.5t76.5 -149.5q0 -85 -52.5 -164.5t-152.5 -127.5q-77 -37 -184.5 -63t-172 -34.5t-163.5 -17.5q-11 -121 60 -195.5t209 -73.5q140 1 302 50l5 -114q-166 -78 -392 -78q-187 0 -286.5 100 t-99.5 271zM402 512q82 7 121 11t124 22.5t139 44.5q60 29 93 76.5t33 97.5q0 46 -36.5 80.5t-128.5 34.5q-128 0 -218 -91.5t-120 -232.5q-3 -15 -7 -43zM477 1165l301 371h225l144 -371h-133l-141 286l-264 -286h-132z" />
<glyph unicode="&#xeb;" horiz-adv-x="1036" d="M176 353q0 70 16 143q49 231 209.5 372.5t392.5 141.5q156 0 232.5 -60.5t76.5 -149.5q0 -85 -52.5 -164.5t-152.5 -127.5q-77 -37 -184.5 -63t-172 -34.5t-163.5 -17.5q-11 -121 60 -195.5t209 -73.5q140 1 302 50l5 -114q-166 -78 -392 -78q-187 0 -286.5 100 t-99.5 271zM402 512q82 7 121 11t124 22.5t139 44.5q60 29 93 76.5t33 97.5q0 46 -36.5 80.5t-128.5 34.5q-128 0 -218 -91.5t-120 -232.5q-3 -15 -7 -43zM572 1299l28 135h135l-29 -135h-134zM975 1299l28 135h135l-29 -135h-134z" />
<glyph unicode="&#xec;" horiz-adv-x="532" d="M194 0l165 773q3 13 3 25q0 52 -62 57l-39 2l28 132h147q137 0 137 -128q0 -32 -7 -64l-169 -797h-203zM431 1536h170l161 -371h-132z" />
<glyph unicode="&#xed;" horiz-adv-x="532" d="M194 0l165 773q3 13 3 25q0 52 -62 57l-39 2l28 132h147q137 0 137 -128q0 -32 -7 -64l-169 -797h-203zM312 1165l318 371h170l-356 -371h-132z" />
<glyph unicode="&#xee;" horiz-adv-x="532" d="M194 0l165 773q3 13 3 25q0 52 -62 57l-39 2l28 132h147q137 0 137 -128q0 -32 -7 -64l-169 -797h-203zM207 1165l300 371h225l144 -371h-132l-142 286l-264 -286h-131z" />
<glyph unicode="&#xef;" horiz-adv-x="532" d="M194 0l165 773q3 13 3 25q0 52 -62 57l-39 2l28 132h147q137 0 137 -128q0 -32 -7 -64l-169 -797h-203zM301 1299l29 135h134l-28 -135h-135zM704 1299l29 135h134l-29 -135h-134z" />
<glyph unicode="&#xf0;" horiz-adv-x="1245" d="M181 362q0 55 14 122q43 201 198 324t350 123q103 0 183.5 -44t120.5 -119q17 91 17 173q0 142 -51 240l-248 -165l-40 100l224 148q-77 66 -179 66q-120 0 -252 -52l-27 114q192 85 365 85q160 0 257 -105l229 152l38 -100l-206 -136l11 -19q85 -142 85 -355 q0 -124 -29 -261q-69 -322 -233 -493.5t-420 -171.5q-187 0 -297 101t-110 273zM415 399q0 -101 56.5 -164.5t157.5 -63.5q79 0 140 30.5t103.5 90.5t71 131.5t51.5 169.5q-18 86 -82.5 137.5t-159.5 51.5q-122 0 -212 -87t-118 -218q-8 -36 -8 -78z" />
<glyph unicode="&#xf1;" horiz-adv-x="1202" d="M169 0l165 773q3 13 3 25q0 52 -62 57l-39 2l28 132h225q77 0 77 -65q0 -10 -3 -24l-7 -32q207 143 392 143q245 0 245 -249q0 -64 -17 -147l-78 -364q-4 -17 -4 -36q0 -75 87 -81l8 -1l-28 -133h-95q-90 1 -136.5 41t-46.5 117q0 29 8 69l82 388q10 50 10 83 q0 63 -33.5 96t-112.5 33q-86 0 -171.5 -39.5t-145.5 -88.5l-148 -699h-203zM555 1268q35 90 102 147t140 57q47 0 80 -22l144 -99q32 -20 57 -20q37 0 71.5 29.5t52.5 78.5l32 -5q-23 -83 -82.5 -140t-123.5 -57q-40 0 -80 28l-143 98q-26 16 -58 16q-45 0 -88 -31.5 t-72 -85.5z" />
<glyph unicode="&#xf2;" horiz-adv-x="1130" d="M176 351q0 70 16 143q49 229 206 372.5t383 143.5q188 0 287 -100.5t99 -271.5q0 -71 -16 -144q-49 -229 -206 -371.5t-383 -142.5q-188 0 -287 100t-99 271zM382 391q0 -106 55 -169t163 -63q133 0 226 94t124 241q11 48 11 102q0 107 -55 171t-163 64q-133 0 -226 -95 t-124 -242q-11 -50 -11 -103zM704 1536h170l160 -371h-132z" />
<glyph unicode="&#xf3;" horiz-adv-x="1130" d="M176 351q0 70 16 143q49 229 206 372.5t383 143.5q188 0 287 -100.5t99 -271.5q0 -71 -16 -144q-49 -229 -206 -371.5t-383 -142.5q-188 0 -287 100t-99 271zM382 391q0 -106 55 -169t163 -63q133 0 226 94t124 241q11 48 11 102q0 107 -55 171t-163 64q-133 0 -226 -95 t-124 -242q-11 -50 -11 -103zM584 1165l318 371h170l-356 -371h-132z" />
<glyph unicode="&#xf4;" horiz-adv-x="1130" d="M176 351q0 70 16 143q49 229 206 372.5t383 143.5q188 0 287 -100.5t99 -271.5q0 -71 -16 -144q-49 -229 -206 -371.5t-383 -142.5q-188 0 -287 100t-99 271zM382 391q0 -106 55 -169t163 -63q133 0 226 94t124 241q11 48 11 102q0 107 -55 171t-163 64q-133 0 -226 -95 t-124 -242q-11 -50 -11 -103zM479 1165l301 371h224l144 -371h-132l-142 286l-264 -286h-131z" />
<glyph unicode="&#xf5;" horiz-adv-x="1130" d="M176 351q0 70 16 143q49 229 206 372.5t383 143.5q188 0 287 -100.5t99 -271.5q0 -71 -16 -144q-49 -229 -206 -371.5t-383 -142.5q-188 0 -287 100t-99 271zM382 391q0 -106 55 -169t163 -63q133 0 226 94t124 241q11 48 11 102q0 107 -55 171t-163 64q-133 0 -226 -95 t-124 -242q-11 -50 -11 -103zM513 1268q35 90 102.5 147t140.5 57q47 0 80 -22l143 -99q32 -20 58 -20q37 0 71 29.5t52 78.5l33 -5q-23 -83 -83 -140t-124 -57q-39 0 -79 28l-144 98q-26 16 -58 16q-45 0 -87 -31.5t-72 -85.5z" />
<glyph unicode="&#xf6;" horiz-adv-x="1130" d="M176 351q0 70 16 143q49 229 206 372.5t383 143.5q188 0 287 -100.5t99 -271.5q0 -71 -16 -144q-49 -229 -206 -371.5t-383 -142.5q-188 0 -287 100t-99 271zM382 391q0 -106 55 -169t163 -63q133 0 226 94t124 241q11 48 11 102q0 107 -55 171t-163 64q-133 0 -226 -95 t-124 -242q-11 -50 -11 -103zM573 1299l29 135h134l-28 -135h-135zM976 1299l29 135h134l-29 -135h-134z" />
<glyph unicode="&#xf7;" horiz-adv-x="950" d="M169 552l36 170h849l-36 -170h-849zM400 133l37 172h208l-37 -172h-208zM578 969l37 172h208l-37 -172h-208z" />
<glyph unicode="&#xf8;" horiz-adv-x="1130" d="M176 351q0 70 16 143q49 229 206 372.5t383 143.5q97 0 169 -27l72 109h88l-93 -142q150 -96 150 -312q0 -71 -16 -144q-49 -229 -206 -371.5t-383 -142.5q-94 0 -167 26l-71 -108h-88l92 140q-152 95 -152 313zM382 391q0 -116 62 -177l395 600q-42 17 -96 17 q-133 0 -226 -95t-124 -242q-11 -50 -11 -103zM506 175q43 -16 94 -16q133 0 226 94t124 241q11 48 11 102q0 115 -61 177z" />
<glyph unicode="&#xf9;" horiz-adv-x="1163" d="M183 216q0 62 14 125l138 648h202l-130 -615q-10 -50 -10 -82q0 -63 34 -96.5t113 -33.5q86 0 170.5 39.5t145.5 88.5l148 699h203l-157 -738q-5 -23 -5 -38q0 -74 95 -80l-28 -133h-194q-101 2 -101 89q0 15 3 32q-86 -59 -192 -101.5t-203 -42.5q-126 0 -186 62.5 t-60 176.5zM689 1536h170l161 -371h-133z" />
<glyph unicode="&#xfa;" horiz-adv-x="1163" d="M183 216q0 62 14 125l138 648h202l-130 -615q-10 -50 -10 -82q0 -63 34 -96.5t113 -33.5q86 0 170.5 39.5t145.5 88.5l148 699h203l-157 -738q-5 -23 -5 -38q0 -74 95 -80l-28 -133h-194q-101 2 -101 89q0 15 3 32q-86 -59 -192 -101.5t-203 -42.5q-126 0 -186 62.5 t-60 176.5zM645 1165l318 371h170l-356 -371h-132z" />
<glyph unicode="&#xfb;" horiz-adv-x="1163" d="M183 216q0 62 14 125l138 648h202l-130 -615q-10 -50 -10 -82q0 -63 34 -96.5t113 -33.5q86 0 170.5 39.5t145.5 88.5l148 699h203l-157 -738q-5 -23 -5 -38q0 -74 95 -80l-28 -133h-194q-101 2 -101 89q0 15 3 32q-86 -59 -192 -101.5t-203 -42.5q-126 0 -186 62.5 t-60 176.5zM515 1165l301 371h225l144 -371h-133l-142 286l-263 -286h-132z" />
<glyph unicode="&#xfc;" horiz-adv-x="1163" d="M183 216q0 62 14 125l138 648h202l-130 -615q-10 -50 -10 -82q0 -63 34 -96.5t113 -33.5q86 0 170.5 39.5t145.5 88.5l148 699h203l-157 -738q-5 -23 -5 -38q0 -74 95 -80l-28 -133h-194q-101 2 -101 89q0 15 3 32q-86 -59 -192 -101.5t-203 -42.5q-126 0 -186 62.5 t-60 176.5zM569 1299l29 135h134l-28 -135h-135zM972 1299l29 135h134l-28 -135h-135z" />
<glyph unicode="&#xfd;" horiz-adv-x="1021" d="M-25 -354l49 129q65 -26 117 -26q140 0 255 188l37 63h-9l-170 989h203l107 -741l422 741h203l-621 -1073q-73 -129 -174.5 -207.5t-217.5 -95.5q-14 -2 -42 -2q-87 0 -159 35zM554 1165l318 371h170l-356 -371h-132z" />
<glyph unicode="&#xfe;" horiz-adv-x="1161" d="M87 -369l337 1586q3 14 3 26q0 52 -62 57l-39 1l28 133h187q106 0 106 -91q0 -20 -4 -39l-85 -399q150 107 326 107q151 0 233.5 -92t82.5 -257q0 -82 -18 -165q-49 -227 -187.5 -366t-326.5 -139q-181 0 -281 107l-100 -469h-200zM417 242q104 -73 234 -73 q126 0 209 87.5t115 241.5q15 69 15 125q0 208 -197 208q-74 0 -145.5 -20.5t-120.5 -49.5z" />
<glyph unicode="&#xff;" horiz-adv-x="1021" d="M-25 -354l49 129q65 -26 117 -26q140 0 255 188l37 63h-9l-170 989h203l107 -741l422 741h203l-621 -1073q-73 -129 -174.5 -207.5t-217.5 -95.5q-14 -2 -42 -2q-87 0 -159 35zM517 1299l29 135h134l-29 -135h-134zM920 1299l28 135h135l-29 -135h-134z" />
<glyph unicode="&#x152;" horiz-adv-x="2052" d="M239 507q0 100 24 211q34 161 107.5 297t179 235.5t246 155t300.5 55.5q170 0 293 -66l8 39h872l-35 -169h-628l-94 -443h554l-36 -169h-554l-103 -484h636l-36 -169h-881l9 41q-147 -66 -321 -66q-264 0 -402.5 143.5t-138.5 388.5zM485 524q0 -170 82 -270.5 t251 -100.5q174 0 326 88l203 960q-120 82 -289 82q-110 0 -204 -44.5t-161 -123.5t-113.5 -179t-71.5 -218q-23 -112 -23 -194z" />
<glyph unicode="&#x153;" horiz-adv-x="2043" d="M176 351q0 71 16 144q49 229 206 372t383 143q160 0 253.5 -80t112.5 -216q79 137 209 216.5t294 79.5q156 0 232.5 -60.5t76.5 -149.5q0 -85 -53 -164.5t-152 -127.5q-77 -37 -184.5 -63t-172 -34.5t-163.5 -17.5q-11 -121 60 -195.5t209 -73.5q140 1 302 50l5 -113 q-168 -79 -392 -79q-159 0 -252 79t-113 214q-78 -136 -204.5 -215.5t-286.5 -79.5q-188 0 -287 100t-99 271zM382 392q0 -106 55 -169.5t163 -63.5q133 0 226 94.5t124 241.5q11 48 11 101q0 107 -55 171t-163 64q-134 0 -226.5 -94.5t-123.5 -241.5q-11 -49 -11 -103z M1258 512q82 7 121 11t124 22.5t139 44.5q60 29 93 76.5t33 97.5q0 46 -36.5 80.5t-128.5 34.5q-128 0 -216.5 -89.5t-119.5 -230.5q-6 -25 -9 -47z" />
<glyph unicode="&#x178;" horiz-adv-x="1329" d="M341 1434h248l236 -685l527 685h247l-695 -889l-116 -545h-245l116 545zM756 1744l28 134h135l-29 -134h-134zM1159 1744l28 134h135l-29 -134h-134z" />
<glyph unicode="&#x2c6;" horiz-adv-x="768" d="M298 1165l301 371h225l144 -371h-133l-142 286l-263 -286h-132z" />
<glyph unicode="&#x2dc;" horiz-adv-x="763" d="M330 1268q35 90 102 147t140 57q47 0 80 -22l144 -99q32 -20 57 -20q37 0 71.5 29.5t52.5 78.5l32 -5q-23 -83 -82.5 -140t-123.5 -57q-40 0 -80 28l-143 98q-26 16 -58 16q-45 0 -88 -31.5t-72 -85.5z" />
<glyph unicode="&#x2000;" horiz-adv-x="1009" />
<glyph unicode="&#x2001;" horiz-adv-x="2018" />
<glyph unicode="&#x2002;" horiz-adv-x="1009" />
<glyph unicode="&#x2003;" horiz-adv-x="2018" />
<glyph unicode="&#x2004;" horiz-adv-x="672" />
<glyph unicode="&#x2005;" horiz-adv-x="504" />
<glyph unicode="&#x2006;" horiz-adv-x="336" />
<glyph unicode="&#x2007;" horiz-adv-x="336" />
<glyph unicode="&#x2008;" horiz-adv-x="252" />
<glyph unicode="&#x2009;" horiz-adv-x="403" />
<glyph unicode="&#x200a;" horiz-adv-x="112" />
<glyph unicode="&#x2010;" horiz-adv-x="669" d="M197 552l36 170h510l-36 -170h-510z" />
<glyph unicode="&#x2011;" horiz-adv-x="669" d="M197 552l36 170h510l-36 -170h-510z" />
<glyph unicode="&#x2012;" horiz-adv-x="669" d="M197 552l36 170h510l-36 -170h-510z" />
<glyph unicode="&#x2013;" horiz-adv-x="925" d="M197 552l36 170h766l-36 -170h-766z" />
<glyph unicode="&#x2014;" horiz-adv-x="1265" d="M197 552l36 170h1106l-36 -170h-1106z" />
<glyph unicode="&#x2018;" horiz-adv-x="311" d="M305 1182l36 171l85 143h127l-83 -141h80l-37 -173h-208z" />
<glyph unicode="&#x2019;" horiz-adv-x="311" d="M332 1182l83 141h-80l37 173h208l-36 -171l-85 -143h-127z" />
<glyph unicode="&#x201a;" horiz-adv-x="311" d="M51 -139l83 140h-80l37 172h208l-37 -170l-84 -142h-127z" />
<glyph unicode="&#x201c;" horiz-adv-x="600" d="M305 1182l36 171l85 143h127l-83 -141h80l-37 -173h-208zM591 1182l37 171l84 143h127l-83 -141h80l-37 -173h-208z" />
<glyph unicode="&#x201d;" horiz-adv-x="600" d="M332 1182l83 141h-80l37 173h208l-36 -171l-85 -143h-127zM618 1182l83 141h-80l37 173h208l-36 -171l-85 -143h-127z" />
<glyph unicode="&#x201e;" horiz-adv-x="600" d="M51 -141l83 141h-80l37 172h208l-36 -170l-85 -143h-127zM337 -141l84 141h-80l36 172h208l-36 -170l-85 -143h-127z" />
<glyph unicode="&#x2022;" horiz-adv-x="382" d="M167 490l46 215h258l-46 -215h-258z" />
<glyph unicode="&#x2026;" horiz-adv-x="1056" d="M68 0l37 172h208l-37 -172h-208zM425 0l37 172h208l-37 -172h-208zM783 0l36 172h208l-36 -172h-208z" />
<glyph unicode="&#x202f;" horiz-adv-x="403" />
<glyph unicode="&#x2039;" horiz-adv-x="468" d="M163 452l252 484h178l-265 -483l66 -453h-178z" />
<glyph unicode="&#x203a;" horiz-adv-x="468" d="M76 0l259 453l-60 483h178l47 -484l-246 -452h-178z" />
<glyph unicode="&#x205f;" horiz-adv-x="504" />
<glyph unicode="&#x20ac;" horiz-adv-x="1351" d="M216 512l23 108h127q4 45 15 98q11 51 25 94h-126l23 108h128q72 240 265.5 390.5t453.5 150.5q271 0 431 -153l-112 -137q-131 122 -340 122q-174 0 -297.5 -100.5t-180.5 -272.5h623l-23 -108h-625q-14 -43 -25 -94q-11 -53 -15 -98h479l-23 -107h-477q-1 -16 -1 -47 q0 -149 80.5 -234.5t240.5 -85.5q209 0 391 121l55 -136q-226 -154 -496 -154q-236 0 -365 125t-129 331q0 34 5 79h-130z" />
<glyph unicode="&#x2122;" horiz-adv-x="1726" d="M358 1307l27 127h601l-27 -127h-222l-144 -676h-158l144 676h-221zM916 631l170 803h198l103 -540l333 540h198l-170 -803h-158l114 538l-329 -538h-87l-100 538l-114 -538h-158z" />
<glyph unicode="&#xe000;" horiz-adv-x="993" d="M0 0v993h993v-993h-993z" />
<glyph unicode="&#xfb03;" horiz-adv-x="1847" d="M27 -229q72 27 122 76t71 147l176 827h-142l36 168h142l34 159q45 209 210 275q70 29 163 29q87 0 173 -24l-58 -150q-63 10 -103 10q-45 0 -79 -11q-83 -27 -104 -129l-34 -159h467l33 159q45 208 211 275q70 29 163 29q87 0 173 -24l-58 -150q-63 10 -103 10 q-46 0 -80 -11q-82 -26 -103 -129l-34 -159h472q137 0 137 -128q0 -32 -7 -64l-170 -797h-203l157 737q3 12 3 24q0 28 -17 44t-49 16h-359l-176 -827q-14 -64 -44.5 -118.5t-65.5 -89.5t-76.5 -61.5t-73.5 -39.5t-60 -19l-75 105q72 27 122 76t71 147l176 827h-467 l-176 -827q-14 -64 -44.5 -118.5t-65.5 -89.5t-76.5 -61.5t-73.5 -39.5t-60 -19z" />
<glyph unicode="&#xfb04;" horiz-adv-x="1976" d="M27 -229q72 27 122 76t71 147l176 827h-142l36 168h142l34 159q42 196 189 265q82 38 188 38q84 0 169 -23l-58 -150q-63 9 -104 9q-52 0 -88 -14q-74 -28 -94 -125l-34 -159h467l33 159q43 202 197 269q78 34 179 34q84 0 171 -24h372l-250 -1174q-4 -19 -4 -37 q0 -75 95 -81l-28 -133h-96q-182 2 -182 158q0 29 8 69l223 1049h-194q-63 9 -106 9q-58 0 -91 -14q-70 -28 -91 -125l-34 -159h240l-36 -168h-240l-176 -827q-14 -64 -44.5 -118.5t-65.5 -89.5t-76.5 -61.5t-73.5 -39.5t-60 -19l-75 105q72 27 122 76t71 147l176 827h-467 l-176 -827q-14 -64 -44.5 -118.5t-65.5 -89.5t-76.5 -61.5t-73.5 -39.5t-60 -19z" />
</font>
</defs>
</svg>
