<?xml version="1.0" standalone="no"?>
<!DOCTYPE svg PUBLIC "-//W3C//DTD SVG 1.1//EN" "http://www.w3.org/Graphics/SVG/1.1/DTD/svg11.dtd" >
<svg xmlns="http://www.w3.org/2000/svg">
<metadata></metadata>
<defs>
<font id="regan_altultralight_italic" horiz-adv-x="1558" >
<font-face units-per-em="2048" ascent="1536" descent="-512" />
<missing-glyph horiz-adv-x="614" />
<glyph unicode="&#xfb01;" horiz-adv-x="1030" d="M41 -268q147 24 179 176l225 1057h-138l6 24h137l54 256q32 151 162 190q48 14 114 14q61 0 143 -12l-9 -24q-97 13 -144 13q-56 0 -102 -14q-111 -34 -139 -167l-55 -256h510q85 0 85 -71q0 -9 -4 -31l-188 -887h-25l188 887q3 13 3 25q0 53 -64 53h-510l-224 -1057 q-37 -174 -204 -199v23z" />
<glyph unicode="&#xfb02;" horiz-adv-x="1167" d="M41 -268q147 24 179 176l225 1057h-138l6 24h137l54 256q30 143 147 185q53 20 130 20q58 0 142 -12h259l-270 -1270q-5 -27 -5 -44q0 -95 113 -95l-5 -25h-5q-128 3 -128 114q0 23 6 50l264 1245h-234q-89 12 -148 12q-49 0 -84 -8q-126 -28 -157 -172l-55 -256h301 l-5 -24h-301l-224 -1057q-37 -174 -204 -199v23z" />
<glyph horiz-adv-x="2048" />
<glyph horiz-adv-x="2048" />
<glyph unicode="&#xd;" horiz-adv-x="2048" />
<glyph unicode=" "  horiz-adv-x="614" />
<glyph unicode="&#x09;" horiz-adv-x="614" />
<glyph unicode="&#xa0;" horiz-adv-x="614" />
<glyph unicode="!" horiz-adv-x="362" d="M164 0l10 46h34l-9 -46h-35zM250 386l223 1048h26l-222 -1048h-27z" />
<glyph unicode="&#x22;" horiz-adv-x="387" d="M335 1191l52 243h34l-51 -243h-35zM524 1191l51 243h35l-52 -243h-34z" />
<glyph unicode="#" horiz-adv-x="1202" d="M159 509l6 26h290l165 386h-373l6 27h378l206 486h27l-206 -486h395l206 486h27l-207 -486h275l-5 -27h-281l-164 -386h363l-6 -26h-368l-217 -509h-26l216 509h-395l-216 -509h-27l216 509h-285zM482 535h395l165 386h-396z" />
<glyph unicode="$" horiz-adv-x="1128" d="M112 44l12 26q70 -19 116.5 -29t133 -20t183.5 -10q115 0 209 28.5t156.5 78.5t101 112t54.5 134q8 35 8 72q0 99 -77.5 157.5t-260.5 120.5l-125 42q-129 43 -201.5 122t-72.5 180q0 23 7 60q15 71 48.5 127t79 93.5t104.5 63t121 38t132 15.5l32 151h26l-32 -150 q181 5 421 -57l-12 -26q-223 57 -385 57q-442 0 -509 -312q-6 -28 -6 -57q0 -93 68 -165t192 -114l125 -43q92 -31 152 -58t108 -62.5t70 -79t22 -99.5q0 -39 -8 -76q-16 -77 -57.5 -143t-108 -120t-165.5 -85t-220 -32l-31 -148h-27l32 148q-218 7 -416 60z" />
<glyph unicode="%" horiz-adv-x="1576" d="M277 -35l1295 1503h31l-1295 -1503h-31zM296 955q0 54 12 111q34 160 136.5 264t249.5 104q119 0 180.5 -70.5t61.5 -187.5q0 -53 -12 -110q-34 -160 -137 -264.5t-249 -104.5q-119 0 -180.5 70.5t-61.5 187.5zM323 961q0 -108 56 -172.5t165 -64.5q134 0 227.5 96 t125.5 246q12 57 12 107q0 108 -55.5 171t-164.5 63q-134 0 -228 -95.5t-126 -245.5q-12 -56 -12 -105zM945 258q0 48 13 110q34 160 137 264.5t249 104.5q119 0 180 -70t61 -188q0 -54 -12 -111q-34 -160 -136.5 -264t-249.5 -104q-119 0 -180.5 70.5t-61.5 187.5zM972 264 q0 -108 56 -172.5t165 -64.5q134 0 227.5 95.5t125.5 245.5q12 57 12 108q0 108 -55.5 171t-164.5 63q-134 0 -228 -96t-126 -246q-12 -55 -12 -104z" />
<glyph unicode="&#x26;" horiz-adv-x="1394" d="M167 257q0 44 11 97q12 64 43.5 119t67.5 91.5t90.5 71.5t95 55t100.5 45l75 32l-59 76q-78 102 -78 205q0 47 12 105q11 51 39 100t75.5 95t123.5 74t170 28q75 0 128.5 -19.5t80.5 -53t38.5 -69.5t11.5 -79q0 -38 -8 -75q-22 -106 -119.5 -193t-297.5 -171l-73 -31 l411 -535q187 178 318 503h26q-142 -344 -329 -522l158 -206h-37l-143 186q-226 -202 -545 -202q-386 0 -386 273zM194 258q0 -122 85.5 -185.5t278.5 -63.5q306 0 525 196l-418 543l-84 -36q-58 -24 -98 -43.5t-91.5 -52t-85 -67.5t-62 -85.5t-40.5 -109.5q-10 -49 -10 -96 zM539 1053q0 -52 17.5 -95.5t57.5 -94.5l64 -83l83 35q194 81 285 161t112 179q8 37 8 73q0 39 -10.5 71.5t-36 62t-74.5 46t-118 16.5q-88 0 -158.5 -25t-113.5 -66t-68 -86t-35 -93q-13 -62 -13 -101z" />
<glyph unicode="'" horiz-adv-x="198" d="M335 1191l52 243h34l-51 -243h-35z" />
<glyph unicode="(" horiz-adv-x="548" d="M168 272q0 136 30 275q47 232 184 469q133 232 361 482l19 -14q-222 -245 -357 -477q-134 -231 -180 -459q-30 -136 -30 -269q0 -89 15 -191q37 -235 154 -477l-25 -14q-122 253 -156 481q-15 94 -15 194z" />
<glyph unicode=")" horiz-adv-x="548" d="M20 -389q221 242 356 476q135 233 181 460q30 136 30 268q0 89 -15 191q-34 228 -154 477l25 15q119 -246 156 -483q15 -94 15 -194q0 -130 -31 -274q-47 -232 -184 -469q-138 -237 -360 -481z" />
<glyph unicode="*" horiz-adv-x="593" d="M327 1250l18 33l193 -68l46 219h35l-46 -219l222 68l3 -33l-221 -68l90 -176l-32 -21l-91 177l-166 -177l-24 21l166 176z" />
<glyph unicode="+" horiz-adv-x="1054" d="M226 583l6 27h412l87 411h27l-88 -411h412l-6 -27h-411l-88 -412h-27l88 412h-412z" />
<glyph unicode="," horiz-adv-x="198" d="M75 -31l19 31h-12l10 46h35l-10 -43l-20 -34h-22z" />
<glyph unicode="-" horiz-adv-x="714" d="M235 624l6 26h510l-6 -26h-510z" />
<glyph unicode="." horiz-adv-x="198" d="M82 0l10 46h35l-10 -46h-35z" />
<glyph unicode="/" horiz-adv-x="770" d="M51 0l943 1434h30l-944 -1434h-29z" />
<glyph unicode="0" horiz-adv-x="1323" d="M284 447q0 121 28 249q32 150 91.5 279t141 227t189.5 154t228 56q185 0 279.5 -126.5t94.5 -340.5q0 -119 -28 -249q-32 -150 -91.5 -279t-141 -227t-189.5 -154t-228 -56q-185 0 -279.5 126.5t-94.5 340.5zM311 453q0 -204 89.5 -325.5t263.5 -121.5q150 0 278 93 t213 247t127 350q27 129 27 243q0 204 -89 325t-263 121q-150 0 -278.5 -93t-213.5 -246.5t-127 -349.5q-27 -129 -27 -243z" />
<glyph unicode="1" horiz-adv-x="546" d="M336 0l291 1369l-259 -44l1 26l264 45h26l-297 -1396h-26z" />
<glyph unicode="2" horiz-adv-x="1052" d="M113 0l5 27q395 223 654 484q258 260 307 491q14 67 14 116q0 140 -85 204.5t-222 64.5q-92 0 -193 -27t-186 -70l-8 23q87 45 192.5 72.5t201.5 27.5q67 0 124 -16.5t103.5 -50t72.5 -91.5t26 -135q0 -54 -13 -118q-52 -240 -317 -507q-244 -247 -622 -468h779l-6 -27 h-827z" />
<glyph unicode="3" horiz-adv-x="1122" d="M129 78l19 24q119 -96 346 -96q103 0 184.5 17t149 55t112.5 104.5t65 159.5q7 31 7 65q0 122 -95.5 201t-248.5 83h-196l5 27h197q164 5 286.5 103.5t156.5 257.5q8 40 8 71q0 118 -92 176.5t-246 58.5q-94 0 -175.5 -24.5t-174.5 -71.5l-9 23q195 100 365 100 q162 0 260.5 -63.5t98.5 -191.5q0 -41 -8 -78q-30 -142 -129.5 -241t-238.5 -132q121 -27 192 -105.5t71 -187.5q0 -31 -8 -71q-42 -196 -181 -279t-361 -83q-117 0 -210.5 27t-149.5 71z" />
<glyph unicode="4" horiz-adv-x="1073" d="M152 427l6 26l843 943l18 -15l-829 -928h632l59 277h27l-59 -277h220l-6 -26h-220l-91 -427h-26l90 427h-664z" />
<glyph unicode="5" horiz-adv-x="1118" d="M130 83l18 24q97 -56 172 -79t180 -23q18 0 60 2q176 8 297 116.5t161 294.5q15 69 15 127q0 134 -75 208.5t-222 74.5h-375l151 568h678l-6 -27h-653l-136 -514h346q158 0 238.5 -80t80.5 -224q0 -63 -15 -133q-42 -196 -172 -312.5t-318 -125.5q-40 -2 -56 -2 q-110 0 -190 24t-179 81z" />
<glyph unicode="6" horiz-adv-x="1140" d="M267 347q0 142 44 347q32 150 92 279.5t143 227.5t191.5 154.5t228.5 56.5q157 0 289 -67l-17 -24q-122 64 -277 64q-150 0 -279.5 -93.5t-215.5 -248.5t-128 -351q86 112 212 179t259 67q160 0 246 -96.5t86 -252.5q0 -67 -14 -130q-43 -201 -191 -340.5t-337 -139.5 q-179 0 -255.5 95.5t-76.5 272.5zM294 354q0 -168 72 -258t237 -90q178 0 317 131t180 322q14 67 14 124q0 148 -81 238.5t-230 90.5q-141 0 -269 -76t-208 -203q-32 -172 -32 -279z" />
<glyph unicode="7" horiz-adv-x="923" d="M240 0q71 179 167 357.5t274.5 439t430.5 572.5h-708l5 27h740l-6 -27q-371 -458 -568.5 -777t-306.5 -592h-28z" />
<glyph unicode="8" horiz-adv-x="1257" d="M225 242q0 50 11 100q13 63 45 116t72 90.5t98.5 70.5t112 54.5t124.5 44.5l57 18q-65 24 -122 48q-189 80 -189 240q0 36 9 78q18 85 64 146.5t113 96.5t143.5 51t166.5 16q107 0 185.5 -21t128.5 -75.5t50 -138.5q0 -35 -9 -75q-25 -115 -101 -191.5t-214 -126.5 q-63 -23 -142 -48l48 -18q53 -21 92.5 -39.5t81 -45.5t67.5 -57t42.5 -71.5t16.5 -89.5q0 -38 -8 -73q-42 -196 -181.5 -279t-361.5 -83q-191 0 -295.5 60.5t-104.5 201.5zM252 246q0 -67 26 -114.5t77 -74.5t118 -39t158 -12q105 0 186 16.5t148.5 54t112 104t64.5 161.5 q7 35 7 68q0 55 -21.5 99.5t-64 78t-88.5 57t-113 48.5l-79 29l-91 -29q-71 -23 -121.5 -43.5t-106 -51.5t-93 -65.5t-66.5 -83t-42 -107.5q-11 -55 -11 -96zM461 1031q0 -147 177 -223q62 -27 151 -58q100 31 176 58q129 46 199.5 117.5t93.5 176.5q8 38 8 67 q0 77 -46 126.5t-119.5 69.5t-176.5 20q-86 0 -158.5 -15t-134.5 -47t-104 -88t-58 -133q-8 -40 -8 -71z" />
<glyph unicode="9" horiz-adv-x="1140" d="M183 46l16 24q122 -64 278 -64q150 0 279.5 93.5t215.5 248.5t128 351q-86 -112 -212 -179t-259 -67q-160 0 -246.5 96.5t-86.5 252.5q0 62 15 130q43 202 190.5 341t336.5 139q179 0 256 -95.5t77 -272.5q0 -137 -45 -347q-32 -150 -92 -279t-143 -227t-191.5 -154.5 t-228.5 -56.5q-158 0 -288 66zM324 808q0 -148 81 -238.5t230 -90.5q141 0 269 76t208 203q31 166 31 279q0 168 -72 258t-237 90q-178 0 -317 -131t-180 -322q-13 -62 -13 -124z" />
<glyph unicode=":" horiz-adv-x="198" d="M82 0l10 46h35l-10 -46h-35zM282 943l10 46h35l-10 -46h-35z" />
<glyph unicode=";" horiz-adv-x="198" d="M75 -31l19 31h-12l10 46h35l-10 -43l-20 -34h-22zM282 943l10 46h35l-10 -46h-35z" />
<glyph unicode="&#x3c;" horiz-adv-x="917" d="M198 645l7 30l839 403l-6 -30l-808 -388l643 -388l-6 -30z" />
<glyph unicode="=" horiz-adv-x="1054" d="M187 397l6 27h849l-5 -27h-850zM267 772l5 27h850l-6 -27h-849z" />
<glyph unicode="&#x3e;" horiz-adv-x="917" d="M154 242l6 30l808 388l-643 388l6 30l669 -403l-7 -30z" />
<glyph unicode="?" horiz-adv-x="858" d="M310 0l10 46h34l-9 -46h-35zM353 1372q219 81 388 81q139 0 221.5 -62t82.5 -185q0 -43 -10 -89q-25 -121 -84 -197.5t-196 -146.5q-16 -8 -60.5 -30t-58.5 -30t-41.5 -24t-44 -29t-31.5 -28q-56 -59 -83 -185l-13 -61h-27l13 61q29 135 92 201q14 14 31.5 28t31 23 t41 24t40 21.5t50.5 25.5t51 26q130 66 184 135t78 186q10 50 10 82q0 113 -76.5 170t-206.5 57q-167 0 -378 -79z" />
<glyph unicode="@" horiz-adv-x="1777" d="M172 245q0 81 18 165q45 213 189 394.5t347.5 286.5t416.5 105q191 0 338.5 -63.5t232.5 -187.5t85 -291q0 -70 -17 -153q-50 -236 -204.5 -363.5t-378.5 -143.5h-16l-13 74q-149 -94 -308 -94q-121 0 -183 67t-62 195q0 65 19 155q41 191 145 303.5t260 112.5 q170 0 287 -115l-131 -614l8 -57q213 16 357.5 136t192.5 344q16 74 16 147q0 161 -81.5 280t-224.5 180.5t-328 61.5q-206 0 -402.5 -102t-335.5 -277t-183 -381q-17 -77 -17 -159q0 -233 140 -396.5t369 -196.5q45 -8 106 -8l-5 -27q-62 0 -109 8q-238 34 -383 203.5 t-145 410.5zM643 240q0 -239 226 -239q162 0 307 100l123 578q-109 102 -263 102q-145 0 -240.5 -104t-134.5 -286q-18 -84 -18 -151z" />
<glyph unicode="A" horiz-adv-x="1210" d="M41 0l855 1434h29l245 -1434h-29l-75 438h-735l-262 -438h-28zM347 465h715l-160 931z" />
<glyph unicode="B" horiz-adv-x="1290" d="M225 0l305 1434h556q127 0 206.5 -73.5t79.5 -199.5q0 -45 -10 -89q-29 -135 -110.5 -223t-194.5 -120q97 -22 154 -93t57 -177q0 -44 -10 -90q-25 -119 -93 -204t-158 -125t-193 -40h-589zM258 27h561q149 0 263 89t149 253q10 50 10 84q0 120 -76.5 189.5t-199.5 69.5 h-562zM409 739h530q142 0 252 86.5t144 246.5q10 48 10 83q0 116 -73 184t-191 68h-530z" />
<glyph unicode="C" horiz-adv-x="1294" d="M291 496q0 100 25 220q33 154 100.5 287t164.5 233.5t227.5 158t279.5 57.5q123 0 244 -19q113 -19 113 -125q0 -24 -6 -53l-3 -14h-27l3 14q5 21 5 47q0 89 -95 105q-119 19 -240 19q-142 0 -267 -55t-217.5 -152t-157.5 -225t-97 -278q-24 -112 -24 -215 q0 -110 28.5 -199.5t84.5 -156t145 -103t204 -36.5q198 0 396 48l1 -26q-200 -48 -403 -48q-121 0 -214.5 38.5t-152 108t-88 162.5t-29.5 207z" />
<glyph unicode="D" horiz-adv-x="1409" d="M225 0l305 1434h406q241 0 364.5 -135.5t123.5 -365.5q0 -101 -24 -215q-33 -154 -100 -284t-163 -227.5t-226 -152t-279 -54.5h-407zM258 27h379q142 0 266 52t216.5 145.5t157 219t96.5 274.5q24 111 24 210q0 221 -118 350t-348 129h-380z" />
<glyph unicode="E" horiz-adv-x="1161" d="M225 0l305 1434h824l-6 -27h-797l-137 -645h692l-6 -27h-692l-150 -708h797l-6 -27h-824z" />
<glyph unicode="F" horiz-adv-x="1134" d="M225 0l305 1434h797l-6 -27h-770l-147 -690h666l-6 -26h-665l-147 -691h-27z" />
<glyph unicode="G" horiz-adv-x="1394" d="M291 496q0 100 25 220q33 154 100.5 287t164.5 233.5t227.5 158t279.5 57.5q200 0 399 -54l-12 -26q-197 54 -393 54q-142 0 -267 -55t-217.5 -152t-157.5 -225t-97 -278q-24 -112 -24 -215q0 -110 28.5 -199.5t84.5 -156t145 -103t204 -36.5q201 0 411 130l109 512h-372 l6 27h399l-118 -553q-94 -60 -211 -101t-230 -41q-121 0 -214.5 38.5t-152 108t-88 162.5t-29.5 207z" />
<glyph unicode="H" horiz-adv-x="1400" d="M225 0l305 1434h27l-144 -676h898l143 676h27l-305 -1434h-26l155 732h-898l-155 -732h-27z" />
<glyph unicode="I" horiz-adv-x="477" d="M225 0l305 1434h27l-305 -1434h-27z" />
<glyph unicode="J" horiz-adv-x="684" d="M79 -11l11 25q64 -13 123 -13q96 0 159 41q82 53 109 181l257 1211h27l-258 -1210q-30 -142 -122 -203q-70 -46 -178 -46q-49 0 -128 14z" />
<glyph unicode="K" horiz-adv-x="1359" d="M225 0l305 1434h27l-148 -693h295l653 693h34l-666 -706l164 -489q43 -121 108 -175.5t162 -54.5q69 0 160 30l4 -25q-94 -31 -173 -31q-102 0 -172.5 59.5t-114.5 183.5l-165 491h-294l-152 -717h-27z" />
<glyph unicode="L" horiz-adv-x="1013" d="M225 0l305 1434h27l-299 -1407h721l-6 -27h-748z" />
<glyph unicode="M" horiz-adv-x="1738" d="M215 0l305 1434h26l326 -1402l922 1402h26l-305 -1434h-26l291 1368l-900 -1368h-29l-319 1368l-290 -1368h-27z" />
<glyph unicode="N" horiz-adv-x="1421" d="M215 0l305 1434h26l646 -1387l294 1387h27l-305 -1434h-26l-646 1386l-294 -1386h-27z" />
<glyph unicode="O" d="M292 498q0 100 25 220q33 154 100.5 287t164.5 234t227.5 158.5t279.5 57.5q121 0 214.5 -38.5t152 -108t88 -162.5t29.5 -207q0 -101 -25 -221q-33 -154 -100.5 -287t-164.5 -233.5t-227.5 -158t-279.5 -57.5q-121 0 -214.5 38.5t-152 108t-88 162.5t-29.5 207zM320 504 q0 -110 28.5 -199.5t84.5 -156t145 -103t204 -36.5q142 0 267 55t217.5 151.5t157.5 224.5t97 278q24 113 24 215q0 110 -28.5 199.5t-84.5 156t-145 103t-204 36.5q-142 0 -267 -55t-217.5 -152t-157.5 -225t-97 -278q-24 -112 -24 -214z" />
<glyph unicode="P" horiz-adv-x="1263" d="M225 0l305 1434h530q139 0 225.5 -80.5t86.5 -218.5q0 -49 -10 -98q-27 -127 -99.5 -217.5t-167.5 -133.5t-204 -43h-503l-136 -643h-27zM394 669h503q157 0 278.5 95.5t159.5 272.5q10 46 10 91q0 129 -80.5 204t-210.5 75h-503z" />
<glyph unicode="Q" d="M292 498q0 100 25 220q33 154 100.5 287t164.5 234t227.5 158.5t279.5 57.5q121 0 214.5 -38.5t152 -108t88 -162.5t29.5 -207q0 -101 -25 -221q-39 -182 -123 -331.5t-215.5 -254t-292.5 -136.5l62 -68q36 -38 74 -53.5t97 -15.5h215l-5 -27h-216q-62 0 -105 18t-82 58 l-74 82q-47 -8 -107 -8q-121 0 -214.5 38.5t-152 108t-88 162.5t-29.5 207zM320 504q0 -110 28.5 -199.5t84.5 -156t145 -103t204 -36.5q142 0 267 55t217.5 151.5t157.5 224.5t97 278q24 113 24 215q0 110 -28.5 199.5t-84.5 156t-145 103t-204 36.5q-142 0 -267 -55 t-217.5 -152t-157.5 -225t-97 -278q-24 -112 -24 -214z" />
<glyph unicode="R" horiz-adv-x="1394" d="M225 0l305 1434h568q130 0 211 -75t81 -204q0 -46 -10 -92q-25 -119 -92 -203.5t-155.5 -124t-190.5 -39.5h-137l205 -474q78 -171 205 -201q28 -7 60 -7q17 0 59 6l-1 -26q-31 -6 -63 -6t-66 8q-137 30 -220 211l-211 489h-373l-148 -696h-27zM405 722h542 q147 0 259 88.5t147 252.5q9 45 9 86q0 119 -74 188.5t-195 69.5h-542z" />
<glyph unicode="S" horiz-adv-x="1128" d="M112 44l12 26q70 -19 116.5 -29t133 -20t183.5 -10q115 0 209 28.5t156.5 78.5t101.5 112t54 134q8 35 8 72q0 99 -77.5 157.5t-260.5 120.5l-125 42q-129 43 -201.5 122t-72.5 180q0 23 7 60q16 76 54.5 135.5t89.5 97t117.5 61.5t134.5 34t145 10q168 0 391 -57 l-12 -26q-223 57 -385 57q-442 0 -509 -312q-6 -28 -6 -57q0 -93 68 -165t192 -114l125 -43q92 -31 152 -58t108 -62.5t70 -79t22 -99.5q0 -39 -8 -76q-17 -78 -59.5 -145.5t-111 -121.5t-171.5 -84q-100 -29 -220 -29h-8q-223 7 -423 60z" />
<glyph unicode="T" horiz-adv-x="1009" d="M340 1407l6 27h927l-5 -27h-451l-299 -1407h-26l299 1407h-451z" />
<glyph unicode="U" horiz-adv-x="1423" d="M304 296q0 77 21 173l205 965h27l-205 -965q-21 -102 -21 -168q0 -153 92.5 -223t290.5 -70q245 0 376 108.5t183 352.5l205 965h26l-205 -965q-54 -256 -194 -371.5t-396 -115.5q-208 0 -306.5 75.5t-98.5 238.5z" />
<glyph unicode="V" horiz-adv-x="1153" d="M346 1434h28l211 -1395l804 1395h29l-827 -1434h-28z" />
<glyph unicode="W" horiz-adv-x="1697" d="M346 1434h27l103 -1384l664 1384h28l76 -1384l691 1384h27l-715 -1434h-28l-76 1382l-663 -1382h-28z" />
<glyph unicode="X" horiz-adv-x="1118" d="M61 0l660 741l-322 693h32l311 -669l596 669h32l-617 -693l345 -741h-33l-333 717l-638 -717h-33z" />
<glyph unicode="Y" horiz-adv-x="1173" d="M346 1434h31l326 -891l705 891h31l-729 -921l-109 -513h-26l108 512z" />
<glyph unicode="Z" horiz-adv-x="1181" d="M113 0l5 27l1157 1380h-807l5 27h838l-5 -27l-1156 -1380h925l-5 -27h-957z" />
<glyph unicode="[" horiz-adv-x="346" d="M11 -432l409 1927h162l-6 -26h-135l-398 -1875h135l-6 -26h-161z" />
<glyph unicode="\" horiz-adv-x="770" d="M356 1434h29l334 -1434h-29z" />
<glyph unicode="]" horiz-adv-x="346" d="M-10 -432l6 26h135l398 1875h-135l6 26h162l-410 -1927h-162z" />
<glyph unicode="^" horiz-adv-x="980" d="M215 674l565 760h31l242 -760h-30l-234 731l-544 -731h-30z" />
<glyph unicode="_" horiz-adv-x="1267" d="M29 -250l5 27h1104l-5 -27h-1104z" />
<glyph unicode="`" horiz-adv-x="438" d="M400 1536h30l207 -341h-30z" />
<glyph unicode="a" horiz-adv-x="1138" d="M205 300q0 84 23 194q51 238 180 377.5t323 139.5q192 0 333 -124l22 102h25l-189 -886l5 -29q4 -28 17.5 -38.5t42.5 -10.5h56l-5 -25h-57q-69 0 -79 66l-5 32q-185 -120 -390 -120q-150 0 -226 82t-76 240zM230 306q0 -303 284 -303q205 0 389 126l155 727 q-136 130 -332 130q-182 0 -303 -132t-170 -360q-23 -107 -23 -188z" />
<glyph unicode="b" horiz-adv-x="1107" d="M234 115l258 1216q3 13 3 25q0 53 -64 53h-60l5 25h60q84 0 84 -72q0 -14 -3 -31l-95 -444q195 124 386 124q153 0 229 -88t76 -245q0 -85 -21 -184q-54 -250 -181 -383t-318 -133q-118 0 -199.5 34.5t-159.5 102.5zM261 129q130 -126 335 -126q181 0 300.5 125 t170.5 366q21 96 21 178q0 149 -71 231.5t-214 82.5q-194 0 -387 -130z" />
<glyph unicode="c" horiz-adv-x="997" d="M211 340q0 71 17 154q23 108 70.5 200.5t115 163t159 111t195.5 40.5q95 0 187 -16q109 -21 109 -126q0 -25 -6 -54l-4 -16h-24l3 16q6 25 6 48q0 92 -94 108q-92 16 -182 16q-193 0 -329 -138.5t-181 -352.5q-17 -80 -17 -148q0 -156 80.5 -249t237.5 -93q158 0 335 49 l2 -24q-177 -49 -342 -49q-167 0 -252.5 98t-85.5 262z" />
<glyph unicode="d" horiz-adv-x="1118" d="M205 300q0 84 23 194q51 238 180 377.5t323 139.5q192 0 333 -124l95 444q22 103 124 103h59l-5 -25h-59q-78 0 -95 -78l-261 -1228l5 -29q4 -28 17.5 -38.5t42.5 -10.5h56l-5 -25h-57q-69 0 -79 66l-5 32q-185 -120 -390 -120q-150 0 -226 82t-76 240zM230 306 q0 -303 284 -303q205 0 389 126l155 727q-136 130 -332 130q-182 0 -303 -132t-170 -360q-23 -107 -23 -188z" />
<glyph unicode="e" horiz-adv-x="997" d="M211 340q0 71 17 154q23 108 70.5 200.5t115 163t159 111t195.5 40.5q64 0 113.5 -12.5t78 -32t46.5 -46.5t24 -51.5t6 -51.5q0 -84 -54.5 -162.5t-154.5 -127.5q-65 -32 -143 -55t-175.5 -36.5t-138 -18t-131.5 -12.5q-3 -30 -3 -57q0 -156 80.5 -249t237.5 -93 q151 0 335 49l2 -24q-177 -49 -342 -49q-167 0 -252.5 98t-85.5 262zM241 428q246 21 370 49q123 28 209 70q91 44 141 116t50 147q0 31 -10.5 58.5t-35.5 55.5t-77 44.5t-125 16.5q-193 0 -329 -138.5t-181 -352.5q-8 -37 -12 -66z" />
<glyph unicode="f" horiz-adv-x="677" d="M45 -268q147 24 179 176l225 1057h-137l5 24h137l54 256q32 151 162 190q48 14 114 14q62 0 144 -12l-10 -24q-97 13 -144 13q-56 0 -102 -14q-111 -34 -139 -167l-54 -256h301l-6 -24h-300l-225 -1057q-37 -174 -204 -199v23z" />
<glyph unicode="g" horiz-adv-x="1073" d="M159 -350l9 24q8 -1 43 -7.5t58 -10t58 -8t69.5 -7t67.5 -2.5q56 0 112 9q231 36 278 260l46 215q-195 -124 -387 -124q-153 0 -229.5 87t-76.5 238q0 78 19 163q55 251 181.5 383.5t317.5 132.5q118 0 199.5 -34.5t159.5 -102.5l-203 -958q-52 -243 -305 -285 q-57 -9 -117 -9q-34 0 -69.5 2.5t-71.5 7.5t-58.5 8.5t-58 10t-42.5 7.5zM233 330q0 -142 72 -224t215 -82q194 0 387 130l148 698q-127 127 -333 127q-181 0 -299.5 -125t-171.5 -367q-18 -84 -18 -157z" />
<glyph unicode="h" horiz-adv-x="1163" d="M195 0l304 1434h25l-128 -604q95 70 221.5 126.5t256.5 56.5t184 -55.5t54 -155.5q0 -61 -16 -139l-107 -499q-5 -27 -5 -44q0 -95 113 -95l-5 -25h-3q-130 2 -130 114q0 23 6 50l106 499q16 78 16 137q0 91 -48.5 139.5t-168.5 48.5q-72 0 -148 -20t-140.5 -52.5 t-109.5 -61t-83 -57.5l-170 -797h-24z" />
<glyph unicode="i" horiz-adv-x="448" d="M229 0l189 887q3 14 3 25q0 53 -64 53h-60l5 24h60q84 0 84 -71q0 -9 -4 -31l-188 -887h-25zM486 1207l34 162h25l-34 -162h-25z" />
<glyph unicode="j" horiz-adv-x="468" d="M-182 -379l8 25q85 -13 141 -13q95 0 158.5 40t85.5 141l250 1175h25l-250 -1175q-43 -205 -277 -205q-51 0 -141 12zM508 1207l34 162h25l-35 -162h-24z" />
<glyph unicode="k" horiz-adv-x="1040" d="M184 0l305 1434h25l-180 -846h281q158 0 280.5 96t159.5 273l6 34h25l-6 -34q-27 -127 -99 -217.5t-167 -133.5t-204 -43h-5l354 -563h-32l-354 563h-244l-120 -563h-25z" />
<glyph unicode="l" horiz-adv-x="489" d="M203 114q0 23 6 50l270 1270h24l-270 -1270q-5 -27 -5 -44q0 -95 113 -95l-5 -25h-5q-128 3 -128 114z" />
<glyph unicode="m" horiz-adv-x="1777" d="M209 0l188 887q3 14 3 25q0 53 -64 53h-59l5 24h59q85 0 85 -71q0 -9 -4 -31l-12 -55q53 40 80.5 59t88 54t122.5 51.5t129 16.5q123 0 178 -50t60 -140q4 3 13 10q50 39 82.5 61t90 54.5t119 48.5t126.5 16q130 0 184.5 -55.5t54.5 -154.5q0 -60 -18 -140l-106 -499 q-5 -27 -5 -44q0 -92 108 -95h5l-5 -25h-6q-127 3 -127 114q0 23 6 50l106 499q18 82 18 138q0 90 -50 138.5t-169 48.5q-35 0 -70.5 -6t-62.5 -13t-62 -24t-53.5 -26t-53 -32t-44.5 -30t-44 -33t-37 -28q-1 -60 -17 -133l-141 -663h-25l141 663q18 82 18 138 q0 90 -50 138.5t-169 48.5q-28 0 -56 -4t-50.5 -8.5t-50.5 -15.5t-45 -17.5t-44.5 -22.5t-39 -22.5t-39.5 -26.5t-34 -24.5l-34 -25.5t-29 -22l-170 -799h-24z" />
<glyph unicode="n" horiz-adv-x="1167" d="M209 0l188 887q3 14 3 25q0 53 -64 53h-59l5 24h59q85 0 85 -71q0 -9 -4 -31l-12 -57q95 70 222 126.5t257 56.5t183.5 -55.5t53.5 -155.5q0 -61 -16 -139l-106 -499q-5 -27 -5 -44q0 -94 109 -95h3l-5 -25h-4q-129 2 -129 114q0 23 6 50l106 499q17 83 17 137 q0 91 -49 139.5t-169 48.5q-72 0 -148 -20t-140.5 -52.5t-109.5 -61t-83 -57.5l-170 -797h-24z" />
<glyph unicode="o" horiz-adv-x="1105" d="M211 340q0 71 17 154q23 108 70.5 200.5t115 163t159 111t195.5 40.5q167 0 252.5 -98.5t85.5 -262.5q0 -71 -17 -154q-31 -145 -102.5 -259.5t-185.5 -184.5t-252 -70q-167 0 -252.5 98t-85.5 262zM236 346q0 -156 80.5 -249t237.5 -93q193 0 329 138t181 352 q17 80 17 149q0 156 -80.5 249t-237.5 93q-193 0 -329 -138.5t-181 -352.5q-17 -80 -17 -148z" />
<glyph unicode="p" horiz-adv-x="1128" d="M151 -369l267 1256l-4 28q-5 28 -18 39t-42 11h-57l5 24h57q69 0 79 -65l5 -33q187 120 391 120q150 0 226 -80.5t76 -237.5q0 -83 -23 -192q-50 -235 -175.5 -367.5t-319.5 -132.5q-199 0 -338 124l-104 -494h-25zM287 156q137 -130 335 -130q182 0 300.5 125t166.5 350 q22 103 22 187q0 148 -71.5 223.5t-212.5 75.5q-205 0 -390 -127z" />
<glyph unicode="q" horiz-adv-x="1083" d="M209 322q0 86 20 179q53 250 179 380t317 130q217 0 361 -138l-264 -1242h-25l105 493q-190 -123 -389 -123q-153 0 -228.5 83.5t-75.5 237.5zM234 328q0 -146 71 -224t214 -78q199 0 390 129l150 705q-131 127 -337 127q-181 0 -299 -123t-169 -363q-20 -97 -20 -173z " />
<glyph unicode="r" horiz-adv-x="743" d="M209 0l180 846q4 19 4 37q0 82 -98 82h-18l5 24h18q118 0 118 -100q0 -16 -5 -43l-12 -60q128 162 339 210q67 15 158 17l-5 -25q-100 -1 -154 -15q-107 -26 -198 -90t-152 -153l-156 -730h-24z" />
<glyph unicode="s" horiz-adv-x="966" d="M106 18l10 24q67 -15 105 -22t109 -13.5t158 -6.5q151 0 246 69.5t117 175.5q6 27 6 50q0 75 -58 121.5t-177 75.5l-139 33q-101 26 -150 73t-49 117q0 25 6 52q53 247 402 247q28 0 57 -1.5t58 -4.5t52 -6t52 -8t44 -8t41.5 -8t32.5 -6l-10 -24q-218 41 -332 41 q-326 0 -373 -222q-5 -27 -5 -45q0 -125 185 -173l139 -33q123 -30 185.5 -82t62.5 -135q0 -25 -6 -54q-25 -116 -125 -193t-268 -77q-130 0 -210.5 10.5t-165.5 32.5z" />
<glyph unicode="t" horiz-adv-x="727" d="M252 125q0 29 7 61l165 779h-137l5 24h137l59 276h25l-59 -276h337l-6 -24h-336l-166 -779q-6 -30 -6 -54q0 -77 62 -106q42 -19 114 -19q58 0 131 10l-1 -25q-86 -10 -133 -10q-78 0 -123 20q-75 33 -75 123z" />
<glyph unicode="u" horiz-adv-x="1142" d="M226 186q0 64 17 140l141 663h25l-141 -663q-16 -78 -16 -137q0 -91 49 -139.5t170 -48.5q71 0 147 20t140 52.5t109.5 61t82.5 57.5l170 797h24l-175 -825q-5 -27 -5 -44q0 -95 113 -95l-6 -25h-5q-127 3 -127 114q0 23 4 44q-95 -68 -225.5 -124.5t-255.5 -56.5 q-129 0 -182.5 55t-53.5 154z" />
<glyph unicode="v" horiz-adv-x="1155" d="M275 294q0 49 9 97l93 434q5 21 5 47q0 93 -105 93l5 24h8q117 -3 117 -112q0 -23 -6 -52l-92 -434q-10 -53 -10 -95q0 -118 64 -198.5t198 -96.5q22 -3 63 -3q179 0 294.5 117.5t168.5 310.5q41 149 41 322q0 122 -22 241l25 9q22 -121 22 -244q0 -178 -41 -330 q-26 -95 -68.5 -174t-102.5 -142.5t-142.5 -99t-179.5 -35.5q-35 0 -66 4q-96 11 -160.5 58.5t-91 112.5t-26.5 146z" />
<glyph unicode="w" horiz-adv-x="1890" d="M274 291q0 49 10 100l93 434q5 21 5 47q0 93 -105 93l5 24h8q117 -3 117 -112q0 -23 -6 -52l-92 -434q-10 -50 -10 -98q0 -140 83.5 -216.5t208.5 -76.5q72 0 143.5 27t136 78.5t114.5 134.5t72 186l119 563h25l-127 -598q-11 -52 -11 -106q0 -139 77.5 -214t196.5 -75 q95 0 189.5 46.5t176.5 146.5t119 237q40 146 40 322q0 127 -21 241l24 9q22 -121 22 -244q0 -178 -41 -330q-29 -107 -87 -195t-129 -143.5t-148 -85t-150 -29.5q-128 -1 -213 85q-81 82 -81 224v14q-68 -151 -194.5 -235t-256.5 -84q-132 0 -222.5 83.5t-90.5 232.5z" />
<glyph unicode="x" horiz-adv-x="892" d="M31 0l510 515l-268 474h31l257 -454l449 454h32l-470 -474l291 -515h-31l-280 495l-490 -495h-31z" />
<glyph unicode="y" horiz-adv-x="935" d="M-18 -375l12 25q48 -14 84 -14q24 0 50 8q83 21 145 87.5t125 172.5l59 96h-2l-183 989h26l178 -958l583 958h26l-666 -1095q-65 -109 -132.5 -180t-157.5 -95q-25 -7 -55 -7q-44 0 -92 13z" />
<glyph unicode="z" horiz-adv-x="1017" d="M92 0l5 25l931 940h-695l5 24h727l-5 -24l-931 -940h751l-5 -25h-783z" />
<glyph unicode="{" horiz-adv-x="610" d="M165 -291q0 30 7 62l118 555q8 37 8 62q0 102 -98 131l-7 2l4 22l10 3q70 21 111.5 65t59.5 127l118 555q31 143 147 185q53 20 129 20q19 0 55 -2l-8 -27q-30 3 -57 3q-72 0 -119 -19q-94 -37 -120 -160l-118 -555q-33 -152 -160 -206q79 -40 79 -142q0 -32 -7 -64 l-118 -555q-6 -31 -6 -56q0 -53 29 -82q40 -41 142 -41q17 0 57 2l-4 -26q-36 -2 -52 -2q-118 0 -165 47q-35 35 -35 96z" />
<glyph unicode="|" horiz-adv-x="231" d="M51 -244l378 1780h27l-379 -1780h-26z" />
<glyph unicode="}" horiz-adv-x="610" d="M11 -432l7 26q38 -2 56 -2q102 0 160 41q62 44 81 138l118 555q33 152 160 206q-80 41 -80 142q0 27 8 64l118 555q6 31 6 56q0 77 -59 104q-39 19 -111 19q-28 0 -58 -3l3 27q38 2 56 2q76 0 121 -20q75 -33 75 -123q0 -30 -7 -62l-118 -555q-7 -34 -7 -65 q0 -51 24 -80.5t73 -46.5l8 -3l-5 -22l-8 -2q-139 -37 -172 -193l-118 -555q-23 -108 -95 -158q-68 -47 -185 -47q-17 0 -51 2z" />
<glyph unicode="~" horiz-adv-x="1118" d="M186 491q66 101 155 160t182 59q73 0 128 -37l202 -140q40 -28 61.5 -35.5t45.5 -7.5q58 0 111.5 46.5t81.5 122.5l23 -10q-32 -81 -94 -133.5t-127 -52.5q-53 0 -120 47l-203 140q-48 33 -115 33q-83 0 -166 -55t-143 -148z" />
<glyph unicode="&#xa1;" horiz-adv-x="362" d="M90 -369l222 1048h27l-223 -1048h-26zM380 1019l10 46h35l-10 -46h-35z" />
<glyph unicode="&#xa2;" horiz-adv-x="997" d="M211 340q0 71 17 154q31 143 101 257t181 184.5t246 73.5l32 150h25l-32 -150q160 -2 308 -50l-12 -23q-156 49 -314 49q-193 0 -329 -138.5t-181 -352.5q-17 -80 -17 -148q0 -156 80.5 -249t237.5 -93q158 0 335 49l2 -24q-165 -47 -329 -49l-32 -150h-25l32 150 q-161 4 -243.5 101.5t-82.5 258.5z" />
<glyph unicode="&#xa3;" horiz-adv-x="1290" d="M143 0l6 27h50q115 0 176.5 61.5t87.5 183.5l98 463h-205l6 27h205l12 56q18 84 34 145.5t41 131.5t53 119t69 97t90 77t115 46.5t145 17.5q101 0 192 -32t146 -71l-18 -23q-54 38 -140.5 68.5t-184.5 30.5q-74 0 -136 -16t-108 -43t-84 -71.5t-64.5 -91.5t-50 -114 t-39.5 -127.5t-33 -143.5l-12 -56h576l-5 -27h-577l-98 -463q-39 -186 -164 -245h858l-6 -27h-1035z" />
<glyph unicode="&#xa5;" horiz-adv-x="1435" d="M334 370l6 27h450l25 115l-55 150h-364l6 26h348l-274 746h32l326 -891l705 891h31l-590 -746h349l-6 -26h-364l-118 -149l-24 -116h450l-6 -27h-450l-79 -370h-26l78 370h-450z" />
<glyph unicode="&#xa6;" horiz-adv-x="231" d="M51 -244l157 740h26l-157 -740h-26zM272 797l157 739h27l-158 -739h-26z" />
<glyph unicode="&#xa7;" horiz-adv-x="909" d="M78 -117l9 23q71 -14 104.5 -19.5t102 -11.5t152.5 -6q170 0 269 87t99 208q0 75 -58 121t-177 75l-139 35q-101 26 -150 73t-49 117q0 25 6 52q37 174 222 225q-133 55 -133 169q0 25 6 52q52 246 402 246q119 0 337 -41l-10 -24q-207 41 -332 41q-326 0 -373 -222 q-5 -27 -5 -46q0 -124 185 -172l139 -34q123 -30 185.5 -82t62.5 -135q0 -24 -6 -53q-16 -74 -63.5 -135t-126.5 -96q102 -59 102 -162q0 -24 -6 -53q-24 -117 -124.5 -194t-268.5 -77q-208 0 -362 39zM266 591q0 -125 185 -173l139 -33q71 -17 120 -40q94 36 146.5 108 t52.5 158q0 75 -58 121.5t-177 75.5l-139 33l-23 6q-204 -40 -240 -210q-6 -32 -6 -46z" />
<glyph unicode="&#xa8;" horiz-adv-x="536" d="M359 1399l7 35h35l-7 -35h-35zM739 1399l7 35h35l-7 -35h-35z" />
<glyph unicode="&#xa9;" horiz-adv-x="1679" d="M238 564q0 72 17 154q32 150 119.5 286.5t207 235t268.5 157t299 58.5q263 0 430.5 -165.5t167.5 -417.5q0 -72 -17 -154q-43 -200 -177.5 -370t-325.5 -269t-391 -99q-174 0 -311 76.5t-212 209.5t-75 298zM266 570q0 -119 42.5 -223t117.5 -179t182.5 -118t233.5 -43 q193 0 377 95.5t313.5 259t170.5 356.5q16 74 16 148q0 159 -72 287t-203.5 201.5t-299.5 73.5q-193 0 -377 -95t-314 -258.5t-171 -356.5q-16 -74 -16 -148zM665 605q0 54 12 111q35 162 140 268t254 106q102 0 196 -26l-12 -24q-103 25 -190 25q-138 0 -233.5 -97.5 t-128.5 -251.5q-12 -55 -12 -107q0 -111 57 -176.5t169 -65.5q94 0 200 25l2 -25q-102 -25 -208 -25q-121 0 -183.5 72t-62.5 191z" />
<glyph unicode="&#xaa;" horiz-adv-x="673" d="M342 1082q0 48 11 97q26 120 93 192t166 72q91 0 162 -56l9 45h25l-95 -448l2 -13q1 -13 6 -17t19 -4h34l-5 -25h-35q-38 0 -44 37l-2 9q-94 -57 -190 -57q-77 0 -116.5 43t-39.5 125zM366 1084q0 -145 137 -145q100 0 188 60l76 358q-67 61 -161 61q-88 0 -146.5 -63.5 t-82.5 -175.5q-11 -55 -11 -95z" />
<glyph unicode="&#xab;" horiz-adv-x="741" d="M186 452l253 484h28l-253 -483l54 -453h-28zM563 452l253 484h28l-253 -483l54 -453h-28z" />
<glyph unicode="&#xac;" horiz-adv-x="1228" />
<glyph unicode="&#xad;" horiz-adv-x="714" d="M235 624l6 26h510l-6 -26h-510z" />
<glyph unicode="&#xae;" horiz-adv-x="1679" d="M238 564q0 72 17 154q32 150 119.5 286.5t207 235t268.5 157t299 58.5q263 0 430.5 -165.5t167.5 -417.5q0 -72 -17 -154q-43 -200 -177.5 -370t-325.5 -269t-391 -99q-174 0 -311 76.5t-212 209.5t-75 298zM266 570q0 -119 42.5 -223t117.5 -179t182.5 -118t233.5 -43 q193 0 377 95.5t313.5 259t170.5 356.5q16 74 16 148q0 159 -72 287t-203.5 201.5t-299.5 73.5q-193 0 -377 -95t-314 -258.5t-171 -356.5q-16 -74 -16 -148zM685 352l155 729h290q67 0 109 -39t42 -106q0 -14 -6 -46q-19 -90 -82.5 -140t-143.5 -50h-17l152 -348h-31 l-152 348h-217l-74 -348h-25zM790 726h264q72 0 125.5 42t70.5 122q5 25 5 42q0 58 -35.5 91t-94.5 33h-265z" />
<glyph unicode="&#xaf;" horiz-adv-x="669" d="M356 1407l6 27h555l-6 -27h-555z" />
<glyph unicode="&#xb0;" horiz-adv-x="544" d="M380 1286q0 81 65 143.5t145 62.5q61 0 99 -38.5t38 -96.5q0 -81 -65 -143t-145 -62q-61 0 -99 38t-38 96zM407 1293q0 -49 32.5 -81.5t83.5 -32.5q67 0 122 52.5t55 119.5q0 49 -32.5 81.5t-83.5 32.5q-67 0 -122 -52.5t-55 -119.5z" />
<glyph unicode="&#xb1;" horiz-adv-x="1054" d="M102 0l6 27h850l-6 -27h-850zM259 735l5 27h412l87 412h27l-87 -412h411l-5 -27h-412l-88 -411h-26l87 411h-411z" />
<glyph unicode="&#xb2;" horiz-adv-x="630" d="M255 716l4 23q196 110 328 242q159 161 159 299q0 68 -40.5 98.5t-107.5 30.5q-86 0 -190 -48l-8 21q99 53 204 53q73 0 120.5 -37.5t47.5 -114.5q0 -148 -168 -318q-118 -120 -293 -224h375l-5 -25h-426z" />
<glyph unicode="&#xb3;" horiz-adv-x="638" d="M263 758l17 21q71 -48 174 -48q105 0 167 36.5t81 124.5q3 17 3 32q0 59 -46 97.5t-121 39.5h-104l5 26h105q80 2 139 49.5t75 124.5q4 16 4 35q0 57 -44.5 84.5t-119.5 27.5q-48 0 -85.5 -11.5t-89.5 -36.5l-9 21q101 53 189 53q82 0 133.5 -33.5t51.5 -99.5 q0 -21 -4 -40q-14 -65 -58 -114t-106 -72q52 -19 81.5 -57.5t29.5 -88.5q0 -20 -4 -37q-39 -186 -278 -186q-123 0 -186 52z" />
<glyph unicode="&#xb4;" horiz-adv-x="438" d="M311 1195l352 341h30l-352 -341h-30z" />
<glyph unicode="&#xb6;" horiz-adv-x="1005" d="M311 931q0 49 12 106q38 179 172.5 288t298.5 109h414l-5 -27h-135l-361 -1696h-26l360 1696h-135l-361 -1696h-26l198 932h-92q-141 0 -227.5 74.5t-86.5 213.5z" />
<glyph unicode="&#xb7;" horiz-adv-x="198" d="M206 586l10 46h35l-10 -46h-35z" />
<glyph unicode="&#xb8;" horiz-adv-x="499" d="M-23 -375l11 27q55 -10 120 -10q87 0 158.5 35t85.5 102q3 11 3 22q0 38 -27.5 62t-81.5 24h-45h-45l80 113h30l-61 -86h47q64 0 97 -31t33 -77q0 -14 -3 -27q-12 -56 -58 -94.5t-102 -54t-117 -15.5q-68 0 -125 10z" />
<glyph unicode="&#xb9;" horiz-adv-x="483" d="M384 723l145 684l-128 -22l1 25l139 24h20l-151 -711h-26z" />
<glyph unicode="&#xba;" horiz-adv-x="647" d="M345 1103q0 41 8 77q24 114 98.5 189t179.5 75q86 0 130 -51.5t44 -135.5q0 -37 -9 -77q-24 -114 -98 -188.5t-179 -74.5q-86 0 -130 51t-44 135zM370 1106q0 -76 39 -120.5t115 -44.5q94 0 159 66.5t88 172.5q9 39 9 74q0 76 -39.5 120.5t-115.5 44.5q-94 0 -159 -66.5 t-88 -172.5q-8 -35 -8 -74z" />
<glyph unicode="&#xbb;" horiz-adv-x="741" d="M98 0l246 453l-47 483h28l47 -484l-246 -452h-28zM476 0l245 453l-47 483h28l47 -484l-245 -452h-28z" />
<glyph unicode="&#xbc;" horiz-adv-x="1470" d="M222 -35l1296 1503h31l-1295 -1503h-32zM379 553l182 855l-161 -28l1 25l169 29h21l-187 -881h-25zM847 267l5 22l531 594l17 -15l-516 -576h384l36 173h25l-37 -173h138l-5 -25h-138l-57 -267h-24l56 267h-415z" />
<glyph unicode="&#xbd;" horiz-adv-x="1626" d="M227 -35l1296 1503h31l-1295 -1503h-32zM379 553l182 855l-161 -28l1 25l169 29h21l-187 -881h-25zM999 0l5 23q248 139 410 303q160 162 190 304q9 40 9 72q0 86 -52 125.5t-136 39.5q-108 0 -237 -61l-8 21q126 65 251 65q90 0 148.5 -45.5t58.5 -141.5q0 -35 -9 -75 q-32 -152 -199 -319q-150 -151 -377 -286h477l-5 -25h-526z" />
<glyph unicode="&#xbe;" horiz-adv-x="1640" d="M229 594l17 22q85 -61 216 -61q132 0 211 47t103 159q5 23 5 40q0 75 -58.5 123.5t-153.5 50.5h-127l6 25h126q101 3 176 63.5t96 158.5q5 27 5 43q0 72 -56 108t-151 36q-97 0 -219 -60l-8 21q126 64 232 64q102 0 165 -40.5t63 -122.5q0 -22 -6 -49 q-19 -86 -76.5 -147.5t-138.5 -85.5q70 -20 110 -68.5t40 -114.5q0 -18 -5 -45q-49 -231 -344 -231q-150 0 -228 64zM392 -35l1296 1503h31l-1295 -1503h-32zM1018 267l5 22l530 593l18 -14l-516 -576h383l37 173h25l-37 -173h138l-5 -25h-138l-57 -267h-25l57 267h-415z " />
<glyph unicode="&#xbf;" horiz-adv-x="858" d="M41 -140q0 43 10 89q25 121 84 197.5t196 146.5q17 9 51.5 26t49 24.5t39 21t38 22.5t29.5 21.5t28 25.5q57 60 84 185l13 61h27l-13 -61q-29 -134 -93 -201q-14 -14 -31.5 -28t-31 -23t-41 -24t-40 -21.5t-50.5 -25.5t-51 -26q-130 -66 -184 -135t-78 -186 q-9 -45 -9 -83q0 -113 76 -169.5t207 -56.5q167 0 378 79l4 -24q-216 -82 -389 -82q-139 0 -221 62t-82 185zM731 1020l10 46h35l-10 -46h-35z" />
<glyph unicode="&#xc0;" horiz-adv-x="1210" d="M41 0l855 1434h29l245 -1434h-29l-75 438h-735l-262 -438h-28zM347 465h715l-160 931zM899 1980h30l207 -340h-30z" />
<glyph unicode="&#xc1;" horiz-adv-x="1210" d="M41 0l855 1434h29l245 -1434h-29l-75 438h-735l-262 -438h-28zM347 465h715l-160 931zM754 1640l352 340h29l-351 -340h-30z" />
<glyph unicode="&#xc2;" horiz-adv-x="1210" d="M41 0l855 1434h29l245 -1434h-29l-75 438h-735l-262 -438h-28zM347 465h715l-160 931zM689 1640l321 340h30l177 -340h-30l-166 320l-303 -320h-29z" />
<glyph unicode="&#xc3;" horiz-adv-x="1210" d="M41 0l855 1434h29l245 -1434h-29l-75 438h-735l-262 -438h-28zM347 465h715l-160 931zM671 1779q42 65 99 103t117 38q50 0 83 -24l130 -90q41 -28 69 -28q37 0 71 30t52 79l23 -9q-21 -54 -64.5 -90t-87.5 -36q-36 0 -82 32l-130 89q-29 20 -69 20q-107 0 -187 -123z " />
<glyph unicode="&#xc4;" horiz-adv-x="1210" d="M41 0l855 1434h29l245 -1434h-29l-75 438h-735l-262 -438h-28zM347 465h715l-160 931zM788 1843l8 35h35l-8 -35h-35zM1169 1843l7 35h35l-8 -35h-34z" />
<glyph unicode="&#xc5;" horiz-adv-x="1210" d="M41 0l855 1434h29l245 -1434h-29l-75 438h-735l-262 -438h-28zM347 465h715l-160 931zM760 1774q0 108 86.5 190.5t193.5 82.5q81 0 132 -51t51 -128q0 -108 -86.5 -190.5t-193.5 -82.5q-81 0 -132 51t-51 128zM787 1780q0 -68 45.5 -113.5t116.5 -45.5q94 0 170.5 73 t76.5 168q0 68 -45.5 113.5t-116.5 45.5q-94 0 -170.5 -73t-76.5 -168z" />
<glyph unicode="&#xc6;" horiz-adv-x="1562" d="M61 0l855 1434h839l-5 -27h-797l-137 -645h692l-6 -27h-692l-151 -708h797l-5 -27h-824l93 438h-369l-261 -438h-29zM367 465h359l199 934z" />
<glyph unicode="&#xc7;" horiz-adv-x="1294" d="M291 496q0 100 25 220q33 154 100.5 287t164.5 233.5t227.5 158t279.5 57.5q123 0 244 -19q113 -19 113 -125q0 -24 -6 -53l-3 -14h-27l3 14q5 21 5 47q0 89 -95 105q-119 19 -240 19q-142 0 -267 -55t-217.5 -152t-157.5 -225t-97 -278q-24 -112 -24 -215 q0 -110 28.5 -199.5t84.5 -156t145 -103t204 -36.5q198 0 396 48l1 -26q-200 -48 -403 -48h-26l-46 -66h47q64 0 97 -31t33 -77q0 -14 -3 -27q-12 -56 -58 -94.5t-102 -54t-117 -15.5q-68 0 -125 10l11 27q55 -10 120 -10q87 0 158.5 35t85.5 102q3 11 3 22q0 38 -27.5 62 t-81.5 24h-46h-44l66 95q-212 17 -320.5 155.5t-108.5 358.5z" />
<glyph unicode="&#xc8;" horiz-adv-x="1161" d="M225 0l305 1434h824l-6 -27h-797l-137 -645h692l-6 -27h-692l-150 -708h797l-6 -27h-824zM941 1980h29l207 -340h-30z" />
<glyph unicode="&#xc9;" horiz-adv-x="1161" d="M225 0l305 1434h824l-6 -27h-797l-137 -645h692l-6 -27h-692l-150 -708h797l-6 -27h-824zM795 1640l352 340h29l-351 -340h-30z" />
<glyph unicode="&#xca;" horiz-adv-x="1161" d="M225 0l305 1434h824l-6 -27h-797l-137 -645h692l-6 -27h-692l-150 -708h797l-6 -27h-824zM730 1640l321 340h30l177 -340h-30l-166 320l-303 -320h-29z" />
<glyph unicode="&#xcb;" horiz-adv-x="1161" d="M225 0l305 1434h824l-6 -27h-797l-137 -645h692l-6 -27h-692l-150 -708h797l-6 -27h-824zM830 1843l7 35h35l-7 -35h-35zM1210 1843l7 35h35l-7 -35h-35z" />
<glyph unicode="&#xcc;" horiz-adv-x="477" d="M225 0l305 1434h27l-305 -1434h-27zM535 1980h29l207 -340h-30z" />
<glyph unicode="&#xcd;" horiz-adv-x="477" d="M225 0l305 1434h27l-305 -1434h-27zM389 1640l352 340h29l-351 -340h-30z" />
<glyph unicode="&#xce;" horiz-adv-x="477" d="M225 0l305 1434h27l-305 -1434h-27zM324 1640l321 340h30l177 -340h-30l-166 320l-303 -320h-29z" />
<glyph unicode="&#xcf;" horiz-adv-x="477" d="M225 0l305 1434h27l-305 -1434h-27zM424 1843l7 35h35l-8 -35h-34zM804 1843l7 35h35l-8 -35h-34z" />
<glyph unicode="&#xd0;" horiz-adv-x="1409" d="M225 0l133 624h-123l6 26h123l166 784h406q241 0 364.5 -135.5t123.5 -365.5q0 -101 -24 -215q-33 -154 -100 -284t-163 -227.5t-226 -152t-279 -54.5h-407zM258 27h379q142 0 266 52t216.5 145.5t157 219t96.5 274.5q24 111 24 210q0 221 -118 350t-348 129h-380 l-161 -757h361l-6 -26h-361z" />
<glyph unicode="&#xd1;" horiz-adv-x="1421" d="M215 0l305 1434h26l646 -1387l294 1387h27l-305 -1434h-26l-646 1386l-294 -1386h-27zM778 1779q42 65 99.5 103t117.5 38q49 0 82 -24l130 -90q41 -28 69 -28q37 0 71 30t52 79l23 -9q-21 -54 -64.5 -90t-87.5 -36q-36 0 -82 32l-130 89q-29 20 -69 20q-107 0 -187 -123 z" />
<glyph unicode="&#xd2;" d="M292 498q0 100 25 220q33 154 100.5 287t164.5 234t227.5 158.5t279.5 57.5q121 0 214.5 -38.5t152 -108t88 -162.5t29.5 -207q0 -101 -25 -221q-33 -154 -100.5 -287t-164.5 -233.5t-227.5 -158t-279.5 -57.5q-121 0 -214.5 38.5t-152 108t-88 162.5t-29.5 207zM320 504 q0 -110 28.5 -199.5t84.5 -156t145 -103t204 -36.5q142 0 267 55t217.5 151.5t157.5 224.5t97 278q24 113 24 215q0 110 -28.5 199.5t-84.5 156t-145 103t-204 36.5q-142 0 -267 -55t-217.5 -152t-157.5 -225t-97 -278q-24 -112 -24 -214zM1075 1980h30l207 -340h-30z" />
<glyph unicode="&#xd3;" d="M292 498q0 100 25 220q33 154 100.5 287t164.5 234t227.5 158.5t279.5 57.5q121 0 214.5 -38.5t152 -108t88 -162.5t29.5 -207q0 -101 -25 -221q-33 -154 -100.5 -287t-164.5 -233.5t-227.5 -158t-279.5 -57.5q-121 0 -214.5 38.5t-152 108t-88 162.5t-29.5 207zM320 504 q0 -110 28.5 -199.5t84.5 -156t145 -103t204 -36.5q142 0 267 55t217.5 151.5t157.5 224.5t97 278q24 113 24 215q0 110 -28.5 199.5t-84.5 156t-145 103t-204 36.5q-142 0 -267 -55t-217.5 -152t-157.5 -225t-97 -278q-24 -112 -24 -214zM930 1640l351 340h30l-352 -340 h-29z" />
<glyph unicode="&#xd4;" d="M292 498q0 100 25 220q33 154 100.5 287t164.5 234t227.5 158.5t279.5 57.5q121 0 214.5 -38.5t152 -108t88 -162.5t29.5 -207q0 -101 -25 -221q-33 -154 -100.5 -287t-164.5 -233.5t-227.5 -158t-279.5 -57.5q-121 0 -214.5 38.5t-152 108t-88 162.5t-29.5 207zM320 504 q0 -110 28.5 -199.5t84.5 -156t145 -103t204 -36.5q142 0 267 55t217.5 151.5t157.5 224.5t97 278q24 113 24 215q0 110 -28.5 199.5t-84.5 156t-145 103t-204 36.5q-142 0 -267 -55t-217.5 -152t-157.5 -225t-97 -278q-24 -112 -24 -214zM865 1640l321 340h29l177 -340h-30 l-166 320l-302 -320h-29z" />
<glyph unicode="&#xd5;" d="M292 498q0 100 25 220q33 154 100.5 287t164.5 234t227.5 158.5t279.5 57.5q121 0 214.5 -38.5t152 -108t88 -162.5t29.5 -207q0 -101 -25 -221q-33 -154 -100.5 -287t-164.5 -233.5t-227.5 -158t-279.5 -57.5q-121 0 -214.5 38.5t-152 108t-88 162.5t-29.5 207zM320 504 q0 -110 28.5 -199.5t84.5 -156t145 -103t204 -36.5q142 0 267 55t217.5 151.5t157.5 224.5t97 278q24 113 24 215q0 110 -28.5 199.5t-84.5 156t-145 103t-204 36.5q-142 0 -267 -55t-217.5 -152t-157.5 -225t-97 -278q-24 -112 -24 -214zM847 1779q42 65 99 103t117 38 q50 0 83 -24l130 -90q41 -28 68 -28q37 0 71.5 30t52.5 79l23 -9q-21 -54 -64.5 -90t-87.5 -36q-36 0 -82 32l-130 89q-29 20 -69 20q-108 0 -188 -123z" />
<glyph unicode="&#xd6;" d="M292 498q0 100 25 220q33 154 100.5 287t164.5 234t227.5 158.5t279.5 57.5q121 0 214.5 -38.5t152 -108t88 -162.5t29.5 -207q0 -101 -25 -221q-33 -154 -100.5 -287t-164.5 -233.5t-227.5 -158t-279.5 -57.5q-121 0 -214.5 38.5t-152 108t-88 162.5t-29.5 207zM320 504 q0 -110 28.5 -199.5t84.5 -156t145 -103t204 -36.5q142 0 267 55t217.5 151.5t157.5 224.5t97 278q24 113 24 215q0 110 -28.5 199.5t-84.5 156t-145 103t-204 36.5q-142 0 -267 -55t-217.5 -152t-157.5 -225t-97 -278q-24 -112 -24 -214zM964 1843l8 35h34l-7 -35h-35z M1344 1843l8 35h35l-8 -35h-35z" />
<glyph unicode="&#xd7;" horiz-adv-x="782" d="M147 305l353 291l-229 291l22 19l230 -291l353 291l14 -19l-353 -291l230 -291l-23 -19l-229 291l-353 -291z" />
<glyph unicode="&#xd8;" d="M292 498q0 100 25 220q33 154 100.5 287t164.5 234t227.5 158.5t279.5 57.5q161 0 270 -66l97 147h30l-106 -161q96 -66 144.5 -178.5t48.5 -257.5q0 -101 -25 -221q-33 -154 -100.5 -287t-164.5 -233.5t-227.5 -158t-279.5 -57.5q-158 0 -270 66l-99 -150h-29l107 163 q-96 65 -144.5 178t-48.5 259zM320 504q0 -292 182 -418l841 1278q-106 64 -260 64q-142 0 -267 -55t-217.5 -152t-157.5 -225t-97 -278q-24 -112 -24 -214zM523 73q106 -64 259 -64q142 0 267 55t217.5 151.5t157.5 224.5t97 278q24 113 24 215q0 290 -181 417z" />
<glyph unicode="&#xd9;" horiz-adv-x="1423" d="M304 296q0 77 21 173l205 965h27l-205 -965q-21 -102 -21 -168q0 -153 92.5 -223t290.5 -70q245 0 376 108.5t183 352.5l205 965h26l-205 -965q-54 -256 -194 -371.5t-396 -115.5q-208 0 -306.5 75.5t-98.5 238.5zM1001 1980h30l207 -340h-30z" />
<glyph unicode="&#xda;" horiz-adv-x="1423" d="M304 296q0 77 21 173l205 965h27l-205 -965q-21 -102 -21 -168q0 -153 92.5 -223t290.5 -70q245 0 376 108.5t183 352.5l205 965h26l-205 -965q-54 -256 -194 -371.5t-396 -115.5q-208 0 -306.5 75.5t-98.5 238.5zM856 1640l351 340h30l-352 -340h-29z" />
<glyph unicode="&#xdb;" horiz-adv-x="1423" d="M304 296q0 77 21 173l205 965h27l-205 -965q-21 -102 -21 -168q0 -153 92.5 -223t290.5 -70q245 0 376 108.5t183 352.5l205 965h26l-205 -965q-54 -256 -194 -371.5t-396 -115.5q-208 0 -306.5 75.5t-98.5 238.5zM791 1640l321 340h29l177 -340h-30l-166 320l-303 -320 h-28z" />
<glyph unicode="&#xdc;" horiz-adv-x="1423" d="M304 296q0 77 21 173l205 965h27l-205 -965q-21 -102 -21 -168q0 -153 92.5 -223t290.5 -70q245 0 376 108.5t183 352.5l205 965h26l-205 -965q-54 -256 -194 -371.5t-396 -115.5q-208 0 -306.5 75.5t-98.5 238.5zM890 1843l8 35h34l-7 -35h-35zM1270 1843l8 35h34 l-7 -35h-35z" />
<glyph unicode="&#xdd;" horiz-adv-x="1173" d="M346 1434h31l326 -891l705 891h31l-729 -921l-109 -513h-26l108 512zM782 1640l352 340h29l-351 -340h-30z" />
<glyph unicode="&#xde;" horiz-adv-x="1263" d="M225 0l305 1434h27l-53 -248h503q140 0 226.5 -80.5t86.5 -218.5q0 -45 -11 -98q-27 -127 -99 -217.5t-167 -133.5t-204 -43h-503l-84 -395h-27zM341 421h503q157 0 278.5 95.5t159.5 272.5q10 46 10 92q0 129 -80.5 203.5t-210.5 74.5h-503z" />
<glyph unicode="&#xdf;" horiz-adv-x="1290" d="M225 0l228 1072q34 163 156.5 262.5t272.5 99.5h204q127 0 206.5 -73.5t79.5 -199.5q0 -45 -10 -89q-29 -135 -110.5 -223t-194.5 -120q97 -22 154 -93t57 -177q0 -44 -10 -90q-25 -119 -93 -204t-158 -125t-193 -40h-392l6 27h391q149 0 263 89t149 253q10 50 10 84 q0 120 -76.5 189.5t-199.5 69.5h-133l5 27h102q142 0 252 86.5t144 246.5q10 48 10 83q0 116 -73 184t-191 68h-204q-139 0 -252 -92t-145 -243l-228 -1072h-27z" />
<glyph unicode="&#xe0;" horiz-adv-x="1138" d="M205 300q0 84 23 194q51 238 180 377.5t323 139.5q192 0 333 -124l22 102h25l-189 -886l5 -29q4 -28 17.5 -38.5t42.5 -10.5h56l-5 -25h-57q-69 0 -79 66l-5 32q-185 -120 -390 -120q-150 0 -226 82t-76 240zM230 306q0 -303 284 -303q205 0 389 126l155 727 q-136 130 -332 130q-182 0 -303 -132t-170 -360q-23 -107 -23 -188zM752 1536h30l207 -341h-30z" />
<glyph unicode="&#xe1;" horiz-adv-x="1138" d="M205 300q0 84 23 194q51 238 180 377.5t323 139.5q192 0 333 -124l22 102h25l-189 -886l5 -29q4 -28 17.5 -38.5t42.5 -10.5h56l-5 -25h-57q-69 0 -79 66l-5 32q-185 -120 -390 -120q-150 0 -226 82t-76 240zM230 306q0 -303 284 -303q205 0 389 126l155 727 q-136 130 -332 130q-182 0 -303 -132t-170 -360q-23 -107 -23 -188zM680 1195l352 341h29l-351 -341h-30z" />
<glyph unicode="&#xe2;" horiz-adv-x="1138" d="M205 300q0 84 23 194q51 238 180 377.5t323 139.5q192 0 333 -124l22 102h25l-189 -886l5 -29q4 -28 17.5 -38.5t42.5 -10.5h56l-5 -25h-57q-69 0 -79 66l-5 32q-185 -120 -390 -120q-150 0 -226 82t-76 240zM230 306q0 -303 284 -303q205 0 389 126l155 727 q-136 130 -332 130q-182 0 -303 -132t-170 -360q-23 -107 -23 -188zM571 1195l321 341h29l177 -341h-30l-166 321l-303 -321h-28z" />
<glyph unicode="&#xe3;" horiz-adv-x="1138" d="M205 300q0 84 23 194q51 238 180 377.5t323 139.5q192 0 333 -124l22 102h25l-189 -886l5 -29q4 -28 17.5 -38.5t42.5 -10.5h56l-5 -25h-57q-69 0 -79 66l-5 32q-185 -120 -390 -120q-150 0 -226 82t-76 240zM230 306q0 -303 284 -303q205 0 389 126l155 727 q-136 130 -332 130q-182 0 -303 -132t-170 -360q-23 -107 -23 -188zM527 1335q42 65 99 102.5t117 37.5q49 0 82 -24l130 -89q41 -28 69 -28q37 0 71.5 29.5t52.5 78.5l22 -9q-21 -54 -64.5 -90t-87.5 -36q-35 0 -81 32l-130 90q-29 20 -70 20q-107 0 -187 -123z" />
<glyph unicode="&#xe4;" horiz-adv-x="1138" d="M205 300q0 84 23 194q51 238 180 377.5t323 139.5q192 0 333 -124l22 102h25l-189 -886l5 -29q4 -28 17.5 -38.5t42.5 -10.5h56l-5 -25h-57q-69 0 -79 66l-5 32q-185 -120 -390 -120q-150 0 -226 82t-76 240zM230 306q0 -303 284 -303q205 0 389 126l155 727 q-136 130 -332 130q-182 0 -303 -132t-170 -360q-23 -107 -23 -188zM646 1399l7 35h35l-7 -35h-35zM1026 1399l7 35h35l-7 -35h-35z" />
<glyph unicode="&#xe5;" horiz-adv-x="1138" d="M205 300q0 84 23 194q51 238 180 377.5t323 139.5q192 0 333 -124l22 102h25l-189 -886l5 -29q4 -28 17.5 -38.5t42.5 -10.5h56l-5 -25h-57q-69 0 -79 66l-5 32q-185 -120 -390 -120q-150 0 -226 82t-76 240zM230 306q0 -303 284 -303q205 0 389 126l155 727 q-136 130 -332 130q-182 0 -303 -132t-170 -360q-23 -107 -23 -188zM618 1329q0 108 86.5 191t192.5 83q81 0 132 -51t51 -128q0 -108 -86.5 -191t-192.5 -83q-81 0 -132 51t-51 128zM645 1335q0 -68 45.5 -113t116.5 -45q94 0 170 73t76 168q0 68 -45.5 113t-116.5 45 q-94 0 -170 -73t-76 -168z" />
<glyph unicode="&#xe6;" horiz-adv-x="1763" d="M179 183q0 36 8 71q11 52 34.5 94.5t53.5 71t67.5 51t76.5 33.5t79.5 20t78 10t71 3t58.5 0h8h7h7h234l40 186q8 43 8 72q0 197 -283 197q-97 0 -310 -35l-2 24q6 1 45.5 7.5t63.5 10t63 8.5t75.5 7.5t70.5 2.5q302 0 302 -213q0 -36 -9 -81l-8 -40q73 150 195 238 t280 88q291 0 291 -300q0 -81 -20 -181l-4 -19h-779l-3 -15q-16 -76 -16 -148q0 -156 80.5 -249t237.5 -93q158 0 335 49l2 -24q-177 -49 -342 -49q-158 0 -243.5 88.5t-94.5 237.5l-43 -203l14 -103h-24l-15 99q-191 -120 -399 -120q-59 0 -108 9.5t-92 31.5t-67 63.5 t-24 99.5zM204 187q0 -183 268 -183q209 0 404 126l81 382h-234h-23q-42 1 -67.5 0.5t-77 -5t-87 -13.5t-82 -28t-77.5 -45.5t-58.5 -69.5t-38.5 -97q-8 -38 -8 -67zM988 535h752q18 90 18 168q0 282 -270 282q-184 0 -315.5 -125.5t-184.5 -324.5z" />
<glyph unicode="&#xe7;" horiz-adv-x="997" d="M211 340q0 71 17 154q23 108 70.5 200.5t115 163t159 111t195.5 40.5q95 0 187 -16q109 -21 109 -126q0 -25 -6 -54l-4 -16h-24l3 16q6 25 6 48q0 92 -94 108q-92 16 -182 16q-193 0 -329 -138.5t-181 -352.5q-17 -80 -17 -148q0 -156 80.5 -249t237.5 -93q158 0 335 49 l2 -24q-158 -44 -308 -49h-20l-46 -66h47q64 0 97 -31t33 -77q0 -14 -3 -27q-12 -56 -58 -94.5t-102 -54t-117 -15.5q-68 0 -125 10l11 27q55 -10 120 -10q87 0 158.5 35t85.5 102q2 7 2 22q0 38 -27 62t-81 24h-46h-44l65 93q-159 5 -240.5 102.5t-81.5 257.5z" />
<glyph unicode="&#xe8;" horiz-adv-x="997" d="M211 340q0 71 17 154q23 108 70.5 200.5t115 163t159 111t195.5 40.5q64 0 113.5 -12.5t78 -32t46.5 -46.5t24 -51.5t6 -51.5q0 -84 -54.5 -162.5t-154.5 -127.5q-65 -32 -143 -55t-175.5 -36.5t-138 -18t-131.5 -12.5q-3 -30 -3 -57q0 -156 80.5 -249t237.5 -93 q151 0 335 49l2 -24q-177 -49 -342 -49q-167 0 -252.5 98t-85.5 262zM241 428q246 21 370 49q123 28 209 70q91 44 141 116t50 147q0 31 -10.5 58.5t-35.5 55.5t-77 44.5t-125 16.5q-193 0 -329 -138.5t-181 -352.5q-8 -37 -12 -66zM762 1536h29l207 -341h-30z" />
<glyph unicode="&#xe9;" horiz-adv-x="997" d="M211 340q0 71 17 154q23 108 70.5 200.5t115 163t159 111t195.5 40.5q64 0 113.5 -12.5t78 -32t46.5 -46.5t24 -51.5t6 -51.5q0 -84 -54.5 -162.5t-154.5 -127.5q-65 -32 -143 -55t-175.5 -36.5t-138 -18t-131.5 -12.5q-3 -30 -3 -57q0 -156 80.5 -249t237.5 -93 q151 0 335 49l2 -24q-177 -49 -342 -49q-167 0 -252.5 98t-85.5 262zM241 428q246 21 370 49q123 28 209 70q91 44 141 116t50 147q0 31 -10.5 58.5t-35.5 55.5t-77 44.5t-125 16.5q-193 0 -329 -138.5t-181 -352.5q-8 -37 -12 -66zM616 1195l352 341h29l-351 -341h-30z" />
<glyph unicode="&#xea;" horiz-adv-x="997" d="M211 340q0 71 17 154q23 108 70.5 200.5t115 163t159 111t195.5 40.5q64 0 113.5 -12.5t78 -32t46.5 -46.5t24 -51.5t6 -51.5q0 -84 -54.5 -162.5t-154.5 -127.5q-65 -32 -143 -55t-175.5 -36.5t-138 -18t-131.5 -12.5q-3 -30 -3 -57q0 -156 80.5 -249t237.5 -93 q151 0 335 49l2 -24q-177 -49 -342 -49q-167 0 -252.5 98t-85.5 262zM241 428q246 21 370 49q123 28 209 70q91 44 141 116t50 147q0 31 -10.5 58.5t-35.5 55.5t-77 44.5t-125 16.5q-193 0 -329 -138.5t-181 -352.5q-8 -37 -12 -66zM551 1195l321 341h30l177 -341h-30 l-166 321l-303 -321h-29z" />
<glyph unicode="&#xeb;" horiz-adv-x="997" d="M211 340q0 71 17 154q23 108 70.5 200.5t115 163t159 111t195.5 40.5q64 0 113.5 -12.5t78 -32t46.5 -46.5t24 -51.5t6 -51.5q0 -84 -54.5 -162.5t-154.5 -127.5q-65 -32 -143 -55t-175.5 -36.5t-138 -18t-131.5 -12.5q-3 -30 -3 -57q0 -156 80.5 -249t237.5 -93 q151 0 335 49l2 -24q-177 -49 -342 -49q-167 0 -252.5 98t-85.5 262zM241 428q246 21 370 49q123 28 209 70q91 44 141 116t50 147q0 31 -10.5 58.5t-35.5 55.5t-77 44.5t-125 16.5q-193 0 -329 -138.5t-181 -352.5q-8 -37 -12 -66zM651 1399l7 35h35l-8 -35h-34zM1031 1399 l7 35h35l-7 -35h-35z" />
<glyph unicode="&#xec;" horiz-adv-x="448" d="M229 0l189 887q3 14 3 25q0 53 -64 53h-60l5 24h60q84 0 84 -71q0 -9 -4 -31l-188 -887h-25zM439 1536h29l208 -341h-30z" />
<glyph unicode="&#xed;" horiz-adv-x="448" d="M229 0l189 887q3 14 3 25q0 53 -64 53h-60l5 24h60q84 0 84 -71q0 -9 -4 -31l-188 -887h-25zM294 1195l351 341h30l-352 -341h-29z" />
<glyph unicode="&#xee;" horiz-adv-x="448" d="M229 0l189 887q3 14 3 25q0 53 -64 53h-60l5 24h60q84 0 84 -71q0 -9 -4 -31l-188 -887h-25zM230 1195l320 341h29l177 -341h-30l-166 321l-303 -321h-27z" />
<glyph unicode="&#xef;" horiz-adv-x="448" d="M229 0l189 887q3 14 3 25q0 53 -64 53h-60l5 24h60q84 0 84 -71q0 -9 -4 -31l-188 -887h-25zM328 1399l8 35h34l-7 -35h-35zM708 1399l8 35h34l-7 -35h-35z" />
<glyph unicode="&#xf0;" horiz-adv-x="1222" d="M217 337q0 57 14 122q43 205 186 342t336 137q133 0 230 -66.5t136 -177.5q29 134 29 252q0 229 -105 363l-291 -240l-15 19l290 238q-93 93 -229 93q-155 0 -305 -64l-6 24q161 67 316 67q78 0 137 -24t110 -76l231 190l15 -19l-230 -189q109 -140 109 -377 q0 -120 -29 -257q-28 -129 -59 -228.5t-80 -194t-110 -156.5t-148.5 -99t-194.5 -37q-158 0 -247.5 100t-89.5 258zM245 343q0 -149 84 -243t233 -94q95 0 172.5 31.5t134 85t102.5 135t77 171t58 204.5q-26 126 -122 202.5t-237 76.5q-180 0 -314 -129t-176 -324 q-12 -60 -12 -116z" />
<glyph unicode="&#xf1;" horiz-adv-x="1167" d="M209 0l188 887q3 14 3 25q0 53 -64 53h-59l5 24h59q85 0 85 -71q0 -9 -4 -31l-12 -57q95 70 222 126.5t257 56.5t183.5 -55.5t53.5 -155.5q0 -61 -16 -139l-106 -499q-5 -27 -5 -44q0 -94 109 -95h3l-5 -25h-4q-129 2 -129 114q0 23 6 50l106 499q17 83 17 137 q0 91 -49 139.5t-169 48.5q-72 0 -148 -20t-140.5 -52.5t-109.5 -61t-83 -57.5l-170 -797h-24zM561 1335q42 65 99 102.5t117 37.5q50 0 83 -24l130 -89q41 -28 69 -28q37 0 71 29.5t52 78.5l23 -9q-21 -54 -64.5 -90t-87.5 -36q-36 0 -82 32l-130 90q-29 20 -69 20 q-108 0 -188 -123z" />
<glyph unicode="&#xf2;" horiz-adv-x="1105" d="M211 340q0 71 17 154q23 108 70.5 200.5t115 163t159 111t195.5 40.5q167 0 252.5 -98.5t85.5 -262.5q0 -71 -17 -154q-31 -145 -102.5 -259.5t-185.5 -184.5t-252 -70q-167 0 -252.5 98t-85.5 262zM236 346q0 -156 80.5 -249t237.5 -93q193 0 329 138t181 352 q17 80 17 149q0 156 -80.5 249t-237.5 93q-193 0 -329 -138.5t-181 -352.5q-17 -80 -17 -148zM753 1536h30l207 -341h-30z" />
<glyph unicode="&#xf3;" horiz-adv-x="1105" d="M211 340q0 71 17 154q23 108 70.5 200.5t115 163t159 111t195.5 40.5q167 0 252.5 -98.5t85.5 -262.5q0 -71 -17 -154q-31 -145 -102.5 -259.5t-185.5 -184.5t-252 -70q-167 0 -252.5 98t-85.5 262zM236 346q0 -156 80.5 -249t237.5 -93q193 0 329 138t181 352 q17 80 17 149q0 156 -80.5 249t-237.5 93q-193 0 -329 -138.5t-181 -352.5q-17 -80 -17 -148zM608 1195l352 341h29l-351 -341h-30z" />
<glyph unicode="&#xf4;" horiz-adv-x="1105" d="M211 340q0 71 17 154q23 108 70.5 200.5t115 163t159 111t195.5 40.5q167 0 252.5 -98.5t85.5 -262.5q0 -71 -17 -154q-31 -145 -102.5 -259.5t-185.5 -184.5t-252 -70q-167 0 -252.5 98t-85.5 262zM236 346q0 -156 80.5 -249t237.5 -93q193 0 329 138t181 352 q17 80 17 149q0 156 -80.5 249t-237.5 93q-193 0 -329 -138.5t-181 -352.5q-17 -80 -17 -148zM543 1195l321 341h30l177 -341h-30l-166 321l-303 -321h-29z" />
<glyph unicode="&#xf5;" horiz-adv-x="1105" d="M211 340q0 71 17 154q23 108 70.5 200.5t115 163t159 111t195.5 40.5q167 0 252.5 -98.5t85.5 -262.5q0 -71 -17 -154q-31 -145 -102.5 -259.5t-185.5 -184.5t-252 -70q-167 0 -252.5 98t-85.5 262zM236 346q0 -156 80.5 -249t237.5 -93q193 0 329 138t181 352 q17 80 17 149q0 156 -80.5 249t-237.5 93q-193 0 -329 -138.5t-181 -352.5q-17 -80 -17 -148zM525 1335q42 65 99 102.5t117 37.5q50 0 83 -24l130 -89q41 -28 69 -28q37 0 71 29.5t52 78.5l23 -9q-21 -54 -64.5 -90t-87.5 -36q-36 0 -82 32l-130 90q-29 20 -69 20 q-108 0 -188 -123z" />
<glyph unicode="&#xf6;" horiz-adv-x="1105" d="M211 340q0 71 17 154q23 108 70.5 200.5t115 163t159 111t195.5 40.5q167 0 252.5 -98.5t85.5 -262.5q0 -71 -17 -154q-31 -145 -102.5 -259.5t-185.5 -184.5t-252 -70q-167 0 -252.5 98t-85.5 262zM236 346q0 -156 80.5 -249t237.5 -93q193 0 329 138t181 352 q17 80 17 149q0 156 -80.5 249t-237.5 93q-193 0 -329 -138.5t-181 -352.5q-17 -80 -17 -148zM642 1399l8 35h35l-8 -35h-35zM1023 1399l7 35h35l-8 -35h-34z" />
<glyph unicode="&#xf7;" horiz-adv-x="980" d="M198 624l6 26h850l-6 -26h-850zM523 236l10 46h35l-10 -46h-35zM684 992l10 46h34l-9 -46h-35z" />
<glyph unicode="&#xf8;" horiz-adv-x="1105" d="M211 340q0 71 17 154q23 108 70.5 200.5t115 163t159 111t195.5 40.5q108 0 185 -44l84 127h30l-93 -140q132 -93 132 -304q0 -71 -17 -154q-31 -145 -102.5 -259.5t-185.5 -184.5t-252 -70q-112 0 -186 44l-83 -126h-30l92 139q-131 93 -131 303zM236 346 q0 -199 121 -286l581 882q-75 43 -175 43q-193 0 -329 -138.5t-181 -352.5q-17 -80 -17 -148zM378 47q72 -43 176 -43q193 0 329 138t181 352q17 80 17 149q0 198 -122 286z" />
<glyph unicode="&#xf9;" horiz-adv-x="1142" d="M226 186q0 64 17 140l141 663h25l-141 -663q-16 -78 -16 -137q0 -91 49 -139.5t170 -48.5q71 0 147 20t140 52.5t109.5 61t82.5 57.5l170 797h24l-175 -825q-5 -27 -5 -44q0 -95 113 -95l-6 -25h-5q-127 3 -127 114q0 23 4 44q-95 -68 -225.5 -124.5t-255.5 -56.5 q-129 0 -182.5 55t-53.5 154zM733 1536h30l207 -341h-30z" />
<glyph unicode="&#xfa;" horiz-adv-x="1142" d="M226 186q0 64 17 140l141 663h25l-141 -663q-16 -78 -16 -137q0 -91 49 -139.5t170 -48.5q71 0 147 20t140 52.5t109.5 61t82.5 57.5l170 797h24l-175 -825q-5 -27 -5 -44q0 -95 113 -95l-6 -25h-5q-127 3 -127 114q0 23 4 44q-95 -68 -225.5 -124.5t-255.5 -56.5 q-129 0 -182.5 55t-53.5 154zM722 1195l352 341h30l-352 -341h-30z" />
<glyph unicode="&#xfb;" horiz-adv-x="1142" d="M226 186q0 64 17 140l141 663h25l-141 -663q-16 -78 -16 -137q0 -91 49 -139.5t170 -48.5q71 0 147 20t140 52.5t109.5 61t82.5 57.5l170 797h24l-175 -825q-5 -27 -5 -44q0 -95 113 -95l-6 -25h-5q-127 3 -127 114q0 23 4 44q-95 -68 -225.5 -124.5t-255.5 -56.5 q-129 0 -182.5 55t-53.5 154zM613 1195l321 341h30l177 -341h-30l-166 321l-303 -321h-29z" />
<glyph unicode="&#xfc;" horiz-adv-x="1142" d="M226 186q0 64 17 140l141 663h25l-141 -663q-16 -78 -16 -137q0 -91 49 -139.5t170 -48.5q71 0 147 20t140 52.5t109.5 61t82.5 57.5l170 797h24l-175 -825q-5 -27 -5 -44q0 -95 113 -95l-6 -25h-5q-127 3 -127 114q0 23 4 44q-95 -68 -225.5 -124.5t-255.5 -56.5 q-129 0 -182.5 55t-53.5 154zM641 1399l7 35h35l-7 -35h-35zM1021 1399l7 35h35l-7 -35h-35z" />
<glyph unicode="&#xfd;" horiz-adv-x="935" d="M-18 -375l12 25q48 -14 84 -14q24 0 50 8q83 21 145 87.5t125 172.5l59 96h-2l-183 989h26l178 -958l583 958h26l-666 -1095q-65 -109 -132.5 -180t-157.5 -95q-25 -7 -55 -7q-44 0 -92 13zM568 1195l352 341h29l-351 -341h-30z" />
<glyph unicode="&#xfe;" horiz-adv-x="1107" d="M131 -369l361 1700q3 13 3 25q0 53 -64 53h-60l5 25h60q84 0 84 -72q0 -14 -3 -31l-94 -440q187 120 391 120q150 0 226 -80.5t76 -237.5q0 -83 -23 -192q-50 -235 -176 -367.5t-320 -132.5q-199 0 -337 123l-105 -493h-24zM267 155q135 -129 334 -129q182 0 300.5 125 t166.5 350q23 107 23 187q0 148 -71.5 223.5t-212.5 75.5q-206 0 -391 -127z" />
<glyph unicode="&#xff;" horiz-adv-x="935" d="M-18 -375l12 25q48 -14 84 -14q24 0 50 8q83 21 145 87.5t125 172.5l59 96h-2l-183 989h26l178 -958l583 958h26l-666 -1095q-65 -109 -132.5 -180t-157.5 -95q-25 -7 -55 -7q-44 0 -92 13zM556 1399l7 35h35l-7 -35h-35zM936 1399l7 35h35l-7 -35h-35z" />
<glyph unicode="&#x152;" horiz-adv-x="2021" d="M292 498q0 100 25 220q33 154 100.5 287t164.5 234t227.5 158.5t279.5 57.5q174 0 289 -78l12 57h824l-6 -27h-797l-137 -645h692l-6 -27h-692l-150 -708h797l-6 -27h-824l13 60q-148 -78 -322 -78q-121 0 -214.5 38.5t-152 108t-88 162.5t-29.5 207zM320 504 q0 -110 28.5 -199.5t84.5 -156t145 -103t204 -36.5q174 0 323 83l266 1253q-113 83 -288 83q-142 0 -267 -55t-217.5 -152t-157.5 -225t-97 -278q-24 -112 -24 -214z" />
<glyph unicode="&#x153;" horiz-adv-x="2103" d="M211 340q0 71 17 154q23 108 70.5 200.5t115 163t159 111t195.5 40.5q171 0 257 -104t81 -275q68 171 198 275t301 104q64 0 113.5 -12.5t78 -32t46.5 -46.5t24 -51.5t6 -51.5q0 -84 -54.5 -162.5t-154.5 -127.5q-65 -32 -143.5 -55t-176 -36.5t-137.5 -18t-132 -12.5 q-2 -20 -2 -57q0 -156 80.5 -249t237.5 -93q151 0 335 49l2 -24q-177 -49 -342 -49q-171 0 -257 103.5t-81 274.5q-68 -171 -198 -274.5t-301 -103.5q-167 0 -252.5 98t-85.5 262zM236 346q0 -156 80.5 -249t237.5 -93q193 0 329 138t181 352q17 80 17 149q0 156 -80.5 249 t-237.5 93q-193 0 -329 -138.5t-181 -352.5q-17 -80 -17 -148zM1078 428q246 21 370 49q123 28 209 70q91 44 141 116t50 147q0 31 -10.5 59t-36 55.5t-77.5 44t-125 16.5q-193 0 -329 -138.5t-181 -352.5q-5 -25 -11 -66z" />
<glyph unicode="&#x178;" horiz-adv-x="1173" d="M346 1434h31l326 -891l705 891h31l-729 -921l-109 -513h-26l108 512zM753 1843l8 35h34l-7 -35h-35zM1133 1843l8 35h35l-8 -35h-35z" />
<glyph unicode="&#x2c6;" horiz-adv-x="641" d="M311 1195l321 341h30l177 -341h-30l-166 321l-303 -321h-29z" />
<glyph unicode="&#x2dc;" horiz-adv-x="770" d="M357 1335q42 65 99.5 102.5t117.5 37.5q49 0 82 -24l130 -89q41 -28 69 -28q37 0 71 29.5t52 78.5l23 -9q-21 -54 -64.5 -90t-87.5 -36q-36 0 -82 32l-130 90q-29 20 -69 20q-107 0 -187 -123z" />
<glyph unicode="&#x2000;" horiz-adv-x="1023" />
<glyph unicode="&#x2001;" horiz-adv-x="2047" />
<glyph unicode="&#x2002;" horiz-adv-x="1023" />
<glyph unicode="&#x2003;" horiz-adv-x="2047" />
<glyph unicode="&#x2004;" horiz-adv-x="682" />
<glyph unicode="&#x2005;" horiz-adv-x="511" />
<glyph unicode="&#x2006;" horiz-adv-x="341" />
<glyph unicode="&#x2007;" horiz-adv-x="341" />
<glyph unicode="&#x2008;" horiz-adv-x="255" />
<glyph unicode="&#x2009;" horiz-adv-x="409" />
<glyph unicode="&#x200a;" horiz-adv-x="113" />
<glyph unicode="&#x2010;" horiz-adv-x="714" d="M235 624l6 26h510l-6 -26h-510z" />
<glyph unicode="&#x2011;" horiz-adv-x="714" d="M235 624l6 26h510l-6 -26h-510z" />
<glyph unicode="&#x2012;" horiz-adv-x="714" d="M235 624l6 26h510l-6 -26h-510z" />
<glyph unicode="&#x2013;" horiz-adv-x="970" d="M235 624l6 26h766l-6 -26h-766z" />
<glyph unicode="&#x2014;" horiz-adv-x="1310" d="M235 624l6 26h1106l-6 -26h-1106z" />
<glyph unicode="&#x2018;" horiz-adv-x="157" d="M356 1388l9 42l21 34h22l-19 -30h12l-10 -46h-35z" />
<glyph unicode="&#x2019;" horiz-adv-x="157" d="M356 1388l19 30h-12l10 46h35l-10 -42l-20 -34h-22z" />
<glyph unicode="&#x201a;" horiz-adv-x="157" d="M55 -31l18 31h-12l10 46h35l-9 -43l-20 -34h-22z" />
<glyph unicode="&#x201c;" horiz-adv-x="251" d="M356 1388l9 42l21 34h22l-19 -30h12l-10 -46h-35zM452 1388l9 42l20 34h22l-19 -30h12l-10 -46h-34z" />
<glyph unicode="&#x201d;" horiz-adv-x="251" d="M356 1388l19 30h-12l10 46h35l-10 -42l-20 -34h-22zM452 1388l18 30h-12l10 46h35l-9 -42l-21 -34h-21z" />
<glyph unicode="&#x201e;" horiz-adv-x="251" d="M55 -31l18 31h-12l10 46h35l-9 -43l-20 -34h-22zM150 -31l18 31h-11l9 46h35l-9 -43l-20 -34h-22z" />
<glyph unicode="&#x2022;" horiz-adv-x="286" d="M189 504l26 123h123l-26 -123h-123z" />
<glyph unicode="&#x2026;" horiz-adv-x="608" d="M82 0l10 46h35l-10 -46h-35zM287 0l10 46h35l-10 -46h-35zM492 0l10 46h34l-9 -46h-35z" />
<glyph unicode="&#x202f;" horiz-adv-x="409" />
<glyph unicode="&#x2039;" horiz-adv-x="364" d="M186 452l253 484h28l-253 -483l54 -453h-28z" />
<glyph unicode="&#x203a;" horiz-adv-x="364" d="M98 0l246 453l-47 483h28l47 -484l-246 -452h-28z" />
<glyph unicode="&#x205f;" horiz-adv-x="511" />
<glyph unicode="&#x20ac;" horiz-adv-x="1449" d="M280 548l6 26h140q5 62 22 144q17 77 35 132h-139l6 27h142q61 169 162.5 297t248 204.5t317.5 76.5q254 0 381 -165l-23 -19q-119 157 -364 157q-242 0 -423.5 -151t-271.5 -400h758l-5 -27h-762q-21 -64 -36 -132q-14 -62 -21 -144h624l-6 -26h-620q-6 -118 20 -216 t81.5 -170.5t147.5 -113t213 -40.5q243 0 430 157l15 -18q-197 -165 -451 -165q-121 0 -214.5 38.5t-152 108t-88 162.5t-29.5 207q0 33 1 50h-144z" />
<glyph unicode="&#x2122;" horiz-adv-x="1544" d="M402 1408l5 26h476l-5 -26h-225l-150 -703h-26l150 703h-225zM868 705l155 729h23l161 -692l455 692h23l-155 -729h-25l140 661l-435 -661h-22l-154 661l-141 -661h-25z" />
<glyph unicode="&#xe000;" horiz-adv-x="993" d="M0 0v993h993v-993h-993z" />
<glyph unicode="&#xfb03;" horiz-adv-x="1642" d="M41 -268q147 24 179 176l225 1057h-138l6 24h137l54 256q32 151 162 190q48 14 114 14q61 0 143 -12l-9 -24q-97 13 -144 13q-56 0 -102 -14q-111 -34 -139 -167l-55 -256h588l55 256q32 151 161 190q48 14 114 14q62 0 144 -12l-10 -24q-97 13 -144 13q-56 0 -102 -14 q-111 -34 -139 -167l-54 -256h510q84 0 84 -71q0 -9 -4 -31l-188 -887h-25l189 887q3 13 3 25q0 53 -64 53h-510l-225 -1057q-37 -174 -204 -199l1 23q146 24 178 176l225 1057h-588l-224 -1057q-37 -174 -204 -199v23z" />
<glyph unicode="&#xfb04;" horiz-adv-x="1779" d="M41 -268q147 24 179 176l225 1057h-138l6 24h137l54 256q30 139 140 182q55 23 137 23q53 0 142 -13l-9 -24q-92 12 -143 12q-77 0 -125 -20q-91 -38 -117 -160l-55 -256h588l55 256q29 135 134 180q57 25 141 25q58 0 143 -13h259l-270 -1270q-5 -27 -5 -44 q0 -95 113 -95l-5 -25h-5q-128 3 -128 114q0 23 6 50l264 1245h-234q-100 13 -146 13q-78 0 -128 -22q-90 -39 -115 -158l-54 -256h301l-6 -24h-300l-225 -1057q-37 -174 -204 -199l1 23q146 24 178 176l225 1057h-588l-224 -1057q-37 -174 -204 -199v23z" />
</font>
</defs>
</svg>
