<?xml version="1.0" standalone="no"?>
<!DOCTYPE svg PUBLIC "-//W3C//DTD SVG 1.1//EN" "http://www.w3.org/Graphics/SVG/1.1/DTD/svg11.dtd" >
<svg xmlns="http://www.w3.org/2000/svg">
<metadata></metadata>
<defs>
<font id="regan_altextrabold" horiz-adv-x="1574" >
<font-face units-per-em="2048" ascent="1536" descent="-512" />
<missing-glyph horiz-adv-x="614" />
<glyph unicode="&#xfb01;" horiz-adv-x="1253" d="M69 749v240h144v111q0 235 162 313q80 38 189 38q96 0 190 -28l-37 -212q-49 7 -87 7q-43 0 -67 -10q-59 -24 -59 -109v-110h453q100 0 152.5 -60.5t52.5 -176.5v-752h-293v663q0 39 -22 62.5t-60 23.5h-283v-749h-291v749h-144z" />
<glyph unicode="&#xfb02;" horiz-adv-x="1380" d="M69 749v240h144v111q0 254 204 322q72 28 162 28q91 0 175 -27h430v-1127q0 -51 24.5 -76.5t80.5 -31.5v-187h-141q-125 1 -190.5 67t-65.5 191v951h-174q-51 8 -86 8q-69 0 -98.5 -30t-29.5 -88v-111h209v-240h-209v-749h-291v749h-144z" />
<glyph horiz-adv-x="2048" />
<glyph horiz-adv-x="2048" />
<glyph unicode="&#xd;" horiz-adv-x="2048" />
<glyph unicode=" "  horiz-adv-x="614" />
<glyph unicode="&#x09;" horiz-adv-x="614" />
<glyph unicode="&#xa0;" horiz-adv-x="614" />
<glyph unicode="!" horiz-adv-x="514" d="M111 0v236h295v-236h-295zM112 1434h292l-27 -997h-238z" />
<glyph unicode="&#x22;" horiz-adv-x="655" d="M62 913v521h184v-521h-184zM410 913v521h185v-521h-185z" />
<glyph unicode="#" horiz-adv-x="1413" d="M34 360v182h257l77 358h-334v181h372l76 353h207l-75 -353h335l76 353h208l-76 -353h223v-181h-262l-76 -358h338v-182h-376l-76 -360h-208l76 360h-335l-77 -360h-207l76 360h-219zM499 542h335l77 358h-336z" />
<glyph unicode="$" horiz-adv-x="1153" d="M70 1031q0 97 32.5 173t89.5 124.5t124.5 77t147.5 42.5v135h219v-126q178 -10 365 -72v-279q-190 72 -369 72q-238 0 -238 -146q0 -103 180 -160l79 -25q95 -31 161.5 -63t122.5 -78.5t84 -110.5t28 -146q0 -187 -109 -306.5t-304 -150.5v-139h-219v122q-209 9 -381 65 v289q245 -71 411 -71q117 0 175 45t58 117q0 67 -54 103t-181 76l-84 26q-72 23 -128.5 54t-106 78t-76.5 116.5t-27 157.5z" />
<glyph unicode="%" horiz-adv-x="1650" d="M55 1072q0 157 93.5 266t240.5 109t241.5 -109t94.5 -266q0 -158 -94.5 -266.5t-241.5 -108.5t-240.5 108.5t-93.5 266.5zM211 -35l978 1503h244l-978 -1503h-244zM250 1072q0 -78 36.5 -128t102.5 -50q67 0 104 49.5t37 128.5q0 78 -37.5 128t-103.5 50q-65 0 -102 -50 t-37 -128zM927 362q0 157 94 266t241 109t241 -109t94 -266q0 -158 -94 -267t-241 -109t-241 109t-94 267zM1122 362q0 -78 37 -128t103 -50q67 0 103.5 49.5t36.5 128.5q0 78 -37 127.5t-103 49.5t-103 -49.5t-37 -127.5z" />
<glyph unicode="&#x26;" d="M69 385q0 141 100.5 243t255.5 141l30 12l-102 112q-51 55 -77.5 108.5t-26.5 130.5q0 63 27 121t78.5 105.5t138 75.5t195.5 28q113 0 202.5 -29t142 -77t80 -105.5t27.5 -119.5q0 -105 -80.5 -191.5t-238.5 -146.5l-37 -14l279 -295q67 74 115.5 157t102.5 207h212 q-107 -313 -283 -526l293 -322h-336l-135 148q-81 -84 -200 -130.5t-255 -46.5q-226 0 -367 117t-141 297zM350 413q0 -113 63 -172t188 -59q94 0 164 28.5t130 99.5l-324 343l-35 -14q-186 -74 -186 -226zM549 1113q0 -53 15 -88t55 -75l45 -47l43 20q99 45 140 89.5 t41 100.5q0 26 -6.5 49t-22.5 48t-50 39.5t-82 14.5q-94 0 -136 -45.5t-42 -105.5z" />
<glyph unicode="'" horiz-adv-x="307" d="M62 913v521h184v-521h-184z" />
<glyph unicode="(" horiz-adv-x="712" d="M55 542q0 228 80 445q90 245 310 535l206 -145q-174 -228 -261 -464q-66 -179 -64 -367q-2 -188 64 -367q87 -238 263 -465l-211 -139q-220 294 -307 532q-80 219 -80 435z" />
<glyph unicode=")" horiz-adv-x="712" d="M62 -285q176 227 263 465q64 173 64 356q0 205 -64 378q-87 236 -261 464l206 144q218 -288 309 -535q81 -221 81 -439t-81 -439q-88 -240 -307 -533z" />
<glyph unicode="*" horiz-adv-x="698" d="M41 1159l43 131l198 -65v209h137v-209l198 65l43 -131l-199 -64l123 -169l-111 -81l-123 169l-122 -169l-111 81l123 169z" />
<glyph unicode="+" horiz-adv-x="964" d="M58 503v240h304v304h241v-304h305v-240h-305v-306h-241v306h-304z" />
<glyph unicode="," horiz-adv-x="403" d="M57 0v236h294v-235l-75 -198h-179l74 197h-114z" />
<glyph unicode="-" horiz-adv-x="647" d="M69 517v240h510v-240h-510z" />
<glyph unicode="." horiz-adv-x="405" d="M55 0v236h295v-236h-295z" />
<glyph unicode="/" horiz-adv-x="948" d="M34 0l637 1434h245l-638 -1434h-244z" />
<glyph unicode="0" horiz-adv-x="1372" d="M83 693q0 207 69 367.5t207 255t327 94.5q142 0 257 -54.5t190.5 -150.5t116 -227t40.5 -285q0 -207 -69 -367.5t-207.5 -254.5t-327.5 -94t-327 94t-207 254.5t-69 367.5zM384 693q0 -91 17 -169.5t51 -143t94.5 -102t139.5 -37.5t139.5 37.5t95 102t51.5 143t17 169.5 t-17 169.5t-51.5 143.5t-95 102.5t-139.5 37.5t-139.5 -37.5t-94.5 -102.5t-51 -143.5t-17 -169.5z" />
<glyph unicode="1" horiz-adv-x="663" d="M48 1342l311 56h160v-1398h-292v1159l-142 -27z" />
<glyph unicode="2" horiz-adv-x="1085" d="M71 0v262q286 187 418 359q127 164 127 310q0 112 -61.5 164t-161.5 52q-148 0 -299 -88l-4 267q180 97 393 91q90 -2 174 -31t152 -82t109 -136t41 -185q0 -177 -142 -369q-109 -149 -347 -352h549v-262h-948z" />
<glyph unicode="3" horiz-adv-x="1105" d="M71 86l4 241q114 -78 288 -78q132 0 211 45t79 137q0 75 -65 118t-158 45h-216v219h175q52 1 104.5 18.5t94 59t41.5 98.5q0 79 -69.5 118.5t-179.5 39.5q-152 0 -292 -71l-4 245q173 92 377 92q95 0 183.5 -20t166.5 -60.5t125.5 -112.5t47.5 -166q0 -223 -215 -332 q254 -109 254 -359q0 -74 -23.5 -134t-65.5 -100.5t-94 -70t-114 -45.5t-120 -23.5t-118 -7.5q-109 0 -227.5 24t-189.5 80z" />
<glyph unicode="4" horiz-adv-x="1198" d="M43 370v246l513 782l331 -5l-491 -777h286l111 284h176v-284h168v-246h-163v-370h-292v370h-639z" />
<glyph unicode="5" horiz-adv-x="1128" d="M70 84l4 230q164 -79 321 -79q131 0 208.5 60t77.5 170q0 103 -63 155.5t-184 52.5h-301l11 725h807v-264h-533l-10 -258h146q220 0 355.5 -108t135.5 -313q0 -113 -44 -204.5t-119 -149t-171.5 -88.5t-205.5 -33q-264 -5 -435 104z" />
<glyph unicode="6" horiz-adv-x="1226" d="M82 637q0 140 28 263t83 222.5t142 167.5t198 92q99 26 207 26q138 0 343 -55l-4 -237q-179 73 -315 73q-28 0 -55 -3q-135 -12 -216 -122t-102 -295q56 68 148.5 106t192.5 38q195 0 314.5 -109t119.5 -309q0 -235 -150.5 -376.5t-382.5 -141.5q-264 0 -407.5 176.5 t-143.5 483.5zM418 561q2 -75 12 -129.5t33.5 -100.5t66 -69.5t104.5 -23.5q94 0 153 67.5t59 165.5q0 100 -56.5 166.5t-151.5 66.5q-75 0 -133.5 -39t-86.5 -104z" />
<glyph unicode="7" horiz-adv-x="1081" d="M86 1151v247h942v-187q-173 -290 -280 -517t-153 -378t-72 -318h-302q35 243 128.5 499t319.5 654h-583z" />
<glyph unicode="8" horiz-adv-x="1333" d="M86 380q0 212 248 328q22 11 57 25q-46 23 -97 56q-169 101 -169 280q0 80 35.5 142t90 98.5t129 60.5t144.5 32.5t144 8.5t144 -8.5t144.5 -32.5t129 -60.5t90 -98.5t35.5 -142q0 -180 -169 -281q-39 -26 -97 -55q35 -13 66 -30q239 -117 239 -323q0 -88 -36.5 -158.5 t-95 -114.5t-136.5 -73.5t-155.5 -41.5t-158.5 -12t-158.5 12t-155.5 41.5t-136.5 73.5t-95 114.5t-36.5 158.5zM427 416q0 -102 62 -143.5t181 -41.5t181 41.5t62 143.5q0 76 -50 118t-146 76l-47 16l-47 -16q-96 -34 -146 -76t-50 -118zM450 1033q0 -113 128 -162 q30 -12 90 -32q66 22 91 32q66 25 96.5 64t30.5 98q0 157 -218 157t-218 -157z" />
<glyph unicode="9" horiz-adv-x="1226" d="M63 895q0 235 150.5 376.5t382.5 141.5q264 0 408 -176.5t144 -483.5q0 -188 -48.5 -342t-152 -262.5t-251.5 -140.5q-99 -26 -206 -26q-135 0 -343 54l3 238q182 -74 315 -74q19 0 55 4q135 12 216.5 122.5t102.5 294.5q-56 -68 -149 -106t-193 -38q-195 0 -314.5 109 t-119.5 309zM384 918q0 -100 56 -166.5t151 -66.5q75 0 134 39.5t87 104.5q-2 74 -12 129t-33.5 100.5t-66.5 69t-105 23.5q-94 0 -152.5 -67.5t-58.5 -165.5z" />
<glyph unicode=":" horiz-adv-x="405" d="M57 0v236h294v-236h-294zM57 754v235h294v-235h-294z" />
<glyph unicode=";" horiz-adv-x="405" d="M57 0v236h294v-235l-75 -198h-179l74 197h-114zM57 754v235h294v-235h-294z" />
<glyph unicode="&#x3c;" horiz-adv-x="862" d="M37 510v275l758 401v-274l-513 -258l513 -271v-273z" />
<glyph unicode="=" horiz-adv-x="987" d="M69 387v181h850v-181h-850zM69 761v182h850v-182h-850z" />
<glyph unicode="&#x3e;" horiz-adv-x="862" d="M69 110v273l512 271l-512 258v274l758 -401v-275z" />
<glyph unicode="?" horiz-adv-x="897" d="M41 1380q191 83 363 83q66 0 128.5 -12.5t122 -41t103.5 -70.5t71 -105t27 -139q0 -108 -46.5 -184t-142.5 -145q-10 -7 -40 -27.5t-42.5 -30t-33 -27.5t-34 -36t-23.5 -40q-30 -57 -30 -147v-36h-292v36q0 109 59 200q24 37 60.5 74.5t58 55t61.5 48.5q155 111 155 259 q0 91 -57 135t-155 44q-112 0 -282 -61zM171 0v235h294v-235h-294z" />
<glyph unicode="@" horiz-adv-x="1669" d="M62 502q0 362 208.5 567.5t572.5 205.5q362 0 564 -193t202 -548q0 -186 -76.5 -279t-210.5 -99h-318l-33 49q-39 -28 -98 -45t-115 -17q-130 0 -202 100t-72 265q0 162 74.5 259t206.5 110q27 3 57 3q83 0 168.5 -27.5t156.5 -80.5v-445l22 -45q215 9 215 241 q0 288 -141.5 434.5t-399.5 146.5q-267 0 -411.5 -152.5t-144.5 -449.5q0 -283 132 -431.5t387 -160.5q67 -1 203 10l27 -161q-85 -19 -199 -19q-365 0 -570 203.5t-205 558.5zM677 508q0 -92 37 -141.5t108 -49.5q75 0 142 46v296q-71 39 -139 39q-148 0 -148 -190z" />
<glyph unicode="A" horiz-adv-x="1402" d="M34 0l459 1434h419l459 -1434h-363l-90 313h-430l-90 -313h-364zM526 552h342l-171 585z" />
<glyph unicode="B" horiz-adv-x="1277" d="M124 0v1434h635q184 0 297 -95t113 -269q0 -66 -19.5 -123.5t-50 -94t-58 -59t-52.5 -32.5q24 -8 48.5 -20.5t58.5 -41t59.5 -66t43.5 -98.5t18 -134q0 -401 -485 -401h-608zM442 240h220q84 0 144 46t60 134q0 84 -56.5 132t-137.5 48h-230v-360zM442 840h218 q81 0 134.5 44.5t53.5 132.5q0 83 -54.5 130t-133.5 47h-218v-354z" />
<glyph unicode="C" horiz-adv-x="1333" d="M83 716q0 221 81.5 388.5t242 263t381.5 95.5q177 0 291 -54q160 -75 160 -292v-89h-226l-4 30q-8 91 -76 116q-52 18 -113 18q-178 0 -278.5 -128t-100.5 -348q0 -209 91.5 -335t255.5 -139q31 -3 65 -3q157 0 323 76l63 -235q-185 -111 -451 -111q-221 0 -381.5 95.5 t-242 263t-81.5 388.5z" />
<glyph unicode="D" horiz-adv-x="1427" d="M124 0v1434h518q334 0 519.5 -192t185.5 -525t-185.5 -525t-519.5 -192h-518zM478 240h165q168 0 257.5 131.5t89.5 345.5t-89.5 345.5t-257.5 131.5h-165v-954z" />
<glyph unicode="E" horiz-adv-x="1097" d="M124 0v1434h896v-240h-542v-342h485v-240h-485v-372h556v-240h-910z" />
<glyph unicode="F" horiz-adv-x="1075" d="M124 0v1434h887v-279h-533v-349h454v-240h-454v-566h-354z" />
<glyph unicode="G" horiz-adv-x="1378" d="M70 716q0 221 81.5 388.5t242 263t381.5 95.5q255 0 458 -112l-63 -235q-178 78 -329 78q-32 0 -65 -3q-162 -13 -254.5 -143.5t-92.5 -331.5q0 -103 18.5 -188.5t58.5 -155t109.5 -108.5t164.5 -39q132 0 214 79v282h-254v179h537v-670q-232 -124 -502 -124 q-221 0 -381.5 95t-242 262t-81.5 388z" />
<glyph unicode="H" horiz-adv-x="1452" d="M124 0v1434h354v-579h498v579h353v-1434h-353v616h-498v-616h-354z" />
<glyph unicode="I" horiz-adv-x="602" d="M124 0v1434h354v-1434h-354z" />
<glyph unicode="J" horiz-adv-x="886" d="M50 17v297q88 -34 155 -34q35 0 64 9q64 11 102.5 55.5t38.5 104.5v985h353v-1056q0 -91 -33 -164.5t-90 -120.5t-128 -73.5t-151 -31.5q-40 -8 -82 -8q-106 0 -229 37z" />
<glyph unicode="K" horiz-adv-x="1511" d="M124 0v1434h354v-565h179l337 565h364l-411 -672l187 -346q73 -132 177 -162q43 -15 164 -19l3 -231q-238 -6 -244 -6q-81 0 -133 16q-141 38 -233 211l-211 405h-178v-630h-355z" />
<glyph unicode="L" horiz-adv-x="1005" d="M124 0v1434h354v-1152h495v-282h-849z" />
<glyph unicode="M" horiz-adv-x="1792" d="M121 0v1434h453l322 -844l321 844h453v-1434h-353v867l-328 -867h-187l-327 867v-867h-354z" />
<glyph unicode="N" horiz-adv-x="1433" d="M114 0v1434h371l483 -839v839h353v-1434h-368l-485 844v-844h-354z" />
<glyph unicode="O" d="M83 717q0 221 81.5 388.5t242 263t381.5 95.5t381.5 -95.5t242 -263t81.5 -388.5t-81.5 -388.5t-242 -262.5t-381.5 -95t-381.5 95t-242 262.5t-81.5 388.5zM437 717q0 -82 11 -152.5t37.5 -134t66 -108.5t100 -71t136.5 -26t136.5 26t100.5 71t66.5 108.5t38 134 t11.5 152.5t-11.5 153t-38 134.5t-66.5 108.5t-100.5 71.5t-136.5 26.5q-95 0 -164.5 -39.5t-109.5 -109.5t-58.5 -156t-18.5 -189z" />
<glyph unicode="P" horiz-adv-x="1296" d="M124 0v1434h638q68 0 134.5 -18t129.5 -56.5t110.5 -94t76.5 -136t29 -175.5q0 -123 -58.5 -229t-170 -171.5t-251.5 -65.5h-295v-488h-343zM467 728h209q91 0 152 59t61 170q0 119 -60 178t-154 59h-208v-466z" />
<glyph unicode="Q" d="M83 718q0 221 81.5 388.5t242 263t381.5 95.5t381.5 -95.5t242 -263t81.5 -388.5q0 -222 -84.5 -389.5t-243.5 -247.5l47 -42q89 -78 188 -92l93 -6v-185h-200q-97 0 -171.5 28t-148.5 93l-112 99q-48 -4 -73 -4q-221 0 -381.5 95t-242 262.5t-81.5 388.5zM437 718 q0 -82 11 -152.5t37.5 -134t66 -108.5t100 -71t136.5 -26t136.5 26t100.5 71t66.5 108.5t38 134t11.5 152.5t-11.5 153t-38 134.5t-66.5 108.5t-100.5 71.5t-136.5 26.5q-95 0 -164.5 -39.5t-109.5 -109.5t-58.5 -156t-18.5 -189z" />
<glyph unicode="R" horiz-adv-x="1382" d="M124 0v1434h646q83 0 163.5 -28t149.5 -81.5t111.5 -143t42.5 -201.5q0 -125 -66.5 -222.5t-179.5 -144.5l-56 -7l120 -194q41 -72 86 -112t107 -58q42 -11 95 -13v-231q-65 -1 -151 -1q-111 0 -163 14q-144 39 -237 209l-181 319h-148v-539h-339zM463 778h218 q87 0 144.5 52.5t57.5 151.5q0 103 -57.5 157.5t-145.5 54.5h-217v-416z" />
<glyph unicode="S" horiz-adv-x="1167" d="M74 1031q0 96 33 172.5t85.5 124t123.5 78.5t141.5 43.5t144.5 12.5q235 0 450 -77v-279q-190 72 -369 72q-238 0 -238 -146q0 -103 180 -160l79 -25q95 -31 161.5 -63t122.5 -78.5t84 -110.5t28 -146q0 -227 -155 -351.5t-410 -124.5q-113 0 -234.5 17.5t-213.5 49.5 v289q245 -71 411 -71q117 0 175 45t58 117q0 67 -54 103t-181 76l-84 26q-72 23 -128.5 54t-106 78t-76.5 116.5t-27 157.5z" />
<glyph unicode="T" horiz-adv-x="1185" d="M34 1194v240h1118v-240h-383v-1194h-354v1194h-381z" />
<glyph unicode="U" horiz-adv-x="1390" d="M124 462v972h354v-986q0 -116 54.5 -169.5t163.5 -53.5t163 53.5t54 169.5v986h354v-972q0 -120 -44.5 -214.5t-123 -154t-181 -90t-222.5 -30.5t-222.5 30.5t-181 90t-123.5 154t-45 214.5z" />
<glyph unicode="V" horiz-adv-x="1347" d="M34 1434h355l285 -1089l286 1089h354l-433 -1434h-414z" />
<glyph unicode="W" horiz-adv-x="1951" d="M34 1434h354l224 -989l214 989h300l215 -989l223 989h354l-353 -1434h-395l-194 772l-194 -772h-394z" />
<glyph unicode="X" horiz-adv-x="1345" d="M41 0l460 725l-449 709h356l271 -446l273 446h355l-450 -709l462 -725h-356l-284 462l-282 -462h-356z" />
<glyph unicode="Y" horiz-adv-x="1406" d="M34 1434h356l314 -582l315 582h355l-493 -873v-561h-354v561z" />
<glyph unicode="Z" horiz-adv-x="1247" d="M72 0v278l727 916h-682v240h1025v-279l-709 -915h743v-240h-1104z" />
<glyph unicode="[" horiz-adv-x="620" d="M69 -391v1784h493v-182h-246v-1420h246v-182h-493z" />
<glyph unicode="\" horiz-adv-x="948" d="M34 1434h244l638 -1434h-245z" />
<glyph unicode="]" horiz-adv-x="620" d="M60 -209h246v1420h-246v182h493v-1784h-493v182z" />
<glyph unicode="^" horiz-adv-x="1173" d="M49 674l402 760h274l401 -760h-273l-272 514l-258 -514h-274z" />
<glyph unicode="_" horiz-adv-x="1226" d="M62 -145h1104v-181h-1104v181z" />
<glyph unicode="`" horiz-adv-x="546" d="M44 1536h240l220 -386h-184z" />
<glyph unicode="a" horiz-adv-x="1196" d="M69 494q0 243 108.5 381t293.5 138q174 0 287 -103l44 79h244v-686l4 -40q7 -67 72 -75l27 -1v-187h-175q-109 0 -160 97l-8 18q-137 -134 -325 -134q-181 0 -296.5 135.5t-115.5 377.5zM360 494q0 -124 50 -192t147 -68q104 0 201 43v434q-92 44 -200 44 q-97 0 -147.5 -71t-50.5 -190z" />
<glyph unicode="b" horiz-adv-x="1187" d="M38 1247v187h251q70 0 106.5 -36.5t36.5 -106.5v-381q113 103 287 103q185 0 293 -138t108 -381q0 -131 -39.5 -231t-110.5 -160.5t-163.5 -91t-203.5 -30.5q-239 0 -460 125v1055q0 75 -75 84zM432 277q97 -43 200 -43q97 0 147 68t50 192q0 119 -50.5 190t-147.5 71 q-107 0 -199 -44v-434z" />
<glyph unicode="c" horiz-adv-x="995" d="M69 495q0 233 134.5 374.5t370.5 141.5q137 0 227 -48q117 -55 117 -202v-99h-196l-2 15q-5 68 -67 82q-29 7 -66 7q-14 0 -40 -2q-92 -8 -140 -81t-48 -188q0 -130 64.5 -206t180.5 -76q119 0 252 58l62 -231q-81 -30 -158 -46.5t-187 -16.5q-237 0 -370.5 142.5 t-133.5 375.5z" />
<glyph unicode="d" horiz-adv-x="1204" d="M69 494q0 243 108.5 381t293.5 138q174 0 287 -103v381q0 70 36.5 106.5t106.5 36.5h250v-187l-29 -2q-76 -9 -76 -84v-858l4 -40q7 -67 72 -75l27 -1v-187h-175q-109 0 -160 97l-8 18q-137 -134 -325 -134q-181 0 -296.5 135.5t-115.5 377.5zM360 494q0 -124 50 -192 t147 -68q104 0 201 43v434q-92 44 -200 44q-97 0 -147.5 -71t-50.5 -190z" />
<glyph unicode="e" horiz-adv-x="1056" d="M69 496q0 234 139.5 374t385.5 140q152 0 248.5 -55.5t120.5 -142.5q11 -39 11 -77q0 -71 -36.5 -133t-110.5 -102q-66 -36 -157 -60.5t-154 -33.5t-150 -18q12 -92 88 -147.5t195 -55.5q136 0 280 49l40 -158q-157 -94 -397 -94q-235 0 -369 140.5t-134 373.5zM363 586 l2 -33q196 18 273 59q70 38 70 106q0 12 -5 29q-23 79 -139 79q-96 0 -148.5 -67.5t-52.5 -172.5z" />
<glyph unicode="f" horiz-adv-x="819" d="M69 749v240h144v111q0 239 167 315q78 36 185 36q99 0 189 -28l-37 -212q-49 7 -87 7q-43 0 -67 -10q-59 -24 -59 -109v-110h209v-240h-209v-749h-291v749h-144z" />
<glyph unicode="g" horiz-adv-x="1150" d="M69 490q0 131 39.5 231.5t110.5 162t163.5 92t204.5 30.5q248 0 459 -128v-898q0 -181 -104.5 -269t-291.5 -94q-42 -2 -66 -2q-158 0 -397 51l48 168q207 -37 292 -37q110 0 169.5 40.5t60.5 142.5v116q-148 -96 -301 -96q-175 0 -281 128t-106 362zM360 489 q0 -112 50.5 -180.5t147.5 -68.5q107 0 199 44v424q-95 43 -200 43q-97 0 -147 -68.5t-50 -193.5z" />
<glyph unicode="h" horiz-adv-x="1189" d="M114 0v1434h291v-543q64 50 148.5 85t173.5 35q153 0 236 -106.5t84 -323.5v-287q0 -51 24.5 -76t80.5 -31v-187h-140q-125 0 -190.5 66.5t-65.5 191.5v333q-1 76 -31.5 116t-103.5 40q-62 0 -120 -29.5t-96 -67.5v-650h-291z" />
<glyph unicode="i" horiz-adv-x="546" d="M45 802v187h191q100 0 152.5 -60.5t52.5 -176.5v-752h-291v716q0 76 -75 85zM150 1136v275h291v-275h-291z" />
<glyph unicode="j" horiz-adv-x="542" d="M-74 -279q29 8 43 12t41.5 14.5t42.5 21t35 29.5t30.5 41.5t18.5 55.5t8 72v1022h291v-1022q0 -63 -15.5 -117t-40.5 -92.5t-59 -70t-68 -50.5t-70.5 -33t-64 -20t-50.5 -8zM145 1136v275h291v-275h-291z" />
<glyph unicode="k" horiz-adv-x="1169" d="M110 0v1434h291v-777h104q131 2 204.5 80t85.5 228l1 25h285v-19q-2 -169 -86 -289.5t-217 -151.5l-7 -2l357 -528h-306l-295 430h-126v-430h-291z" />
<glyph unicode="l" horiz-adv-x="567" d="M107 258v1176h291v-1140q0 -51 24.5 -76t80.5 -31v-187h-141q-125 1 -190 67t-65 191z" />
<glyph unicode="m" horiz-adv-x="1820" d="M45 802v187h307q42 0 65 -22t24 -60v-20q155 124 303 124q178 0 256 -146q195 146 356 146q160 0 243.5 -109.5t83.5 -310.5v-297q0 -97 94 -106l11 -1v-187h-140q-125 1 -190.5 67t-65.5 191v333q0 77 -32 117q-31 39 -105 38h-7q-87 -2 -189 -93q4 -40 4 -85v-568h-291 v591q0 77 -34 117q-32 39 -104 38h-7q-89 -2 -186 -95v-651h-291v716q0 76 -76 85z" />
<glyph unicode="n" horiz-adv-x="1220" d="M45 802v187h307q42 0 65 -22t24 -60v-21q158 125 323 125q153 0 235.5 -108t83.5 -312v-297q0 -97 95 -106l10 -1v-187h-140q-125 1 -190.5 67t-65.5 191v333q-1 75 -32 115t-105 40q-62 0 -119 -29t-95 -67v-650h-291v716q0 76 -76 85z" />
<glyph unicode="o" horiz-adv-x="1144" d="M69 495q0 233 133.5 374.5t370.5 141.5t370.5 -141.5t133.5 -374.5t-133.5 -374t-370.5 -141t-370.5 141t-133.5 374zM359 494q0 -114 54.5 -186t158.5 -72q103 0 159.5 72.5t56.5 185.5q0 112 -57 186t-159 74q-103 0 -158 -73.5t-55 -186.5z" />
<glyph unicode="p" horiz-adv-x="1193" d="M45 801v187h303q74 0 86 -66l4 -14q104 98 274 98q185 0 300 -140.5t115 -369.5q0 -223 -115 -368t-299 -145q-160 0 -275 103v-455h-288v1068l-4 26q-4 35 -21.5 53t-51.5 22zM437 285q95 -44 202 -44q98 0 147.5 68.5t49.5 186.5q0 124 -50 191t-147 67 q-52 0 -111.5 -13.5t-90.5 -29.5v-426z" />
<glyph unicode="q" horiz-adv-x="1155" d="M69 496q0 106 26 191.5t72.5 145t112 99.5t142 58.5t165.5 18.5q249 0 459 -129v-1249h-288v447q-56 -40 -136.5 -68t-163.5 -28q-186 0 -287.5 135.5t-101.5 378.5zM360 496q0 -118 50 -186.5t148 -68.5q108 0 200 44v426q-97 43 -201 43q-97 0 -147 -67t-50 -191z" />
<glyph unicode="r" horiz-adv-x="835" d="M38 802v187h293q103 0 103 -103v-36q83 120 235 150q44 10 126 11v-272q-72 12 -112 12q-96 0 -164 -52t-85 -124v-575h-291v702q0 90 -89 99z" />
<glyph unicode="s" horiz-adv-x="925" d="M74 710q0 68 25 122t64.5 87t93.5 54t106 29.5t108 8.5q217 0 349 -80v-172q-63 24 -144 41.5t-148 17.5q-162 0 -162 -101q0 -43 36.5 -70.5t111.5 -47.5l76 -18q124 -33 191 -94t67 -169q0 -159 -117 -250t-304 -91q-233 4 -349 83v163q149 -51 305 -51q77 0 119 31.5 t42 82.5q0 46 -38 74t-115 47l-92 23q-225 62 -225 280z" />
<glyph unicode="t" horiz-adv-x="815" d="M42 749v240h143l31 267h261v-267h221v-240h-221v-427q0 -75 57 -98q26 -10 63 -10q44 0 103 11v-227q-88 -25 -162 -25q-33 0 -58 4q-151 6 -223 80t-72 265v427h-143z" />
<glyph unicode="u" horiz-adv-x="1175" d="M100 349v640h291v-590q1 -75 32.5 -115.5t105.5 -40.5q61 0 117.5 28.5t95.5 67.5v650h292v-695q0 -51 24.5 -76t80.5 -31v-187h-289q-51 1 -78.5 27.5t-29.5 74.5q-69 -54 -156.5 -88.5t-173.5 -34.5q-149 0 -230.5 99t-81.5 271z" />
<glyph unicode="v" horiz-adv-x="1155" d="M38 802v187h173q107 -1 163.5 -67t56.5 -191v-310q1 -76 47.5 -127.5t129.5 -51.5q93 0 136.5 71t43.5 191q0 32 -3 66q-20 209 -115 419l312 3q100 -259 100 -492q0 -113 -27 -205t-82.5 -164t-150.5 -112t-222 -40q-196 0 -327.5 111.5t-132.5 293.5v311q0 51 -24 76 t-78 31z" />
<glyph unicode="w" horiz-adv-x="1771" d="M38 802v187h173q107 -1 163.5 -67t56.5 -191v-310q1 -85 48 -132t114 -47q65 0 118 46.5t65 130.5v570h278v-568q1 -85 52.5 -132.5t120.5 -47.5q87 0 136.5 78t49.5 207q0 109 -32 235t-78 228l297 3q100 -253 100 -482q0 -124 -34 -225.5t-93.5 -168t-138.5 -103 t-169 -36.5q-98 0 -193.5 48.5t-164.5 141.5q-61 -91 -158.5 -140.5t-205.5 -49.5q-78 0 -149 25t-128.5 73.5t-91.5 128t-34 180.5v311q0 51 -24 76t-78 31z" />
<glyph unicode="x" horiz-adv-x="1054" d="M24 0l336 501l-325 488h292l200 -305l202 305h292l-327 -488l338 -501h-292l-213 319l-211 -319h-292z" />
<glyph unicode="y" horiz-adv-x="1064" d="M35 989h291l206 -632l207 632h292l-373 -1061q-49 -145 -149.5 -225.5t-226.5 -93.5q-19 -1 -37 -1q-111 0 -201 46l31 182q78 -32 143 -32q11 0 21 1q113 14 165 148l18 47h-13z" />
<glyph unicode="z" horiz-adv-x="952" d="M63 0v240l494 535h-459v214h755v-241l-490 -535h509v-213h-809z" />
<glyph unicode="{" horiz-adv-x="768" d="M54 439v183l35 1q77 15 77 100v428q0 96 58 158t151 78q52 8 110 8q73 0 217 -26v-170q-107 13 -164 13q-40 0 -63 -6q-62 -17 -62 -97v-335q0 -97 -58 -164.5t-147 -79.5q89 -11 147 -78.5t58 -164.5v-336q0 -68 50 -88q29 -13 83 -13q47 0 156 13v-172 q-144 -23 -203 -23q-65 0 -140 15q-86 18 -139.5 78t-53.5 149v428q0 43 -20.5 68.5t-56.5 31.5z" />
<glyph unicode="|" horiz-adv-x="356" d="M69 -326v1862h219v-1862h-219z" />
<glyph unicode="}" horiz-adv-x="768" d="M67 1199v170q144 26 217 26q58 0 110 -8q93 -16 151.5 -78t58.5 -158v-428q0 -85 77 -100l35 -1v-183l-35 -1q-36 -6 -56.5 -31.5t-20.5 -68.5v-428q0 -89 -54 -149t-140 -78q-75 -15 -140 -15q-61 0 -202 23v172q109 -13 156 -13q53 0 82 13q50 20 50 88v336 q0 97 58.5 164.5t147.5 78.5q-89 12 -147.5 79.5t-58.5 164.5v335q0 80 -62 97q-22 6 -62 6q-58 0 -165 -13z" />
<glyph unicode="~" horiz-adv-x="1112" d="M55 374q15 135 104 223.5t211 88.5q71 0 128 -30l266 -138q47 -27 85 -27q56 0 99.5 41.5t54.5 106.5l54 -3q-4 -127 -84.5 -214t-193.5 -87q-62 0 -126 34l-269 140q-36 21 -84 21q-65 0 -117.5 -44.5t-73.5 -115.5z" />
<glyph unicode="&#xa1;" horiz-adv-x="514" d="M111 830v235h295v-235h-295zM112 -369l27 998h238l27 -998h-292z" />
<glyph unicode="&#xa2;" horiz-adv-x="1007" d="M69 495q0 203 101.5 338t286.5 165v118h219v-111q120 -9 242 -55l-51 -189q-129 56 -246 56q-125 0 -193.5 -86t-68.5 -236t69 -236t194 -86q118 0 245 55l51 -188q-126 -47 -242 -54v-113h-219v117q-185 30 -286.5 166t-101.5 339z" />
<glyph unicode="&#xa3;" horiz-adv-x="1347" d="M116 2v235h70q62 0 90 31.5t28 114.5v243h-138v213h138v38q0 88 11 162t45 153t89.5 133.5t151.5 89.5t225 35q191 0 400 -115l-142 -245q-118 71 -231 71q-54 0 -91.5 -15.5t-57.5 -38.5t-30.5 -64.5t-13 -76.5t-2.5 -92v-35h457v-213h-457v-243q0 -46 -19.5 -86.5 t-62.5 -59.5h687v-235h-1147z" />
<glyph unicode="&#xa5;" horiz-adv-x="1497" d="M79 1434h356l314 -582l315 582h355l-332 -586h209v-208h-325l-45 -79v-75h370v-208h-370v-278h-354v278h-363v208h363v75l-45 79h-318v208h202z" />
<glyph unicode="&#xa6;" horiz-adv-x="356" d="M69 -326v809h219v-809h-219zM69 659v810h219v-810h-219z" />
<glyph unicode="&#xa7;" horiz-adv-x="905" d="M69 589q0 130 99 199q-99 70 -99 208q0 68 25 122t64.5 87t93 54t105.5 29.5t108 8.5q218 0 350 -80v-172q-157 59 -293 59q-161 0 -161 -101q0 -43 36.5 -70.5t111.5 -47.5l76 -18q124 -33 190.5 -94t66.5 -169q0 -139 -93 -220q94 -69 94 -187q0 -158 -115 -249 t-300 -91q-233 0 -349 80v162q144 -48 299 -48q77 0 119 31t42 82q0 46 -38 74t-115 47l-92 24q-225 62 -225 280zM306 612q0 -75 103 -100l67 -15q26 -6 58 -19q67 28 67 99q0 45 -31 71t-97 41l-67 15l-11 3q-89 -17 -89 -95z" />
<glyph unicode="&#xa8;" horiz-adv-x="706" d="M55 1249v185h184v-185h-184zM469 1249v185h184v-185h-184z" />
<glyph unicode="&#xa9;" horiz-adv-x="1697" d="M63 725q0 148 62 284t166.5 235.5t249 158.5t302.5 59q164 0 311.5 -59t252.5 -158.5t167 -235.5t62 -284q0 -154 -62 -293t-167.5 -239.5t-252.5 -160t-311 -59.5q-158 0 -302.5 59.5t-249 160t-166.5 239.5t-62 293zM234 725q0 -119 48 -226.5t129.5 -185t194 -123.5 t237.5 -46q172 0 315.5 77.5t225.5 211t82 292.5q0 114 -48.5 218.5t-131 181t-198.5 122t-245 45.5q-124 0 -237 -45.5t-194.5 -121.5t-129.5 -181t-48 -219zM487 717q0 168 94.5 271.5t260.5 103.5q133 0 227 -55l-33 -122q-89 39 -163 39q-12 0 -32 -2q-81 -7 -126 -69 t-45 -166t45 -166t126 -69q20 -2 32 -2q74 0 163 39l33 -122q-91 -55 -227 -55q-166 0 -260.5 103.5t-94.5 271.5z" />
<glyph unicode="&#xaa;" horiz-adv-x="774" d="M69 1144q0 142 63.5 222.5t171.5 80.5q98 0 162 -56l27 43h155v-392l1 -23q3 -37 40 -43l17 -1v-119h-108q-69 0 -98 59l-4 7q-78 -76 -187 -76q-104 0 -172 79t-68 219zM254 1144q0 -138 103 -138q59 0 109 20v237q-46 21 -108 21q-51 0 -77.5 -38t-26.5 -102z" />
<glyph unicode="&#xab;" horiz-adv-x="978" d="M60 453l150 483h253l-169 -483l169 -453h-253zM511 453l150 483h253l-169 -483l169 -453h-253z" />
<glyph unicode="&#xac;" horiz-adv-x="1542" />
<glyph unicode="&#xad;" horiz-adv-x="647" d="M69 517v240h510v-240h-510z" />
<glyph unicode="&#xae;" horiz-adv-x="1697" d="M63 725q0 148 62 284t166.5 235.5t249 158.5t302.5 59q164 0 311.5 -59t252.5 -158.5t167 -235.5t62 -284q0 -154 -62 -293t-167.5 -239.5t-252.5 -160t-311 -59.5q-158 0 -302.5 59.5t-249 160t-166.5 239.5t-62 293zM234 725q0 -119 48 -226.5t129.5 -185t194 -123.5 t237.5 -46q172 0 315.5 77.5t225.5 211t82 292.5q0 114 -48.5 218.5t-131 181t-198.5 122t-245 45.5q-124 0 -237 -45.5t-194.5 -121.5t-129.5 -181t-48 -219zM584 363v721h325q91 0 163.5 -60t72.5 -169q0 -64 -34.5 -113.5t-92.5 -73.5l-9 -2l166 -303h-183l-150 269h-84 v-269h-174zM758 767h105q43 0 71 22.5t28 66.5q0 43 -29 68t-71 25h-104v-182z" />
<glyph unicode="&#xaf;" horiz-adv-x="813" d="M53 1266v168h709v-168h-709z" />
<glyph unicode="&#xb0;" horiz-adv-x="493" d="M63 1323q0 76 54 129.5t130 53.5t129.5 -53.5t53.5 -129.5t-53.5 -130t-129.5 -54t-130 54t-54 130zM172 1323q0 -30 22.5 -52.5t52.5 -22.5t51.5 22.5t21.5 52.5t-21.5 51.5t-51.5 21.5t-52.5 -21.5t-22.5 -51.5z" />
<glyph unicode="&#xb1;" horiz-adv-x="964" d="M58 0v241h850v-241h-850zM58 671v240h304v277h241v-277h305v-240h-305v-279h-241v279h-304z" />
<glyph unicode="&#xb2;" horiz-adv-x="724" d="M69 605v161q145 96 233 198q98 113 87 193q-4 49 -42.5 72t-97.5 23q-87 0 -165 -42l-4 166q101 58 230 58q78 0 147.5 -28.5t116.5 -88.5t47 -139q0 -94 -73 -197q-57 -81 -200 -210h309v-166h-588z" />
<glyph unicode="&#xb3;" horiz-adv-x="724" d="M69 663l4 140q81 -39 169 -39q73 0 114.5 25t41.5 75q0 41 -29.5 62t-77.5 22h-142v140h116q44 1 81.5 24.5t37.5 68.5q0 42 -38 63t-100 21q-84 0 -166 -40l-5 151q104 58 237 58q57 0 112 -12.5t103.5 -36.5t78.5 -67t30 -97q0 -116 -121 -190q66 -35 105 -83t39 -126 q0 -63 -32 -109.5t-84.5 -70.5t-105.5 -35t-108 -11q-67 0 -143.5 15.5t-116.5 51.5z" />
<glyph unicode="&#xb4;" horiz-adv-x="546" d="M44 1150l219 386h241l-276 -386h-184z" />
<glyph unicode="&#xb6;" horiz-adv-x="1173" d="M58 1020q0 174 120.5 294t289.5 120h640v-199h-123v-1503h-142v1503h-124v-1503h-219v875h-38q-169 3 -286.5 120t-117.5 293z" />
<glyph unicode="&#xb7;" horiz-adv-x="405" d="M55 511v235h295v-235h-295z" />
<glyph unicode="&#xb8;" horiz-adv-x="462" d="M50 -299q27 -6 62 -6q54 0 90 20.5t36 53.5q0 21 -17.5 39t-57.5 18q-23 0 -58 -6l-15 43l96 149h76l-50 -100q8 0 24.5 1t24.5 1q74 0 115 -40t41 -95q0 -82 -72.5 -123t-169.5 -41q-70 0 -125 10v76z" />
<glyph unicode="&#xb9;" horiz-adv-x="528" d="M69 1399l199 34h111v-818h-203v665l-82 -15z" />
<glyph unicode="&#xba;" horiz-adv-x="731" d="M69 1145q0 136 79 219t218 83t218 -83t79 -219t-79 -218t-218 -82t-218 82t-79 218zM252 1145q0 -61 29 -99.5t85 -38.5q55 0 85 38.5t30 99.5t-30 100t-85 39t-84.5 -39t-29.5 -100z" />
<glyph unicode="&#xbb;" horiz-adv-x="978" d="M66 0l170 453l-170 483h253l150 -483l-150 -453h-253zM517 0l170 453l-170 483h253l150 -483l-150 -453h-253z" />
<glyph unicode="&#xbc;" horiz-adv-x="1673" d="M69 1397l209 36h112v-877h-204v725l-92 -17zM287 -12l753 1457h235l-753 -1457h-235zM892 231v153l325 493l218 -5l-306 -484h172l69 178h131v-178h105v-157h-102v-231h-212v231h-400z" />
<glyph unicode="&#xbd;" horiz-adv-x="1751" d="M69 1397l209 36h112v-877h-204v725l-92 -17zM294 -12l753 1457h234l-753 -1457h-234zM1063 0v162q161 106 257 218q107 124 96 214q-4 58 -48 85.5t-110 27.5q-95 0 -179 -46l-4 166q107 61 245 61q83 0 156.5 -30t122.5 -93.5t49 -148.5q0 -105 -82 -218 q-65 -92 -224 -231h344v-167h-623z" />
<glyph unicode="&#xbe;" horiz-adv-x="1832" d="M69 608l4 140q86 -43 185 -43q175 0 175 114q0 48 -35 73.5t-90 26.5h-150v140h124q51 1 93 28.5t42 79.5q0 49 -43.5 74t-112.5 25q-93 0 -180 -45l-4 151q110 62 250 62q60 0 118.5 -13t109.5 -39t82.5 -71t31.5 -103q0 -131 -135 -207q160 -77 160 -225 q0 -67 -33.5 -116t-88.5 -74.5t-112 -37t-116 -11.5q-71 0 -152 17t-123 54zM447 -12l754 1457h234l-753 -1457h-235zM1053 231v153l324 493l218 -5l-306 -484h172l69 178h131v-178h106v-157h-102v-231h-212v231h-400z" />
<glyph unicode="&#xbf;" horiz-adv-x="897" d="M41 -29q0 108 47 183.5t143 144.5q8 6 39.5 27.5t43 30.5t32.5 27.5t34.5 36.5t23.5 40q29 55 29 147v36h292v-36q0 -111 -58 -200q-24 -37 -60.5 -74.5t-58 -55t-61.5 -48.5q-66 -47 -110.5 -113t-44.5 -146q0 -178 216 -178q117 0 277 60l31 -168q-196 -83 -364 -83 q-66 0 -129 12.5t-122 41.5t-103 71t-70.5 105t-26.5 139zM432 830v236h295v-236h-295z" />
<glyph unicode="&#xc0;" horiz-adv-x="1402" d="M34 0l459 1434h419l459 -1434h-363l-90 313h-430l-90 -313h-364zM477 1980h240l220 -386h-184zM526 552h342l-171 585z" />
<glyph unicode="&#xc1;" horiz-adv-x="1402" d="M34 0l459 1434h419l459 -1434h-363l-90 313h-430l-90 -313h-364zM452 1594l219 386h241l-276 -386h-184zM526 552h342l-171 585z" />
<glyph unicode="&#xc2;" horiz-adv-x="1402" d="M34 0l459 1434h419l459 -1434h-363l-90 313h-430l-90 -313h-364zM327 1594l209 386h322l209 -386h-184l-186 269l-187 -269h-183zM526 552h342l-171 585z" />
<glyph unicode="&#xc3;" horiz-adv-x="1402" d="M34 0l459 1434h419l459 -1434h-363l-90 313h-430l-90 -313h-364zM370 1678q10 103 67.5 170t137.5 67q48 0 84 -21l172 -104q30 -16 55 -16q37 0 65 29.5t35 78.5l39 -3q-3 -97 -56.5 -165t-128.5 -68q-39 0 -84 26l-172 103q-28 14 -55 14q-42 0 -74.5 -31.5 t-46.5 -82.5zM526 552h342l-171 585z" />
<glyph unicode="&#xc4;" horiz-adv-x="1402" d="M34 0l459 1434h419l459 -1434h-363l-90 313h-430l-90 -313h-364zM398 1694v184h184v-184h-184zM526 552h342l-171 585zM812 1694v184h184v-184h-184z" />
<glyph unicode="&#xc5;" horiz-adv-x="1402" d="M34 0l459 1434h419l459 -1434h-363l-90 313h-430l-90 -313h-364zM494 1801q0 83 59.5 142.5t142.5 59.5q85 0 145 -59.5t60 -142.5t-60 -143t-145 -60q-83 0 -142.5 60t-59.5 143zM526 552h342l-171 585zM602 1801q0 -38 28 -66t66 -28t66 28t28 66t-28 66t-66 28 t-66 -28t-28 -66z" />
<glyph unicode="&#xc6;" horiz-adv-x="1669" d="M41 0l444 1434h1107v-279h-542v-316h485v-213h-485v-348h556v-278h-910v313h-210l-90 -313h-355zM524 552h171v586z" />
<glyph unicode="&#xc7;" horiz-adv-x="1333" d="M83 716q0 221 81.5 388.5t242 263t381.5 95.5q177 0 291 -54q160 -75 160 -292v-89h-226l-4 30q-8 91 -76 116q-52 18 -113 18q-178 0 -278.5 -128t-100.5 -348q0 -209 91.5 -335t255.5 -139q31 -3 65 -3q157 0 323 76l63 -235q-185 -111 -451 -111h-34l-29 -57q7 0 22 1 t26 1q74 0 115 -40t41 -95q0 -82 -72.5 -123t-169.5 -41q-70 0 -125 10v76q27 -6 62 -6q54 0 90 20.5t36 53.5q0 21 -17.5 39t-57.5 18q-24 0 -57 -6l-15 43l73 114q-281 33 -437 232.5t-156 506.5z" />
<glyph unicode="&#xc8;" horiz-adv-x="1097" d="M124 0v1434h896v-240h-542v-342h485v-240h-485v-372h556v-240h-910zM356 1980h241l219 -386h-184z" />
<glyph unicode="&#xc9;" horiz-adv-x="1097" d="M124 0v1434h896v-240h-542v-342h485v-240h-485v-372h556v-240h-910zM331 1594l220 386h240l-276 -386h-184z" />
<glyph unicode="&#xca;" horiz-adv-x="1097" d="M124 0v1434h896v-240h-542v-342h485v-240h-485v-372h556v-240h-910zM206 1594l209 386h323l209 -386h-184l-187 269l-186 -269h-184z" />
<glyph unicode="&#xcb;" horiz-adv-x="1097" d="M124 0v1434h896v-240h-542v-342h485v-240h-485v-372h556v-240h-910zM277 1694v184h185v-184h-185zM692 1694v184h184v-184h-184z" />
<glyph unicode="&#xcc;" horiz-adv-x="602" d="M81 1980h241l219 -386h-184zM124 0v1434h354v-1434h-354z" />
<glyph unicode="&#xcd;" horiz-adv-x="602" d="M56 1594l220 386h240l-276 -386h-184zM124 0v1434h354v-1434h-354z" />
<glyph unicode="&#xce;" horiz-adv-x="602" d="M-70 1594l210 386h323l209 -386h-184l-187 269l-186 -269h-185zM124 0v1434h354v-1434h-354z" />
<glyph unicode="&#xcf;" horiz-adv-x="602" d="M1 1694v184h185v-184h-185zM124 0v1434h354v-1434h-354zM416 1694v184h185v-184h-185z" />
<glyph unicode="&#xd0;" horiz-adv-x="1499" d="M69 569v241h125v624h518q334 0 519.5 -192t185.5 -525t-185.5 -525t-519.5 -192h-518v569h-125zM548 240h165q168 0 257.5 131.5t89.5 345.5t-89.5 345.5t-257.5 131.5h-165v-384h208v-241h-208v-329z" />
<glyph unicode="&#xd1;" horiz-adv-x="1433" d="M114 0v1434h371l483 -839v839h353v-1434h-368l-485 844v-844h-354zM390 1678q10 103 67.5 170t137.5 67q48 0 84 -21l172 -104q30 -16 55 -16q37 0 65.5 29.5t35.5 78.5l38 -3q-3 -97 -56 -165t-128 -68q-39 0 -84 26l-173 103q-28 14 -55 14q-42 0 -74.5 -31.5 t-46.5 -82.5z" />
<glyph unicode="&#xd2;" d="M83 717q0 221 81.5 388.5t242 263t381.5 95.5t381.5 -95.5t242 -263t81.5 -388.5t-81.5 -388.5t-242 -262.5t-381.5 -95t-381.5 95t-242 262.5t-81.5 388.5zM437 717q0 -82 11 -152.5t37.5 -134t66 -108.5t100 -71t136.5 -26t136.5 26t100.5 71t66.5 108.5t38 134 t11.5 152.5t-11.5 153t-38 134.5t-66.5 108.5t-100.5 71.5t-136.5 26.5q-95 0 -164.5 -39.5t-109.5 -109.5t-58.5 -156t-18.5 -189zM567 1980h240l220 -386h-184z" />
<glyph unicode="&#xd3;" d="M83 717q0 221 81.5 388.5t242 263t381.5 95.5t381.5 -95.5t242 -263t81.5 -388.5t-81.5 -388.5t-242 -262.5t-381.5 -95t-381.5 95t-242 262.5t-81.5 388.5zM437 717q0 -82 11 -152.5t37.5 -134t66 -108.5t100 -71t136.5 -26t136.5 26t100.5 71t66.5 108.5t38 134 t11.5 152.5t-11.5 153t-38 134.5t-66.5 108.5t-100.5 71.5t-136.5 26.5q-95 0 -164.5 -39.5t-109.5 -109.5t-58.5 -156t-18.5 -189zM542 1594l219 386h241l-276 -386h-184z" />
<glyph unicode="&#xd4;" d="M83 717q0 221 81.5 388.5t242 263t381.5 95.5t381.5 -95.5t242 -263t81.5 -388.5t-81.5 -388.5t-242 -262.5t-381.5 -95t-381.5 95t-242 262.5t-81.5 388.5zM417 1594l209 386h322l209 -386h-184l-186 269l-187 -269h-183zM437 717q0 -82 11 -152.5t37.5 -134t66 -108.5 t100 -71t136.5 -26t136.5 26t100.5 71t66.5 108.5t38 134t11.5 152.5t-11.5 153t-38 134.5t-66.5 108.5t-100.5 71.5t-136.5 26.5q-95 0 -164.5 -39.5t-109.5 -109.5t-58.5 -156t-18.5 -189z" />
<glyph unicode="&#xd5;" d="M83 717q0 221 81.5 388.5t242 263t381.5 95.5t381.5 -95.5t242 -263t81.5 -388.5t-81.5 -388.5t-242 -262.5t-381.5 -95t-381.5 95t-242 262.5t-81.5 388.5zM437 717q0 -82 11 -152.5t37.5 -134t66 -108.5t100 -71t136.5 -26t136.5 26t100.5 71t66.5 108.5t38 134 t11.5 152.5t-11.5 153t-38 134.5t-66.5 108.5t-100.5 71.5t-136.5 26.5q-95 0 -164.5 -39.5t-109.5 -109.5t-58.5 -156t-18.5 -189zM460 1678q10 103 67.5 170t137.5 67q48 0 84 -21l172 -104q30 -16 55 -16q37 0 65 29.5t35 78.5l38 -3q-3 -97 -56 -165t-128 -68 q-39 0 -84 26l-172 103q-28 14 -55 14q-42 0 -74.5 -31.5t-46.5 -82.5z" />
<glyph unicode="&#xd6;" d="M83 717q0 221 81.5 388.5t242 263t381.5 95.5t381.5 -95.5t242 -263t81.5 -388.5t-81.5 -388.5t-242 -262.5t-381.5 -95t-381.5 95t-242 262.5t-81.5 388.5zM437 717q0 -82 11 -152.5t37.5 -134t66 -108.5t100 -71t136.5 -26t136.5 26t100.5 71t66.5 108.5t38 134 t11.5 152.5t-11.5 153t-38 134.5t-66.5 108.5t-100.5 71.5t-136.5 26.5q-95 0 -164.5 -39.5t-109.5 -109.5t-58.5 -156t-18.5 -189zM488 1694v184h184v-184h-184zM902 1694v184h184v-184h-184z" />
<glyph unicode="&#xd7;" horiz-adv-x="876" d="M54 408l214 214l-214 215l169 171l216 -216l215 216l171 -169l-217 -217l217 -216l-171 -169l-215 215l-216 -215z" />
<glyph unicode="&#xd8;" d="M83 717q0 340 186.5 543.5t518.5 203.5q126 0 234 -32l46 104h169l-73 -164q159 -91 244 -261.5t85 -393.5q0 -221 -81.5 -388.5t-242 -262.5t-381.5 -95q-126 0 -233 32l-47 -105h-168l73 165q-160 91 -245 260.5t-85 393.5zM437 717q0 -246 100 -376l377 848 q-58 22 -126 22q-95 0 -164.5 -39.5t-109.5 -109.5t-58.5 -156t-18.5 -189zM664 246q54 -21 124 -21q76 0 136.5 26t100.5 71t66.5 108.5t38 134t11.5 152.5q0 247 -101 378z" />
<glyph unicode="&#xd9;" horiz-adv-x="1390" d="M124 462v972h354v-986q0 -116 54.5 -169.5t163.5 -53.5t163 53.5t54 169.5v986h354v-972q0 -120 -44.5 -214.5t-123 -154t-181 -90t-222.5 -30.5t-222.5 30.5t-181 90t-123.5 154t-45 214.5zM473 1980h241l219 -386h-184z" />
<glyph unicode="&#xda;" horiz-adv-x="1390" d="M124 462v972h354v-986q0 -116 54.5 -169.5t163.5 -53.5t163 53.5t54 169.5v986h354v-972q0 -120 -44.5 -214.5t-123 -154t-181 -90t-222.5 -30.5t-222.5 30.5t-181 90t-123.5 154t-45 214.5zM448 1594l220 386h240l-276 -386h-184z" />
<glyph unicode="&#xdb;" horiz-adv-x="1390" d="M124 462v972h354v-986q0 -116 54.5 -169.5t163.5 -53.5t163 53.5t54 169.5v986h354v-972q0 -120 -44.5 -214.5t-123 -154t-181 -90t-222.5 -30.5t-222.5 30.5t-181 90t-123.5 154t-45 214.5zM323 1594l209 386h323l209 -386h-184l-187 269l-186 -269h-184z" />
<glyph unicode="&#xdc;" horiz-adv-x="1390" d="M124 462v972h354v-986q0 -116 54.5 -169.5t163.5 -53.5t163 53.5t54 169.5v986h354v-972q0 -120 -44.5 -214.5t-123 -154t-181 -90t-222.5 -30.5t-222.5 30.5t-181 90t-123.5 154t-45 214.5zM394 1694v184h184v-184h-184zM809 1694v184h184v-184h-184z" />
<glyph unicode="&#xdd;" horiz-adv-x="1406" d="M34 1434h356l314 -582l315 582h355l-493 -873v-561h-354v561zM473 1594l219 386h241l-276 -386h-184z" />
<glyph unicode="&#xde;" horiz-adv-x="1302" d="M124 0v1434h343v-198h295q68 0 134.5 -18t129.5 -56.5t110.5 -94t76.5 -136t29 -175.5q0 -123 -58.5 -229t-170 -171.5t-251.5 -65.5h-295v-290h-343zM467 529h209q91 0 152 59t61 170q0 119 -60 178t-154 59h-208v-466z" />
<glyph unicode="&#xdf;" horiz-adv-x="1343" d="M111 0v1059q0 79 33.5 143.5t87.5 106.5t123.5 71t138.5 41.5t136 12.5h91q67 0 136 -12.5t139 -41.5t123.5 -71t87.5 -106.5t34 -143.5q0 -63 -20 -119t-53 -95.5t-68.5 -67t-74.5 -46.5q120 -41 187.5 -130t67.5 -212q0 -85 -35 -154.5t-90.5 -114.5t-128 -76 t-145.5 -44.5t-145 -13.5h-159v251h155q81 0 136 52.5t55 138.5q0 83 -55.5 137.5t-135.5 54.5h-67v216h56q76 0 127 49t51 131q0 79 -51.5 130t-126.5 51h-91q-75 0 -126 -51t-51 -130v-1016h-342z" />
<glyph unicode="&#xe0;" horiz-adv-x="1196" d="M69 494q0 243 108.5 381t293.5 138q174 0 287 -103l44 79h244v-686l4 -40q7 -67 72 -75l27 -1v-187h-175q-109 0 -160 97l-8 18q-137 -134 -325 -134q-181 0 -296.5 135.5t-115.5 377.5zM360 494q0 -124 50 -192t147 -68q104 0 201 43v434q-92 44 -200 44 q-97 0 -147.5 -71t-50.5 -190zM379 1536h240l220 -386h-184z" />
<glyph unicode="&#xe1;" horiz-adv-x="1196" d="M69 494q0 243 108.5 381t293.5 138q174 0 287 -103l44 79h244v-686l4 -40q7 -67 72 -75l27 -1v-187h-175q-109 0 -160 97l-8 18q-137 -134 -325 -134q-181 0 -296.5 135.5t-115.5 377.5zM360 494q0 -124 50 -192t147 -68q104 0 201 43v434q-92 44 -200 44 q-97 0 -147.5 -71t-50.5 -190zM379 1150l219 386h241l-276 -386h-184z" />
<glyph unicode="&#xe2;" horiz-adv-x="1196" d="M69 494q0 243 108.5 381t293.5 138q174 0 287 -103l44 79h244v-686l4 -40q7 -67 72 -75l27 -1v-187h-175q-109 0 -160 97l-8 18q-137 -134 -325 -134q-181 0 -296.5 135.5t-115.5 377.5zM238 1150l209 386h323l209 -386h-184l-186 269l-187 -269h-184zM360 494 q0 -124 50 -192t147 -68q104 0 201 43v434q-92 44 -200 44q-97 0 -147.5 -71t-50.5 -190z" />
<glyph unicode="&#xe3;" horiz-adv-x="1196" d="M69 494q0 243 108.5 381t293.5 138q174 0 287 -103l44 79h244v-686l4 -40q7 -67 72 -75l27 -1v-187h-175q-109 0 -160 97l-8 18q-137 -134 -325 -134q-181 0 -296.5 135.5t-115.5 377.5zM272 1234q10 102 68 169.5t138 67.5q45 0 83 -22l173 -103q31 -17 55 -17 q37 0 65 30t35 79l38 -3q-3 -97 -56 -165t-128 -68q-39 0 -84 26l-172 103q-26 13 -55 13q-42 0 -74.5 -31t-46.5 -82zM360 494q0 -124 50 -192t147 -68q104 0 201 43v434q-92 44 -200 44q-97 0 -147.5 -71t-50.5 -190z" />
<glyph unicode="&#xe4;" horiz-adv-x="1196" d="M69 494q0 243 108.5 381t293.5 138q174 0 287 -103l44 79h244v-686l4 -40q7 -67 72 -75l27 -1v-187h-175q-109 0 -160 97l-8 18q-137 -134 -325 -134q-181 0 -296.5 135.5t-115.5 377.5zM310 1249v185h184v-185h-184zM360 494q0 -124 50 -192t147 -68q104 0 201 43v434 q-92 44 -200 44q-97 0 -147.5 -71t-50.5 -190zM724 1249v185h184v-185h-184z" />
<glyph unicode="&#xe5;" horiz-adv-x="1196" d="M69 494q0 243 108.5 381t293.5 138q174 0 287 -103l44 79h244v-686l4 -40q7 -67 72 -75l27 -1v-187h-175q-109 0 -160 97l-8 18q-137 -134 -325 -134q-181 0 -296.5 135.5t-115.5 377.5zM360 494q0 -124 50 -192t147 -68q104 0 201 43v434q-92 44 -200 44 q-97 0 -147.5 -71t-50.5 -190zM399 1356q0 83 60 143t143 60q84 0 144 -59.5t60 -143.5t-60 -143.5t-144 -59.5q-83 0 -143 60t-60 143zM508 1356q0 -38 28 -66t66 -28t66 28t28 66t-28 66t-66 28t-66 -28t-28 -66z" />
<glyph unicode="&#xe6;" horiz-adv-x="1871" d="M73 280q0 68 23.5 122t61.5 87.5t90.5 55.5t106.5 31t113 9h207v69q-1 97 -60 137t-165 40q-87 0 -293 -36l-3 179q200 39 377 39q324 0 393 -206l6 -22q60 106 165.5 165.5t248.5 59.5q231 0 341 -132.5t111 -369.5v-55h-658v-10q1 -118 79.5 -188.5t208.5 -70.5 q142 0 283 50l42 -158q-154 -94 -407 -94q-117 0 -207.5 46t-147.5 127v-81l19 -74h-227l-56 80q-45 -44 -131 -71t-172 -27q-162 0 -255.5 72.5t-93.5 225.5zM363 305q0 -71 41 -104t108 -33q14 0 27 0.5t25 3t21 4t20 5t16.5 5t15.5 6.5l13 6.5l13 6.5l12 6v234h-118 q-24 0 -46 -2.5t-50.5 -11.5t-49 -23t-34.5 -41t-14 -62zM1144 598h392q-3 216 -192 216q-91 0 -144 -59.5t-56 -156.5z" />
<glyph unicode="&#xe7;" horiz-adv-x="995" d="M69 495q0 233 134.5 374.5t370.5 141.5q137 0 227 -48q117 -55 117 -202v-99h-196l-2 15q-4 67 -66 81q-34 8 -67 8q-14 0 -40 -2q-92 -8 -140 -81t-48 -188q0 -130 64.5 -206t180.5 -76q119 0 252 58l62 -231q-160 -61 -333 -63h-33l-33 -65q8 0 23 1t25 1q74 0 115 -40 t41 -95q0 -82 -72.5 -123t-169.5 -41q-70 0 -125 10v76q27 -6 62 -6q54 0 90 20.5t36 53.5q0 21 -17.5 39t-57.5 18q-23 0 -57 -6l-15 43l79 123q-193 27 -300 164t-107 345z" />
<glyph unicode="&#xe8;" horiz-adv-x="1056" d="M69 496q0 234 139.5 374t385.5 140q152 0 248.5 -55.5t120.5 -142.5q11 -39 11 -77q0 -71 -36.5 -133t-110.5 -102q-66 -36 -157 -60.5t-154 -33.5t-150 -18q12 -92 88 -147.5t195 -55.5q136 0 280 49l40 -158q-157 -94 -397 -94q-235 0 -369 140.5t-134 373.5zM346 1536 h240l220 -386h-184zM363 586l2 -33q196 18 273 59q70 38 70 106q0 12 -5 29q-23 79 -139 79q-96 0 -148.5 -67.5t-52.5 -172.5z" />
<glyph unicode="&#xe9;" horiz-adv-x="1056" d="M69 496q0 234 139.5 374t385.5 140q152 0 248.5 -55.5t120.5 -142.5q11 -39 11 -77q0 -71 -36.5 -133t-110.5 -102q-66 -36 -157 -60.5t-154 -33.5t-150 -18q12 -92 88 -147.5t195 -55.5q136 0 280 49l40 -158q-157 -94 -397 -94q-235 0 -369 140.5t-134 373.5zM321 1150 l220 386h240l-276 -386h-184zM363 586l2 -33q196 18 273 59q70 38 70 106q0 12 -5 29q-23 79 -139 79q-96 0 -148.5 -67.5t-52.5 -172.5z" />
<glyph unicode="&#xea;" horiz-adv-x="1056" d="M69 496q0 234 139.5 374t385.5 140q152 0 248.5 -55.5t120.5 -142.5q11 -39 11 -77q0 -71 -36.5 -133t-110.5 -102q-66 -36 -157 -60.5t-154 -33.5t-150 -18q12 -92 88 -147.5t195 -55.5q136 0 280 49l40 -158q-157 -94 -397 -94q-235 0 -369 140.5t-134 373.5zM196 1150 l209 386h322l210 -386h-184l-187 269l-187 -269h-183zM363 586l2 -33q196 18 273 59q70 38 70 106q0 12 -5 29q-23 79 -139 79q-96 0 -148.5 -67.5t-52.5 -172.5z" />
<glyph unicode="&#xeb;" horiz-adv-x="1056" d="M69 496q0 234 139.5 374t385.5 140q152 0 248.5 -55.5t120.5 -142.5q11 -39 11 -77q0 -71 -36.5 -133t-110.5 -102q-66 -36 -157 -60.5t-154 -33.5t-150 -18q12 -92 88 -147.5t195 -55.5q136 0 280 49l40 -158q-157 -94 -397 -94q-235 0 -369 140.5t-134 373.5zM267 1249 v185h184v-185h-184zM363 586l2 -33q196 18 273 59q70 38 70 106q0 12 -5 29q-23 79 -139 79q-96 0 -148.5 -67.5t-52.5 -172.5zM681 1249v185h184v-185h-184z" />
<glyph unicode="&#xec;" horiz-adv-x="573" d="M72 802v187h191q100 0 152.5 -60.5t52.5 -176.5v-752h-291v716q0 76 -76 85zM101 1536h240l220 -386h-184z" />
<glyph unicode="&#xed;" horiz-adv-x="573" d="M72 802v187h191q100 0 152.5 -60.5t52.5 -176.5v-752h-291v716q0 76 -76 85zM76 1150l220 386h240l-276 -386h-184z" />
<glyph unicode="&#xee;" horiz-adv-x="573" d="M-49 1150l209 386h322l210 -386h-184l-187 269l-187 -269h-183zM72 802v187h191q100 0 152.5 -60.5t52.5 -176.5v-752h-291v716q0 76 -76 85z" />
<glyph unicode="&#xef;" horiz-adv-x="573" d="M22 1249v185h184v-185h-184zM72 802v187h191q100 0 152.5 -60.5t52.5 -176.5v-752h-291v716q0 76 -76 85zM436 1249v185h185v-185h-185z" />
<glyph unicode="&#xf0;" horiz-adv-x="1257" d="M71 497q0 101 38 183.5t102.5 136t149 82.5t179.5 29q89 0 167.5 -32.5t131.5 -89.5q-8 190 -86 315l-192 -131l-82 140l161 109q-73 46 -155 46q-102 0 -217 -46l-72 159q190 95 367 95q170 0 293 -107l193 132l81 -140l-166 -113l21 -30q169 -236 169 -603 q0 -319 -145 -478.5t-406 -159.5q-153 0 -272.5 58.5t-189.5 173.5t-70 271zM403 485q0 -98 57 -164.5t148 -66.5q60 0 101.5 23.5t64 68.5t32.5 99.5t12 128.5q-27 65 -84.5 104t-129.5 39q-92 0 -146.5 -66t-54.5 -166z" />
<glyph unicode="&#xf1;" horiz-adv-x="1220" d="M45 802v187h307q42 0 65 -22t24 -60v-21q158 125 323 125q153 0 235.5 -108t83.5 -312v-297q0 -97 95 -106l10 -1v-187h-140q-125 1 -190.5 67t-65.5 191v333q-1 75 -32 115t-105 40q-62 0 -119 -29t-95 -67v-650h-291v716q0 76 -76 85zM289 1234q10 103 67.5 170 t137.5 67q46 0 84 -22l172 -103q31 -17 55 -17q37 0 65.5 30t35.5 79l38 -3q-3 -97 -56 -165t-128 -68q-39 0 -84 26l-173 103q-26 13 -55 13q-42 0 -74.5 -31t-46.5 -82z" />
<glyph unicode="&#xf2;" horiz-adv-x="1144" d="M69 495q0 233 133.5 374.5t370.5 141.5t370.5 -141.5t133.5 -374.5t-133.5 -374t-370.5 -141t-370.5 141t-133.5 374zM352 1536h240l220 -386h-184zM359 494q0 -114 54.5 -186t158.5 -72q103 0 159.5 72.5t56.5 185.5q0 112 -57 186t-159 74q-103 0 -158 -73.5 t-55 -186.5z" />
<glyph unicode="&#xf3;" horiz-adv-x="1144" d="M69 495q0 233 133.5 374.5t370.5 141.5t370.5 -141.5t133.5 -374.5t-133.5 -374t-370.5 -141t-370.5 141t-133.5 374zM327 1150l220 386h240l-276 -386h-184zM359 494q0 -114 54.5 -186t158.5 -72q103 0 159.5 72.5t56.5 185.5q0 112 -57 186t-159 74q-103 0 -158 -73.5 t-55 -186.5z" />
<glyph unicode="&#xf4;" horiz-adv-x="1144" d="M69 495q0 233 133.5 374.5t370.5 141.5t370.5 -141.5t133.5 -374.5t-133.5 -374t-370.5 -141t-370.5 141t-133.5 374zM202 1150l209 386h322l210 -386h-184l-187 269l-187 -269h-183zM359 494q0 -114 54.5 -186t158.5 -72q103 0 159.5 72.5t56.5 185.5q0 112 -57 186 t-159 74q-103 0 -158 -73.5t-55 -186.5z" />
<glyph unicode="&#xf5;" horiz-adv-x="1144" d="M69 495q0 233 133.5 374.5t370.5 141.5t370.5 -141.5t133.5 -374.5t-133.5 -374t-370.5 -141t-370.5 141t-133.5 374zM245 1234q10 103 67.5 170t137.5 67q46 0 84 -22l172 -103q31 -17 55 -17q37 0 65.5 30t35.5 79l38 -3q-3 -97 -56 -165t-128 -68q-40 0 -85 26 l-172 103q-26 13 -55 13q-42 0 -74.5 -31t-46.5 -82zM359 494q0 -114 54.5 -186t158.5 -72q103 0 159.5 72.5t56.5 185.5q0 112 -57 186t-159 74q-103 0 -158 -73.5t-55 -186.5z" />
<glyph unicode="&#xf6;" horiz-adv-x="1144" d="M69 495q0 233 133.5 374.5t370.5 141.5t370.5 -141.5t133.5 -374.5t-133.5 -374t-370.5 -141t-370.5 141t-133.5 374zM273 1249v185h184v-185h-184zM359 494q0 -114 54.5 -186t158.5 -72q103 0 159.5 72.5t56.5 185.5q0 112 -57 186t-159 74q-103 0 -158 -73.5 t-55 -186.5zM687 1249v185h185v-185h-185z" />
<glyph unicode="&#xf7;" horiz-adv-x="935" d="M44 517v240h850v-240h-850zM322 81v235h294v-235h-294zM322 957v236h294v-236h-294z" />
<glyph unicode="&#xf8;" horiz-adv-x="1144" d="M69 495q0 233 133.5 374.5t370.5 141.5q89 0 164 -21l45 102h118l-63 -142q116 -63 178 -181t62 -274q0 -233 -133.5 -374t-370.5 -141q-88 0 -160 19l-45 -101h-118l63 140q-118 62 -181 181t-63 276zM359 494q0 -130 67 -200l203 453q-30 7 -57 7q-103 0 -158 -73.5 t-55 -186.5zM521 241q20 -5 51 -5q103 0 159.5 72.5t56.5 185.5q0 126 -66 198z" />
<glyph unicode="&#xf9;" horiz-adv-x="1175" d="M100 349v640h291v-590q1 -75 32.5 -115.5t105.5 -40.5q61 0 117.5 28.5t95.5 67.5v650h292v-695q0 -51 24.5 -76t80.5 -31v-187h-289q-51 1 -78.5 27.5t-29.5 74.5q-69 -54 -156.5 -88.5t-173.5 -34.5q-149 0 -230.5 99t-81.5 271zM341 1536h240l220 -386h-184z" />
<glyph unicode="&#xfa;" horiz-adv-x="1175" d="M100 349v640h291v-590q1 -75 32.5 -115.5t105.5 -40.5q61 0 117.5 28.5t95.5 67.5v650h292v-695q0 -51 24.5 -76t80.5 -31v-187h-289q-51 1 -78.5 27.5t-29.5 74.5q-69 -54 -156.5 -88.5t-173.5 -34.5q-149 0 -230.5 99t-81.5 271zM362 1150l219 386h241l-276 -386h-184z " />
<glyph unicode="&#xfb;" horiz-adv-x="1175" d="M100 349v640h291v-590q1 -75 32.5 -115.5t105.5 -40.5q61 0 117.5 28.5t95.5 67.5v650h292v-695q0 -51 24.5 -76t80.5 -31v-187h-289q-51 1 -78.5 27.5t-29.5 74.5q-69 -54 -156.5 -88.5t-173.5 -34.5q-149 0 -230.5 99t-81.5 271zM221 1150l209 386h323l209 -386h-184 l-186 269l-187 -269h-184z" />
<glyph unicode="&#xfc;" horiz-adv-x="1175" d="M100 349v640h291v-590q1 -75 32.5 -115.5t105.5 -40.5q61 0 117.5 28.5t95.5 67.5v650h292v-695q0 -51 24.5 -76t80.5 -31v-187h-289q-51 1 -78.5 27.5t-29.5 74.5q-69 -54 -156.5 -88.5t-173.5 -34.5q-149 0 -230.5 99t-81.5 271zM268 1249v185h184v-185h-184zM682 1249 v185h184v-185h-184z" />
<glyph unicode="&#xfd;" horiz-adv-x="1064" d="M35 989h291l206 -632l207 632h292l-373 -1061q-49 -145 -149.5 -225.5t-226.5 -93.5q-133 -9 -238 45l31 182q91 -37 164 -31q113 14 165 148l18 47h-13zM302 1150l220 386h240l-276 -386h-184z" />
<glyph unicode="&#xfe;" horiz-adv-x="1187" d="M38 1247v187h251q70 0 106.5 -36.5t36.5 -106.5v-380q114 102 273 102q185 0 300.5 -144t115.5 -373q0 -224 -115.5 -365t-301.5 -141q-168 0 -272 98v-457h-289v1529q0 76 -75 85zM432 285q95 -44 193 -44t148 68.5t50 186.5q0 124 -50 191t-147 67q-52 0 -107.5 -13 t-86.5 -30v-426z" />
<glyph unicode="&#xff;" horiz-adv-x="1064" d="M35 989h291l206 -632l207 632h292l-373 -1061q-49 -145 -149.5 -225.5t-226.5 -93.5q-133 -9 -238 45l31 182q91 -37 164 -31q113 14 165 148l18 47h-13zM232 1249v185h184v-185h-184zM646 1249v185h184v-185h-184z" />
<glyph unicode="&#x152;" horiz-adv-x="2068" d="M83 717q0 221 81.5 388.5t242 263t381.5 95.5q171 0 308 -60v30h896v-240h-543v-342h485v-240h-485v-372h556v-240h-909v31q-137 -60 -308 -60q-221 0 -381.5 95t-242 262.5t-81.5 388.5zM437 716q0 -103 18.5 -188.5t58.5 -155t109.5 -108.5t164.5 -39q175 0 307 90v813 q-139 82 -307 82q-95 0 -164.5 -39.5t-109.5 -109.5t-58.5 -156t-18.5 -189z" />
<glyph unicode="&#x153;" horiz-adv-x="2015" d="M69 495q0 232 133.5 374t370.5 142q155 0 266.5 -68t168.5 -187q59 119 174.5 186.5t276.5 67.5q152 0 249 -55.5t121 -142.5q10 -36 10 -77q0 -71 -36.5 -133t-109.5 -102q-66 -36 -157 -60.5t-154.5 -33.5t-150.5 -18q12 -92 88.5 -147.5t195.5 -55.5q136 0 280 49 l39 -158q-157 -94 -397 -94q-153 0 -262.5 66.5t-167.5 184.5q-57 -118 -168 -185.5t-266 -67.5q-237 0 -370.5 141t-133.5 374zM359 495q0 -114 54.5 -186t158.5 -72q103 0 159.5 72.5t56.5 185.5q0 112 -56.5 185.5t-159.5 73.5t-158 -73t-55 -186zM1230 554q4 0 12 1 q186 17 262 57q69 38 69 106q0 17 -4 30q-23 79 -140 79q-95 0 -146 -65t-53 -170v-38z" />
<glyph unicode="&#x178;" horiz-adv-x="1406" d="M34 1434h356l314 -582l315 582h355l-493 -873v-561h-354v561zM397 1694v184h184v-184h-184zM811 1694v184h185v-184h-185z" />
<glyph unicode="&#x2c6;" horiz-adv-x="833" d="M47 1150l209 386h322l209 -386h-184l-186 269l-187 -269h-183z" />
<glyph unicode="&#x2dc;" horiz-adv-x="761" d="M54 1234q10 103 67.5 170t137.5 67q46 0 84 -22l172 -103q31 -17 55 -17q37 0 65 30t35 79l38 -3q-3 -97 -56 -165t-128 -68q-39 0 -84 26l-172 103q-26 13 -55 13q-42 0 -74.5 -31t-46.5 -82z" />
<glyph unicode="&#x2000;" horiz-adv-x="1001" />
<glyph unicode="&#x2001;" horiz-adv-x="2003" />
<glyph unicode="&#x2002;" horiz-adv-x="1001" />
<glyph unicode="&#x2003;" horiz-adv-x="2003" />
<glyph unicode="&#x2004;" horiz-adv-x="667" />
<glyph unicode="&#x2005;" horiz-adv-x="500" />
<glyph unicode="&#x2006;" horiz-adv-x="333" />
<glyph unicode="&#x2007;" horiz-adv-x="333" />
<glyph unicode="&#x2008;" horiz-adv-x="250" />
<glyph unicode="&#x2009;" horiz-adv-x="400" />
<glyph unicode="&#x200a;" horiz-adv-x="111" />
<glyph unicode="&#x2010;" horiz-adv-x="647" d="M69 517v240h510v-240h-510z" />
<glyph unicode="&#x2011;" horiz-adv-x="647" d="M69 517v240h510v-240h-510z" />
<glyph unicode="&#x2012;" horiz-adv-x="647" d="M69 517v240h510v-240h-510z" />
<glyph unicode="&#x2013;" horiz-adv-x="903" d="M69 517v240h766v-240h-766z" />
<glyph unicode="&#x2014;" horiz-adv-x="1243" d="M69 517v240h1106v-240h-1106z" />
<glyph unicode="&#x2018;" horiz-adv-x="389" d="M50 1080v234l75 197h180l-74 -196h114v-235h-295z" />
<glyph unicode="&#x2019;" horiz-adv-x="389" d="M50 1276v235h295v-234l-75 -197h-180l74 196h-114z" />
<glyph unicode="&#x201a;" horiz-adv-x="389" d="M50 1v236h295v-235l-75 -197h-180l74 196h-114z" />
<glyph unicode="&#x201c;" horiz-adv-x="774" d="M50 1080v234l75 197h180l-74 -196h114v-235h-295zM432 1080v234l74 197h180l-74 -196h114v-235h-294z" />
<glyph unicode="&#x201d;" horiz-adv-x="774" d="M50 1276v235h295v-234l-75 -197h-180l74 196h-114zM432 1276v235h294v-234l-75 -197h-179l74 196h-114z" />
<glyph unicode="&#x201e;" horiz-adv-x="776" d="M51 0v236h295v-235l-75 -198h-180l74 197h-114zM432 0v236h295v-235l-75 -198h-180l75 197h-115z" />
<glyph unicode="&#x2022;" horiz-adv-x="432" d="M54 483v262h325v-262h-325z" />
<glyph unicode="&#x2026;" horiz-adv-x="1282" d="M61 0v236h295v-236h-295zM494 0v236h295v-236h-295zM928 0v236h295v-236h-295z" />
<glyph unicode="&#x202f;" horiz-adv-x="400" />
<glyph unicode="&#x2039;" horiz-adv-x="520" d="M55 453l150 483h253l-170 -483l170 -453h-253z" />
<glyph unicode="&#x203a;" horiz-adv-x="520" d="M65 0l169 453l-169 483h253l149 -483l-149 -453h-253z" />
<glyph unicode="&#x205f;" horiz-adv-x="500" />
<glyph unicode="&#x20ac;" horiz-adv-x="1304" d="M79 495v147h121q-5 45 -5 75q0 43 4 76h-120v148h121q13 231 177 377t427 146q158 0 273 -39.5t214 -107.5l-116 -195q-162 103 -349 103q-140 0 -218 -75.5t-91 -208.5h556v-148h-558q-4 -33 -4 -76q0 -41 5 -75h406v-147h-405q14 -132 92 -206t217 -74q187 0 349 103 l116 -195q-99 -68 -214 -108t-273 -40q-262 0 -425.5 145t-177.5 375h-122z" />
<glyph unicode="&#x2122;" horiz-adv-x="1818" d="M69 1257v177h663v-177h-220v-662h-224v662h-219zM813 595v839h286l173 -465l172 465h286v-839h-224v475l-175 -475h-119l-175 475v-475h-224z" />
<glyph unicode="&#xe000;" horiz-adv-x="993" d="M0 0v993h993v-993h-993z" />
<glyph unicode="&#xfb03;" horiz-adv-x="1949" d="M69 749v240h144v111q0 236 163 314q78 37 189 37q97 0 189 -28l-37 -212q-51 8 -86 8q-38 0 -64 -10q-63 -22 -63 -109v-111h405v111q0 244 175 319q74 32 178 32q97 0 189 -28l-38 -212q-49 7 -87 7q-42 0 -66 -10q-59 -24 -59 -109v-110h452q100 0 153 -60.5t53 -176.5 v-752h-293v663q0 39 -22 62.5t-60 23.5h-283v-749h-292v749h-405v-749h-291v749h-144z" />
<glyph unicode="&#xfb04;" horiz-adv-x="2076" d="M69 749v240h144v111q0 225 149 306q84 45 203 45q98 0 189 -28l-37 -212q-48 8 -86 8q-42 0 -68 -11q-59 -23 -59 -108v-111h405v111q0 235 162 313q79 38 190 38q97 0 190 -29h428v-1127q0 -50 25 -75.5t81 -31.5v-187h-141q-125 1 -190.5 67t-65.5 191v951h-173 q-48 8 -87 8q-44 0 -70 -11q-57 -23 -57 -107v-111h209v-240h-209v-749h-292v749h-405v-749h-291v749h-144z" />
</font>
</defs>
</svg>
