<?xml version="1.0" standalone="no"?>
<!DOCTYPE svg PUBLIC "-//W3C//DTD SVG 1.1//EN" "http://www.w3.org/Graphics/SVG/1.1/DTD/svg11.dtd" >
<svg xmlns="http://www.w3.org/2000/svg">
<metadata></metadata>
<defs>
<font id="regan_altbold_italic" horiz-adv-x="1572" >
<font-face units-per-em="2048" ascent="1536" descent="-512" />
<missing-glyph horiz-adv-x="614" />
<glyph unicode="&#xfb01;" horiz-adv-x="1216" d="M23 -219q34 14 59.5 29t54.5 41.5t50 68t33 95.5l164 770h-143l44 204h142l29 135q47 223 221 294q82 33 181 33q90 0 176 -26l-70 -181q-76 9 -96 9q-38 0 -71 -10q-74 -25 -94 -120l-29 -134h462q74 0 112.5 -36.5t38.5 -106.5q0 -37 -8 -72l-165 -774h-248l149 700 q3 12 3 23q0 29 -17 45.5t-49 16.5h-321l-164 -771q-15 -70 -49.5 -130.5t-73.5 -98t-85 -67t-79.5 -43.5t-61.5 -21z" />
<glyph unicode="&#xfb02;" horiz-adv-x="1345" d="M23 -219q34 14 59.5 29t54.5 41.5t50 68t33 95.5l164 770h-143l44 204h142l29 135q47 222 220 294q82 33 183 33q92 0 175 -26h401l-244 -1151q-4 -17 -4 -36q0 -70 90 -77l-34 -159h-118q-196 2 -196 168q0 34 9 74l212 1000h-184q-54 8 -95 8q-39 0 -62 -6 q-84 -22 -106 -123l-29 -134h225l-44 -204h-224l-164 -771q-15 -70 -49.5 -130.5t-73.5 -98t-85 -67t-79.5 -43.5t-61.5 -21z" />
<glyph horiz-adv-x="2048" />
<glyph horiz-adv-x="2048" />
<glyph unicode="&#xd;" horiz-adv-x="2048" />
<glyph unicode=" "  horiz-adv-x="614" />
<glyph unicode="&#x09;" horiz-adv-x="614" />
<glyph unicode="&#xa0;" horiz-adv-x="614" />
<glyph unicode="!" horiz-adv-x="489" d="M120 0l43 204h252l-44 -204h-251zM235 428l191 1006h248l-236 -1006h-203z" />
<glyph unicode="&#x22;" horiz-adv-x="610" d="M269 959l101 475h159l-101 -475h-159zM591 959l101 475h159l-101 -475h-159z" />
<glyph unicode="#" horiz-adv-x="1378" d="M118 385l33 155h263l155 364h-340l33 155h373l160 375h177l-159 -375h345l160 375h177l-160 -375h233l-33 -155h-266l-154 -364h342l-33 -155h-375l-163 -385h-178l163 385h-345l-163 -385h-178l163 385h-230zM592 540h345l155 364h-345z" />
<glyph unicode="$" horiz-adv-x="1148" d="M93 41l55 245q229 -69 402 -69q135 0 213 54t96 139q4 17 4 36q0 60 -52 96.5t-170 75.5l-87 29q-264 91 -264 307q0 44 10 91q20 95 68.5 169.5t115.5 121t141 74t158 39.5l30 138h187l-28 -130q170 -7 363 -70l-53 -236q-177 69 -359 69q-267 0 -308 -168 q-4 -16 -4 -34q0 -104 167 -161l82 -28q79 -27 134.5 -54.5t101.5 -64.5t68.5 -85t22.5 -109q0 -33 -10 -81q-39 -183 -174 -301t-343 -144l-30 -140h-187l27 127q-208 8 -377 64z" />
<glyph unicode="%" horiz-adv-x="1638" d="M216 -35l1297 1503h209l-1297 -1503h-209zM277 974q0 50 10 97q34 158 148 266t261 108q123 0 192.5 -78t69.5 -201q0 -48 -10 -95q-34 -158 -149 -266t-262 -108q-123 0 -191.5 76.5t-68.5 200.5zM447 1007q0 -65 32 -103t94 -38q78 0 133.5 57.5t74.5 147.5q7 32 7 65 q0 64 -32 102t-95 38q-77 0 -132.5 -58t-74.5 -147q-7 -32 -7 -64zM986 266q0 50 10 97q34 158 148.5 266t261.5 108q123 0 192.5 -78t69.5 -201q0 -43 -11 -95q-34 -158 -148.5 -265.5t-261.5 -107.5q-123 0 -192 76.5t-69 199.5zM1156 299q0 -64 32.5 -102.5t94.5 -38.5 q78 0 132.5 57.5t74.5 147.5q8 37 8 65q0 64 -32.5 102t-95.5 38q-77 0 -132.5 -58t-74.5 -147q-7 -32 -7 -64z" />
<glyph unicode="&#x26;" horiz-adv-x="1544" d="M146 295q0 41 9 83q29 143 149 243t282 143l40 15l-75 105q-64 88 -64 174q0 35 9 77q13 61 50 117.5t96.5 104t149.5 76t196 28.5q96 0 169 -22.5t114.5 -61.5t62 -85t20.5 -99q0 -125 -101 -226t-301 -174l-45 -18l249 -334q85 77 153 166.5t146 220.5h181 q-170 -321 -384 -526l213 -302h-286l-110 155q-102 -87 -231.5 -134.5t-269.5 -47.5q-199 0 -310.5 88t-111.5 234zM391 332q0 -179 235 -179q105 0 190 32t165 107l-279 377l-45 -18q-227 -86 -259 -250q-7 -35 -7 -69zM739 1056q0 -59 47 -121l41 -52l52 22 q145 60 201 120t56 142q0 53 -34 88.5t-118 35.5q-106 0 -164 -51.5t-73 -119.5q-8 -38 -8 -64z" />
<glyph unicode="'" horiz-adv-x="288" d="M269 959l101 475h159l-101 -475h-159z" />
<glyph unicode="(" horiz-adv-x="686" d="M148 291q0 130 28 256q47 223 175 444q141 244 413 527l149 -122q-226 -234 -359 -466q-110 -191 -148 -383q-26 -118 -26 -228q0 -73 12 -154q37 -237 162 -468l-204 -117q-151 282 -188 523q-14 94 -14 188z" />
<glyph unicode=")" horiz-adv-x="686" d="M4 -303q224 232 361 468q112 194 149 382q26 118 26 228q0 72 -12 155q-36 233 -161 466l201 121q152 -283 189 -526q15 -100 15 -188q0 -130 -28 -256q-47 -222 -176 -445q-138 -239 -410 -522z" />
<glyph unicode="*" horiz-adv-x="681" d="M294 1174l62 114l186 -65l44 211h120l-44 -211l213 65l13 -114l-213 -65l87 -170l-112 -70l-88 170l-159 -170l-82 70l159 170z" />
<glyph unicode="+" horiz-adv-x="978" d="M175 516l44 205h322l68 322h205l-68 -322h323l-44 -205h-323l-69 -323h-205l69 323h-322z" />
<glyph unicode="," horiz-adv-x="368" d="M58 -168l100 168h-97l43 204h251l-43 -202l-100 -170h-154z" />
<glyph unicode="-" horiz-adv-x="657" d="M188 534l44 205h509l-43 -205h-510z" />
<glyph unicode="." horiz-adv-x="370" d="M60 0l43 204h251l-43 -204h-251z" />
<glyph unicode="/" horiz-adv-x="917" d="M37 0l942 1434h209l-943 -1434h-208z" />
<glyph unicode="0" horiz-adv-x="1363" d="M219 474q0 100 25 220q44 206 144.5 366.5t255 255t338.5 94.5q224 0 341 -134.5t117 -363.5q0 -102 -24 -218q-44 -207 -145 -367.5t-255.5 -255t-338.5 -94.5q-223 0 -340.5 134.5t-117.5 362.5zM479 511q0 -141 60 -225t186 -84q85 0 158.5 40t127 110t91 156 t58.5 186q21 102 21 182q0 141 -60.5 225.5t-186.5 84.5q-85 0 -158.5 -40t-126.5 -110t-90.5 -156t-58.5 -186q-21 -102 -21 -183z" />
<glyph unicode="1" horiz-adv-x="645" d="M245 0l254 1194l-166 -29l6 178l313 55h138l-297 -1398h-248z" />
<glyph unicode="2" horiz-adv-x="1079" d="M78 0l47 223q340 195 521 379q184 188 214 349q7 40 7 64q0 89 -56.5 130.5t-149.5 41.5q-155 0 -327 -90l42 227q210 101 418 92q102 -3 185 -40t136 -113t53 -180q0 -42 -11 -97q-40 -188 -236 -392q-166 -173 -455 -371h588l-48 -223h-928z" />
<glyph unicode="3" horiz-adv-x="1107" d="M96 85l49 204q100 -81 284 -81q146 0 241 50t118 158q4 16 4 35q0 72 -61.5 114.5t-155.5 44.5h-213l39 187h179q61 2 123.5 24t115 70.5t66.5 112.5q4 17 4 37q0 73 -66 109.5t-175 35.5q-154 -1 -311 -75l38 208q192 93 392 93q84 0 159.5 -16t139.5 -48.5t101.5 -89.5 t37.5 -131q0 -29 -8 -69q-26 -123 -105.5 -207t-193.5 -131q201 -83 201 -273q0 -43 -10 -87q-18 -86 -65 -154t-107.5 -109t-137 -68t-148 -37t-146.5 -10q-109 0 -220 24.5t-169 78.5z" />
<glyph unicode="4" horiz-adv-x="1175" d="M126 380l45 209l707 809l277 -7l-685 -802h345l152 283h151l-60 -283h177l-45 -209h-172l-81 -380h-247l80 380h-644z" />
<glyph unicode="5" horiz-adv-x="1126" d="M95 84l47 195q79 -43 151.5 -62.5t160.5 -19.5q143 0 241 67.5t124 192.5q8 38 8 67q0 85 -56.5 130t-166.5 45h-313l162 699h785l-47 -225h-554l-76 -301h179q184 0 291 -81.5t107 -235.5q0 -49 -12 -106q-31 -147 -126 -254t-221 -159.5t-269 -55.5q-258 -9 -415 104z " />
<glyph unicode="6" horiz-adv-x="1212" d="M206 414q0 82 17 181q36 201 118 367.5t214.5 281.5t294.5 143q91 20 181 20q138 0 320 -55l-48 -202q-159 72 -293 72q-25 0 -49 -3q-152 -10 -267.5 -134.5t-175.5 -328.5q73 75 178 118t211 43q164 0 258.5 -82t94.5 -232q0 -55 -13 -114q-49 -230 -224 -371 t-401 -141q-207 0 -311.5 115t-104.5 322zM483 409q0 -101 43.5 -155t144.5 -54q108 0 192.5 78t108.5 191q8 40 8 73q0 88 -49.5 142.5t-140.5 54.5q-86 0 -163 -45.5t-125 -120.5q-19 -104 -19 -164z" />
<glyph unicode="7" horiz-adv-x="1054" d="M224 -2q90 248 246 514.5t476 674.5h-603l44 211h908l-34 -161q-181 -223 -313.5 -405.5t-221 -330.5t-144 -263t-102.5 -240h-256z" />
<glyph unicode="8" horiz-adv-x="1320" d="M169 292q0 38 9 81q25 119 113 199.5t227 136.5q37 17 62 25q-59 30 -92 54q-128 80 -128 215q0 32 8 72q16 78 62 138.5t106 97t136 60t146.5 32t143.5 8.5q85 0 160 -12.5t145 -41t111.5 -84t41.5 -131.5q0 -33 -7 -67q-40 -189 -244 -288q-43 -23 -114 -53 q25 -11 58 -29q199 -100 199 -263q0 -29 -8 -69q-18 -87 -67 -156t-114 -112.5t-146 -72.5t-160 -40.5t-160 -11.5q-73 0 -140.5 9.5t-132 32.5t-111.5 58t-75.5 89.5t-28.5 122.5zM467 344q0 -82 60.5 -116.5t176.5 -34.5q135 0 215.5 47.5t105.5 163.5q4 20 4 43 q0 66 -46 104.5t-134 72.5l-49 18l-57 -18q-51 -17 -87 -31.5t-74.5 -38.5t-61.5 -51.5t-38 -68t-15 -90.5zM631 1000q0 -93 111 -140q8 -4 95 -36q98 32 110 36q81 29 125.5 73.5t58.5 110.5q5 25 5 43q0 135 -215 135q-248 0 -285 -178q-5 -27 -5 -44z" />
<glyph unicode="9" horiz-adv-x="1212" d="M159 37l48 203q159 -72 293 -72q33 0 49 2q152 10 267.5 134.5t175.5 328.5q-72 -75 -177.5 -118t-211.5 -43q-164 0 -258.5 82t-94.5 232q0 54 13 113q49 229 223.5 370.5t399.5 141.5q209 0 313.5 -115t104.5 -322q0 -82 -17 -181q-27 -150 -81 -282.5t-132.5 -239 t-185 -177.5t-228.5 -92q-86 -19 -178 -19q-136 0 -323 54zM530 847q0 -88 49.5 -142t140.5 -54q86 0 163 45.5t125 120.5q19 104 19 164q0 101 -43.5 155t-144.5 54q-108 0 -192.5 -78t-108.5 -192q-8 -40 -8 -73z" />
<glyph unicode=":" horiz-adv-x="370" d="M61 0l43 204h251l-43 -204h-251zM228 785l43 204h251l-43 -204h-251z" />
<glyph unicode=";" horiz-adv-x="370" d="M58 -168l100 168h-97l43 204h251l-43 -202l-100 -170h-154zM228 785l43 204h251l-43 -204h-251z" />
<glyph unicode="&#x3c;" horiz-adv-x="872" d="M154 533l50 233l843 402l-50 -233l-607 -280l486 -291l-50 -232z" />
<glyph unicode="=" horiz-adv-x="997" d="M157 388l33 156h850l-33 -156h-850zM237 763l33 156h850l-34 -156h-849z" />
<glyph unicode="&#x3e;" horiz-adv-x="872" d="M102 132l50 232l610 291l-489 280l50 233l671 -402l-49 -233z" />
<glyph unicode="?" horiz-adv-x="888" d="M194 0l43 204h252l-44 -204h-251zM284 416l9 40q23 111 100 200q67 77 221 173q186 111 220 270q6 29 6 53q0 75 -52.5 111t-145.5 36q-121 0 -307 -64l3 144q211 83 381 83q73 0 137.5 -16.5t117.5 -49t84 -88.5t31 -128q0 -38 -9 -81q-23 -111 -86 -187t-177 -144 q-12 -7 -41 -24t-41.5 -24.5t-35.5 -22.5t-36 -26.5t-29 -27.5t-29 -33q-44 -56 -65 -154l-8 -40h-248z" />
<glyph unicode="@" horiz-adv-x="1687" d="M150 286q0 97 22 201q76 356 332.5 565t614.5 209q302 0 468.5 -139.5t166.5 -397.5q0 -93 -22 -196q-41 -195 -147 -293.5t-256 -106.5h-268l-21 54q-48 -30 -113.5 -49t-125.5 -19q-106 0 -161.5 65t-55.5 180q0 59 15 129q35 168 133.5 268.5t238.5 108.5q28 2 43 2 q84 0 162.5 -28.5t137.5 -80.5l-101 -473l12 -47q124 7 204 75.5t108 200.5q22 104 22 182q0 206 -123.5 312.5t-348.5 106.5q-275 0 -467 -164.5t-256 -463.5q-22 -105 -22 -186q0 -198 111 -308.5t321 -125.5q74 -2 188 8l-7 -139q-82 -16 -165 -16q-304 0 -472 150.5 t-168 415.5zM754 404q0 -140 131 -140q88 0 178 55l73 343q-73 49 -153 49q-85 0 -140.5 -57.5t-78.5 -165.5q-10 -44 -10 -84z" />
<glyph unicode="A" horiz-adv-x="1370" d="M35 0l779 1434h354l169 -1434h-307l-32 334h-481l-174 -334h-308zM594 538h404l-65 642z" />
<glyph unicode="B" horiz-adv-x="1280" d="M141 0l305 1434h622q153 0 243 -71t90 -203q0 -44 -10 -90q-27 -126 -105 -207.5t-151 -106.5q28 -9 54.5 -25.5t54.5 -46t45.5 -77.5t17.5 -108q0 -46 -12 -103q-19 -91 -61 -161.5t-95 -114t-120.5 -71.5t-133.5 -38.5t-139 -10.5h-605zM453 204h278q95 0 172.5 53.5 t98.5 154.5q5 21 5 49q0 75 -51 116.5t-129 41.5h-285zM585 823h270q91 0 162 51.5t92 151.5q6 25 6 49q0 73 -49 113.5t-125 40.5h-270z" />
<glyph unicode="C" horiz-adv-x="1325" d="M225 507q0 98 24 209q35 163 110 299.5t182 235.5t250 154.5t306 55.5q169 0 274 -48q109 -50 109 -184q0 -43 -10 -89l-16 -76h-193l2 27q3 17 3 30q0 72 -60 92q-57 18 -130 18q-14 0 -28 -1q-185 -7 -317 -147t-180 -367q-18 -82 -18 -165q0 -156 75.5 -247.5 t220.5 -100.5q30 -3 61 -3q157 0 342 72l11 -201q-205 -100 -462 -100q-270 0 -413 144.5t-143 391.5z" />
<glyph unicode="D" horiz-adv-x="1425" d="M141 0l305 1434h499q273 0 417 -135.5t144 -377.5q0 -94 -23 -204q-70 -330 -292.5 -523.5t-550.5 -193.5h-499zM484 204h201q187 0 317 141.5t179 371.5q20 95 20 175q0 157 -75 247t-223 90h-201z" />
<glyph unicode="E" horiz-adv-x="1107" d="M141 0l305 1434h884l-43 -205h-585l-84 -392h520l-44 -204h-519l-91 -429h595l-43 -204h-895z" />
<glyph unicode="F" horiz-adv-x="1085" d="M141 0l305 1434h872l-50 -237h-573l-86 -406h489l-43 -204h-490l-125 -587h-299z" />
<glyph unicode="G" horiz-adv-x="1380" d="M214 507q0 98 24 209q35 163 110 299.5t182 235.5t250 154.5t306 55.5q249 0 429 -102l-96 -200q-164 74 -319 74q-30 0 -62 -3q-184 -11 -317 -153t-180 -361q-22 -104 -22 -190q0 -156 73 -247t228 -91q144 0 261 88l68 320h-274l33 154h514l-138 -650 q-254 -127 -514 -127q-270 0 -413 143.5t-143 390.5z" />
<glyph unicode="H" horiz-adv-x="1443" d="M141 0l305 1434h299l-126 -595h564l126 595h300l-305 -1434h-299l135 635h-565l-135 -635h-299z" />
<glyph unicode="I" horiz-adv-x="579" d="M141 0l305 1434h299l-305 -1434h-299z" />
<glyph unicode="J" horiz-adv-x="851" d="M56 12l56 252q79 -29 144 -29q45 0 81 13q62 13 106.5 58t57.5 106l217 1022h300l-230 -1082q-34 -160 -154.5 -252.5t-271.5 -107.5q-43 -11 -101 -11q-101 0 -205 31z" />
<glyph unicode="K" horiz-adv-x="1484" d="M141 0l305 1434h299l-124 -586h198l489 586h309l-572 -678l122 -369q26 -75 65 -117t95 -56q42 -12 128 -12h36l-38 -196q-50 -2 -107.5 -4.5t-89 -4t-52.5 -1.5q-54 0 -96 13q-142 34 -201 216l-131 420h-199l-136 -645h-300z" />
<glyph unicode="L" horiz-adv-x="1007" d="M141 0l305 1434h299l-254 -1194h533l-51 -240h-832z" />
<glyph unicode="M" horiz-adv-x="1783" d="M136 0l305 1434h383l172 -937l571 937h382l-304 -1434h-300l202 951l-576 -951h-161l-172 951l-202 -951h-300z" />
<glyph unicode="N" horiz-adv-x="1431" d="M131 0l305 1434h313l361 -930l198 930h299l-304 -1434h-312l-362 934l-199 -934h-299z" />
<glyph unicode="O" d="M226 509q0 103 23 208q35 163 110 299.5t182.5 235.5t250.5 154.5t306 55.5q270 0 412.5 -144t142.5 -391q0 -99 -24 -210q-35 -163 -110 -299.5t-182 -235.5t-250 -154t-306 -55q-270 0 -412.5 144.5t-142.5 391.5zM527 527q0 -156 72.5 -247t227.5 -91q102 0 188.5 42 t147.5 116t102.5 166.5t65.5 203.5q22 104 22 190q0 157 -73 248.5t-228 91.5q-82 0 -154.5 -28t-127.5 -76.5t-99.5 -116t-74 -144.5t-48.5 -165q-21 -99 -21 -190z" />
<glyph unicode="P" horiz-adv-x="1290" d="M141 0l305 1434h620q73 0 139.5 -22t120 -64.5t85.5 -111.5t32 -155q0 -53 -12 -113q-41 -190 -199 -322t-362 -132h-329l-110 -514h-290zM584 719h258q103 0 184 65t107 187q8 37 8 76q0 90 -52.5 136.5t-138.5 46.5h-257z" />
<glyph unicode="Q" d="M226 509q0 104 23 209q35 163 110 299.5t182.5 235.5t250.5 154.5t306 55.5q270 0 412.5 -144.5t142.5 -391.5q0 -98 -24 -209q-49 -231 -177 -404t-315 -248l43 -46q72 -77 169 -88l112 -6l-33 -157h-203q-92 0 -156 26t-120 86l-88 99q-39 -6 -80 -6q-270 0 -412.5 144 t-142.5 391zM527 528q0 -156 72.5 -247t227.5 -91q102 0 188.5 42t147.5 116t102.5 166.5t65.5 203.5q22 104 22 190q0 157 -73 248.5t-228 91.5q-82 0 -154.5 -28t-127.5 -76.5t-99.5 -116t-74 -144.5t-48.5 -165q-21 -99 -21 -190z" />
<glyph unicode="R" horiz-adv-x="1384" d="M141 0l305 1434h633q96 0 177.5 -35.5t135.5 -114t54 -186.5q0 -48 -12 -104q-29 -133 -121.5 -230t-221.5 -137l-71 -6l100 -241q28 -75 67.5 -116.5t98.5 -58.5q40 -11 95 -11l-40 -196q-144 -2 -159 -2q-82 0 -122 12q-135 38 -197 210l-129 347h-186l-120 -565h-287z M591 769h272q97 0 172.5 58.5t99.5 168.5q7 32 7 63q0 82 -50 126t-132 44h-271z" />
<glyph unicode="S" horiz-adv-x="1161" d="M96 41l56 245q229 -69 402 -69q135 0 213 54t96 139q4 17 4 36q0 60 -52.5 96.5t-170.5 75.5l-86 29q-265 91 -265 307q0 39 11 91q25 115 90 200t153 130t178 65.5t185 20.5q219 0 429 -74l-54 -236q-177 69 -358 69q-267 0 -308 -168q-5 -20 -5 -34q0 -104 167 -161 l82 -28q79 -27 134.5 -54.5t101.5 -64.5t68.5 -85t22.5 -109q0 -38 -9 -81q-46 -216 -221 -338t-428 -122q-248 0 -436 66z" />
<glyph unicode="T" horiz-adv-x="1155" d="M297 1229l43 205h1087l-44 -205h-394l-262 -1229h-299l261 1229h-392z" />
<glyph unicode="U" horiz-adv-x="1394" d="M226 340q0 55 14 123l206 971h299l-209 -983q-10 -49 -10 -90q0 -89 53 -130.5t160 -41.5q132 0 208.5 62.5t105.5 199.5l208 983h300l-207 -971q-51 -239 -231 -363.5t-430 -124.5q-215 0 -341 92.5t-126 272.5z" />
<glyph unicode="V" horiz-adv-x="1314" d="M340 1434h300l80 -1140l565 1140h300l-752 -1434h-350z" />
<glyph unicode="W" horiz-adv-x="1908" d="M340 1434h300l28 -1055l464 1055h255l16 -1055l477 1055h300l-668 -1434h-334l-37 873l-409 -873h-334z" />
<glyph unicode="X" horiz-adv-x="1306" d="M45 0l621 728l-302 706h302l199 -483l405 483h302l-604 -706l314 -728h-302l-210 505l-423 -505h-302z" />
<glyph unicode="Y" horiz-adv-x="1368" d="M340 1434h301l214 -633l483 633h301l-687 -881l-117 -553h-300l118 553z" />
<glyph unicode="Z" horiz-adv-x="1234" d="M79 0l50 236l961 993h-703l43 205h994l-50 -237l-946 -993h773l-43 -204h-1079z" />
<glyph unicode="[" horiz-adv-x="575" d="M-10 -397l384 1807h438l-33 -156h-227l-318 -1496h227l-33 -155h-438z" />
<glyph unicode="\" horiz-adv-x="917" d="M341 1434h209l333 -1434h-209z" />
<glyph unicode="]" horiz-adv-x="575" d="M-20 -397l33 155h227l318 1496h-227l33 156h437l-384 -1807h-437z" />
<glyph unicode="^" horiz-adv-x="1140" d="M196 674l564 760h233l240 -760h-232l-174 550l-398 -550h-233z" />
<glyph unicode="_" horiz-adv-x="1232" d="M-2 -313l33 155h1104l-33 -155h-1104z" />
<glyph unicode="`" horiz-adv-x="528" d="M376 1536h205l149 -378h-158z" />
<glyph unicode="a" horiz-adv-x="1185" d="M164 328q0 78 19 166q52 243 188.5 381t322.5 138q177 0 276 -107l55 83h207l-153 -720l-3 -37q-2 -33 11 -50t46 -21l31 -1l-34 -160h-155q-104 0 -130 92l-4 20q-165 -131 -358 -131q-149 0 -234 90t-85 257zM417 383q0 -91 44 -139.5t131 -48.5q123 0 239 57l103 483 q-92 59 -214 59q-111 0 -186 -81.5t-104 -218.5q-13 -59 -13 -111z" />
<glyph unicode="b" horiz-adv-x="1173" d="M177 107l230 1082q3 13 3 25q0 53 -61 59l-35 1l34 160h219q112 0 112 -95q0 -16 -5 -41l-83 -392q144 107 322 107q149 0 229.5 -90t80.5 -254q0 -77 -20 -175q-36 -172 -126.5 -289.5t-211 -170.5t-266.5 -53q-236 0 -422 126zM452 252q93 -57 215 -57q111 0 185 77.5 t104 221.5q13 62 13 106q0 91 -43.5 142.5t-131.5 51.5q-123 0 -239 -59z" />
<glyph unicode="c" horiz-adv-x="995" d="M167 353q0 69 16 142q49 232 210 373.5t392 141.5q134 0 212 -42q86 -38 86 -138q0 -30 -7 -61l-18 -85h-167l1 16q2 16 2 22q0 60 -57 72q-32 8 -81 8q-25 0 -38 -1q-110 -7 -185.5 -90.5t-103.5 -215.5q-11 -53 -11 -97q0 -103 55 -161t160 -58q133 0 276 55l11 -196 q-183 -61 -355 -61q-193 0 -295.5 101.5t-102.5 274.5z" />
<glyph unicode="d" horiz-adv-x="1189" d="M164 328q0 78 19 166q52 243 188.5 381t322.5 138q177 0 276 -107l83 392q14 66 56.5 101t108.5 35h219l-34 -160l-35 -1q-76 -7 -93 -84l-196 -920l-3 -37q-2 -33 11 -50t46 -21l31 -1l-34 -160h-155q-104 0 -130 92l-4 20q-165 -131 -358 -131q-149 0 -234 90t-85 257z M417 383q0 -91 44 -139.5t131 -48.5q123 0 239 57l103 483q-92 59 -214 59q-111 0 -186 -81.5t-104 -218.5q-13 -59 -13 -111z" />
<glyph unicode="e" horiz-adv-x="1046" d="M168 356q0 73 15 140q50 232 215 373t403 141q158 0 238.5 -60.5t80.5 -152.5q0 -85 -52.5 -165t-151.5 -128q-168 -82 -503 -114q-1 -13 -1 -24q0 -91 60 -148q67 -63 195 -63h4q140 1 293 49l5 -136q-170 -86 -404 -86q-192 0 -294.5 100.5t-102.5 273.5zM442 532 q69 6 105 10t109.5 20t120.5 39q52 25 81 66.5t29 84.5q0 40 -32 70.5t-112 30.5q-111 0 -189.5 -79.5t-104.5 -202.5z" />
<glyph unicode="f" horiz-adv-x="796" d="M25 -219q34 14 59.5 29t54.5 41.5t50 68t33 95.5l164 770h-143l44 204h142l29 135q48 222 223 296q79 33 174 33q89 0 181 -28l-70 -181q-51 9 -93 9q-40 0 -73 -10q-74 -25 -95 -120l-29 -134h225l-44 -204h-224l-164 -771q-15 -70 -49.5 -130.5t-73.5 -98t-85 -67 t-79.5 -43.5t-61.5 -21z" />
<glyph unicode="g" horiz-adv-x="1138" d="M123 -336l71 143q189 -37 288 -37q116 0 190 44.5t98 152.5l28 133q-170 -100 -336 -100q-142 0 -220.5 84.5t-78.5 241.5q0 77 19 165q28 130 86 229.5t138.5 161t176 92.5t204.5 31q242 0 421 -129l-193 -909q-70 -331 -445 -348q-39 -3 -81 -3q-153 0 -366 48z M418 394q0 -88 44 -139t132 -51q124 0 238 58l100 470q-91 57 -214 57q-111 0 -184.5 -77t-104.5 -221q-11 -53 -11 -97z" />
<glyph unicode="h" horiz-adv-x="1183" d="M127 0l305 1434h247l-118 -553q78 53 176.5 91.5t193.5 38.5q246 0 246 -257q0 -64 -19 -159l-68 -323q-4 -17 -4 -35q0 -70 90 -77l-34 -160h-117q-97 0 -147 43t-50 126q0 32 9 73l76 361q8 40 8 70q0 56 -29.5 85t-97.5 29q-74 0 -149.5 -34.5t-127.5 -77.5l-143 -675 h-247z" />
<glyph unicode="i" horiz-adv-x="530" d="M163 0l158 745q3 13 3 25q0 52 -61 58l-34 1l34 160h169q74 0 112.5 -36.5t38.5 -106.5q0 -36 -8 -71l-165 -775h-247zM407 1148l55 256h246l-54 -256h-247z" />
<glyph unicode="j" horiz-adv-x="530" d="M-139 -291q30 4 48.5 7.5t48.5 11.5t50 18t45 27.5t41.5 40t31.5 55t24 72.5l223 1048h247l-223 -1048q-18 -83 -60.5 -149t-92 -103.5t-108.5 -62.5t-103 -34t-82 -10zM407 1148l54 256h247l-54 -256h-247z" />
<glyph unicode="k" horiz-adv-x="1146" d="M123 0l304 1434h247l-168 -789h134q136 2 231.5 83.5t137.5 235.5l7 26h241l-4 -21q-38 -172 -151 -289.5t-258 -143.5l-7 -2l263 -534h-260l-229 452h-145l-97 -452h-246z" />
<glyph unicode="l" horiz-adv-x="555" d="M161 169q0 37 8 73l254 1192h246l-246 -1162q-5 -22 -5 -35q0 -70 91 -77l-34 -160h-118q-196 2 -196 169z" />
<glyph unicode="m" horiz-adv-x="1814" d="M160 0l158 745q3 13 3 25q0 52 -61 58l-34 1l34 160h265q76 0 76 -63q0 -10 -3 -22l-5 -27q195 134 345 134q184 0 226 -154q107 71 202 112.5t193 41.5q128 0 190.5 -67t62.5 -192q0 -68 -18 -150l-70 -330q-4 -16 -4 -34q0 -70 80 -77l10 -2l-34 -160h-118 q-96 1 -146 44t-50 125q0 33 9 74l76 360q9 45 9 71q0 113 -129 113q-47 0 -98 -19.5t-80.5 -38.5t-72.5 -52q-4 -44 -15 -93l-124 -584h-246l128 603q8 42 8 71q0 114 -128 114q-67 0 -126.5 -30.5t-122.5 -80.5l-144 -676h-246z" />
<glyph unicode="n" horiz-adv-x="1212" d="M160 0l158 745q3 13 3 25q0 52 -61 58l-34 1l34 160h265q76 0 76 -63q0 -10 -3 -22l-5 -27q196 134 371 134q246 0 246 -258q0 -60 -18 -150l-70 -331q-4 -16 -4 -34q0 -71 82 -77l8 -1l-34 -160h-117q-196 2 -196 169q0 37 8 73l77 361q8 40 8 69q0 115 -128 115 q-74 0 -148.5 -34.5t-127.5 -77.5l-144 -675h-246z" />
<glyph unicode="o" horiz-adv-x="1136" d="M167 353q0 69 16 142q49 231 209.5 373t392.5 142q194 0 296 -100.5t102 -273.5q0 -68 -16 -141q-49 -231 -209.5 -373t-392.5 -142q-194 0 -296 100.5t-102 272.5zM418 403q0 -94 48.5 -150t144.5 -56q118 0 200.5 83.5t109.5 213.5q10 44 10 90q0 95 -48.5 151.5 t-144.5 56.5q-118 0 -200 -84t-110 -214q-10 -46 -10 -91z" />
<glyph unicode="p" horiz-adv-x="1183" d="M85 -369l233 1099l1 26q2 33 -11 50t-46 21l-33 1l34 160h262q36 0 55 -17.5t18 -48.5l2 -16q134 101 310 101q152 0 236.5 -93.5t84.5 -258.5q0 -73 -18 -158q-48 -226 -191 -369t-331 -143q-83 0 -151 29.5t-113 77.5l-98 -461h-244zM462 263q37 -23 95.5 -40.5 t120.5 -17.5q112 0 185.5 78t102.5 214q13 59 13 110q0 186 -175 186q-63 0 -131.5 -17.5t-109.5 -39.5z" />
<glyph unicode="q" horiz-adv-x="1142" d="M163 315q0 83 21 182q54 255 217 383.5t387 128.5q242 0 421 -130l-265 -1248h-245l97 454q-68 -42 -155.5 -71.5t-173.5 -29.5q-149 0 -226.5 86t-77.5 245zM418 393q0 -89 44 -138.5t132 -49.5q125 0 239 58l101 473q-93 57 -216 57q-111 0 -184.5 -76.5t-103.5 -219.5 q-12 -57 -12 -104z" />
<glyph unicode="r" horiz-adv-x="819" d="M154 0l154 726q4 22 4 31q0 65 -76 71l-16 1l34 160h247q91 0 91 -76q0 -18 -4 -34l-9 -40q114 129 279 161q49 10 133 11l-48 -230q-60 8 -101 8q-103 0 -188.5 -54.5t-124.5 -133.5l-128 -601h-247z" />
<glyph unicode="s" horiz-adv-x="933" d="M92 53l32 139q140 -48 307 -48q100 0 159 46t59 115q0 43 -36.5 70t-110.5 46l-96 25q-178 50 -178 203q0 29 8 71q14 67 49 119t80.5 83.5t102 52t110 28.5t109.5 8q216 0 334 -73l-33 -147q-57 23 -137 39t-152 16q-189 0 -215 -121q-2 -8 -2 -23q0 -39 33.5 -65.5 t101.5 -45.5l83 -21q104 -28 159.5 -77t55.5 -130q0 -25 -6 -57q-32 -151 -161.5 -240t-311.5 -89q-235 0 -344 76z" />
<glyph unicode="t" horiz-adv-x="800" d="M215 785l44 204h142l83 268h221l-57 -268h241l-43 -204h-241l-104 -485q-4 -17 -4 -36q0 -53 44 -73q23 -11 70 -11q44 0 108 11l-39 -195q-88 -20 -159 -20q-38 0 -71 6q-106 8 -158 51t-52 143q0 52 15 124l103 485h-143z" />
<glyph unicode="u" horiz-adv-x="1169" d="M172 223q0 54 14 122l137 644h246l-128 -602q-8 -40 -8 -70q0 -115 129 -115q73 0 146.5 34.5t128.5 78.5l144 674h246l-152 -717q-4 -17 -4 -35q0 -70 90 -77l-34 -160h-241q-95 2 -95 83q0 14 3 29q-83 -56 -183.5 -94.5t-192.5 -38.5q-123 0 -184.5 64t-61.5 180z" />
<glyph unicode="v" horiz-adv-x="1155" d="M220 829l34 160h145q82 -1 124 -42t42 -119q0 -36 -9 -81l-70 -331q-6 -27 -6 -53q0 -72 43 -116.5t129 -44.5q119 0 190 95t95 249q12 80 12 165q0 146 -31 278l264 4q21 -118 21 -243q0 -147 -29 -270q-24 -108 -69.5 -197t-115 -158t-168.5 -107.5t-220 -38.5 q-172 0 -275 87.5t-103 232.5q0 42 9 87l71 331q4 17 4 36q0 69 -87 76z" />
<glyph unicode="w" horiz-adv-x="1789" d="M220 829l34 160h145q82 -1 124 -42t42 -119q0 -36 -9 -81l-70 -331q-6 -30 -6 -56q0 -76 44.5 -117t111.5 -41q80 0 154.5 57t106.5 161l121 569h236l-122 -573q-6 -28 -6 -54q0 -80 48 -122q46 -41 114 -40h6q101 3 180 97t107 247q14 92 14 183q0 138 -28 262l253 4 q22 -119 22 -242q0 -143 -30 -269q-54 -233 -207 -370t-331 -137q-104 0 -189.5 55t-126.5 158q-78 -100 -187.5 -155.5t-220.5 -55.5q-142 0 -235.5 78.5t-93.5 226.5q0 53 11 104l71 331q4 17 4 36q0 69 -87 76z" />
<glyph unicode="x" horiz-adv-x="1028" d="M25 0l454 503l-229 486h248l156 -330l297 330h249l-437 -486l241 -503h-249l-167 348l-314 -348h-249z" />
<glyph unicode="y" horiz-adv-x="1042" d="M-27 -350l59 155q71 -28 128 -28q8 0 26 2q120 19 209 166l33 55h-11l-168 989h248l89 -687l382 687h247l-610 -1067q-83 -150 -205 -231.5t-254 -81.5q-98 0 -173 41z" />
<glyph unicode="z" horiz-adv-x="962" d="M67 0l44 204l662 603h-499l39 182h750l-43 -205l-659 -602h550l-38 -182h-806z" />
<glyph unicode="{" horiz-adv-x="741" d="M145 -166q0 24 6 51l96 451q3 12 3 34q0 68 -65 81l-30 1l33 157l31 1q89 19 110 115l96 450q20 92 85.5 151.5t155.5 75.5q53 9 112 9q66 0 187 -21l-32 -146q-84 11 -143 11q-44 0 -73 -8q-71 -22 -89 -107l-79 -372q-20 -94 -87.5 -159t-153.5 -79q67 -11 106.5 -59 t39.5 -120q0 -28 -6 -58l-79 -373q-4 -16 -4 -33q0 -45 34 -63q26 -16 90 -16q58 0 141 10l-30 -148q-128 -16 -181 -16q-78 0 -143 16q-60 16 -95.5 58.5t-35.5 105.5z" />
<glyph unicode="|" horiz-adv-x="333" d="M8 -311l393 1847h187l-393 -1847h-187z" />
<glyph unicode="}" horiz-adv-x="741" d="M3 -330l32 148q80 -10 137 -10q65 0 98 16q55 23 71 96l79 373q20 94 87.5 159t153.5 78q-67 11 -107 59.5t-40 120.5q0 23 7 58l79 372q4 17 4 35q0 55 -48 72q-26 8 -69 8q-60 0 -148 -11l30 146q129 21 196 21q60 0 109 -9q69 -14 109.5 -58.5t40.5 -113.5 q0 -26 -6 -55l-96 -450q-4 -17 -4 -35q0 -64 66 -80l30 -1l-33 -157l-31 -1q-90 -16 -111 -115l-95 -451q-17 -83 -76.5 -139t-140.5 -76q-72 -16 -150 -16q-54 0 -174 16z" />
<glyph unicode="~" horiz-adv-x="1112" d="M143 393q47 129 151.5 213t222.5 84q72 0 123 -31l230 -139q44 -29 85 -29q57 0 109 42t77 109l49 -4q-31 -120 -124 -201t-198 -81q-62 0 -120 36l-233 140q-36 24 -85 24q-68 0 -133.5 -46.5t-105.5 -120.5z" />
<glyph unicode="&#xa1;" horiz-adv-x="489" d="M43 -369l236 1006h203l-191 -1006h-248zM303 861l43 204h252l-44 -204h-251z" />
<glyph unicode="&#xa2;" horiz-adv-x="1005" d="M167 351q0 71 16 144q44 206 176 343t325 162l26 123h186l-25 -117q120 -8 243 -55l-77 -160q-118 54 -247 54q-135 0 -231 -94.5t-130 -255.5q-13 -59 -13 -113q0 -112 57 -175t168 -63q125 0 270 55l9 -161q-144 -47 -266 -54l-25 -117h-186l26 121q-148 21 -225 117 t-77 246z" />
<glyph unicode="&#xa3;" horiz-adv-x="1337" d="M121 1l43 201h66q71 0 110.5 36t58.5 126l59 280h-150l39 182h150l9 41q20 93 46 168.5t75 156t114 134.5t165.5 89t226.5 35q190 0 369 -113l-165 -208q-109 76 -234 76q-62 0 -109.5 -18.5t-76.5 -45.5t-52 -76t-35 -91.5t-26 -109.5l-8 -38h477l-39 -182h-477 l-59 -280q-27 -122 -122 -162h716l-43 -201h-1128z" />
<glyph unicode="&#xa5;" horiz-adv-x="1486" d="M279 293l38 178h378l17 82l-33 91h-326l38 177h227l-219 613h302l213 -633l483 633h301l-479 -613h233l-38 -177h-331l-72 -91l-17 -82h384l-38 -178h-384l-62 -293h-299l62 293h-378z" />
<glyph unicode="&#xa6;" horiz-adv-x="333" d="M8 -311l170 797h187l-170 -797h-187zM219 682l170 798h187l-170 -798h-187z" />
<glyph unicode="&#xa7;" horiz-adv-x="905" d="M66 -72l31 139q141 -47 301 -47q100 0 159 46.5t59 114.5q0 43 -36.5 70t-110.5 46l-96 25q-178 50 -178 203q0 29 8 71q30 139 155 204q-74 53 -74 146q0 32 7 64q14 67 49 119t80.5 83.5t102 52t110 28.5t109.5 8q216 0 334 -73l-33 -147q-148 55 -290 55 q-188 0 -214 -121q-2 -8 -2 -23q0 -39 33.5 -65.5t101.5 -45.5l83 -21q104 -28 159.5 -77t55.5 -130q0 -20 -7 -57q-30 -143 -148 -222q67 -53 67 -136q0 -26 -6 -56q-32 -151 -161 -239t-311 -88q-112 0 -195 15t-143 58zM406 590q0 -69 101 -95l75 -18q40 -10 66 -22 q51 20 80 59.5t29 86.5q0 41 -31.5 66.5t-96.5 40.5l-76 18l-13 4q-111 -21 -131 -115q-3 -14 -3 -25z" />
<glyph unicode="&#xa8;" horiz-adv-x="677" d="M327 1274l34 160h159l-34 -160h-159zM735 1274l34 160h160l-34 -160h-160z" />
<glyph unicode="&#xa9;" horiz-adv-x="1693" d="M207 571q0 73 17 153q32 149 122 285t214.5 235t280 158t312.5 59q142 0 262.5 -45.5t203.5 -124.5t130 -188t47 -234q0 -72 -16 -145q-43 -205 -183.5 -377.5t-342 -273t-417.5 -100.5q-183 0 -327.5 78t-223.5 214t-79 306zM357 602q0 -208 143 -344.5t368 -136.5 q176 0 340 81t277.5 219.5t148.5 302.5q12 59 12 115q0 205 -145.5 340t-378.5 135q-170 0 -331.5 -79.5t-274 -215.5t-146.5 -295q-13 -61 -13 -122zM634 612q0 50 12 105q35 168 149 271.5t278 103.5q131 0 213 -51l-51 -105q-83 36 -157 36q-21 0 -31 -1 q-92 -5 -156 -73.5t-88 -180.5q-10 -50 -10 -83q0 -77 37 -122t109 -49q20 -2 30 -2q76 0 173 36l6 -105q-102 -50 -234 -50q-136 0 -208 72.5t-72 197.5z" />
<glyph unicode="&#xaa;" horiz-adv-x="757" d="M308 1057q0 40 11 93q29 138 108 217.5t185 79.5q97 0 151 -57l32 43h133l-85 -400l-2 -22q0 -1 -0.5 -4t-0.5 -4q0 -27 30 -31l20 -1l-22 -103h-96q-62 0 -78 55l-2 7q-92 -73 -202 -73q-84 0 -133 52t-49 148zM470 1091q0 -100 98 -96q63 3 117 26l55 258 q-46 27 -113 27q-58 0 -96 -42t-54 -114q-7 -31 -7 -59z" />
<glyph unicode="&#xab;" horiz-adv-x="937" d="M162 452l252 484h216l-269 -483l70 -453h-216zM600 452l253 484h215l-269 -483l70 -453h-215z" />
<glyph unicode="&#xac;" horiz-adv-x="1488" />
<glyph unicode="&#xad;" horiz-adv-x="657" d="M188 534l44 205h509l-43 -205h-510z" />
<glyph unicode="&#xae;" horiz-adv-x="1693" d="M207 571q0 73 17 153q32 149 122 285t214.5 235t280 158t312.5 59q142 0 262.5 -45.5t203.5 -124.5t130 -188t47 -234q0 -72 -16 -145q-43 -205 -183.5 -377.5t-342 -273t-417.5 -100.5q-183 0 -327.5 78t-223.5 214t-79 306zM357 602q0 -208 143 -344.5t368 -136.5 q176 0 340 81t277.5 219.5t148.5 302.5q12 59 12 115q0 205 -145.5 340t-378.5 135q-170 0 -331.5 -79.5t-274 -215.5t-146.5 -295q-13 -61 -13 -122zM665 361l154 723h319q76 0 131 -45t55 -126q0 -86 -52 -151t-131 -89l-10 -1l110 -311h-158l-102 283h-107l-60 -283h-149 zM899 760h132q48 0 83.5 26t46.5 76q3 14 3 26q0 37 -25 58t-65 21h-131z" />
<glyph unicode="&#xaf;" horiz-adv-x="790" d="M328 1289l31 145h683l-31 -145h-683z" />
<glyph unicode="&#xb0;" horiz-adv-x="501" d="M347 1285q0 86 69.5 152.5t154.5 66.5q65 0 105.5 -41t40.5 -103q0 -86 -69 -152.5t-154 -66.5q-65 0 -106 41t-41 103zM444 1305q0 -29 20 -49t50 -20q39 0 72 32t33 72q0 29 -19.5 48.5t-49.5 19.5q-40 0 -73 -31.5t-33 -71.5z" />
<glyph unicode="&#xb1;" horiz-adv-x="978" d="M65 0l44 205h850l-44 -205h-850zM210 681l44 205h322l63 300h205l-63 -300h323l-44 -205h-323l-64 -300h-205l64 300h-322z" />
<glyph unicode="&#xb2;" horiz-adv-x="708" d="M207 623l29 139q165 95 284 205q123 115 133 201q1 7 1 20q0 90 -126 90q-84 0 -175 -43l24 142q112 57 235 57q103 0 175.5 -52t72.5 -145q0 -121 -129 -258q-85 -93 -252 -213h320l-31 -143h-561z" />
<glyph unicode="&#xb3;" horiz-adv-x="710" d="M219 679l31 120q76 -41 163 -41q164 0 188 110q3 12 3 22q0 37 -28 56.5t-75 20.5h-137l26 121h114q51 2 96.5 29t55.5 77q2 14 2 19q0 38 -36 57.5t-96 18.5q-87 -1 -172 -41l21 129q113 57 239 57q68 0 126 -16.5t99.5 -56t41.5 -96.5q0 -20 -4 -37q-25 -119 -162 -190 q106 -60 106 -157q0 -27 -5 -48q-13 -61 -52.5 -106t-93.5 -68.5t-107.5 -34t-108.5 -10.5q-65 0 -134.5 15.5t-100.5 49.5z" />
<glyph unicode="&#xb4;" horiz-adv-x="528" d="M292 1158l310 378h205l-357 -378h-158z" />
<glyph unicode="&#xb6;" horiz-adv-x="1144" d="M272 928q0 43 11 95q37 175 181 293t312 118h603l-37 -171h-125l-326 -1535h-123l326 1535h-125l-326 -1535h-187l188 885h-48q-144 2 -234 88t-90 227z" />
<glyph unicode="&#xb7;" horiz-adv-x="370" d="M171 523l43 204h252l-44 -204h-251z" />
<glyph unicode="&#xb8;" horiz-adv-x="468" d="M-31 -375l17 68q31 -6 71 -6q66 0 113 25t47 71q0 22 -16.5 37.5t-54.5 15.5q-11 0 -57 -4l-12 35l119 143h69l-70 -98q9 0 25 1t24 1q64 0 97 -31t33 -77q0 -14 -3 -27q-9 -43 -37.5 -75.5t-68 -51.5t-82.5 -28t-88 -9q-69 0 -126 10z" />
<glyph unicode="&#xb9;" horiz-adv-x="520" d="M319 633l142 668l-91 -16l2 116l195 32h96l-170 -800h-174z" />
<glyph unicode="&#xba;" horiz-adv-x="716" d="M310 1071q0 38 9 80q28 132 120.5 213.5t226.5 81.5q112 0 171.5 -58t59.5 -157q0 -38 -9 -80q-28 -132 -120.5 -213t-226.5 -81q-112 0 -171.5 57.5t-59.5 156.5zM470 1102q0 -49 25 -77.5t75 -28.5q61 0 104 43.5t58 111.5q5 21 5 47q0 49 -25.5 78.5t-75.5 29.5 q-62 0 -104 -43.5t-56 -111.5q-6 -25 -6 -49z" />
<glyph unicode="&#xbb;" horiz-adv-x="937" d="M71 0l263 453l-64 483h216l47 -484l-246 -452h-216zM510 0l263 453l-64 483h216l47 -484l-246 -452h-216z" />
<glyph unicode="&#xbc;" horiz-adv-x="1638" d="M274 -16l1102 1465h201l-1102 -1465h-201zM317 556l159 746l-107 -19l3 116l209 34h96l-187 -877h-173zM926 237l28 131l446 510l184 -6l-427 -500h207l95 177h114l-38 -177h111l-29 -135h-108l-50 -237h-181l50 237h-402z" />
<glyph unicode="&#xbd;" horiz-adv-x="1730" d="M280 -16l1102 1465h201l-1102 -1465h-201zM317 556l159 746l-107 -19l3 116l209 34h96l-187 -877h-173zM1052 0l30 139q189 108 321 232q138 131 150 229q2 18 2 27q0 55 -40 81t-105 26q-97 0 -196 -48l25 141q122 62 256 62q111 0 188 -56.5t77 -157.5 q0 -137 -147 -292q-101 -108 -290 -240h366l-30 -143h-607z" />
<glyph unicode="&#xbe;" horiz-adv-x="1800" d="M203 605l31 120q80 -46 182 -46q191 0 219 130q3 13 3 25q0 44 -34 68.5t-90 25.5h-146l26 121h124q59 2 112 35.5t66 92.5q2 8 2 22q0 46 -42 69t-110 22q-92 -1 -191 -48l21 129q125 63 259 63q73 0 135.5 -18t106.5 -60.5t44 -104.5q0 -22 -4 -41q-30 -139 -186 -211 q124 -60 124 -173q0 -24 -6 -52q-12 -54 -42.5 -96.5t-70 -68.5t-89 -43.5t-96 -24t-93.5 -6.5q-72 0 -146.5 17t-108.5 53zM436 -16l1102 1465h200l-1101 -1465h-201zM1088 237l28 131l446 510l184 -7l-427 -499h207l95 177h114l-38 -177h111l-29 -135h-108l-50 -237h-181 l50 237h-402z" />
<glyph unicode="&#xbf;" horiz-adv-x="888" d="M29 -113q0 37 9 80q24 111 86.5 187t175.5 144q11 6 41 24t42 25t35.5 22.5t36.5 26.5t29 27.5t29 33.5q43 54 64 153l9 40h247l-8 -40q-23 -113 -100 -201q-31 -35 -75 -70.5t-71 -53t-76 -48.5q-185 -110 -219 -270q-6 -29 -6 -53q0 -75 51.5 -111.5t143.5 -36.5 q122 0 310 64l-3 -143q-215 -83 -380 -83q-58 0 -111 10t-101 32t-83 54.5t-55.5 80.5t-20.5 106zM629 862l43 204h252l-44 -204h-251z" />
<glyph unicode="&#xc0;" horiz-adv-x="1370" d="M35 0l779 1434h354l169 -1434h-307l-32 334h-481l-174 -334h-308zM594 538h404l-65 642zM898 1980h205l149 -378h-158z" />
<glyph unicode="&#xc1;" horiz-adv-x="1370" d="M35 0l779 1434h354l169 -1434h-307l-32 334h-481l-174 -334h-308zM594 538h404l-65 642zM785 1602l310 378h205l-357 -378h-158z" />
<glyph unicode="&#xc2;" horiz-adv-x="1370" d="M35 0l779 1434h354l169 -1434h-307l-32 334h-481l-174 -334h-308zM594 538h404l-65 642zM669 1602l296 378h274l136 -378h-159l-135 277l-254 -277h-158z" />
<glyph unicode="&#xc3;" horiz-adv-x="1370" d="M35 0l779 1434h354l169 -1434h-307l-32 334h-481l-174 -334h-308zM594 538h404l-65 642zM717 1695q33 96 102.5 158.5t146.5 62.5q48 0 80 -22l147 -101q29 -18 54 -18q37 0 71.5 29.5t52.5 78.5l35 -4q-23 -90 -86.5 -152.5t-133.5 -62.5q-39 0 -79 27l-147 101 q-24 14 -55 14q-44 0 -85 -31t-68 -84z" />
<glyph unicode="&#xc4;" horiz-adv-x="1370" d="M35 0l779 1434h354l169 -1434h-307l-32 334h-481l-174 -334h-308zM594 538h404l-65 642zM763 1719l34 159h159l-34 -159h-159zM1171 1719l34 159h160l-34 -159h-160z" />
<glyph unicode="&#xc5;" horiz-adv-x="1370" d="M35 0l779 1434h354l169 -1434h-307l-32 334h-481l-174 -334h-308zM594 538h404l-65 642zM853 1761q0 98 79 174t176 76q74 0 121.5 -47t47.5 -117q0 -98 -79 -174t-177 -76q-74 0 -121 47t-47 117zM951 1781q0 -38 25.5 -63.5t64.5 -25.5q52 0 95 41.5t43 93.5 q0 38 -26 63.5t-65 25.5q-52 0 -94.5 -41.5t-42.5 -93.5z" />
<glyph unicode="&#xc6;" horiz-adv-x="1650" d="M45 0l766 1434h1062l-49 -237h-586l-79 -371h520l-39 -182h-519l-87 -408h596l-50 -236h-896l71 334h-236l-174 -334h-300zM596 538h203l136 643z" />
<glyph unicode="&#xc7;" horiz-adv-x="1325" d="M225 506q0 99 24 210q35 163 110 299.5t182 235.5t250 154.5t306 55.5q169 0 274 -48q109 -50 109 -184q0 -43 -10 -89l-16 -76h-193l2 27q3 17 3 30q0 72 -60 92q-68 21 -158 17q-185 -7 -317 -147t-180 -367q-18 -82 -18 -165q0 -156 75.5 -247.5t220.5 -100.5 q30 -3 61 -3q157 0 342 72l11 -201q-205 -100 -462 -100h-33l-42 -59q7 0 22 1t26 1q64 0 97 -31t33 -77q0 -14 -3 -27q-9 -43 -37.5 -75.5t-68 -51.5t-82.5 -28t-88 -9q-68 0 -125 10l16 68q30 -6 71 -6q66 0 113 25t47 71q0 22 -16.5 37.5t-54.5 15.5q-15 0 -57 -4l-12 35 l92 110q-222 26 -338 166t-116 363z" />
<glyph unicode="&#xc8;" horiz-adv-x="1107" d="M141 0l305 1434h884l-43 -205h-585l-84 -392h520l-44 -204h-519l-91 -429h595l-43 -204h-895zM805 1980h205l149 -378h-158z" />
<glyph unicode="&#xc9;" horiz-adv-x="1107" d="M141 0l305 1434h884l-43 -205h-585l-84 -392h520l-44 -204h-519l-91 -429h595l-43 -204h-895zM691 1602l310 378h205l-357 -378h-158z" />
<glyph unicode="&#xca;" horiz-adv-x="1107" d="M141 0l305 1434h884l-43 -205h-585l-84 -392h520l-44 -204h-519l-91 -429h595l-43 -204h-895zM576 1602l296 378h274l135 -378h-158l-136 277l-253 -277h-158z" />
<glyph unicode="&#xcb;" horiz-adv-x="1107" d="M141 0l305 1434h884l-43 -205h-585l-84 -392h520l-44 -204h-519l-91 -429h595l-43 -204h-895zM669 1719l34 159h160l-34 -159h-160zM1078 1719l34 159h159l-34 -159h-159z" />
<glyph unicode="&#xcc;" horiz-adv-x="579" d="M141 0l305 1434h299l-305 -1434h-299zM508 1980h205l149 -378h-158z" />
<glyph unicode="&#xcd;" horiz-adv-x="579" d="M141 0l305 1434h299l-305 -1434h-299zM394 1602l310 378h205l-357 -378h-158z" />
<glyph unicode="&#xce;" horiz-adv-x="579" d="M141 0l305 1434h299l-305 -1434h-299zM279 1602l296 378h274l135 -378h-158l-136 277l-253 -277h-158z" />
<glyph unicode="&#xcf;" horiz-adv-x="579" d="M141 0l305 1434h299l-305 -1434h-299zM372 1719l34 159h160l-34 -159h-160zM781 1719l34 159h159l-34 -159h-159z" />
<glyph unicode="&#xd0;" horiz-adv-x="1482" d="M197 578l44 205h125l138 651h499q273 0 417 -135.5t144 -377.5q0 -94 -23 -204q-70 -330 -292.5 -523.5t-550.5 -193.5h-499l123 578h-125zM542 204h201q187 0 317.5 141.5t179.5 371.5q19 91 19 175q0 157 -75 247t-223 90h-201l-95 -446h233l-43 -205h-233z" />
<glyph unicode="&#xd1;" horiz-adv-x="1431" d="M131 0l305 1434h313l361 -930l198 930h299l-304 -1434h-312l-362 934l-199 -934h-299zM752 1695q33 96 102.5 158.5t146.5 62.5q48 0 80 -22l147 -101q29 -18 54 -18q37 0 71.5 29.5t52.5 78.5l35 -4q-23 -90 -86.5 -152.5t-133.5 -62.5q-40 0 -80 27l-147 101 q-24 14 -54 14q-44 0 -85 -31t-68 -84z" />
<glyph unicode="&#xd2;" d="M226 509q0 103 23 208q35 163 110 299.5t182.5 235.5t250.5 154.5t306 55.5q270 0 412.5 -144t142.5 -391q0 -99 -24 -210q-35 -163 -110 -299.5t-182 -235.5t-250 -154t-306 -55q-270 0 -412.5 144.5t-142.5 391.5zM527 527q0 -156 72.5 -247t227.5 -91q102 0 188.5 42 t147.5 116t102.5 166.5t65.5 203.5q22 104 22 190q0 157 -73 248.5t-228 91.5q-82 0 -154.5 -28t-127.5 -76.5t-99.5 -116t-74 -144.5t-48.5 -165q-21 -99 -21 -190zM1002 1980h205l150 -378h-159z" />
<glyph unicode="&#xd3;" d="M226 509q0 103 23 208q35 163 110 299.5t182.5 235.5t250.5 154.5t306 55.5q270 0 412.5 -144t142.5 -391q0 -99 -24 -210q-35 -163 -110 -299.5t-182 -235.5t-250 -154t-306 -55q-270 0 -412.5 144.5t-142.5 391.5zM527 527q0 -156 72.5 -247t227.5 -91q102 0 188.5 42 t147.5 116t102.5 166.5t65.5 203.5q22 104 22 190q0 157 -73 248.5t-228 91.5q-82 0 -154.5 -28t-127.5 -76.5t-99.5 -116t-74 -144.5t-48.5 -165q-21 -99 -21 -190zM889 1602l310 378h205l-357 -378h-158z" />
<glyph unicode="&#xd4;" d="M226 509q0 103 23 208q35 163 110 299.5t182.5 235.5t250.5 154.5t306 55.5q270 0 412.5 -144t142.5 -391q0 -99 -24 -210q-35 -163 -110 -299.5t-182 -235.5t-250 -154t-306 -55q-270 0 -412.5 144.5t-142.5 391.5zM527 527q0 -156 72.5 -247t227.5 -91q102 0 188.5 42 t147.5 116t102.5 166.5t65.5 203.5q22 104 22 190q0 157 -73 248.5t-228 91.5q-82 0 -154.5 -28t-127.5 -76.5t-99.5 -116t-74 -144.5t-48.5 -165q-21 -99 -21 -190zM774 1602l296 378h273l136 -378h-158l-136 277l-254 -277h-157z" />
<glyph unicode="&#xd5;" d="M226 509q0 103 23 208q35 163 110 299.5t182.5 235.5t250.5 154.5t306 55.5q270 0 412.5 -144t142.5 -391q0 -99 -24 -210q-35 -163 -110 -299.5t-182 -235.5t-250 -154t-306 -55q-270 0 -412.5 144.5t-142.5 391.5zM527 527q0 -156 72.5 -247t227.5 -91q102 0 188.5 42 t147.5 116t102.5 166.5t65.5 203.5q22 104 22 190q0 157 -73 248.5t-228 91.5q-82 0 -154.5 -28t-127.5 -76.5t-99.5 -116t-74 -144.5t-48.5 -165q-21 -99 -21 -190zM821 1695q33 96 102.5 158.5t146.5 62.5q48 0 80 -22l147 -101q29 -18 55 -18q37 0 71 29.5t52 78.5l35 -4 q-23 -90 -86.5 -152.5t-133.5 -62.5q-39 0 -79 27l-147 101q-24 14 -55 14q-44 0 -84.5 -31t-67.5 -84z" />
<glyph unicode="&#xd6;" d="M226 509q0 103 23 208q35 163 110 299.5t182.5 235.5t250.5 154.5t306 55.5q270 0 412.5 -144t142.5 -391q0 -99 -24 -210q-35 -163 -110 -299.5t-182 -235.5t-250 -154t-306 -55q-270 0 -412.5 144.5t-142.5 391.5zM527 527q0 -156 72.5 -247t227.5 -91q102 0 188.5 42 t147.5 116t102.5 166.5t65.5 203.5q22 104 22 190q0 157 -73 248.5t-228 91.5q-82 0 -154.5 -28t-127.5 -76.5t-99.5 -116t-74 -144.5t-48.5 -165q-21 -99 -21 -190zM867 1719l34 159h159l-34 -159h-159zM1276 1719l34 159h159l-34 -159h-159z" />
<glyph unicode="&#xd7;" horiz-adv-x="860" d="M141 390l276 227l-179 229l175 145l180 -228l276 228l115 -144l-278 -230l181 -228l-176 -144l-180 228l-276 -228z" />
<glyph unicode="&#xd8;" d="M226 509q0 103 23 208q35 165 110 302t182.5 235.5t250.5 153t306 54.5q128 0 234 -36l73 110h145l-107 -163q210 -138 210 -446q0 -99 -24 -210q-35 -163 -110 -299.5t-182 -235.5t-250 -154t-306 -55q-128 0 -234 36l-74 -111h-145l108 165q-210 138 -210 446zM527 527 q0 -148 62 -233l607 925q-62 28 -144 28t-154.5 -28t-127.5 -76.5t-99.5 -116t-74 -144.5t-48.5 -165q-21 -99 -21 -190zM683 217q61 -28 144 -28q102 0 188.5 42t147.5 116t102.5 166.5t65.5 203.5q22 104 22 190q0 147 -62 234z" />
<glyph unicode="&#xd9;" horiz-adv-x="1394" d="M226 340q0 55 14 123l206 971h299l-209 -983q-10 -49 -10 -90q0 -89 53 -130.5t160 -41.5q132 0 208.5 62.5t105.5 199.5l208 983h300l-207 -971q-51 -239 -231 -363.5t-430 -124.5q-215 0 -341 92.5t-126 272.5zM912 1980h205l149 -378h-158z" />
<glyph unicode="&#xda;" horiz-adv-x="1394" d="M226 340q0 55 14 123l206 971h299l-209 -983q-10 -49 -10 -90q0 -89 53 -130.5t160 -41.5q132 0 208.5 62.5t105.5 199.5l208 983h300l-207 -971q-51 -239 -231 -363.5t-430 -124.5q-215 0 -341 92.5t-126 272.5zM799 1602l310 378h205l-357 -378h-158z" />
<glyph unicode="&#xdb;" horiz-adv-x="1394" d="M226 340q0 55 14 123l206 971h299l-209 -983q-10 -49 -10 -90q0 -89 53 -130.5t160 -41.5q132 0 208.5 62.5t105.5 199.5l208 983h300l-207 -971q-51 -239 -231 -363.5t-430 -124.5q-215 0 -341 92.5t-126 272.5zM684 1602l296 378h273l136 -378h-158l-136 277l-254 -277 h-157z" />
<glyph unicode="&#xdc;" horiz-adv-x="1394" d="M226 340q0 55 14 123l206 971h299l-209 -983q-10 -49 -10 -90q0 -89 53 -130.5t160 -41.5q132 0 208.5 62.5t105.5 199.5l208 983h300l-207 -971q-51 -239 -231 -363.5t-430 -124.5q-215 0 -341 92.5t-126 272.5zM777 1719l34 159h159l-34 -159h-159zM1186 1719l33 159 h160l-34 -159h-159z" />
<glyph unicode="&#xdd;" horiz-adv-x="1368" d="M340 1434h301l214 -633l483 633h301l-687 -881l-118 -553h-299l118 553zM807 1602l310 378h205l-357 -378h-158z" />
<glyph unicode="&#xde;" horiz-adv-x="1296" d="M141 0l305 1434h290l-44 -206h330q73 0 140 -22.5t120.5 -65t85.5 -111.5t32 -155q0 -54 -13 -112q-41 -190 -199 -322.5t-362 -132.5h-329l-66 -307h-290zM540 511h258q103 0 183.5 65t106.5 187q9 42 9 76q0 90 -52.5 136.5t-138.5 46.5h-257z" />
<glyph unicode="&#xdf;" horiz-adv-x="1335" d="M130 0l225 1061q20 95 82.5 169.5t146 117t171.5 64.5t171 22h110q74 0 146 -18t134.5 -52.5t101 -95t38.5 -136.5q0 -31 -8 -71q-26 -123 -108 -207t-180 -124q93 -32 144 -100t51 -163q0 -37 -9 -81q-22 -102 -87 -181.5t-152.5 -124.5t-179.5 -67.5t-181 -22.5h-197 l45 212h195q92 0 166 58t95 158q5 23 5 51q0 75 -48 120.5t-126 45.5h-78l39 185h64q87 0 156.5 55t89.5 150q5 21 5 49q0 71 -45.5 114.5t-118.5 43.5h-110q-86 0 -156.5 -58t-89.5 -149l-218 -1025h-289z" />
<glyph unicode="&#xe0;" horiz-adv-x="1185" d="M164 328q0 78 19 166q52 243 188.5 381t322.5 138q177 0 276 -107l55 83h207l-153 -720l-3 -37q-2 -33 11 -50t46 -21l31 -1l-34 -160h-155q-104 0 -130 92l-4 20q-165 -131 -358 -131q-149 0 -234 90t-85 257zM417 383q0 -91 44 -139.5t131 -48.5q123 0 239 57l103 483 q-92 59 -214 59q-111 0 -186 -81.5t-104 -218.5q-13 -59 -13 -111zM713 1536h205l149 -378h-158z" />
<glyph unicode="&#xe1;" horiz-adv-x="1185" d="M164 328q0 78 19 166q52 243 188.5 381t322.5 138q177 0 276 -107l55 83h207l-153 -720l-3 -37q-2 -33 11 -50t46 -21l31 -1l-34 -160h-155q-104 0 -130 92l-4 20q-165 -131 -358 -131q-149 0 -234 90t-85 257zM417 383q0 -91 44 -139.5t131 -48.5q123 0 239 57l103 483 q-92 59 -214 59q-111 0 -186 -81.5t-104 -218.5q-13 -59 -13 -111zM633 1157l310 379h205l-357 -379h-158z" />
<glyph unicode="&#xe2;" horiz-adv-x="1185" d="M164 328q0 78 19 166q52 243 188.5 381t322.5 138q177 0 276 -107l55 83h207l-153 -720l-3 -37q-2 -33 11 -50t46 -21l31 -1l-34 -160h-155q-104 0 -130 92l-4 20q-165 -131 -358 -131q-149 0 -234 90t-85 257zM417 383q0 -91 44 -139.5t131 -48.5q123 0 239 57l103 483 q-92 59 -214 59q-111 0 -186 -81.5t-104 -218.5q-13 -59 -13 -111zM497 1158l296 378h274l136 -378h-159l-135 277l-254 -277h-158z" />
<glyph unicode="&#xe3;" horiz-adv-x="1185" d="M164 328q0 78 19 166q52 243 188.5 381t322.5 138q177 0 276 -107l55 83h207l-153 -720l-3 -37q-2 -33 11 -50t46 -21l31 -1l-34 -160h-155q-104 0 -130 92l-4 20q-165 -131 -358 -131q-149 0 -234 90t-85 257zM417 383q0 -91 44 -139.5t131 -48.5q123 0 239 57l103 483 q-92 59 -214 59q-111 0 -186 -81.5t-104 -218.5q-13 -59 -13 -111zM533 1251q33 96 102.5 158t146.5 62q50 0 80 -21l147 -102q29 -18 55 -18q37 0 71 30t52 79l35 -4q-23 -90 -87 -153t-133 -63q-39 0 -79 27l-147 101q-26 15 -55 15q-44 0 -84.5 -31t-67.5 -84z" />
<glyph unicode="&#xe4;" horiz-adv-x="1185" d="M164 328q0 78 19 166q52 243 188.5 381t322.5 138q177 0 276 -107l55 83h207l-153 -720l-3 -37q-2 -33 11 -50t46 -21l31 -1l-34 -160h-155q-104 0 -130 92l-4 20q-165 -131 -358 -131q-149 0 -234 90t-85 257zM417 383q0 -91 44 -139.5t131 -48.5q123 0 239 57l103 483 q-92 59 -214 59q-111 0 -186 -81.5t-104 -218.5q-13 -59 -13 -111zM587 1274l34 160h159l-33 -160h-160zM996 1274l34 160h159l-34 -160h-159z" />
<glyph unicode="&#xe5;" horiz-adv-x="1185" d="M164 328q0 78 19 166q52 243 188.5 381t322.5 138q177 0 276 -107l55 83h207l-153 -720l-3 -37q-2 -33 11 -50t46 -21l31 -1l-34 -160h-155q-104 0 -130 92l-4 20q-165 -131 -358 -131q-149 0 -234 90t-85 257zM417 383q0 -91 44 -139.5t131 -48.5q123 0 239 57l103 483 q-92 59 -214 59q-111 0 -186 -81.5t-104 -218.5q-13 -59 -13 -111zM672 1317q0 98 79 173.5t176 75.5q74 0 121.5 -47t47.5 -117q0 -98 -79.5 -173.5t-177.5 -75.5q-73 0 -120 46.5t-47 117.5zM769 1337q0 -38 26 -63.5t65 -25.5q52 0 94.5 41t42.5 93q0 38 -25.5 63.5 t-64.5 25.5q-52 0 -95 -41t-43 -93z" />
<glyph unicode="&#xe6;" horiz-adv-x="1853" d="M132 198q0 36 9 78q15 71 53 126t85.5 87t108 52.5t115 28t112.5 7.5h212l18 89q6 29 6 51q0 35 -11 61t-36 41.5t-50 25.5t-69 11.5t-76.5 1t-87.5 -8t-88 -12.5t-92 -15l29 153q216 39 374 39q331 0 340 -221l-1 -25q81 113 200 177.5t264 64.5q181 0 267 -86.5 t86 -244.5q0 -72 -19 -167l-11 -50h-678l-2 -10q-8 -40 -8 -73q0 -104 66.5 -164.5t186.5 -60.5q145 0 299 50l8 -136q-167 -86 -413 -86q-124 0 -205.5 52.5t-117.5 145.5l-20 -101l6 -79h-194l-35 83q-57 -44 -150 -72.5t-183 -28.5q-138 0 -218 52t-80 164zM387 254 q0 -61 43.5 -88t115.5 -25q99 3 200 57l55 258h-137q-238 0 -272 -160q-5 -25 -5 -42zM1224 587h452q10 52 10 87q0 168 -174 168q-106 0 -183 -70.5t-105 -184.5z" />
<glyph unicode="&#xe7;" horiz-adv-x="995" d="M167 352q0 70 16 143q49 232 210 373.5t392 141.5q134 0 212 -42q86 -38 86 -138q0 -30 -7 -61l-18 -85h-167l1 16q2 16 2 22q0 59 -58 71q-36 9 -80 9q-25 0 -38 -1q-110 -7 -185.5 -90.5t-103.5 -215.5q-11 -53 -11 -97q0 -103 55 -161t160 -58q133 0 276 55l11 -196 q-171 -59 -340 -61h-30l-47 -65q8 0 23.5 1t25.5 1q64 0 96.5 -31t32.5 -77q0 -18 -2 -27q-12 -56 -58 -94.5t-102 -54t-117 -15.5q-68 0 -125 10l17 68q30 -6 70 -6q66 0 113.5 25.5t47.5 70.5q0 22 -17 37.5t-55 15.5q-10 0 -56 -4l-13 35l99 119q-155 18 -235.5 115 t-80.5 251z" />
<glyph unicode="&#xe8;" horiz-adv-x="1046" d="M168 356q0 73 15 140q50 232 215 373t403 141q158 0 238.5 -60.5t80.5 -152.5q0 -85 -52.5 -165t-151.5 -128q-168 -82 -503 -114q-9 -108 59.5 -172t198.5 -63q140 1 293 49l5 -136q-170 -86 -404 -86q-192 0 -294.5 100.5t-102.5 273.5zM442 532q69 6 105 10t109.5 20 t120.5 39q52 25 81 66.5t29 84.5q0 40 -32 70.5t-112 30.5q-111 0 -189.5 -79.5t-104.5 -202.5zM687 1536h206l149 -378h-158z" />
<glyph unicode="&#xe9;" horiz-adv-x="1046" d="M168 356q0 73 15 140q50 232 215 373t403 141q158 0 238.5 -60.5t80.5 -152.5q0 -85 -52.5 -165t-151.5 -128q-168 -82 -503 -114q-9 -108 59.5 -172t198.5 -63q140 1 293 49l5 -136q-170 -86 -404 -86q-192 0 -294.5 100.5t-102.5 273.5zM442 532q69 6 105 10t109.5 20 t120.5 39q52 25 81 66.5t29 84.5q0 40 -32 70.5t-112 30.5q-111 0 -189.5 -79.5t-104.5 -202.5zM574 1157l310 379h205l-357 -379h-158z" />
<glyph unicode="&#xea;" horiz-adv-x="1046" d="M168 356q0 73 15 140q50 232 215 373t403 141q158 0 238.5 -60.5t80.5 -152.5q0 -85 -52.5 -165t-151.5 -128q-168 -82 -503 -114q-9 -108 59.5 -172t198.5 -63q140 1 293 49l5 -136q-170 -86 -404 -86q-192 0 -294.5 100.5t-102.5 273.5zM442 532q69 6 105 10t109.5 20 t120.5 39q52 25 81 66.5t29 84.5q0 40 -32 70.5t-112 30.5q-111 0 -189.5 -79.5t-104.5 -202.5zM459 1158l296 378h273l136 -378h-158l-136 277l-253 -277h-158z" />
<glyph unicode="&#xeb;" horiz-adv-x="1046" d="M168 356q0 73 15 140q50 232 215 373t403 141q158 0 238.5 -60.5t80.5 -152.5q0 -85 -52.5 -165t-151.5 -128q-168 -82 -503 -114q-9 -108 59.5 -172t198.5 -63q140 1 293 49l5 -136q-170 -86 -404 -86q-192 0 -294.5 100.5t-102.5 273.5zM442 532q69 6 105 10t109.5 20 t120.5 39q52 25 81 66.5t29 84.5q0 40 -32 70.5t-112 30.5q-111 0 -189.5 -79.5t-104.5 -202.5zM552 1274l34 160h159l-33 -160h-160zM961 1274l34 160h159l-34 -160h-159z" />
<glyph unicode="&#xec;" horiz-adv-x="552" d="M186 0l158 745q3 13 3 25q0 52 -61 58l-34 1l34 160h168q74 0 112.5 -36.5t38.5 -106.5q0 -36 -8 -71l-165 -775h-246zM430 1536h205l149 -378h-158z" />
<glyph unicode="&#xed;" horiz-adv-x="552" d="M186 0l158 745q3 13 3 25q0 52 -61 58l-34 1l34 160h168q74 0 112.5 -36.5t38.5 -106.5q0 -36 -8 -71l-165 -775h-246zM316 1157l310 379h205l-357 -379h-158z" />
<glyph unicode="&#xee;" horiz-adv-x="552" d="M186 0l158 745q3 13 3 25q0 52 -61 58l-34 1l34 160h168q74 0 112.5 -36.5t38.5 -106.5q0 -36 -8 -71l-165 -775h-246zM201 1158l296 378h274l135 -378h-158l-136 277l-253 -277h-158z" />
<glyph unicode="&#xef;" horiz-adv-x="552" d="M186 0l158 745q3 13 3 25q0 52 -61 58l-34 1l34 160h168q74 0 112.5 -36.5t38.5 -106.5q0 -36 -8 -71l-165 -775h-246zM294 1274l34 160h160l-34 -160h-160zM703 1274l34 160h159l-34 -160h-159z" />
<glyph unicode="&#xf0;" horiz-adv-x="1251" d="M172 367q0 56 14 123q28 133 112.5 234.5t199.5 153.5t242 52q96 0 172.5 -38.5t116.5 -104.5q14 73 14 153q0 124 -40 210l-235 -147l-45 120l204 128q-70 56 -163 56q-112 0 -239 -48l-33 136q203 90 376 90q164 0 263 -105l226 141l44 -120l-198 -124l13 -25 q78 -141 78 -347q0 -124 -29 -263q-68 -320 -240 -486t-430 -166q-193 0 -308 100.5t-115 276.5zM457 412q0 -89 50 -144.5t138 -55.5q69 0 123 27t92 79.5t63 116t45 149.5q-15 75 -72 120t-141 45q-107 0 -186 -76.5t-104 -191.5q-8 -38 -8 -69z" />
<glyph unicode="&#xf1;" horiz-adv-x="1212" d="M160 0l158 745q3 13 3 25q0 52 -61 58l-34 1l34 160h265q76 0 76 -63q0 -10 -3 -22l-5 -27q196 134 371 134q246 0 246 -258q0 -60 -18 -150l-70 -331q-4 -16 -4 -34q0 -71 82 -77l8 -1l-34 -160h-117q-196 2 -196 169q0 37 8 73l77 361q8 40 8 69q0 115 -128 115 q-74 0 -148.5 -34.5t-127.5 -77.5l-144 -675h-246zM553 1251q33 96 102.5 158t146.5 62q50 0 80 -21l147 -102q29 -18 54 -18q37 0 71.5 30t52.5 79l35 -4q-23 -90 -87 -153t-134 -63q-39 0 -79 27l-147 101q-25 15 -55 15q-44 0 -84.5 -31t-67.5 -84z" />
<glyph unicode="&#xf2;" horiz-adv-x="1136" d="M167 353q0 69 16 142q49 231 209.5 373t392.5 142q194 0 296 -100.5t102 -273.5q0 -68 -16 -141q-49 -231 -209.5 -373t-392.5 -142q-194 0 -296 100.5t-102 272.5zM418 403q0 -94 48.5 -150t144.5 -56q118 0 200.5 83.5t109.5 213.5q10 44 10 90q0 95 -48.5 151.5 t-144.5 56.5q-118 0 -200 -84t-110 -214q-10 -46 -10 -91zM691 1536h205l149 -378h-158z" />
<glyph unicode="&#xf3;" horiz-adv-x="1136" d="M167 353q0 69 16 142q49 231 209.5 373t392.5 142q194 0 296 -100.5t102 -273.5q0 -68 -16 -141q-49 -231 -209.5 -373t-392.5 -142q-194 0 -296 100.5t-102 272.5zM418 403q0 -94 48.5 -150t144.5 -56q118 0 200.5 83.5t109.5 213.5q10 44 10 90q0 95 -48.5 151.5 t-144.5 56.5q-118 0 -200 -84t-110 -214q-10 -46 -10 -91zM578 1157l310 379h205l-357 -379h-158z" />
<glyph unicode="&#xf4;" horiz-adv-x="1136" d="M167 353q0 69 16 142q49 231 209.5 373t392.5 142q194 0 296 -100.5t102 -273.5q0 -68 -16 -141q-49 -231 -209.5 -373t-392.5 -142q-194 0 -296 100.5t-102 272.5zM418 403q0 -94 48.5 -150t144.5 -56q118 0 200.5 83.5t109.5 213.5q10 44 10 90q0 95 -48.5 151.5 t-144.5 56.5q-118 0 -200 -84t-110 -214q-10 -46 -10 -91zM462 1158l296 378h274l136 -378h-159l-135 277l-254 -277h-158z" />
<glyph unicode="&#xf5;" horiz-adv-x="1136" d="M167 353q0 69 16 142q49 231 209.5 373t392.5 142q194 0 296 -100.5t102 -273.5q0 -68 -16 -141q-49 -231 -209.5 -373t-392.5 -142q-194 0 -296 100.5t-102 272.5zM418 403q0 -94 48.5 -150t144.5 -56q118 0 200.5 83.5t109.5 213.5q10 44 10 90q0 95 -48.5 151.5 t-144.5 56.5q-118 0 -200 -84t-110 -214q-10 -46 -10 -91zM510 1251q33 96 102.5 158t146.5 62q50 0 80 -21l147 -102q29 -18 54 -18q37 0 71.5 30t52.5 79l35 -4q-23 -90 -87 -153t-133 -63q-39 0 -79 27l-147 101q-25 15 -55 15q-44 0 -85 -31t-68 -84z" />
<glyph unicode="&#xf6;" horiz-adv-x="1136" d="M167 353q0 69 16 142q49 231 209.5 373t392.5 142q194 0 296 -100.5t102 -273.5q0 -68 -16 -141q-49 -231 -209.5 -373t-392.5 -142q-194 0 -296 100.5t-102 272.5zM418 403q0 -94 48.5 -150t144.5 -56q118 0 200.5 83.5t109.5 213.5q10 44 10 90q0 95 -48.5 151.5 t-144.5 56.5q-118 0 -200 -84t-110 -214q-10 -46 -10 -91zM556 1274l34 160h159l-34 -160h-159zM964 1274l34 160h160l-34 -160h-160z" />
<glyph unicode="&#xf7;" horiz-adv-x="944" d="M161 534l44 205h850l-44 -205h-850zM370 107l43 204h251l-43 -204h-251zM552 963l43 204h251l-43 -204h-251z" />
<glyph unicode="&#xf8;" horiz-adv-x="1136" d="M167 353q0 69 16 142q49 231 209.5 373t392.5 142q95 0 164 -23l69 105h103l-93 -142q155 -96 155 -314q0 -68 -16 -141q-49 -231 -209.5 -373t-392.5 -142q-92 0 -161 22l-69 -104h-103l92 140q-157 95 -157 315zM418 403q0 -97 48 -149l347 527q-30 11 -75 11 q-118 0 -200 -84t-110 -214q-10 -46 -10 -91zM539 208q33 -11 72 -11q118 0 200.5 83.5t109.5 213.5q10 44 10 90q0 94 -46 149z" />
<glyph unicode="&#xf9;" horiz-adv-x="1169" d="M172 223q0 54 14 122l137 644h246l-128 -602q-8 -40 -8 -70q0 -115 129 -115q73 0 146.5 34.5t128.5 78.5l144 674h246l-152 -717q-4 -17 -4 -35q0 -70 90 -77l-34 -160h-241q-95 2 -95 83q0 14 3 29q-83 -56 -183.5 -94.5t-192.5 -38.5q-123 0 -184.5 64t-61.5 180z M678 1536h205l150 -378h-159z" />
<glyph unicode="&#xfa;" horiz-adv-x="1169" d="M172 223q0 54 14 122l137 644h246l-128 -602q-8 -40 -8 -70q0 -115 129 -115q73 0 146.5 34.5t128.5 78.5l144 674h246l-152 -717q-4 -17 -4 -35q0 -70 90 -77l-34 -160h-241q-95 2 -95 83q0 14 3 29q-83 -56 -183.5 -94.5t-192.5 -38.5q-123 0 -184.5 64t-61.5 180z M625 1157l311 379h205l-357 -379h-159z" />
<glyph unicode="&#xfb;" horiz-adv-x="1169" d="M172 223q0 54 14 122l137 644h246l-128 -602q-8 -40 -8 -70q0 -115 129 -115q73 0 146.5 34.5t128.5 78.5l144 674h246l-152 -717q-4 -17 -4 -35q0 -70 90 -77l-34 -160h-241q-95 2 -95 83q0 14 3 29q-83 -56 -183.5 -94.5t-192.5 -38.5q-123 0 -184.5 64t-61.5 180z M490 1158l296 378h274l136 -378h-159l-135 277l-254 -277h-158z" />
<glyph unicode="&#xfc;" horiz-adv-x="1169" d="M172 223q0 54 14 122l137 644h246l-128 -602q-8 -40 -8 -70q0 -115 129 -115q73 0 146.5 34.5t128.5 78.5l144 674h246l-152 -717q-4 -17 -4 -35q0 -70 90 -77l-34 -160h-241q-95 2 -95 83q0 14 3 29q-83 -56 -183.5 -94.5t-192.5 -38.5q-123 0 -184.5 64t-61.5 180z M551 1274l34 160h160l-34 -160h-160zM960 1274l34 160h159l-34 -160h-159z" />
<glyph unicode="&#xfd;" horiz-adv-x="1042" d="M-27 -350l59 155q71 -28 128 -28q8 0 26 2q120 19 209 166l33 55h-11l-168 989h248l89 -687l382 687h247l-610 -1067q-83 -150 -205 -231.5t-254 -81.5q-98 0 -173 41zM550 1157l310 379h205l-357 -379h-158z" />
<glyph unicode="&#xfe;" horiz-adv-x="1173" d="M76 -369l331 1558q3 13 3 25q0 53 -61 59l-35 1l34 160h219q112 0 112 -95q0 -21 -4 -41l-83 -390q140 104 310 104q151 0 235.5 -95t84.5 -261q0 -74 -18 -159q-48 -226 -190.5 -365.5t-330.5 -139.5q-174 0 -264 102l-99 -463h-244zM455 263q92 -58 209 -58 q112 0 185 78t102 214q13 59 13 110q0 186 -175 186q-63 0 -127.5 -17t-106.5 -40z" />
<glyph unicode="&#xff;" horiz-adv-x="1042" d="M-27 -350l59 155q71 -28 128 -28q8 0 26 2q120 19 209 166l33 55h-11l-168 989h248l89 -687l382 687h247l-610 -1067q-83 -150 -205 -231.5t-254 -81.5q-98 0 -173 41zM507 1274l34 160h159l-33 -160h-160zM916 1274l34 160h159l-34 -160h-159z" />
<glyph unicode="&#x152;" horiz-adv-x="2060" d="M226 509q0 103 23 208q35 163 110 299.5t182.5 235.5t250.5 154.5t306 55.5q174 0 293 -62l8 34h884l-43 -205h-585l-84 -392h519l-43 -204h-519l-91 -429h596l-44 -204h-895l8 37q-151 -64 -321 -64q-270 0 -412.5 144.5t-142.5 391.5zM527 528q0 -156 72.5 -247 t227.5 -91q174 0 326 89l188 886q-120 82 -289 82q-102 0 -188 -42t-147 -116.5t-102.5 -167t-65.5 -203.5q-22 -104 -22 -190z" />
<glyph unicode="&#x153;" horiz-adv-x="2029" d="M167 354q0 68 16 141q49 231 209.5 373t392.5 142q158 0 252.5 -73.5t120.5 -201.5q82 128 212 201.5t292 73.5q158 0 238 -60.5t80 -152.5q0 -85 -52.5 -165t-151.5 -128q-168 -82 -502 -114q-9 -108 59 -172t198 -63q141 1 294 49l5 -135q-172 -87 -404 -87 q-155 0 -250 73t-121 199q-80 -127 -206.5 -200.5t-283.5 -73.5q-193 0 -295.5 100.5t-102.5 273.5zM418 403q0 -94 48.5 -149.5t144.5 -55.5q118 0 201 83.5t110 213.5q10 44 10 89q0 95 -49 152t-145 57q-118 0 -200 -84t-110 -214q-10 -46 -10 -92zM1303 533 q178 16 262 40q41 12 73 28q52 25 81 66.5t29 84.5q0 40 -32 70.5t-112 30.5q-111 0 -188 -77t-105 -200z" />
<glyph unicode="&#x178;" horiz-adv-x="1368" d="M340 1434h301l214 -633l483 633h301l-687 -881l-117 -553h-300l118 553zM757 1719l33 159h160l-34 -159h-159zM1165 1719l34 159h159l-34 -159h-159z" />
<glyph unicode="&#x2c6;" horiz-adv-x="800" d="M294 1158l296 378h274l136 -378h-159l-135 277l-254 -277h-158z" />
<glyph unicode="&#x2dc;" horiz-adv-x="761" d="M323 1251q33 96 102.5 158t146.5 62q49 0 79 -21l147 -102q29 -18 55 -18q37 0 71 30t52 79l35 -4q-23 -90 -87 -153t-133 -63q-39 0 -79 27l-147 101q-25 15 -55 15q-44 0 -84.5 -31t-67.5 -84z" />
<glyph unicode="&#x2000;" horiz-adv-x="1005" />
<glyph unicode="&#x2001;" horiz-adv-x="2011" />
<glyph unicode="&#x2002;" horiz-adv-x="1005" />
<glyph unicode="&#x2003;" horiz-adv-x="2011" />
<glyph unicode="&#x2004;" horiz-adv-x="670" />
<glyph unicode="&#x2005;" horiz-adv-x="502" />
<glyph unicode="&#x2006;" horiz-adv-x="335" />
<glyph unicode="&#x2007;" horiz-adv-x="335" />
<glyph unicode="&#x2008;" horiz-adv-x="251" />
<glyph unicode="&#x2009;" horiz-adv-x="402" />
<glyph unicode="&#x200a;" horiz-adv-x="111" />
<glyph unicode="&#x2010;" horiz-adv-x="657" d="M188 534l44 205h509l-43 -205h-510z" />
<glyph unicode="&#x2011;" horiz-adv-x="657" d="M188 534l44 205h509l-43 -205h-510z" />
<glyph unicode="&#x2012;" horiz-adv-x="657" d="M188 534l44 205h509l-43 -205h-510z" />
<glyph unicode="&#x2013;" horiz-adv-x="913" d="M188 534l44 205h765l-43 -205h-766z" />
<glyph unicode="&#x2014;" horiz-adv-x="1253" d="M188 534l44 205h1105l-43 -205h-1106z" />
<glyph unicode="&#x2018;" horiz-adv-x="350" d="M292 1131l43 202l101 171h154l-100 -169h97l-43 -204h-252z" />
<glyph unicode="&#x2019;" horiz-adv-x="350" d="M326 1131l99 169h-97l44 204h251l-43 -203l-101 -170h-153z" />
<glyph unicode="&#x201a;" horiz-adv-x="350" d="M50 -168l99 169h-97l44 204h251l-43 -203l-101 -170h-153z" />
<glyph unicode="&#x201c;" horiz-adv-x="688" d="M292 1131l43 202l101 171h154l-100 -169h97l-43 -204h-252zM626 1131l43 202l101 171h153l-99 -169h97l-43 -204h-252z" />
<glyph unicode="&#x201d;" horiz-adv-x="688" d="M326 1131l99 169h-97l44 204h251l-43 -203l-101 -170h-153zM660 1131l99 169h-97l43 204h252l-43 -203l-101 -170h-153z" />
<glyph unicode="&#x201e;" horiz-adv-x="688" d="M50 -168l100 168h-97l43 204h251l-43 -202l-100 -170h-154zM384 -168l100 168h-98l44 204h251l-43 -202l-101 -170h-153z" />
<glyph unicode="&#x2022;" horiz-adv-x="407" d="M162 486l51 239h291l-51 -239h-291z" />
<glyph unicode="&#x2026;" horiz-adv-x="1169" d="M64 0l44 204h251l-43 -204h-252zM460 0l43 204h252l-44 -204h-251zM855 0l44 204h251l-43 -204h-252z" />
<glyph unicode="&#x202f;" horiz-adv-x="402" />
<glyph unicode="&#x2039;" horiz-adv-x="495" d="M157 452l252 484h216l-269 -483l70 -453h-216z" />
<glyph unicode="&#x203a;" horiz-adv-x="495" d="M70 0l263 453l-64 483h216l47 -484l-246 -452h-216z" />
<glyph unicode="&#x205f;" horiz-adv-x="502" />
<glyph unicode="&#x20ac;" horiz-adv-x="1327" d="M200 503l27 128h124q2 31 13 86q9 43 23 86h-123l27 127h125q67 236 261 384t456 148q272 0 443 -149l-135 -166q-134 112 -333 112q-157 0 -265.5 -88.5t-158.5 -240.5h589l-27 -127h-591q-14 -43 -23 -86q-11 -55 -13 -86h443l-27 -127h-441q-2 -32 -2 -47 q0 -130 71.5 -203.5t214.5 -73.5q200 0 382 113l64 -166q-235 -150 -507 -150q-235 0 -366 121t-131 321q0 41 6 84h-126z" />
<glyph unicode="&#x2122;" horiz-adv-x="1771" d="M347 1282l32 152h632l-32 -152h-221l-142 -669h-191l142 669h-220zM928 613l174 821h242l89 -502l302 502h242l-175 -821h-191l108 507l-303 -507h-102l-88 507l-107 -507h-191z" />
<glyph unicode="&#xe000;" horiz-adv-x="993" d="M0 0v993h993v-993h-993z" />
<glyph unicode="&#xfb03;" horiz-adv-x="1898" d="M23 -219q34 14 59.5 29t54.5 41.5t50 68t33 95.5l164 770h-143l44 204h142l29 135q48 222 223 296q79 33 174 33q89 0 181 -28l-70 -181q-57 10 -93 10q-37 0 -73 -11q-75 -25 -95 -119l-29 -135h436l29 135q48 223 222 296q79 33 175 33q89 0 181 -28l-70 -180 q-51 9 -93 9q-38 0 -74 -11q-75 -25 -95 -119l-28 -135h462q74 0 112.5 -36.5t38.5 -106.5q0 -36 -8 -71l-165 -775h-248l149 700q3 12 3 24q0 29 -17 45.5t-49 15.5h-322l-163 -771q-15 -70 -49.5 -130.5t-73.5 -98t-85 -67t-79.5 -43.5t-61.5 -21l-95 127q34 14 59.5 29 t54.5 41.5t50.5 67.5t32.5 95l164 771h-436l-164 -771q-15 -70 -49.5 -130.5t-73.5 -98t-85 -67t-79.5 -43.5t-61.5 -21z" />
<glyph unicode="&#xfb04;" horiz-adv-x="2027" d="M23 -219q34 14 59.5 29t54.5 41.5t50 68t33 95.5l164 770h-143l44 204h142l29 135q45 211 202 286q85 41 200 41q89 0 176 -26l-70 -181q-58 9 -94 9q-46 0 -79 -13q-69 -26 -88 -116l-29 -135h436l29 135q46 218 212 291q84 36 189 36q91 0 177 -26h400l-244 -1151 q-5 -22 -5 -35q0 -71 91 -78l-34 -159h-118q-196 2 -196 168q0 34 9 74l212 1000h-183q-58 9 -96 9q-52 0 -82 -13q-65 -25 -85 -116l-29 -135h225l-44 -204h-225l-163 -771q-15 -70 -49.5 -130.5t-73.5 -98t-85 -67t-79.5 -43.5t-61.5 -21l-95 127q34 14 59.5 29t54.5 41.5 t50.5 67.5t32.5 95l164 771h-436l-164 -771q-15 -70 -49.5 -130.5t-73.5 -98t-85 -67t-79.5 -43.5t-61.5 -21z" />
</font>
</defs>
</svg>
